<svg width="120" height="120" viewBox="0 0 120 120" fill="none" xmlns="http://www.w3.org/2000/svg">
<path fill-rule="evenodd" clip-rule="evenodd" d="M37 19C48.0457 19 57 27.9543 57 39V54C57 55.6569 55.6569 57 54 57H39C27.9543 57 19 48.0457 19 37V22C19 20.3431 20.3431 19 22 19H37ZM83 19C71.9543 19 63 27.9543 63 39V54C63 55.6569 64.3431 57 66 57H81C92.0457 57 101 48.0457 101 37V22C101 20.3431 99.6569 19 98 19H83ZM57 81C57 92.0457 48.0457 101 37 101H22C20.3431 101 19 99.6569 19 98V83C19 71.9543 27.9543 63 39 63H54C55.6569 63 57 64.3431 57 66V81ZM83 101C71.9543 101 63 92.0457 63 81V66C63 64.3431 64.3431 63 66 63H81C92.0457 63 101 71.9543 101 83V98C101 99.6569 99.6569 101 98 101H83Z" fill="#4CC3FF"/>
<circle cx="30" cy="30" r="5" fill="white"/>
<circle cx="90" cy="30" r="5" fill="white"/>
<circle cx="90" cy="90" r="5" fill="white"/>
<circle cx="30" cy="90" r="5" fill="white"/>
<circle cx="60" cy="60" r="20" fill="#D1D5E0"/>
<path fill-rule="evenodd" clip-rule="evenodd" d="M57.0002 79.7764C48.3562 78.4762 41.5239 71.6439 40.2236 62.9999H54.0002C55.6571 62.9999 57.0002 64.343 57.0002 65.9999V79.7764ZM79.7766 62.9999C78.4764 71.6438 71.6441 78.4761 63.0002 79.7764V65.9999C63.0002 64.343 64.3434 62.9999 66.0002 62.9999H79.7766ZM63.0002 40.2234C71.6441 41.5237 78.4764 48.356 79.7766 56.9999H66.0002C64.3434 56.9999 63.0002 55.6567 63.0002 53.9999V40.2234ZM57.0002 40.2234V53.9999C57.0002 55.6567 55.6571 56.9999 54.0002 56.9999H40.2236C41.5239 48.3559 48.3562 41.5236 57.0002 40.2234Z" fill="#000D1A"/>
</svg>
