<svg width="120" height="120" viewBox="0 0 120 120" fill="none" xmlns="http://www.w3.org/2000/svg">
<path fill-rule="evenodd" clip-rule="evenodd" d="M60 100C82.0914 100 100 82.0914 100 60C100 37.9086 82.0914 20 60 20C37.9086 20 20 37.9086 20 60C20 65.5574 21.1333 70.8501 23.1815 75.6596C25.8126 73.3796 29.2452 72 33 72C41.2843 72 48 78.7157 48 87C48 90.7548 46.6204 94.1874 44.3404 96.8185C49.1499 98.8667 54.4426 100 60 100Z" fill="#4CC3FF"/>
<path fill-rule="evenodd" clip-rule="evenodd" d="M76.5135 64.7568C76.5135 61.0251 79.5386 58 83.2703 58C87.0019 58 90.027 61.0251 90.027 64.7568V67.4595H100.838C102.33 67.4595 103.541 68.6695 103.541 70.1622L103.541 80.9731H106.243C109.975 80.9731 113 83.9982 113 87.7299C113 91.4616 109.975 94.4867 106.243 94.4867L103.541 94.4867L103.541 105.297C103.541 106.79 102.33 108 100.838 108H65.7027C64.21 108 63 106.79 63 105.297V70.1622C63 68.6695 64.21 67.4595 65.7027 67.4595H76.5135V64.7568ZM72.4595 87.7299C72.4595 91.4616 69.4344 94.4867 65.7027 94.4867H63L63 80.9731H65.7027C69.4344 80.9731 72.4595 83.9983 72.4595 87.7299ZM83.2704 98.5405C79.5388 98.5405 76.5137 101.566 76.5137 105.297V108H90.0272L90.0272 105.297C90.0272 101.566 87.0021 98.5405 83.2704 98.5405Z" fill="#D1D5E0"/>
<path fill-rule="evenodd" clip-rule="evenodd" d="M63 99.8892V70.1622C63 68.6695 64.21 67.4595 65.7027 67.4595H76.5135V64.7568C76.5135 61.0251 79.5386 58 83.2703 58C87.0019 58 90.027 61.0251 90.027 64.7568V67.4595H99.3057C95.9917 85.0293 81.1884 98.5406 63 99.8892ZM63 94.4867H65.7027C69.4344 94.4867 72.4595 91.4616 72.4595 87.7299C72.4595 83.9983 69.4344 80.9731 65.7027 80.9731H63L63 94.4867Z" fill="#000D1A"/>
<path fill-rule="evenodd" clip-rule="evenodd" d="M37.1892 18.4054C37.1892 15.4201 34.7691 13 31.7838 13C28.7985 13 26.3784 15.4201 26.3784 18.4054V20.5676H17.7297C16.5356 20.5676 15.5676 21.5356 15.5676 22.7297V31.3785H13.4054C10.4201 31.3785 8 33.7986 8 36.7839C8 39.7692 10.4201 42.1893 13.4054 42.1893L15.5676 42.1893V50.8378C15.5676 52.032 16.5356 53 17.7297 53H45.8378C47.032 53 48 52.032 48 50.8378V22.7297C48 21.5356 47.032 20.5676 45.8378 20.5676H37.1892V18.4054ZM40.4324 36.7839C40.4324 39.7692 42.8525 42.1893 45.8378 42.1893H48L48 31.3785H45.8378C42.8525 31.3785 40.4324 33.7986 40.4324 36.7839ZM31.7837 45.4324C34.769 45.4324 37.1891 47.8525 37.1891 50.8378V53H26.3783L26.3783 50.8378C26.3783 47.8525 28.7983 45.4324 31.7837 45.4324Z" fill="#D1D5E0"/>
<path fill-rule="evenodd" clip-rule="evenodd" d="M47.8288 21.8856C33.8486 26.3463 23.2081 38.2856 20.6108 52.9999H45.8376C47.0317 52.9999 47.9998 52.0319 47.9998 50.8377V22.7296C47.9998 22.4302 47.9389 22.1449 47.8288 21.8856ZM45.8376 42.1892C42.8523 42.1892 40.4322 39.7691 40.4322 36.7838C40.4322 33.7985 42.8523 31.3784 45.8376 31.3784H47.9998V42.1892H45.8376ZM37.1888 50.8377C37.1888 47.8524 34.7688 45.4323 31.7834 45.4323C28.7981 45.4323 26.378 47.8524 26.378 50.8377L26.378 52.9999H37.1888V50.8377Z" fill="#000D1A"/>
</svg>
