<svg width="120" height="120" viewBox="0 0 120 120" fill="none" xmlns="http://www.w3.org/2000/svg">
<path d="M67.4648 80.4279L85.9364 69.757L103 99.3291L90.5645 99.1198L84.5281 110L67.4648 80.4279Z" fill="#D1D5E0"/>
<path d="M52.5347 80.4279L34.0631 69.757L16.9999 99.3291L29.435 99.1198L35.4714 110L52.5347 80.4279Z" fill="#D1D5E0"/>
<path d="M54.4326 15.395C57.5352 12.3884 62.4645 12.3884 65.5671 15.395L67.7216 17.4828C69.4959 19.2021 71.965 20.0052 74.4112 19.6586L77.3792 19.2381C81.6532 18.6325 85.6369 21.527 86.3815 25.7791L86.904 28.7626C87.3294 31.192 88.8517 33.2894 91.0296 34.4469L93.7006 35.8665C97.5072 37.8897 99.0263 42.5651 97.1357 46.4393L95.8007 49.1751C94.7201 51.3893 94.7201 53.9779 95.8007 56.1921L97.1357 58.9279C99.0263 62.8021 97.5072 67.4775 93.7006 69.5007L91.0296 70.9203C88.8517 72.0778 87.3294 74.1752 86.904 76.6046L86.3815 79.5881C85.6369 83.8401 81.6532 86.7347 77.3792 86.1291L74.4112 85.7086C71.965 85.362 69.4959 86.1651 67.7216 87.8844L65.5672 89.9722C62.4645 92.9788 57.5352 92.9788 54.4326 89.9722L52.2781 87.8844C50.5039 86.1651 48.0348 85.362 45.5886 85.7086L42.6206 86.1291C38.3465 86.7347 34.3628 83.8402 33.6182 79.5881L33.0958 76.6046C32.6704 74.1752 31.1481 72.0778 28.9702 70.9203L26.2991 69.5007C22.4925 67.4775 20.9735 62.8021 22.864 58.9279L24.1991 56.1921C25.2796 53.9779 25.2796 51.3893 24.1991 49.1751L22.864 46.4393C20.9735 42.5651 22.4925 37.8897 26.2991 35.8665L28.9702 34.4469C31.1481 33.2894 32.6704 31.192 33.0958 28.7626L33.6182 25.7791C34.3628 21.527 38.3466 18.6325 42.6206 19.2381L45.5886 19.6586C48.0348 20.0052 50.5039 19.2021 52.2781 17.4828L54.4326 15.395Z" fill="#4CC3FF"/>
<path d="M83.6611 52.6836C83.6611 65.7619 73.0659 76.3608 59.9997 76.3608C46.9336 76.3608 36.3384 65.7619 36.3384 52.6836C36.3384 39.6053 46.9336 29.0063 59.9997 29.0063C73.0659 29.0063 83.6611 39.6053 83.6611 52.6836Z" fill="#000D1A" stroke="white" stroke-width="6"/>
<path d="M60 39.8785L62.9001 48.2572L71.731 48.438L64.6924 53.797L67.2502 62.2874L60 57.2208L52.7499 62.2874L55.3076 53.797L48.269 48.438L57.1 48.2572L60 39.8785Z" fill="white"/>
</svg>
