<svg width="78" height="46" viewBox="0 0 78 46" fill="none" xmlns="http://www.w3.org/2000/svg">
<path d="M21.9805 16.7057C21.9805 17.6523 22.0843 18.4198 22.2659 18.9826C22.4734 19.5455 22.7329 20.1595 23.096 20.8246C23.2257 21.0293 23.2776 21.234 23.2776 21.413C23.2776 21.6689 23.122 21.9247 22.7847 22.1805L21.1504 23.255C20.9169 23.4085 20.6834 23.4853 20.4759 23.4853C20.2165 23.4853 19.9571 23.3573 19.6977 23.1271C19.3345 22.7434 19.0232 22.334 18.7638 21.9247C18.5043 21.4898 18.2449 21.0037 17.9596 20.4153C15.9361 22.7689 13.3938 23.9458 10.3327 23.9458C8.15355 23.9458 6.41545 23.3318 5.1443 22.1038C3.87315 20.8758 3.22461 19.2385 3.22461 17.1918C3.22461 15.0173 4.00286 13.252 5.58531 11.9217C7.16776 10.5914 9.26905 9.92623 11.9411 9.92623C12.8231 9.92623 13.731 10.003 14.6909 10.1309C15.6507 10.2588 16.6365 10.4635 17.6742 10.6937V8.82616C17.6742 6.88185 17.2591 5.52594 16.4549 4.73287C15.6248 3.93979 14.2239 3.55605 12.2264 3.55605C11.3185 3.55605 10.3845 3.65838 9.4247 3.88863C8.46485 4.11887 7.53095 4.40029 6.62299 4.75845C6.20792 4.93753 5.89662 5.03987 5.71502 5.09103C5.53343 5.1422 5.40372 5.16778 5.29995 5.16778C4.93677 5.16778 4.75518 4.91195 4.75518 4.37471V3.12113C4.75518 2.71181 4.80706 2.40481 4.93677 2.22573C5.06648 2.04665 5.29995 1.86756 5.66314 1.68848C6.5711 1.22799 7.66066 0.844241 8.93181 0.537244C10.203 0.204665 11.5519 0.0511661 12.9787 0.0511661C16.0658 0.0511661 18.3227 0.741909 19.7755 2.12339C21.2023 3.50488 21.9287 5.60269 21.9287 8.41683V16.7057H21.9805ZM11.4482 20.5944C12.3042 20.5944 13.1863 20.4409 14.1202 20.1339C15.0541 19.8269 15.8842 19.2641 16.5846 18.4966C16.9997 18.0105 17.311 17.4732 17.4667 16.8592C17.6223 16.2453 17.7261 15.5033 17.7261 14.6335V13.559C16.9738 13.3799 16.1696 13.2264 15.3394 13.1241C14.5093 13.0218 13.7051 12.9706 12.9009 12.9706C11.1628 12.9706 9.89165 13.3032 9.03557 13.9939C8.17949 14.6847 7.76443 15.6568 7.76443 16.936C7.76443 18.1384 8.07573 19.0338 8.72427 19.6478C9.34688 20.2874 10.2548 20.5944 11.4482 20.5944ZM32.2794 23.3573C31.8125 23.3573 31.5012 23.2806 31.2936 23.1015C31.0861 22.948 30.9045 22.5899 30.7489 22.1038L24.6525 2.32806C24.4969 1.8164 24.4191 1.48382 24.4191 1.30474C24.4191 0.895408 24.6266 0.66516 25.0417 0.66516H27.584C28.0769 0.66516 28.4141 0.741909 28.5957 0.920991C28.8032 1.07449 28.9589 1.43265 29.1145 1.91873L33.4728 18.8547L37.5197 1.91873C37.6494 1.40707 37.805 1.07449 38.0126 0.920991C38.2201 0.767492 38.5833 0.66516 39.0502 0.66516H41.1256C41.6185 0.66516 41.9557 0.741909 42.1633 0.920991C42.3708 1.07449 42.5524 1.43265 42.6562 1.91873L46.755 19.0594L51.2429 1.91873C51.3985 1.40707 51.5801 1.07449 51.7617 0.920991C51.9693 0.767492 52.3065 0.66516 52.7735 0.66516H55.1861C55.6011 0.66516 55.8346 0.869824 55.8346 1.30474C55.8346 1.43265 55.8087 1.56057 55.7827 1.71407C55.7568 1.86756 55.7049 2.07223 55.6011 2.35364L49.3491 22.1294C49.1935 22.641 49.0119 22.9736 48.8044 23.1271C48.5968 23.2806 48.2596 23.3829 47.8186 23.3829H45.5876C45.0947 23.3829 44.7574 23.3062 44.5499 23.1271C44.3424 22.948 44.1608 22.6154 44.057 22.1038L40.036 5.60269L36.041 22.0782C35.9113 22.5899 35.7556 22.9224 35.5481 23.1015C35.3406 23.2806 34.9774 23.3573 34.5104 23.3573H32.2794ZM65.6147 24.0481C64.2657 24.0481 62.9167 23.8946 61.6196 23.5876C60.3225 23.2806 59.3108 22.948 58.6363 22.5643C58.2212 22.334 57.9359 22.0782 57.8321 21.8479C57.7284 21.6177 57.6765 21.3619 57.6765 21.1316V19.8269C57.6765 19.2896 57.884 19.0338 58.2731 19.0338C58.4288 19.0338 58.5844 19.0594 58.7401 19.1106C58.8957 19.1617 59.1292 19.2641 59.3886 19.3664C60.2706 19.7501 61.2305 20.0571 62.2422 20.2618C63.2799 20.4665 64.2916 20.5688 65.3293 20.5688C66.9636 20.5688 68.2348 20.2874 69.1168 19.7245C69.9988 19.1617 70.4658 18.3431 70.4658 17.2942C70.4658 16.5778 70.2323 15.9894 69.7654 15.5033C69.2984 15.0173 68.4164 14.5824 67.1452 14.173L63.3837 13.0218C61.4899 12.4334 60.0891 11.5635 59.233 10.4123C58.3769 9.28666 57.9359 8.03308 57.9359 6.70276C57.9359 5.62828 58.1694 4.6817 58.6363 3.86304C59.1033 3.04439 59.7259 2.32806 60.5041 1.76523C61.2824 1.17682 62.1644 0.741909 63.2021 0.434912C64.2397 0.127915 65.3293 0 66.4707 0C67.0415 0 67.6381 0.0255831 68.2088 0.102332C68.8055 0.179082 69.3503 0.281414 69.8951 0.383746C70.4139 0.511661 70.9068 0.639577 71.3737 0.793075C71.8407 0.946574 72.2039 1.10007 72.4633 1.25357C72.8265 1.45824 73.0859 1.6629 73.2416 1.89315C73.3972 2.09781 73.475 2.37923 73.475 2.73739V3.93979C73.475 4.47704 73.2675 4.75845 72.8784 4.75845C72.6708 4.75845 72.3336 4.65612 71.8926 4.45145C70.4139 3.78629 68.7536 3.45371 66.9118 3.45371C65.4331 3.45371 64.2657 3.68396 63.4615 4.17004C62.6573 4.65612 62.2422 5.39803 62.2422 6.44693C62.2422 7.16326 62.5016 7.77726 63.0205 8.26333C63.5393 8.74941 64.4992 9.23549 65.8741 9.6704L69.5578 10.8216C71.4256 11.4101 72.7746 12.2287 73.5788 13.2776C74.383 14.3265 74.7721 15.5289 74.7721 16.8592C74.7721 17.9593 74.5386 18.9571 74.0976 19.8269C73.6307 20.6967 73.0081 21.4642 72.2039 22.0782C71.3997 22.7178 70.4398 23.1783 69.3243 23.5108C68.157 23.869 66.9377 24.0481 65.6147 24.0481Z" fill="#252F3E"/>
<path d="M64.0851 32.1571C66.8608 31.8245 72.9831 31.1082 74.0727 32.4896C75.1622 33.8455 72.8534 39.5506 71.8157 42.0833C71.5044 42.8508 72.1789 43.1578 72.8794 42.5694C77.4451 38.7831 78.6384 30.8779 77.7045 29.7267C76.7706 28.601 68.7546 27.6289 63.8775 31.0058C63.1252 31.5431 63.2549 32.2594 64.0851 32.1571Z" fill="#FF9900"/>
<path d="M38.921 45.9994C49.5831 45.9994 61.9833 42.6992 70.5182 36.4825C71.919 35.4591 70.6998 33.8986 69.2729 34.5381C59.7004 38.5291 49.2977 40.4734 39.829 40.4734C25.7945 40.4734 12.2269 36.6615 1.22757 30.3681C0.267724 29.8053 -0.458647 30.7774 0.345549 31.4938C10.5147 40.5502 23.9785 45.9994 38.921 45.9994Z" fill="#FF9900"/>
</svg>
