<svg width="120" height="120" viewBox="0 0 120 120" fill="none" xmlns="http://www.w3.org/2000/svg">
<path fill-rule="evenodd" clip-rule="evenodd" d="M29 34.2563C26.2386 34.2563 24 36.4949 24 39.2563V82.3973C24 85.1588 26.2386 87.3973 29 87.3973H93.3974C96.1588 87.3973 98.3974 85.1588 98.3974 82.3973V39.2563C98.3974 36.4949 96.1588 34.2563 93.3974 34.2563H29ZM36.7538 87.3974V100.151L49.5077 87.3974H36.7538Z" fill="#4CC3FF"/>
<path d="M104.218 18.2607C107.123 15.3553 111.834 15.3553 114.739 18.2607C117.645 21.1661 117.645 25.8767 114.739 28.7821L85.4297 58.0916L69.6476 63.3523L74.9083 47.5702L104.218 18.2607Z" fill="#D1D5E0"/>
<path fill-rule="evenodd" clip-rule="evenodd" d="M98.3972 45.1241L85.4295 58.0917L69.6475 63.3524L74.9082 47.5703L88.222 34.2565H93.3972C96.1586 34.2565 98.3972 36.495 98.3972 39.2565V45.1241Z" fill="#000D1A"/>
<rect x="36.7539" y="47.0103" width="28.6961" height="4.25128" fill="white"/>
<rect x="36.7539" y="58.7013" width="20.1936" height="4.25128" fill="white"/>
<rect x="36.7539" y="70.3922" width="44.6384" height="4.25128" fill="white"/>
</svg>
