<svg width="120" height="120" viewBox="0 0 120 120" fill="none" xmlns="http://www.w3.org/2000/svg">
<circle cx="59.9998" cy="34" r="17" fill="#D1D5E0"/>
<circle cx="26" cy="40" r="11" fill="#D1D5E0"/>
<circle cx="94" cy="40" r="11" fill="#D1D5E0"/>
<path d="M33 84C33 69.0883 45.0883 57 60 57C74.9117 57 87 69.0883 87 84V100.125C87 101.713 85.7128 103 84.125 103H35.875C34.2872 103 33 101.713 33 100.125V84Z" fill="#4CC3FF"/>
<path d="M60 70L62.7193 77.8519L71 78.0213L64.4 83.0434L66.7984 91L60 86.2519L53.2016 91L55.6 83.0434L49 78.0213L57.2807 77.8519L60 70Z" fill="white"/>
<path d="M10 73C10 64.1634 17.1634 57 26 57C34.8366 57 42 64.1634 42 73V95.0952C42 96.1472 41.1472 97 40.0952 97H11.9048C10.8528 97 10 96.1472 10 95.0952V73Z" fill="#4CC3FF"/>
<path d="M40.2078 65.6348C41.3529 67.8393 42 70.344 42 72.9998V95.0951C42 96.147 41.1472 96.9998 40.0952 96.9998H33V83.9998C33 76.907 35.735 70.453 40.2078 65.6348Z" fill="#000D1A"/>
<path d="M78 73C78 64.1634 85.1634 57 94 57C102.837 57 110 64.1634 110 73V95.0952C110 96.1472 109.147 97 108.095 97H79.9048C78.8528 97 78 96.1472 78 95.0952V73Z" fill="#4CC3FF"/>
<path d="M79.7922 65.6348C84.265 70.453 87 76.907 87 83.9998V96.9998H79.9048C78.8528 96.9998 78 96.147 78 95.0951V72.9998C78 70.344 78.6471 67.8393 79.7922 65.6348Z" fill="#000D1A"/>
<path d="M26 65L27.4833 69.1129L32 69.2016L28.4 71.8323L29.7082 76L26 73.5129L22.2918 76L23.6 71.8323L20 69.2016L24.5167 69.1129L26 65Z" fill="white"/>
<path d="M94 65L95.4833 69.1129L100 69.2016L96.4 71.8323L97.7082 76L94 73.5129L90.2918 76L91.6 71.8323L88 69.2016L92.5167 69.1129L94 65Z" fill="white"/>
</svg>
