<svg width="82" height="58" viewBox="0 0 82 58" fill="none" xmlns="http://www.w3.org/2000/svg">
<path d="M37.6956 7.64834H44.9215C45.2638 7.64834 45.5681 7.38591 45.5681 7.01099V0.637367C45.5681 0.299938 45.2638 0 44.9215 0H37.6956C37.3533 0 37.0491 0.262447 37.0491 0.637367V7.01099C37.0491 7.34841 37.3533 7.64834 37.6956 7.64834Z" fill="#0091E2"/>
<path d="M24.7631 16.7965H17.5372C17.1949 16.7965 16.9287 16.4966 16.8906 16.1591V9.78552C16.8906 9.4106 17.1949 9.14815 17.5372 9.14815H24.7631C25.1434 9.14815 25.4096 9.44809 25.4096 9.78552V16.1591C25.4096 16.4966 25.1053 16.7965 24.7631 16.7965Z" fill="#0091E2"/>
<path d="M74.5079 20.2082C78.9195 20.2082 80.9732 21.7453 81.2013 21.9328L82 22.4952L81.6577 23.47C81.0872 24.8197 80.2886 26.0194 79.2237 26.9942C77.6264 28.5689 74.7361 30.406 70.0582 30.406H69.2976C67.4341 35.1299 64.886 40.4538 60.5885 45.2153C58.0404 48.0646 55.0359 50.5016 51.6892 52.4137C47.6199 54.7007 43.2083 56.2754 38.6065 57.1002C35.2978 57.7001 31.9511 58 28.6043 58C21.1883 58 14.6089 56.6128 10.5776 54.1758C7.00268 52.0013 4.22641 48.4396 2.36289 43.6406C0.727552 39.254 -0.071101 34.6051 0.00496407 29.9561C0.00496407 28.5689 1.14589 27.4441 2.55304 27.4441H56.5572C57.2418 27.4066 60.5124 27.1442 62.5281 26.0194C60.8547 23.395 60.3603 20.3207 61.159 17.0589C61.5773 15.3717 62.2999 13.7221 63.2507 12.2599L64.0113 11.1726L65.1903 11.8475C65.2029 11.8574 65.2359 11.8789 65.2868 11.9121C66.0037 12.3786 70.2659 15.1524 71.047 20.5081C72.188 20.3207 73.3669 20.2082 74.5079 20.2082Z" fill="#0091E2"/>
<path d="M14.7982 25.9069H7.57231C7.23003 25.9069 6.96381 25.6445 6.92578 25.2696V18.8959C6.92578 18.521 7.23003 18.2586 7.57231 18.2586H14.7982C15.1785 18.2586 15.4447 18.5585 15.4447 18.8959V25.2696C15.4447 25.6445 15.1405 25.9069 14.7982 25.9069Z" fill="#0091E2"/>
<path d="M17.5372 25.9069H24.7631C25.1053 25.9069 25.4096 25.6445 25.4096 25.2696V18.8959C25.4096 18.5585 25.1434 18.2586 24.7631 18.2586H17.5372C17.1949 18.2586 16.8906 18.521 16.8906 18.8959V25.2696C16.9287 25.6445 17.1949 25.9069 17.5372 25.9069Z" fill="#0091E2"/>
<path d="M34.9193 25.9069H27.6934C27.3131 25.9069 27.0469 25.6445 27.0469 25.2696V18.8959C27.0469 18.521 27.3511 18.2586 27.6934 18.2586H34.9193C35.2996 18.2586 35.5658 18.5585 35.5658 18.8959V25.2696C35.5658 25.6445 35.2616 25.9069 34.9193 25.9069Z" fill="#0091E2"/>
<path d="M37.6954 25.9069H44.9213C45.2635 25.9069 45.5678 25.6445 45.5678 25.2696V18.8959C45.5678 18.5585 45.3016 18.2586 44.9213 18.2586H37.6954C37.3531 18.2586 37.0488 18.521 37.0488 18.8959V25.2696C37.0488 25.6445 37.3531 25.9069 37.6954 25.9069Z" fill="#0091E2"/>
<path d="M27.6934 16.7965H34.9193C35.2616 16.7965 35.5658 16.4966 35.5658 16.1591V9.78552C35.5658 9.44809 35.2996 9.14815 34.9193 9.14815H27.6934C27.3511 9.14815 27.0469 9.4106 27.0469 9.78552V16.1591C27.0469 16.4966 27.3131 16.7965 27.6934 16.7965Z" fill="#0091E2"/>
<path d="M44.9213 16.7965H37.6954C37.3531 16.7965 37.0488 16.4966 37.0488 16.1591V9.78552C37.0488 9.4106 37.3531 9.14815 37.6954 9.14815H44.9213C45.2635 9.14815 45.5678 9.44809 45.5678 9.78552V16.1591C45.5678 16.4966 45.2635 16.7965 44.9213 16.7965Z" fill="#0091E2"/>
<path d="M54.9974 25.9069H47.7715C47.4292 25.9069 47.163 25.6445 47.125 25.2696V18.8959C47.125 18.521 47.4292 18.2586 47.7715 18.2586H54.9974C55.3777 18.2586 55.644 18.5585 55.644 18.8959V25.2696C55.644 25.6445 55.3397 25.9069 54.9974 25.9069Z" fill="#0091E2"/>
</svg>
