<?xml version="1.0" encoding="utf-8"?>
<!-- Generator: Adobe Illustrator 24.1.0, SVG Export Plug-In . SVG Version: 6.00 Build 0)  -->
<svg version="1.1" id="Ebene_1" xmlns="http://www.w3.org/2000/svg" xmlns:xlink="http://www.w3.org/1999/xlink" x="0px" y="0px"
	 viewBox="0 0 554.28 118.2" style="enable-background:new 0 0 554.28 118.2;" xml:space="preserve">
<style type="text/css">
	.st0{fill:#E5261F;}
</style>
<g>
	<path class="st0" d="M348.24,33c0,3.46-0.28,6.92-0.82,10.64l-6.3,43.37h-19.6l7.4-45.41c0.28-1.93,0.67-3.61,0.41-5.39
		c-1.39-9.47-15.47-8.62-21.14-6.54L299,87.01h-19.46l11.57-69.94c0,0,32.82-1.33,38.47-1.33C341.33,15.75,348.24,22.23,348.24,33"
		/>
	<path class="st0" d="M240.8,14.52c18.79,0,30.52,12.01,30.52,31.07c0,25.96-15.05,42.8-37.97,42.8
		c-18.92,0-30.52-11.87-30.52-31.33C202.83,31.36,217.88,14.52,240.8,14.52 M247.02,65.87c2.9-7.17,4.42-16.14,4.42-24.85
		c0-9.8-3.74-14.77-11.32-14.77c-5.93,0-10.22,3.46-12.98,10.78c-2.9,7.17-4.41,16.14-4.41,24.71c0,9.94,3.86,14.91,11.31,14.91
		C240.11,76.65,244.12,73.33,247.02,65.87"/>
	<path class="st0" d="M196.07,15.2l-12.01,75.81c-2.9,18.92-13.4,27.19-34.11,27.19c-7.18,0-15.33-1.25-28.59-4.41l1.79-11.19
		c8.57,1.51,14.93,2.21,21.41,2.21c13.94,0,18.37-3.6,20.44-16.72l1.09-6.9c-0.82,0.42-1.37,0.7-1.79,0.97
		c-9.24,4.97-12.42,6.09-17.53,6.09c-12.84,0-20.58-10.64-20.58-28.33c0-25.94,16.43-45.14,38.81-45.14
		C169.97,14.8,196.07,15.2,196.07,15.2 M167.76,71.26l6.76-43.48c-1.93-0.28-3.59-0.42-5.11-0.42c-8.55,0-14.09,3.04-18.23,10.08
		c-3.16,5.39-5.1,13.4-5.1,21.12c0,10.08,3.59,14.91,11.45,14.91C160.16,73.47,163.47,72.79,167.76,71.26"/>
	<path class="st0" d="M124.57,16.45l-2.62,16.58c-5.11-2.21-8.99-3.18-13.12-3.18c-3.88,0-8.01,0.97-11.61,2.62l-8.69,54.54H69.06
		l11.32-71.25h19.06l-1.1,6.62c9.39-5.94,13.54-7.73,18.37-7.73C119.6,14.66,122.35,15.2,124.57,16.45"/>
	<path class="st0" d="M41.43,14.66c14.35,0,22.36,6.2,22.36,17.26c0,16.42-12.98,24.57-39.08,24.57h-4.83
		c-0.14,1.11-0.14,1.79-0.14,2.76c0,11.19,5.11,16.3,16.58,16.3c5.66,0,9.38-0.42,18.49-2.21L53.3,83.7
		C42.8,87.01,37,88.1,30.1,88.1C10.63,88.1,0,77.88,0,59.11C0,32.74,16.84,14.66,41.43,14.66 M45.43,32.33
		c0-4.55-2.63-7.04-7.6-7.04c-8.84,0-15.05,7.75-16.84,20.85h1.93C37.69,45.99,45.43,41.16,45.43,32.33"/>
	<path class="st0" d="M544.63,90.5c-0.87-0.92-1.3-2.21-1.3-3.89c0-1.67,0.43-2.97,1.3-3.89c0.87-0.92,2.02-1.38,3.45-1.38
		c1.43,0,2.59,0.46,3.48,1.38c0.89,0.92,1.33,2.21,1.33,3.89c0,1.67-0.44,2.97-1.33,3.89c-0.89,0.92-2.05,1.38-3.48,1.38
		C546.65,91.88,545.5,91.42,544.63,90.5 M550.51,92.63c0.76-0.3,1.41-0.73,1.97-1.29c0.55-0.55,0.99-1.23,1.32-2.03
		c0.32-0.8,0.48-1.7,0.48-2.71c0-0.99-0.15-1.89-0.44-2.69c-0.29-0.81-0.71-1.49-1.26-2.04c-0.54-0.55-1.2-0.98-1.95-1.29
		s-1.6-0.45-2.53-0.45c-0.85,0-1.65,0.15-2.4,0.45c-0.76,0.3-1.41,0.73-1.97,1.29c-0.55,0.56-0.99,1.24-1.32,2.04
		c-0.32,0.81-0.48,1.7-0.48,2.69c0,1.01,0.15,1.91,0.45,2.71c0.3,0.8,0.73,1.47,1.27,2.03c0.54,0.56,1.19,0.98,1.95,1.29
		c0.76,0.3,1.59,0.45,2.49,0.45C548.95,93.08,549.76,92.93,550.51,92.63 M547.02,86.19v-1.75h0.97c0.59,0,0.96,0.07,1.13,0.23
		c0.17,0.15,0.26,0.34,0.26,0.56c0,0.26-0.07,0.49-0.2,0.68c-0.13,0.19-0.47,0.29-1.01,0.29H547.02z M545.78,89.55h1.24v-2.3h1.36
		l1.15,2.3h1.36l-1.33-2.57c0.4-0.16,0.68-0.37,0.83-0.62s0.23-0.6,0.23-1.04c0-0.24-0.03-0.47-0.09-0.7
		c-0.06-0.22-0.19-0.42-0.38-0.59c-0.19-0.17-0.45-0.31-0.79-0.42s-0.77-0.17-1.32-0.17h-2.27V89.55z M528.27,92.87
		c0.1-1.27,0.48-2.28,1.15-3.04c0.66-0.76,1.63-1.13,2.9-1.13c1.33,0,2.3,0.37,2.9,1.12c0.6,0.75,0.91,1.76,0.91,3.06H528.27z
		 M535.95,97.62c-0.18,0.79-0.54,1.39-1.09,1.82c-0.54,0.42-1.36,0.64-2.45,0.64c-1.39,0-2.43-0.44-3.11-1.33s-1.05-2.05-1.09-3.48
		h11.28v-1.51c0-1.15-0.14-2.19-0.42-3.13c-0.28-0.94-0.72-1.74-1.3-2.42c-0.58-0.68-1.32-1.2-2.21-1.57
		c-0.89-0.37-1.93-0.56-3.14-0.56c-1.13,0-2.16,0.19-3.1,0.56c-0.94,0.37-1.74,0.92-2.42,1.63c-0.68,0.72-1.2,1.6-1.57,2.65
		c-0.37,1.05-0.56,2.25-0.56,3.6c0,2.62,0.65,4.65,1.95,6.09c1.3,1.44,3.2,2.16,5.7,2.16c2.08,0,3.67-0.45,4.78-1.35
		c1.11-0.9,1.8-2.16,2.09-3.79H535.95z M514.18,86.55v15.72h3.42v-9.22c0-0.44,0.09-0.88,0.26-1.31c0.17-0.43,0.42-0.82,0.76-1.17
		c0.33-0.34,0.74-0.62,1.22-0.83c0.48-0.21,1.05-0.32,1.69-0.32c0.28,0,0.55,0.01,0.82,0.03c0.26,0.02,0.5,0.06,0.73,0.12l0.39-3.15
		c-0.22-0.04-0.45-0.07-0.68-0.09c-0.23-0.02-0.52-0.03-0.86-0.03c-0.87,0-1.68,0.22-2.45,0.67s-1.42,1.08-1.97,1.9v-2.33H514.18z
		 M507.1,102.28h3.3v-9.83c0-0.93-0.1-1.78-0.29-2.56c-0.19-0.78-0.53-1.45-1.01-2.01c-0.48-0.56-1.13-1.01-1.95-1.33
		c-0.82-0.32-1.85-0.48-3.1-0.48c-1.93,0-3.46,0.35-4.57,1.06c-1.11,0.71-1.8,1.82-2.09,3.36l3.15,0.33
		c0.16-0.68,0.5-1.21,1.01-1.57c0.51-0.36,1.3-0.54,2.37-0.54c0.93,0,1.68,0.23,2.25,0.68c0.58,0.45,0.86,1.28,0.86,2.46v0.67
		l-2.33,0.12c-0.97,0.04-1.94,0.14-2.9,0.29c-0.97,0.15-1.84,0.42-2.61,0.8c-0.78,0.38-1.41,0.91-1.89,1.59
		c-0.48,0.68-0.73,1.56-0.73,2.65c0,0.81,0.14,1.51,0.41,2.1c0.27,0.59,0.64,1.08,1.12,1.47c0.47,0.38,1.03,0.67,1.68,0.86
		s1.34,0.29,2.09,0.29c1.21,0,2.24-0.23,3.08-0.69c0.85-0.46,1.56-1.05,2.15-1.75V102.28z M507.04,94.84v0.91
		c0,1.31-0.36,2.35-1.09,3.11c-0.73,0.77-1.84,1.15-3.36,1.15c-0.85,0-1.49-0.19-1.92-0.57c-0.43-0.38-0.65-0.92-0.65-1.6
		c0-0.38,0.05-0.74,0.17-1.07c0.11-0.33,0.34-0.62,0.68-0.88c0.34-0.25,0.83-0.46,1.47-0.62c0.64-0.16,1.47-0.27,2.49-0.33
		L507.04,94.84z M473.05,86.55l4.57,15.72h3.39l3.2-11.43l3.17,11.43h3.42l4.6-15.72h-3.6l-2.66,11.49l-3.2-11.37h-3.14l-3.33,11.37
		l-2.66-11.49H473.05z M464.16,89.27v7.92c0,1.79,0.34,3.14,1.03,4.04c0.68,0.9,1.89,1.35,3.63,1.35c1.13,0,2.18-0.16,3.14-0.48
		l-0.51-2.57c-0.3,0.1-0.61,0.17-0.92,0.21c-0.31,0.04-0.64,0.06-0.98,0.06c-0.64,0-1.13-0.18-1.47-0.54
		c-0.33-0.36-0.5-0.95-0.5-1.75v-8.22h3.9v-2.72h-3.9v-4.23h-3.42v4.23h-2.48v2.72H464.16z M452.97,102.28h3.45v-13h3.81v-2.72
		h-3.81v-1c0-0.79,0.2-1.38,0.61-1.78c0.4-0.4,0.98-0.61,1.72-0.61c0.6,0,1.21,0.09,1.81,0.27l0.51-2.57
		c-0.91-0.28-1.9-0.42-2.96-0.42c-1.61,0-2.87,0.45-3.78,1.36c-0.91,0.91-1.36,2.19-1.36,3.84v0.91h-2.45v2.72h2.45V102.28z
		 M443.93,102.22c0.95-0.36,1.77-0.9,2.46-1.62c0.7-0.72,1.23-1.59,1.62-2.63c0.38-1.04,0.57-2.24,0.57-3.61
		c0-1.21-0.17-2.32-0.5-3.34c-0.33-1.02-0.83-1.89-1.48-2.62c-0.66-0.73-1.47-1.29-2.44-1.71c-0.97-0.41-2.08-0.62-3.33-0.62
		c-1.23,0-2.33,0.2-3.3,0.6c-0.97,0.4-1.78,0.97-2.45,1.69c-0.67,0.73-1.17,1.6-1.53,2.63c-0.35,1.03-0.53,2.17-0.53,3.42
		c0,2.66,0.68,4.72,2.03,6.17c1.35,1.45,3.26,2.18,5.71,2.18C441.94,102.76,442.99,102.58,443.93,102.22 M437.6,98.47
		c-0.65-1.01-0.98-2.37-0.98-4.08c0-1.69,0.34-3.04,1.01-4.04c0.68-1,1.74-1.5,3.19-1.5c1.45,0,2.51,0.49,3.19,1.48
		c0.67,0.99,1.01,2.34,1.01,4.05c0,1.73-0.34,3.1-1.01,4.1c-0.68,1-1.74,1.5-3.19,1.5C439.33,99.98,438.25,99.48,437.6,98.47
		 M416.93,97.47c0.06,1.03,0.3,1.88,0.71,2.56c0.41,0.68,0.95,1.22,1.62,1.62c0.67,0.4,1.42,0.69,2.25,0.86
		c0.84,0.17,1.71,0.26,2.62,0.26c2.22,0,3.87-0.44,4.96-1.31c1.09-0.88,1.63-2.03,1.63-3.46c0-0.67-0.08-1.27-0.24-1.81
		c-0.16-0.55-0.45-1.02-0.86-1.44c-0.41-0.41-0.97-0.76-1.66-1.04c-0.69-0.28-1.57-0.51-2.61-0.7l-1.97-0.33
		c-0.54-0.1-1-0.2-1.36-0.3c-0.36-0.1-0.65-0.22-0.86-0.36c-0.21-0.14-0.36-0.32-0.44-0.54c-0.08-0.22-0.12-0.5-0.12-0.85
		c0-0.22,0.04-0.44,0.14-0.67c0.09-0.22,0.26-0.42,0.51-0.61c0.25-0.18,0.59-0.33,1.01-0.45c0.42-0.12,0.97-0.18,1.63-0.18
		c1.15,0,1.97,0.19,2.46,0.57c0.49,0.38,0.86,0.97,1.1,1.75l3.08-0.42c-0.14-0.61-0.34-1.18-0.6-1.72s-0.65-1.03-1.15-1.45
		c-0.5-0.42-1.16-0.76-1.97-1c-0.81-0.24-1.81-0.36-3.02-0.36c-0.95,0-1.82,0.11-2.61,0.33c-0.8,0.22-1.48,0.54-2.06,0.95
		c-0.57,0.41-1.02,0.92-1.35,1.51c-0.32,0.6-0.48,1.25-0.48,1.98c0,0.95,0.16,1.7,0.48,2.25c0.32,0.56,0.81,1.01,1.45,1.36
		c0.65,0.35,1.44,0.63,2.39,0.83c0.95,0.2,2.05,0.41,3.3,0.64c0.97,0.16,1.61,0.42,1.92,0.79c0.31,0.36,0.47,0.81,0.47,1.33
		c0,0.67-0.25,1.17-0.76,1.51c-0.5,0.34-1.33,0.51-2.48,0.51c-0.51,0-0.98-0.04-1.42-0.11c-0.44-0.07-0.83-0.21-1.16-0.41
		c-0.33-0.2-0.61-0.47-0.83-0.8c-0.22-0.33-0.36-0.76-0.42-1.29H416.93z"/>
	<path class="st0" d="M490.17,62.39v7.92c0,1.79,0.34,3.14,1.03,4.04c0.68,0.9,1.89,1.35,3.63,1.35c1.13,0,2.18-0.16,3.14-0.48
		l-0.51-2.57c-0.3,0.1-0.61,0.17-0.92,0.21c-0.31,0.04-0.64,0.06-0.98,0.06c-0.64,0-1.13-0.18-1.47-0.54
		c-0.33-0.36-0.5-0.95-0.5-1.75v-8.22h3.9v-2.72h-3.9v-4.23h-3.42v4.23h-2.48v2.72H490.17z M476.74,59.67V75.4h3.42v-9.22
		c0-0.44,0.08-0.88,0.26-1.32c0.17-0.43,0.42-0.82,0.76-1.16c0.33-0.34,0.74-0.62,1.22-0.83c0.48-0.21,1.05-0.32,1.69-0.32
		c0.28,0,0.55,0.01,0.82,0.03c0.26,0.02,0.5,0.06,0.73,0.12l0.39-3.15c-0.22-0.04-0.45-0.07-0.68-0.09
		c-0.23-0.02-0.52-0.03-0.86-0.03c-0.87,0-1.68,0.22-2.45,0.67c-0.77,0.44-1.42,1.08-1.96,1.91v-2.33H476.74z M469.67,75.4h3.3
		v-9.83c0-0.93-0.1-1.78-0.29-2.56c-0.19-0.78-0.53-1.45-1.01-2.01c-0.48-0.56-1.13-1.01-1.95-1.33c-0.82-0.32-1.85-0.48-3.1-0.48
		c-1.93,0-3.46,0.35-4.57,1.06c-1.11,0.71-1.8,1.83-2.09,3.36l3.15,0.33c0.16-0.68,0.5-1.21,1.01-1.57c0.51-0.36,1.3-0.55,2.37-0.55
		c0.93,0,1.68,0.23,2.25,0.68c0.58,0.45,0.86,1.27,0.86,2.46v0.67l-2.33,0.12c-0.97,0.04-1.93,0.14-2.9,0.29
		c-0.97,0.15-1.84,0.42-2.61,0.8c-0.78,0.38-1.41,0.91-1.89,1.59c-0.48,0.68-0.73,1.56-0.73,2.65c0,0.81,0.14,1.51,0.41,2.1
		c0.27,0.59,0.64,1.08,1.12,1.47c0.47,0.38,1.03,0.67,1.68,0.86s1.34,0.29,2.09,0.29c1.21,0,2.24-0.23,3.08-0.69
		c0.85-0.46,1.56-1.05,2.15-1.75V75.4z M469.61,67.96v0.91c0,1.31-0.36,2.35-1.09,3.11c-0.73,0.77-1.84,1.15-3.36,1.15
		c-0.85,0-1.49-0.19-1.92-0.57c-0.43-0.38-0.65-0.92-0.65-1.6c0-0.38,0.06-0.74,0.17-1.07c0.11-0.33,0.34-0.62,0.68-0.88
		c0.34-0.25,0.83-0.46,1.47-0.62c0.64-0.16,1.47-0.27,2.49-0.33L469.61,67.96z M433.89,59.67V75.4h3.42v-9.4
		c0-0.73,0.14-1.34,0.42-1.85c0.28-0.5,0.62-0.91,1.01-1.21c0.39-0.3,0.8-0.52,1.23-0.65c0.42-0.13,0.79-0.2,1.09-0.2
		c0.73,0,1.3,0.25,1.71,0.76c0.41,0.5,0.62,1.43,0.62,2.78v9.77h3.45v-9.46c0-0.48,0.08-0.95,0.24-1.41
		c0.16-0.45,0.4-0.86,0.71-1.22c0.31-0.36,0.7-0.65,1.16-0.88c0.46-0.22,1-0.33,1.6-0.33c0.38,0,0.73,0.06,1.03,0.17
		s0.55,0.31,0.74,0.6c0.19,0.29,0.34,0.69,0.44,1.19c0.1,0.5,0.15,1.14,0.15,1.9v9.43h3.45V65.03c0-2.04-0.39-3.52-1.18-4.44
		c-0.79-0.93-2.02-1.39-3.69-1.39c-2.04,0-3.75,0.95-5.14,2.84c-0.3-0.85-0.79-1.52-1.45-2.01c-0.67-0.49-1.53-0.76-2.6-0.8
		c-0.42,0-0.83,0.03-1.21,0.09c-1.49,0.24-2.78,1.12-3.87,2.63v-2.27H433.89z M416.93,70.59c0.06,1.03,0.3,1.88,0.71,2.56
		c0.41,0.68,0.95,1.21,1.62,1.62c0.67,0.4,1.42,0.69,2.25,0.86c0.84,0.17,1.71,0.26,2.62,0.26c2.22,0,3.87-0.44,4.96-1.32
		c1.09-0.88,1.63-2.03,1.63-3.46c0-0.67-0.08-1.27-0.24-1.81c-0.16-0.54-0.45-1.02-0.86-1.44c-0.41-0.41-0.97-0.76-1.66-1.04
		c-0.69-0.28-1.57-0.51-2.61-0.7l-1.97-0.33c-0.54-0.1-1-0.2-1.36-0.3c-0.36-0.1-0.65-0.22-0.86-0.36
		c-0.21-0.14-0.36-0.32-0.44-0.54c-0.08-0.22-0.12-0.5-0.12-0.85c0-0.22,0.04-0.44,0.14-0.67c0.09-0.22,0.26-0.42,0.51-0.6
		c0.25-0.18,0.59-0.33,1.01-0.45c0.42-0.12,0.97-0.18,1.63-0.18c1.15,0,1.97,0.19,2.46,0.58c0.49,0.38,0.86,0.97,1.1,1.75l3.08-0.42
		c-0.14-0.6-0.34-1.18-0.6-1.72c-0.26-0.54-0.65-1.03-1.15-1.45c-0.5-0.42-1.16-0.76-1.97-1c-0.81-0.24-1.81-0.36-3.02-0.36
		c-0.95,0-1.82,0.11-2.61,0.33c-0.8,0.22-1.48,0.54-2.06,0.95c-0.57,0.41-1.02,0.92-1.35,1.51c-0.32,0.59-0.48,1.25-0.48,1.98
		c0,0.95,0.16,1.7,0.48,2.25c0.32,0.56,0.81,1.01,1.45,1.36c0.65,0.35,1.44,0.63,2.39,0.83c0.95,0.2,2.05,0.41,3.3,0.64
		c0.97,0.16,1.61,0.42,1.92,0.79c0.31,0.36,0.47,0.81,0.47,1.33c0,0.67-0.25,1.17-0.76,1.51c-0.5,0.34-1.33,0.51-2.48,0.51
		c-0.51,0-0.98-0.03-1.42-0.11c-0.44-0.07-0.83-0.21-1.16-0.41c-0.33-0.2-0.61-0.47-0.83-0.8c-0.22-0.33-0.36-0.76-0.42-1.29H416.93
		z"/>
	<path class="st0" d="M520.17,39.55h15.12v-3.3h-15.12V39.55z M500.81,37.43c0.1-1.27,0.48-2.28,1.15-3.04
		c0.67-0.76,1.63-1.13,2.9-1.13c1.33,0,2.3,0.37,2.9,1.12c0.61,0.75,0.91,1.76,0.91,3.05H500.81z M508.49,42.18
		c-0.18,0.79-0.55,1.39-1.09,1.81c-0.54,0.42-1.36,0.64-2.45,0.64c-1.39,0-2.43-0.44-3.12-1.33c-0.69-0.89-1.05-2.05-1.09-3.48
		h11.28v-1.51c0-1.15-0.14-2.19-0.42-3.13c-0.28-0.94-0.72-1.74-1.3-2.42c-0.58-0.67-1.32-1.2-2.21-1.57
		c-0.89-0.37-1.94-0.56-3.14-0.56c-1.13,0-2.16,0.19-3.1,0.56c-0.94,0.37-1.74,0.92-2.42,1.63c-0.68,0.72-1.2,1.6-1.57,2.65
		c-0.37,1.05-0.56,2.25-0.56,3.6c0,2.62,0.65,4.65,1.95,6.09c1.3,1.44,3.2,2.16,5.7,2.16c2.08,0,3.67-0.45,4.78-1.35
		c1.11-0.9,1.8-2.16,2.09-3.8H508.49z M490.44,46.84h3.45V25.25h-3.45V46.84z M475.35,38.49c0-1.73,0.4-3,1.19-3.81
		c0.8-0.81,1.81-1.21,3.04-1.21c0.5,0,0.99,0.09,1.45,0.27c0.46,0.18,0.87,0.49,1.22,0.92c0.35,0.43,0.64,1,0.85,1.69
		c0.21,0.7,0.32,1.56,0.32,2.59c0,1.01-0.1,1.86-0.3,2.57c-0.2,0.71-0.48,1.28-0.85,1.72c-0.36,0.44-0.79,0.77-1.27,0.97
		c-0.48,0.2-1.01,0.3-1.57,0.3c-0.54,0-1.06-0.08-1.56-0.24c-0.49-0.16-0.93-0.44-1.3-0.85c-0.37-0.4-0.67-0.94-0.89-1.62
		c-0.22-0.67-0.33-1.53-0.33-2.55V38.49z M471.93,52.7h3.45v-7.65c0.7,0.87,1.46,1.46,2.27,1.78c0.81,0.32,1.63,0.48,2.48,0.48
		c1.07,0,2.03-0.2,2.87-0.59c0.85-0.39,1.57-0.96,2.16-1.69c0.59-0.74,1.05-1.62,1.38-2.66c0.32-1.04,0.48-2.19,0.48-3.46
		c0-1.25-0.14-2.38-0.41-3.4c-0.27-1.02-0.69-1.89-1.24-2.62c-0.55-0.73-1.24-1.28-2.07-1.68c-0.83-0.39-1.8-0.59-2.9-0.59
		c-1.09,0-2.05,0.23-2.89,0.68c-0.84,0.45-1.58,1.11-2.22,1.98v-2.18h-3.36V52.7z M463.89,46.78c0.95-0.36,1.77-0.9,2.46-1.62
		c0.7-0.71,1.24-1.59,1.62-2.63c0.38-1.04,0.57-2.24,0.57-3.61c0-1.21-0.17-2.32-0.5-3.34c-0.33-1.02-0.83-1.89-1.48-2.62
		c-0.65-0.73-1.47-1.3-2.43-1.71c-0.97-0.41-2.08-0.62-3.33-0.62c-1.23,0-2.33,0.2-3.3,0.61c-0.97,0.4-1.78,0.97-2.45,1.69
		c-0.67,0.73-1.17,1.6-1.53,2.63c-0.35,1.03-0.53,2.17-0.53,3.42c0,2.66,0.68,4.72,2.03,6.17c1.35,1.45,3.26,2.18,5.71,2.18
		C461.89,47.32,462.94,47.14,463.89,46.78 M457.56,43.03c-0.66-1.01-0.98-2.37-0.98-4.08c0-1.69,0.34-3.04,1.01-4.04
		c0.67-1,1.74-1.5,3.19-1.5c1.45,0,2.52,0.49,3.19,1.48c0.68,0.99,1.01,2.34,1.01,4.05c0,1.73-0.34,3.1-1.01,4.1
		c-0.67,1-1.74,1.5-3.19,1.5C459.28,44.54,458.21,44.04,457.56,43.03 M438.97,37.43c0.1-1.27,0.48-2.28,1.15-3.04
		c0.67-0.76,1.63-1.13,2.9-1.13c1.33,0,2.3,0.37,2.9,1.12c0.6,0.75,0.91,1.76,0.91,3.05H438.97z M446.65,42.18
		c-0.18,0.79-0.54,1.39-1.09,1.81c-0.54,0.42-1.36,0.64-2.45,0.64c-1.39,0-2.43-0.44-3.11-1.33c-0.69-0.89-1.05-2.05-1.09-3.48
		h11.28v-1.51c0-1.15-0.14-2.19-0.42-3.13c-0.28-0.94-0.72-1.74-1.3-2.42c-0.59-0.67-1.32-1.2-2.21-1.57
		c-0.89-0.37-1.93-0.56-3.14-0.56c-1.13,0-2.16,0.19-3.1,0.56c-0.94,0.37-1.74,0.92-2.42,1.63c-0.68,0.72-1.2,1.6-1.57,2.65
		c-0.37,1.05-0.56,2.25-0.56,3.6c0,2.62,0.65,4.65,1.95,6.09c1.3,1.44,3.2,2.16,5.7,2.16c2.08,0,3.67-0.45,4.78-1.35
		c1.11-0.9,1.8-2.16,2.09-3.8H446.65z M421.25,38.49c0-1.73,0.4-3,1.2-3.81c0.8-0.81,1.81-1.21,3.04-1.21c0.5,0,0.99,0.09,1.45,0.27
		c0.46,0.18,0.87,0.49,1.23,0.92c0.35,0.43,0.63,1,0.85,1.69c0.21,0.7,0.32,1.56,0.32,2.59c0,1.01-0.1,1.86-0.3,2.57
		c-0.2,0.71-0.48,1.28-0.85,1.72c-0.36,0.44-0.79,0.77-1.27,0.97c-0.48,0.2-1.01,0.3-1.57,0.3c-0.55,0-1.06-0.08-1.56-0.24
		c-0.49-0.16-0.93-0.44-1.3-0.85c-0.37-0.4-0.67-0.94-0.89-1.62c-0.22-0.67-0.33-1.53-0.33-2.55V38.49z M417.84,52.7h3.45v-7.65
		c0.71,0.87,1.46,1.46,2.27,1.78c0.81,0.32,1.63,0.48,2.48,0.48c1.07,0,2.03-0.2,2.87-0.59c0.85-0.39,1.57-0.96,2.16-1.69
		c0.59-0.74,1.05-1.62,1.38-2.66c0.32-1.04,0.48-2.19,0.48-3.46c0-1.25-0.14-2.38-0.41-3.4c-0.27-1.02-0.69-1.89-1.24-2.62
		c-0.55-0.73-1.24-1.28-2.07-1.68c-0.83-0.39-1.79-0.59-2.9-0.59c-1.09,0-2.05,0.23-2.89,0.68c-0.84,0.45-1.58,1.11-2.22,1.98v-2.18
		h-3.36V52.7z"/>
	<path class="st0" d="M490.17,6.95v7.92c0,1.79,0.34,3.14,1.03,4.04c0.68,0.9,1.89,1.35,3.63,1.35c1.13,0,2.18-0.16,3.14-0.48
		l-0.51-2.57c-0.3,0.1-0.61,0.17-0.92,0.21c-0.31,0.04-0.64,0.06-0.98,0.06c-0.64,0-1.13-0.18-1.47-0.54
		c-0.33-0.36-0.5-0.95-0.5-1.75V6.95h3.9V4.23h-3.9V0h-3.42v4.23h-2.48v2.72H490.17z M476.74,4.23v15.73h3.42v-9.22
		c0-0.44,0.08-0.88,0.26-1.32c0.17-0.43,0.42-0.82,0.76-1.17c0.33-0.34,0.74-0.62,1.22-0.83c0.48-0.21,1.05-0.32,1.69-0.32
		c0.28,0,0.55,0.01,0.82,0.03c0.26,0.02,0.5,0.06,0.73,0.12l0.39-3.14c-0.22-0.04-0.45-0.07-0.68-0.09
		c-0.23-0.02-0.52-0.03-0.86-0.03c-0.87,0-1.68,0.22-2.45,0.67s-1.42,1.08-1.96,1.9V4.23H476.74z M469.67,19.96h3.3v-9.83
		c0-0.93-0.1-1.78-0.29-2.56c-0.19-0.78-0.53-1.45-1.01-2.01c-0.48-0.56-1.13-1.01-1.95-1.33c-0.82-0.32-1.85-0.48-3.1-0.48
		c-1.93,0-3.46,0.35-4.57,1.06c-1.11,0.71-1.8,1.82-2.09,3.36l3.15,0.33c0.16-0.68,0.5-1.21,1.01-1.57c0.51-0.36,1.3-0.54,2.37-0.54
		c0.93,0,1.68,0.23,2.25,0.68c0.58,0.45,0.86,1.28,0.86,2.46v0.67l-2.33,0.12c-0.97,0.04-1.93,0.14-2.9,0.29
		c-0.97,0.15-1.84,0.42-2.61,0.8c-0.78,0.38-1.41,0.91-1.89,1.59c-0.48,0.68-0.73,1.56-0.73,2.65c0,0.81,0.14,1.51,0.41,2.1
		c0.27,0.59,0.64,1.08,1.12,1.47c0.47,0.38,1.03,0.67,1.68,0.86c0.64,0.19,1.34,0.29,2.09,0.29c1.21,0,2.24-0.23,3.08-0.69
		c0.85-0.46,1.56-1.05,2.15-1.75V19.96z M469.61,12.52v0.91c0,1.31-0.36,2.35-1.09,3.12c-0.73,0.77-1.84,1.15-3.36,1.15
		c-0.85,0-1.49-0.19-1.92-0.57c-0.43-0.38-0.65-0.92-0.65-1.6c0-0.38,0.06-0.74,0.17-1.07c0.11-0.33,0.34-0.62,0.68-0.88
		c0.34-0.25,0.83-0.46,1.47-0.62c0.64-0.16,1.47-0.27,2.49-0.33L469.61,12.52z M433.89,4.23v15.73h3.42v-9.4
		c0-0.73,0.14-1.34,0.42-1.85c0.28-0.5,0.62-0.91,1.01-1.21c0.39-0.3,0.8-0.52,1.23-0.65c0.42-0.13,0.79-0.2,1.09-0.2
		c0.73,0,1.3,0.25,1.71,0.76c0.41,0.5,0.62,1.43,0.62,2.78v9.77h3.45v-9.47c0-0.48,0.08-0.95,0.24-1.41
		c0.16-0.45,0.4-0.86,0.71-1.22c0.31-0.36,0.7-0.65,1.16-0.88c0.46-0.22,1-0.33,1.6-0.33c0.38,0,0.73,0.06,1.03,0.17
		s0.55,0.31,0.74,0.6c0.19,0.29,0.34,0.69,0.44,1.19c0.1,0.5,0.15,1.14,0.15,1.9v9.44h3.45V9.59c0-2.04-0.39-3.52-1.18-4.44
		c-0.79-0.93-2.02-1.39-3.69-1.39c-2.04,0-3.75,0.95-5.14,2.84c-0.3-0.85-0.79-1.52-1.45-2.01c-0.67-0.49-1.53-0.76-2.6-0.8
		c-0.42,0-0.83,0.03-1.21,0.09c-1.49,0.24-2.78,1.12-3.87,2.63V4.23H433.89z M416.93,15.15c0.06,1.03,0.3,1.88,0.71,2.56
		c0.41,0.68,0.95,1.22,1.62,1.62c0.67,0.4,1.42,0.69,2.25,0.86c0.84,0.17,1.71,0.26,2.62,0.26c2.22,0,3.87-0.44,4.96-1.31
		c1.09-0.88,1.63-2.03,1.63-3.46c0-0.67-0.08-1.27-0.24-1.81c-0.16-0.54-0.45-1.02-0.86-1.44c-0.41-0.41-0.97-0.76-1.66-1.04
		c-0.69-0.28-1.57-0.51-2.61-0.7l-1.97-0.33c-0.54-0.1-1-0.2-1.36-0.3c-0.36-0.1-0.65-0.22-0.86-0.36
		c-0.21-0.14-0.36-0.32-0.44-0.54c-0.08-0.22-0.12-0.5-0.12-0.85c0-0.22,0.04-0.44,0.14-0.67c0.09-0.22,0.26-0.42,0.51-0.6
		c0.25-0.18,0.59-0.33,1.01-0.45c0.42-0.12,0.97-0.18,1.63-0.18c1.15,0,1.97,0.19,2.46,0.57c0.49,0.38,0.86,0.97,1.1,1.75l3.08-0.42
		c-0.14-0.6-0.34-1.18-0.6-1.72s-0.65-1.03-1.15-1.45c-0.5-0.42-1.16-0.76-1.97-1c-0.81-0.24-1.81-0.36-3.02-0.36
		c-0.95,0-1.82,0.11-2.61,0.33c-0.8,0.22-1.48,0.54-2.06,0.95c-0.57,0.41-1.02,0.92-1.35,1.51c-0.32,0.6-0.48,1.25-0.48,1.98
		c0,0.95,0.16,1.7,0.48,2.25c0.32,0.56,0.81,1.01,1.45,1.36c0.65,0.35,1.44,0.63,2.39,0.83c0.95,0.2,2.05,0.41,3.3,0.63
		c0.97,0.16,1.61,0.42,1.92,0.79c0.31,0.36,0.47,0.81,0.47,1.33c0,0.67-0.25,1.17-0.76,1.51c-0.5,0.34-1.33,0.51-2.48,0.51
		c-0.51,0-0.98-0.04-1.42-0.11c-0.44-0.07-0.83-0.21-1.16-0.41c-0.33-0.2-0.61-0.47-0.83-0.8c-0.22-0.33-0.36-0.76-0.42-1.29H416.93
		z"/>
</g>
</svg>
