<svg width="70" height="56" viewBox="0 0 70 56" fill="none" xmlns="http://www.w3.org/2000/svg">
<path d="M44.4138 15.4185H46.5483L52.6326 9.37132L52.9309 6.80294C41.6069 -3.13232 24.3247 -2.05903 14.3285 9.19592C11.5511 12.3197 9.53839 16.0408 8.4375 20.0667C9.114 19.791 9.86613 19.7451 10.572 19.9414L22.7406 17.9451C22.7406 17.9451 23.3583 16.9261 23.6818 16.9888C29.0938 11.0794 38.2034 10.3903 44.4558 15.4185H44.4138Z" fill="#EA4335"/>
<path d="M61.3059 20.0668C59.9067 14.9467 57.0368 10.3445 53.0451 6.82812L44.5069 15.3142C48.1121 18.2418 50.1668 22.6561 50.0786 27.2833V28.7909C54.2762 28.7909 57.6797 32.1737 57.6797 36.3457C57.6797 40.5178 54.2762 43.9006 50.0786 43.9006H34.8762L33.3594 45.4291V54.4915L34.8762 55.9991H50.0786C60.995 56.0826 69.9155 47.3543 69.9995 36.5044C70.05 29.9143 66.7851 23.7502 61.3059 20.0668Z" fill="#4285F4"/>
<path d="M19.6579 55.904H34.8602V43.8096H19.6579C18.5738 43.8096 17.5065 43.5758 16.5191 43.1289L14.3845 43.7888L8.25824 49.8359L7.72461 51.9575C11.1575 54.5384 15.351 55.9249 19.6579 55.904Z" fill="#34A853"/>
<path d="M19.6524 16.672C8.73179 16.7347 -0.0626911 25.5841 0.000336671 36.4381C0.0381534 42.4979 2.88281 48.2026 7.71914 51.8944L16.5346 43.1326C12.7109 41.4162 11.0092 36.9393 12.7362 33.1389C14.4631 29.3386 18.9675 27.6472 22.7912 29.3636C24.4761 30.1195 25.8249 31.4643 26.5897 33.1389L35.4052 24.3772C31.6571 19.4993 25.8249 16.647 19.6524 16.672Z" fill="#FBBC05"/>
</svg>
