<svg width="120" height="120" viewBox="0 0 120 120" fill="none" xmlns="http://www.w3.org/2000/svg">
<circle cx="60" cy="60" r="40" fill="#4CC3FF"/>
<path d="M94.935 86C89.6654 86 84.605 84.2633 80.2535 80.9661C79.9927 80.8461 79.7472 80.6804 79.5341 80.4671L73.0436 74.0446V83.3997C73.0436 84.8346 71.8742 86 70.4346 86C68.9949 86 67.8256 84.8346 67.8256 83.3997V67.9229C67.792 67.2193 68.0439 66.5038 68.5822 65.9642C68.9181 65.6297 69.3213 65.4056 69.7476 65.2909C69.9665 65.2314 70.1969 65.1996 70.4346 65.1996H86.0867C87.5264 65.1996 88.6957 66.365 88.6957 67.7999C88.6957 69.2348 87.5264 70.4002 86.0867 70.4002H76.7689L82.7736 76.3434L82.795 76.3577C82.8661 76.4051 82.937 76.4524 83.0029 76.5043C86.5252 79.3179 90.6523 80.7994 94.935 80.7994C105.881 80.7994 114.782 71.4713 114.782 60C114.782 48.5287 105.876 39.2006 94.935 39.2006C90.657 39.2006 86.53 40.6821 83.0029 43.4899C82.8835 43.589 82.7478 43.6718 82.6122 43.7499L40.3407 80.5814C40.1478 80.748 39.9395 80.888 39.715 80.987C35.374 84.2681 30.3231 86 25.064 86C11.2433 86 0 74.3363 0 60C0 45.6637 11.2433 34 25.064 34C30.3336 34 35.395 35.7367 39.7456 39.0339C40.0073 39.1539 40.2519 39.3196 40.4659 39.5329L46.9564 45.9554V36.6003C46.9564 35.1654 48.1248 34 49.5654 34C51.0051 34 52.1735 35.1654 52.1735 36.6003V52.0664C52.2099 52.7734 51.9579 53.4935 51.4168 54.0358C50.8652 54.5913 50.1281 54.8456 49.4051 54.8004H33.9133C32.4727 54.8004 31.3043 53.635 31.3043 52.2001C31.3043 50.7652 32.4727 49.5998 33.9133 49.5998H43.2331L37.2264 43.6518C37.148 43.5995 37.0697 43.5471 36.9961 43.4899C33.4748 40.6821 29.3477 39.2006 25.064 39.2006C14.1236 39.2006 5.21706 48.5287 5.21706 60C5.21706 71.4713 14.1236 80.7994 25.064 80.7994C29.343 80.7994 33.469 79.3179 36.9961 76.5101C37.1165 76.411 37.2522 76.3282 37.3878 76.2501L79.6593 39.4186C79.8522 39.252 80.0605 39.112 80.285 39.013C84.626 35.7319 89.6759 34 94.935 34C108.756 34 120 45.6637 120 60C120 74.3363 108.756 86 94.935 86Z" fill="#D1D5E0"/>
<path d="M94.1831 80.7842C90.1702 80.621 86.3186 79.1529 83.0029 76.5043C82.937 76.4524 82.8661 76.4051 82.795 76.3577L82.7737 76.3434L76.7689 70.4002H86.0867C87.5264 70.4002 88.6957 69.2348 88.6957 67.7999C88.6957 66.365 87.5264 65.1996 86.0867 65.1996H70.4346C70.1969 65.1996 69.9665 65.2314 69.7476 65.2909C69.3213 65.4056 68.9181 65.6297 68.5822 65.9642C68.0439 66.5038 67.792 67.2193 67.8256 67.9229V83.3997C67.8256 84.8346 68.9949 86 70.4346 86C71.8743 86 73.0436 84.8346 73.0436 83.3997V74.0446L79.5341 80.4671C79.7472 80.6804 79.9927 80.8461 80.2535 80.9661C83.4287 83.372 86.9814 84.947 90.7173 85.6228C91.9876 84.1016 93.147 82.4846 94.1831 80.7842Z" fill="black"/>
<path d="M29.2826 34.3774C28.0124 35.8985 26.853 37.5155 25.8169 39.2159C29.8303 39.3791 33.6815 40.847 36.9961 43.4899C37.0697 43.5471 37.148 43.5994 37.2264 43.6518L43.2331 49.5998H33.9133C32.4727 49.5998 31.3043 50.7652 31.3043 52.2001C31.3043 53.635 32.4727 54.8004 33.9133 54.8004H49.4051C50.1281 54.8456 50.8652 54.5913 51.4168 54.0358C51.9579 53.4935 52.2099 52.7734 52.1735 52.0664V36.6003C52.1735 35.1654 51.0051 34 49.5654 34C48.1248 34 46.9564 35.1654 46.9564 36.6003V45.9554L40.4659 39.5329C40.2519 39.3196 40.0073 39.1539 39.7456 39.0339C36.5712 36.6282 33.0185 35.0532 29.2826 34.3774Z" fill="black"/>
<path d="M94.1831 39.2159C90.1745 39.3791 86.3229 40.847 83.0029 43.4899C82.8835 43.589 82.7479 43.6718 82.6122 43.7499L40.3407 80.5814C40.1478 80.748 39.9395 80.888 39.715 80.987C36.55 83.3792 33.0076 84.9479 29.2823 85.6223C28.0122 84.1012 26.8529 82.4844 25.8169 80.7841C29.826 80.6207 33.6764 79.1529 36.9961 76.5101C37.1165 76.411 37.2522 76.3282 37.3878 76.2501L79.6593 39.4186C79.8522 39.252 80.0605 39.112 80.285 39.013C83.4502 36.6206 86.9923 35.0519 90.7176 34.3776C91.9878 35.8987 93.1471 37.5156 94.1831 39.2159Z" fill="white"/>
</svg>
