<svg width="170" height="120" viewBox="0 0 170 120" fill="none" xmlns="http://www.w3.org/2000/svg">
<path fill-rule="evenodd" clip-rule="evenodd" d="M11.4727 35.4345C9.26352 35.4345 7.47266 37.2253 7.47266 39.4344V77.8999C7.47266 80.109 9.26351 81.8999 11.4726 81.8999H158.528C160.737 81.8999 162.528 80.109 162.528 77.8999V39.4345C162.528 37.2253 160.737 35.4345 158.528 35.4345H11.4727ZM123.297 81.8999V93.0516L134.506 81.8999H123.297Z" fill="#4CC3FF"/>
<path d="M137.601 87.8344C137.204 87.8344 136.824 87.9914 136.543 88.271L118.177 106.543C117.861 106.857 117.324 106.634 117.324 106.189V89.3344C117.324 88.5059 116.653 87.8344 115.824 87.8344H11.2088C5.83954 87.8344 1.5 83.5059 1.5 78.1827V39.1517C1.5 33.8284 5.83954 29.5 11.2088 29.5H158.791C164.16 29.5 168.5 33.8284 168.5 39.1517V78.1827C168.5 83.5059 164.16 87.8344 158.791 87.8344H137.601Z" stroke="#D1D5E0" stroke-width="3" stroke-linejoin="round"/>
<path fill-rule="evenodd" clip-rule="evenodd" d="M25.6566 62.806L30.163 51.8527L34.6618 62.806H25.6566ZM28.1057 45.2552L16.8135 72.1428H21.9378L24.1457 66.7802H36.1652L38.3882 72.1428H43.4748L32.2127 45.2552H28.1057ZM56.3571 58.3715H51.1198V49.6148H56.3571C58.2975 49.6148 60.5846 50.9695 60.5846 54.0156C60.5846 57.0094 58.2975 58.394 56.3571 58.394V58.3715ZM56.5831 45.2964H46.2668V72.2026H51.116V62.7312H56.5869C61.0707 62.7312 65.366 59.1462 65.366 54.0119C65.366 48.5782 60.8446 45.2552 56.5492 45.2552L56.5831 45.2964ZM73.2785 49.6186H78.5158C80.4374 49.6186 82.7358 50.9658 82.7358 54.0156C82.7358 57.0094 80.4374 58.394 78.5158 58.394H73.2785V49.6335V49.6186ZM73.2785 62.7312H78.7419C83.2256 62.7312 87.521 59.1462 87.521 54.0119C87.521 48.5782 82.9995 45.2552 78.7042 45.2552H68.3803V72.1428H73.2408V62.7312H73.2785ZM112.313 45.2552H107.491V61.3466C107.491 66.1253 105.041 68.2097 101.387 68.2097C97.6942 68.2097 95.2451 66.1253 95.2451 61.3428V45.2514H90.4222V61.8293C90.4222 68.9769 95.2451 72.532 101.387 72.532C107.453 72.532 112.313 68.9769 112.313 61.7919V45.2552ZM116.609 72.1428H121.285V52.7021H116.65L116.609 72.1428ZM118.979 44.9558C117.472 44.9558 116.191 46.1458 116.191 47.6876C116.191 49.2331 117.472 50.4269 118.979 50.4269C120.448 50.4269 121.729 49.2294 121.729 47.6876C121.729 46.1458 120.448 44.9558 118.979 44.9558ZM138.862 49.1545C144.25 49.1545 148.368 53.3982 148.368 58.7607C148.368 64.1495 144.261 68.3033 138.873 68.3033C133.485 68.3033 129.363 64.1495 129.363 58.7233C129.363 53.2971 133.47 49.1059 138.869 49.1059L138.862 49.1545ZM138.869 72.6068C146.819 72.6068 153.187 66.5819 153.187 58.6859C153.187 50.7525 146.819 44.7275 138.869 44.7275C130.957 44.7275 124.589 50.7899 124.589 58.6859C124.589 66.5819 130.957 72.6068 138.869 72.6068Z" fill="white"/>
</svg>
