<svg width="120" height="120" viewBox="0 0 120 120" fill="none" xmlns="http://www.w3.org/2000/svg">
<path d="M19 13C19 9.68628 21.6863 7 25 7H98.6364V98.6364H25C21.6863 98.6364 19 95.9501 19 92.6364V13Z" fill="#4CC3FF"/>
<rect x="29.9092" y="61.5455" width="56.7273" height="4.36364" fill="white"/>
<rect x="29.9092" y="72.4545" width="38.1818" height="4.36364" fill="white"/>
<circle cx="93.182" cy="93.1818" r="21.8182" fill="#D1D5E0"/>
<path fill-rule="evenodd" clip-rule="evenodd" d="M98.6364 72.051V98.6364H72.0511C71.6024 96.893 71.3638 95.0653 71.3638 93.1818C71.3638 81.132 81.1321 71.3636 93.182 71.3636C95.0654 71.3636 96.893 71.6023 98.6364 72.051Z" fill="#000D1A"/>
<path d="M42.5617 17.9091V31H38.2342V26.1751H34.2367V31H29.9092V17.9091H34.2367V22.547H38.2342V17.9091H42.5617Z" fill="white"/>
<path d="M53.3936 28.7185H48.5159L47.6541 31H43.2532L48.8643 17.9091H53.1185L58.7297 31H54.2554L53.3936 28.7185ZM52.2017 25.5392L50.9548 22.2478L49.7079 25.5392H52.2017Z" fill="white"/>
<path d="M72.0728 17.9091V31H68.5155L63.6378 25.053V31H59.4203V17.9091H62.9777L67.8553 23.8561V17.9091H72.0728Z" fill="white"/>
<path d="M74.158 17.9091H80.4842C81.9145 17.9091 83.1737 18.1772 84.2617 18.7133C85.3619 19.2369 86.2115 19.9912 86.8105 20.9761C87.4217 21.9611 87.7274 23.1205 87.7274 24.4546C87.7274 25.7886 87.4217 26.9481 86.8105 27.933C86.2115 28.9179 85.3619 29.6785 84.2617 30.2146C83.1737 30.7382 81.9145 31 80.4842 31H74.158V17.9091ZM80.3009 27.559C81.2299 27.559 81.9695 27.2909 82.5196 26.7548C83.082 26.2063 83.3632 25.4395 83.3632 24.4546C83.3632 23.4696 83.082 22.7091 82.5196 22.173C81.9695 21.6244 81.2299 21.3502 80.3009 21.3502H78.4855V27.559H80.3009Z" fill="white"/>
<path d="M39.831 43.8048C40.5634 44.079 41.1303 44.4784 41.5319 45.003C41.9335 45.5276 42.1343 46.1595 42.1343 46.8987C42.1343 47.9955 41.6855 48.848 40.7878 49.4561C39.8901 50.0522 38.5908 50.3502 36.8899 50.3502H29.9092V37.8316H36.5356C38.1892 37.8316 39.4353 38.1297 40.274 38.7258C41.1244 39.3219 41.5496 40.1148 41.5496 41.1043C41.5496 41.6885 41.402 42.2131 41.1067 42.6781C40.8232 43.1431 40.398 43.5186 39.831 43.8048ZM34.0197 40.7824V42.6423H35.9686C36.8781 42.6423 37.3328 42.3324 37.3328 41.7124C37.3328 41.0924 36.8781 40.7824 35.9686 40.7824H34.0197ZM36.5356 47.3994C37.4569 47.3994 37.9175 47.0716 37.9175 46.4158C37.9175 45.7601 37.4569 45.4322 36.5356 45.4322H34.0197V47.3994H36.5356Z" fill="white"/>
<path d="M50.115 50.6364C48.7803 50.6364 47.5814 50.3562 46.5183 49.7958C45.4553 49.2355 44.6225 48.4605 44.0201 47.471C43.4177 46.4695 43.1165 45.3428 43.1165 44.0909C43.1165 42.8391 43.4177 41.7183 44.0201 40.7288C44.6225 39.7273 45.4553 38.9464 46.5183 38.386C47.5814 37.8256 48.7803 37.5455 50.115 37.5455C51.4497 37.5455 52.6486 37.8256 53.7116 38.386C54.7747 38.9464 55.6074 39.7273 56.2098 40.7288C56.8122 41.7183 57.1134 42.8391 57.1134 44.0909C57.1134 45.3428 56.8122 46.4695 56.2098 47.471C55.6074 48.4605 54.7747 49.2355 53.7116 49.7958C52.6486 50.3562 51.4497 50.6364 50.115 50.6364ZM50.115 47.2206C50.6347 47.2206 51.1013 47.0954 51.5147 46.845C51.9399 46.5827 52.2765 46.2191 52.5246 45.7541C52.7726 45.2772 52.8966 44.7228 52.8966 44.0909C52.8966 43.459 52.7726 42.9106 52.5246 42.4456C52.2765 41.9687 51.9399 41.6051 51.5147 41.3547C51.1013 41.0924 50.6347 40.9613 50.115 40.9613C49.5953 40.9613 49.1228 41.0924 48.6976 41.3547C48.2842 41.6051 47.9534 41.9687 47.7054 42.4456C47.4573 42.9106 47.3333 43.459 47.3333 44.0909C47.3333 44.7228 47.4573 45.2772 47.7054 45.7541C47.9534 46.2191 48.2842 46.5827 48.6976 46.845C49.1228 47.0954 49.5953 47.2206 50.115 47.2206Z" fill="white"/>
<path d="M65.1334 50.6364C63.7987 50.6364 62.5998 50.3562 61.5367 49.7958C60.4737 49.2355 59.6409 48.4605 59.0385 47.471C58.4361 46.4695 58.135 45.3428 58.135 44.0909C58.135 42.8391 58.4361 41.7183 59.0385 40.7288C59.6409 39.7273 60.4737 38.9464 61.5367 38.386C62.5998 37.8256 63.7987 37.5455 65.1334 37.5455C66.4681 37.5455 67.667 37.8256 68.7301 38.386C69.7931 38.9464 70.6259 39.7273 71.2282 40.7288C71.8306 41.7183 72.1318 42.8391 72.1318 44.0909C72.1318 45.3428 71.8306 46.4695 71.2282 47.471C70.6259 48.4605 69.7931 49.2355 68.7301 49.7958C67.667 50.3562 66.4681 50.6364 65.1334 50.6364ZM65.1334 47.2206C65.6531 47.2206 66.1197 47.0954 66.5331 46.845C66.9583 46.5827 67.2949 46.2191 67.543 45.7541C67.791 45.2772 67.9151 44.7228 67.9151 44.0909C67.9151 43.459 67.791 42.9106 67.543 42.4456C67.2949 41.9687 66.9583 41.6051 66.5331 41.3547C66.1197 41.0924 65.6531 40.9613 65.1334 40.9613C64.6137 40.9613 64.1412 41.0924 63.716 41.3547C63.3026 41.6051 62.9718 41.9687 62.7238 42.4456C62.4758 42.9106 62.3517 43.459 62.3517 44.0909C62.3517 44.7228 62.4758 45.2772 62.7238 45.7541C62.9718 46.2191 63.3026 46.5827 63.716 46.845C64.1412 47.0954 64.6137 47.2206 65.1334 47.2206Z" fill="white"/>
<path d="M78.699 46.2012L77.7599 47.2564V50.3502H73.6495V37.8316H77.7599V42.3741L81.835 37.8316H86.3884L81.4275 43.3398L86.6365 50.3502H81.7995L78.699 46.2012Z" fill="white"/>
</svg>
