<svg width="120" height="120" viewBox="0 0 120 120" fill="none" xmlns="http://www.w3.org/2000/svg">
<path d="M88.0533 40.1723C87.247 38.7758 87.7255 36.9901 89.122 36.1838L100.922 29.3711C102.318 28.5648 104.104 29.0433 104.91 30.4398C105.717 31.8363 105.238 33.622 103.842 34.4282L92.0417 41.241C90.6452 42.0472 88.8595 41.5687 88.0533 40.1723Z" fill="#4CC3FF"/>
<path d="M94.5352 48.7916C94.5352 47.179 95.8424 45.8718 97.4549 45.8718H111.08C112.693 45.8718 114 47.179 114 48.7916C114 50.4041 112.693 51.7113 111.08 51.7113H97.4549C95.8424 51.7113 94.5352 50.4041 94.5352 48.7916Z" fill="#4CC3FF"/>
<path d="M83.8295 30.2488C82.433 29.4425 81.9545 27.6568 82.7608 26.2604L89.5735 14.4604C90.3798 13.0639 92.1655 12.5854 93.562 13.3917C94.9585 14.1979 95.4369 15.9836 94.6307 17.3801L87.8179 29.1801C87.0117 30.5766 85.226 31.0551 83.8295 30.2488Z" fill="#4CC3FF"/>
<path d="M64.0528 18.0671C63.2465 16.6706 63.725 14.8849 65.1215 14.0786C66.518 13.2723 68.3037 13.7508 69.1099 15.1473L100.254 69.0901C101.06 70.4866 100.582 72.2723 99.1851 73.0786C97.7886 73.8848 96.003 73.4064 95.1967 72.0099L64.0528 18.0671Z" fill="#000D1A"/>
<path d="M36.0825 53.3205L64.0528 18.0671L95.1967 72.01L50.6812 78.6062L36.0825 53.3205Z" fill="#D1D5E0"/>
<path d="M8.65929 75.896C7.04677 73.103 8.00371 69.5317 10.7967 67.9191L36.0824 53.3204L50.6811 78.6061L25.3954 93.2048C22.6024 94.8174 19.031 93.8604 17.4185 91.0674L8.65929 75.896Z" fill="#4CC3FF"/>
<path d="M6.26111 79.5281C5.7236 78.5971 6.04258 77.4067 6.97357 76.8692L8.65929 75.8959L17.4185 91.0674L15.7328 92.0406C14.8018 92.5781 13.6113 92.2591 13.0738 91.3281L6.26111 79.5281Z" fill="#000D1A"/>
<path d="M29.6094 90.7717L41.4094 83.9589L51.5721 98.0964C52.2443 99.0314 51.9622 100.342 50.9649 100.918L42.5531 105.775C41.6871 106.275 40.5831 106.037 39.9994 105.225L29.6094 90.7717Z" fill="#4CC3FF"/>
<path d="M17.8353 76.2172C17.2978 75.2863 17.6168 74.0958 18.5478 73.5583C19.4788 73.0208 20.6692 73.3398 21.2068 74.2708L25.0997 81.0136C25.6372 81.9446 25.3183 83.1351 24.3873 83.6726C23.4563 84.2101 22.2658 83.8911 21.7283 82.9601L17.8353 76.2172Z" fill="white"/>
<path d="M24.5775 72.3242C24.04 71.3932 24.359 70.2028 25.29 69.6653C26.221 69.1278 27.4114 69.4468 27.9489 70.3777L31.8419 77.1206C32.3794 78.0516 32.0605 79.2421 31.1295 79.7796C30.1985 80.3171 29.008 79.9981 28.4705 79.0671L24.5775 72.3242Z" fill="white"/>
<path d="M31.3207 68.4313C30.7832 67.5003 31.1021 66.3098 32.0331 65.7723C32.9641 65.2348 34.1546 65.5538 34.6921 66.4848L38.5851 73.2277C39.1226 74.1586 38.8036 75.3491 37.8726 75.8866C36.9416 76.4241 35.7512 76.1051 35.2137 75.1741L31.3207 68.4313Z" fill="white"/>
</svg>
