<svg width="566" height="480" viewBox="0 0 566 480" fill="none" xmlns="http://www.w3.org/2000/svg">
<path d="M503.19 191.64C503.19 191.64 489.436 166.983 403.381 151.658V191.64H503.19Z" fill="white"/>
<path d="M228.227 90.1601L280.476 70.3477V105.594L228.227 125.406V90.1601Z" fill="#4CC3FF"/>
<path d="M273.951 206.598C238.451 206.598 204.536 208.282 173.379 211.363L526.969 301.638L527.842 301.123C528.62 300.705 529.369 300.235 530.083 299.716C531.332 298.923 532.512 298.081 533.653 297.239C534.198 296.863 534.714 296.447 535.18 296.07C535.497 295.833 535.775 295.605 536.043 295.367C536.638 294.902 537.223 294.377 537.778 293.921C538.994 292.85 540.146 291.708 541.229 290.503C541.586 290.127 541.893 289.75 542.22 289.374C542.611 288.941 542.978 288.488 543.321 288.017C543.708 287.502 544.065 287.026 544.422 286.471C544.779 285.917 545.205 285.213 545.552 284.599C545.899 283.985 546.028 283.668 546.227 283.202C546.541 282.585 546.803 281.942 547.01 281.281C547.169 280.864 547.278 280.488 547.397 280.112C547.553 279.575 547.672 279.029 547.754 278.477C547.872 277.935 547.951 277.386 547.992 276.833C547.992 276.318 548.071 275.842 548.071 275.248C548.061 237.337 425.355 206.598 273.951 206.598Z" fill="#000D1A"/>
<path d="M533.504 290.297H526.969V347.604L530.301 344.632C531.308 343.728 532.113 342.622 532.665 341.386C533.217 340.151 533.502 338.813 533.504 337.46V290.297Z" fill="#000D1A"/>
<path d="M273.951 199.645C238.451 199.645 204.536 201.338 173.379 204.419L526.969 294.695L527.842 294.179C528.618 293.759 529.366 293.289 530.083 292.773C531.332 291.98 532.512 291.138 533.653 290.296C534.198 289.92 534.714 289.494 535.18 289.127C535.497 288.89 535.775 288.652 536.043 288.424C536.638 287.948 537.223 287.433 537.778 286.968C538.999 285.902 540.151 284.76 541.229 283.55C541.586 283.184 541.893 282.807 542.22 282.431C542.548 282.054 542.964 281.539 543.321 281.074C543.678 280.608 544.065 280.083 544.422 279.528C544.779 278.973 545.205 278.27 545.552 277.656C545.899 277.042 546.028 276.725 546.227 276.249C546.543 275.636 546.805 274.996 547.01 274.337C547.169 273.911 547.278 273.535 547.397 273.168C547.554 272.629 547.673 272.08 547.754 271.524C547.873 270.986 547.952 270.439 547.992 269.889C547.992 269.374 548.071 268.899 548.071 268.295C548.061 230.393 425.355 199.645 273.951 199.645Z" fill="white"/>
<path d="M356.347 459.484L172.357 291.02C71.3983 305.463 0 340.768 0 382.028C0 382.761 0 383.563 0.0793314 384.296C0.0796504 384.699 0.119507 385.1 0.198329 385.495C0.198329 386.03 0.27766 386.486 0.356991 387.03C0.466072 387.764 0.585069 388.566 0.743732 389.368C1.23199 391.675 1.929 393.933 2.82618 396.114C3.14351 396.848 3.45092 397.59 3.81782 398.324C4.01031 398.831 4.24586 399.322 4.52189 399.79C5.19621 401.127 5.97961 402.464 6.80267 403.802C6.83918 403.918 6.89264 404.028 6.96133 404.129C9.12974 407.456 11.6137 410.568 14.3788 413.421C15.0829 414.213 15.8266 414.956 16.61 415.689C18.8115 417.829 21.1716 419.899 23.7598 421.97C24.5432 422.633 25.3266 423.238 26.1496 423.832C30.0026 426.759 34.0258 429.455 38.1981 431.906C40.1814 433.174 42.3134 434.313 44.4752 435.511C45.2586 435.987 46.042 436.383 46.8254 436.779C47.6088 437.176 48.4417 437.651 49.2648 438.057C49.7082 438.251 50.1388 438.473 50.5539 438.721C54.1338 440.524 57.8227 442.258 61.7099 443.932C62.0173 444.06 62.295 444.199 62.6123 444.328C64.2188 445.002 65.9046 445.735 67.5705 446.398C69.5538 447.201 71.5371 448.003 73.6592 448.806C74.9979 449.34 76.3664 449.875 77.7448 450.341C80.214 451.282 82.703 452.144 85.2813 453.016C94.7019 456.225 104.747 459.227 115.388 461.931C117.192 462.397 118.997 462.862 120.842 463.269C122.884 463.794 124.927 464.259 126.97 464.735C129.945 465.468 133.009 466.072 136.073 466.716C139.137 467.36 142.231 467.984 145.375 468.588C145.866 468.647 146.353 468.737 146.833 468.856L152.525 469.846C156.64 470.579 160.844 471.253 165.118 471.917L170.077 472.719C179.497 474.056 189.116 475.255 199.003 476.256C202.811 476.662 206.658 477.058 210.546 477.326C215.504 477.732 220.462 478.128 225.539 478.465L228.99 478.663C243.637 479.535 258.739 480 274.06 480C301.552 480.032 329.024 478.527 356.347 475.493V459.484Z" fill="#000D1A"/>
<path d="M251.808 363.77H0.198242V382.016H271.75L251.808 363.77Z" fill="#000D1A"/>
<path d="M157.394 277.309C64.3774 292.99 0 326.81 0 365.989C0 366.722 0 367.524 0.0793314 368.257C0.0776825 368.673 0.117546 369.088 0.198329 369.496C0.198329 370.031 0.27766 370.486 0.356991 371.031C0.466072 371.764 0.585069 372.567 0.743732 373.369C1.23341 375.676 1.93038 377.934 2.82618 380.115C3.14351 380.848 3.45092 381.581 3.81782 382.314C4.01033 382.825 4.24586 383.319 4.52189 383.79C5.19621 385.128 5.97961 386.455 6.80267 387.753C6.83705 387.873 6.89062 387.987 6.96133 388.09C9.12745 391.416 11.6116 394.525 14.3788 397.372C15.0829 398.174 15.8266 398.907 16.61 399.64C18.8115 401.78 21.1716 403.85 23.7598 405.921C24.5432 406.594 25.3266 407.189 26.1496 407.793C29.9951 410.719 34.0081 413.418 38.1683 415.877C40.1516 417.145 42.2836 418.284 44.4454 419.482C45.2288 419.948 46.0122 420.354 46.7956 420.75C47.579 421.147 48.412 421.622 49.2351 422.018C49.6786 422.215 50.1092 422.441 50.5242 422.692C54.104 424.495 57.7929 426.229 61.6802 427.903C61.9876 428.031 62.2653 428.17 62.5826 428.299C64.189 428.963 65.8748 429.706 67.5408 430.369C69.5241 431.172 71.5074 431.974 73.6295 432.777C74.9682 433.311 76.3367 433.846 77.715 434.312C80.1842 435.243 82.6733 436.115 85.2515 436.987C94.6721 440.186 104.717 443.198 115.358 445.902C117.163 446.378 118.967 446.843 120.812 447.24C122.855 447.775 124.897 448.23 126.94 448.716C129.915 449.449 132.979 450.043 136.043 450.697C139.108 451.351 142.202 451.965 145.345 452.569C145.837 452.623 146.324 452.713 146.803 452.837L152.495 453.827C156.61 454.56 160.815 455.224 165.089 455.898L170.047 456.7C179.467 458.037 189.086 459.236 198.973 460.237C202.781 460.633 206.629 461.039 210.516 461.306C215.474 461.703 220.432 462.109 225.509 462.446L228.96 462.644C243.607 463.506 258.71 463.981 274.031 463.981C301.505 464.009 328.96 462.508 356.267 459.484L157.394 277.309Z" fill="white"/>
<path d="M403.381 365.989C403.381 366.216 403.381 366.415 403.381 366.623C403.359 366.839 403.323 367.055 403.272 367.266C403.234 367.486 403.178 367.701 403.103 367.91C403.044 368.059 402.994 368.208 402.915 368.376C402.819 368.642 402.696 368.898 402.548 369.139C402.459 369.317 402.35 369.505 402.231 369.693C402.112 369.882 401.884 370.189 401.695 370.427C401.507 370.664 401.368 370.833 401.179 371.041C400.991 371.249 400.842 371.407 400.664 371.576C400.485 371.744 400.366 371.873 400.198 372.021C399.679 372.498 399.136 372.947 398.571 373.369L397.758 373.943C397.619 374.032 397.491 374.131 397.342 374.221C397.193 374.31 396.886 374.538 396.628 374.686C396.092 375.013 395.537 375.35 394.942 375.677C394.599 375.881 394.245 376.067 393.881 376.232L392.77 376.786L391.61 377.341C390.42 377.876 389.141 378.411 387.812 378.926C386.89 379.283 385.928 379.629 384.926 379.986C383.925 380.343 382.943 380.65 381.892 380.977C381.128 381.234 380.355 381.482 379.572 381.7L378.203 382.086C377.281 382.344 376.339 382.611 375.357 382.869L373.889 383.255C373.734 383.276 373.581 383.313 373.433 383.364L371.668 383.81C347.968 389.506 313.112 393.112 274.219 393.112C266.98 393.112 259.87 392.983 252.969 392.745L251.332 392.686C248.952 392.597 246.592 392.478 244.262 392.369C242.427 392.299 240.613 392.181 238.818 392.072C234.157 391.794 229.625 391.467 225.183 391.081L222.823 390.863C220.839 390.675 218.856 390.497 216.873 390.288L214.195 390.011C213.966 389.974 213.734 389.951 213.501 389.942C212.024 389.773 210.526 389.605 209.118 389.417C207.71 389.229 206.252 389.07 204.824 388.862C203.833 388.733 202.901 388.604 201.939 388.456C200.977 388.307 200.213 388.218 199.36 388.089C194.343 387.346 189.603 386.514 185.16 385.633C183.96 385.385 182.78 385.147 181.61 384.89C180.965 384.761 180.311 384.612 179.686 384.464L176.81 383.8L174.46 383.225L174.034 383.116C172.209 382.651 170.464 382.175 168.778 381.67L168.173 381.482C167.777 381.373 167.39 381.244 167.023 381.135C166.656 381.026 166.279 380.917 165.912 380.788C164.921 380.452 163.929 380.135 162.937 379.798C160.888 379.071 159 378.325 157.275 377.559C156.888 377.391 156.511 377.222 156.145 377.044C154.925 376.469 153.814 375.895 152.773 375.3C152.406 375.102 152.049 374.894 151.722 374.676C150.476 373.93 149.304 373.067 148.221 372.101C148.221 372.101 148.162 372.051 148.152 372.012C147.755 371.635 147.388 371.269 147.071 370.902C146.945 370.781 146.836 370.644 146.744 370.496C146.575 370.288 146.426 370.09 146.278 369.882C145.867 369.307 145.533 368.681 145.286 368.019C145.22 367.795 145.16 367.577 145.108 367.366C145.072 367.225 145.045 367.083 145.028 366.94C144.99 366.835 144.97 366.724 144.969 366.613C144.969 366.405 144.969 366.187 144.969 365.979C144.969 351 202.831 338.855 274.239 338.855C345.647 338.855 403.381 351.01 403.381 365.989Z" fill="#4CC3FF"/>
<path d="M403.064 124.287H144.84V367.91H403.064V124.287Z" fill="#4CC3FF"/>
<path d="M274.11 160.81C345.505 160.81 403.381 144.458 403.381 124.286C403.381 104.114 345.505 87.7617 274.11 87.7617C202.716 87.7617 144.84 104.114 144.84 124.286C144.84 144.458 202.716 160.81 274.11 160.81Z" fill="white"/>
<path d="M237.36 95.5003C248.903 94.5592 261.288 94.1035 274.11 94.1035C340.183 94.1035 393.742 107.635 393.742 124.337C393.742 141.039 340.183 154.531 274.11 154.531C208.037 154.531 154.479 140.99 154.479 124.288C154.479 118.047 161.965 112.242 174.797 107.447" stroke="#FFBF00" stroke-width="1.5" stroke-miterlimit="10"/>
<path d="M355.772 475.591L350.109 476.185V391.923L362.594 390.754V468.022C362.595 469.903 361.898 471.718 360.638 473.115C359.378 474.513 357.644 475.395 355.772 475.591Z" fill="#000D1A"/>
<path d="M526.969 347.623C512.441 359.788 498.261 366.722 480.947 374.132H480.857C480.857 374.132 480.857 374.132 480.788 374.201C446.616 388.199 401.456 398.699 350.159 403.97L265.938 336.885C268.656 336.885 271.402 336.944 274.159 336.944C313.051 336.944 347.908 333.328 371.608 327.642C371.707 327.434 400.663 321.58 403.241 311.287L527.018 335.577L526.969 347.623Z" fill="#000D1A"/>
<path d="M526.969 335.578C512.441 347.703 498.261 354.638 480.947 362.087H480.857C480.857 362.087 480.857 362.087 480.788 362.156C446.616 376.154 401.456 386.655 350.159 391.925L265.938 324.84C268.656 324.84 271.402 324.899 274.159 324.899C313.051 324.899 347.908 321.283 371.608 315.597C371.707 315.389 400.663 309.535 403.241 299.242L526.969 335.578Z" fill="white"/>
<path d="M265.89 324.838V393.121L350.11 460.157V391.923L265.89 324.838Z" fill="#4CC3FF"/>
<path d="M526.969 294.287V335.18L403.192 298.834L403.063 263.043L526.969 294.287Z" fill="#4CC3FF"/>
<path d="M274.11 133.748C292.599 133.748 307.588 129.513 307.588 124.288C307.588 119.064 292.599 114.828 274.11 114.828C255.62 114.828 240.632 119.064 240.632 124.288C240.632 129.513 255.62 133.748 274.11 133.748Z" fill="#FFBF00"/>
<path d="M503.19 191.639H403.063V230.649H503.19V191.639Z" fill="#4CC3FF"/>
<path d="M160.646 259.12C160.385 259.018 160.104 258.981 159.825 259.013C159.547 259.045 159.281 259.145 159.05 259.303C158.82 259.461 158.631 259.673 158.501 259.921C158.371 260.169 158.304 260.445 158.306 260.724V353.645C158.304 353.986 158.403 354.32 158.592 354.604C158.781 354.888 159.051 355.109 159.367 355.24C174.033 361.243 196.058 364.492 209.008 366.136C229.069 368.752 227.433 367.573 240.205 367.84C240.437 367.846 240.667 367.805 240.882 367.72C241.097 367.635 241.293 367.508 241.458 367.347C241.624 367.185 241.755 366.992 241.845 366.779C241.934 366.566 241.981 366.338 241.981 366.107V273.979C241.981 273.537 241.812 273.111 241.507 272.791C241.203 272.47 240.786 272.278 240.344 272.255C218.042 271.017 181.798 267.332 160.646 259.12Z" fill="white"/>
<path d="M174.156 277.216C175.307 276.171 175.214 274.195 173.947 272.802C172.68 271.409 170.72 271.126 169.569 272.171C168.418 273.216 168.511 275.192 169.778 276.585C171.045 277.978 173.005 278.26 174.156 277.216Z" fill="#000D1A"/>
<path d="M191.92 281.235C193.071 280.194 192.98 278.221 191.718 276.828C190.456 275.435 188.5 275.15 187.349 276.191C186.198 277.232 186.288 279.205 187.55 280.598C188.812 281.991 190.769 282.276 191.92 281.235Z" fill="#000D1A"/>
<path d="M229.624 285.511C230.775 284.466 230.682 282.49 229.415 281.097C228.148 279.704 226.188 279.421 225.037 280.466C223.885 281.511 223.979 283.487 225.246 284.88C226.512 286.273 228.473 286.555 229.624 285.511Z" fill="#000D1A"/>
<path d="M210.411 283.811C211.562 282.77 211.472 280.797 210.209 279.404C208.947 278.011 206.991 277.726 205.84 278.767C204.689 279.808 204.779 281.781 206.041 283.174C207.304 284.567 209.26 284.852 210.411 283.811Z" fill="#000D1A"/>
<path d="M251.877 68.1777C251.877 68.1777 200.877 78.9755 202.404 94.766C204.169 112.924 273.693 121.354 273.693 121.354" stroke="#FFBF00" stroke-width="1.5" stroke-miterlimit="10"/>
<path d="M403.063 168.4C440.458 176.177 454.549 191.65 454.549 191.65V230.651C511.866 252.068 465.021 278.884 465.021 278.884V316.993C395.08 359.679 307.994 358.382 307.994 358.382V426.645" stroke="#FFBF00" stroke-width="1.5" stroke-miterlimit="10"/>
<path d="M155.876 418.096C157.225 418.452 158.573 418.759 159.922 419.086C161.905 419.582 163.888 419.978 165.941 420.414C167.994 420.85 170.017 421.256 172.099 421.652C172.433 421.694 172.764 421.753 173.091 421.83L176.849 422.494C179.576 422.979 182.353 423.415 185.179 423.861L188.481 424.386C194.709 425.277 201.065 426.07 207.61 426.734C210.119 426.991 212.667 427.259 215.236 427.437C218.508 427.704 221.8 427.972 225.152 428.19L227.433 428.319C237.121 428.893 247.087 429.2 257.232 429.2C274.196 429.216 291.149 428.356 308.024 426.625" stroke="#FFBF00" stroke-width="1.5" stroke-miterlimit="10"/>
<path d="M194.857 364.117V387.268L155.876 418.096" stroke="#FFBF00" stroke-width="1.5" stroke-miterlimit="10"/>
<path d="M64.457 262.062C57.6642 264.618 51.516 270.096 47.0735 276.922C42.5666 283.655 40.0855 291.538 39.9237 299.637C39.9274 301.233 40.0567 302.826 40.3105 304.402L37.0182 305.977C32.9363 307.692 29.4909 310.635 27.1613 314.397C24.6023 318.213 23.1946 322.683 23.1055 327.275C23.1055 331.703 24.6921 335.131 27.2208 337.082C29.7495 339.034 33.2599 339.509 37.1372 338.073L107.098 311.643C111.183 309.929 114.632 306.986 116.964 303.223C119.517 299.404 120.925 294.936 121.02 290.345C121.02 285.917 119.434 282.509 116.895 280.557C114.356 278.606 110.866 278.12 106.979 279.567L106.661 279.686C106.78 277.704 106.969 276.01 106.969 274.316C106.969 269.126 105.104 265.114 102.129 262.825C99.1546 260.537 95.0591 259.972 90.5471 261.676C88.1835 262.605 86.0043 263.947 84.1113 265.639C79.3316 260.715 72.3306 259.091 64.457 262.062Z" fill="#000D1A"/>
<path d="M68.8097 263.985C62.007 266.541 55.8588 272.029 51.4262 278.844C46.9125 285.572 44.4275 293.452 44.2665 301.549C44.2733 303.146 44.4059 304.739 44.6632 306.314L41.3709 307.899C37.2846 309.607 33.8348 312.547 31.5041 316.31C28.9471 320.127 27.5395 324.596 27.4482 329.188C27.4482 333.616 29.0349 337.034 31.5735 338.985C34.1121 340.937 37.6027 341.412 41.4899 339.976L111.54 313.595C115.621 311.885 119.067 308.945 121.396 305.185C123.953 301.368 125.361 296.899 125.452 292.307C125.452 287.879 123.866 284.461 121.327 282.51C118.788 280.558 115.298 280.083 111.411 281.519L111.093 281.638C111.202 279.657 111.391 277.963 111.391 276.279C111.391 271.078 109.527 267.076 106.552 264.788C103.577 262.499 99.4911 261.935 94.9692 263.629C92.6087 264.558 90.4327 265.899 88.5434 267.591C83.724 262.638 76.6932 261.013 68.8097 263.985Z" fill="#FFBF00"/>
<path d="M66.3702 321.629L59.042 324.284V316.964L66.3702 314.299V321.629Z" fill="white"/>
<path d="M86.3527 314.664L79.0244 317.329V309.999L86.3527 307.344V314.664Z" fill="white"/>
<path d="M95.3865 295.011L90.0713 296.477V291.157L95.3865 289.701V295.011Z" fill="white"/>
<path d="M72.8661 289.554L67.541 291.02V285.7L72.8661 284.244V289.554Z" fill="white"/>
<path d="M105.005 307.66L97.6768 310.315V302.995L105.005 300.33V307.66Z" fill="white"/>
<path d="M403.064 140.473V144.96C398.8 152.796 386.037 159.968 366.095 165.585C341.512 172.519 308.848 176.304 274.11 176.304C239.373 176.304 206.679 172.5 182.126 165.585C161.658 159.82 148.767 152.42 144.84 144.346V138.531C144.907 138.599 144.96 138.679 144.996 138.768C145.032 138.856 145.05 138.951 145.048 139.046C145.048 148.299 158.713 157.452 182.532 164.149C206.986 171.034 239.502 174.818 274.11 174.818C308.719 174.818 341.245 171.034 365.699 164.149C388.278 157.799 401.735 149.23 403.064 140.473Z" fill="white"/>
<path d="M403.064 230.642V235.407C398.8 242.004 386.037 248.037 366.095 252.762C341.512 258.587 308.848 261.787 274.11 261.787C239.373 261.787 206.679 258.587 182.126 252.762C161.658 247.908 148.767 241.687 144.84 234.931V229.047C144.905 229.099 144.958 229.166 144.994 229.241C145.03 229.316 145.049 229.399 145.048 229.483C145.048 237.269 158.713 244.966 182.532 250.603C206.986 256.398 239.502 259.588 274.11 259.588C308.719 259.588 341.245 256.398 365.699 250.603C388.278 245.224 401.735 238.012 403.064 230.642Z" fill="white"/>
<path d="M171.861 274.672V318.636" stroke="#000D1A" stroke-width="1.5" stroke-miterlimit="10" stroke-linecap="round"/>
<path d="M190.346 278.348V322.311" stroke="#000D1A" stroke-width="1.5" stroke-miterlimit="10" stroke-linecap="round"/>
<path d="M208.84 280.836V324.81" stroke="#000D1A" stroke-width="1.5" stroke-miterlimit="10" stroke-linecap="round"/>
<path d="M227.334 283.342V327.306" stroke="#000D1A" stroke-width="1.5" stroke-miterlimit="10" stroke-linecap="round"/>
<path d="M176.363 312.951V347.573C176.364 347.694 176.337 347.814 176.284 347.924C176.231 348.033 176.154 348.129 176.058 348.203C175.962 348.278 175.851 348.33 175.732 348.354C175.613 348.379 175.49 348.376 175.372 348.346C172.833 347.732 170.334 347.058 167.925 346.364C167.761 346.312 167.618 346.209 167.516 346.07C167.414 345.931 167.36 345.764 167.359 345.592V310.97C167.36 310.849 167.388 310.73 167.442 310.622C167.495 310.514 167.573 310.42 167.669 310.346C167.764 310.273 167.875 310.222 167.994 310.198C168.112 310.174 168.234 310.177 168.351 310.207C170.741 310.92 173.22 311.574 175.729 312.188C175.907 312.222 176.067 312.317 176.183 312.456C176.298 312.595 176.362 312.77 176.363 312.951Z" fill="#FFBF00"/>
<path d="M194.858 316.647V351.319C194.858 351.434 194.833 351.547 194.785 351.652C194.736 351.756 194.666 351.849 194.578 351.923C194.49 351.998 194.387 352.052 194.276 352.083C194.165 352.114 194.049 352.12 193.936 352.101C191.506 351.695 188.977 351.259 186.488 350.764C186.306 350.729 186.142 350.632 186.024 350.489C185.907 350.346 185.843 350.166 185.844 349.981V315.31C185.843 315.188 185.87 315.068 185.923 314.959C185.976 314.85 186.053 314.754 186.149 314.679C186.245 314.605 186.357 314.553 186.476 314.528C186.595 314.504 186.718 314.507 186.835 314.537C189.344 315.022 191.794 315.458 194.243 315.854C194.421 315.895 194.58 315.997 194.692 316.141C194.804 316.286 194.862 316.464 194.858 316.647Z" fill="#FFBF00"/>
<path d="M213.342 319.271V353.942C213.341 354.055 213.317 354.165 213.27 354.267C213.224 354.369 213.156 354.46 213.072 354.534C212.987 354.608 212.888 354.664 212.781 354.696C212.674 354.729 212.561 354.739 212.449 354.725C211.378 354.596 210.238 354.458 209.018 354.289L205.052 353.764C204.86 353.738 204.684 353.643 204.556 353.498C204.429 353.352 204.358 353.165 204.357 352.972V318.3C204.358 318.187 204.382 318.075 204.429 317.972C204.477 317.869 204.545 317.778 204.631 317.704C204.716 317.63 204.817 317.575 204.925 317.543C205.034 317.51 205.148 317.502 205.26 317.517L209.038 318.013C210.327 318.191 211.537 318.34 212.667 318.478C212.857 318.507 213.029 318.603 213.153 318.748C213.277 318.894 213.344 319.08 213.342 319.271Z" fill="#FFBF00"/>
<path d="M231.836 320.538V355.21C231.834 355.42 231.75 355.621 231.602 355.771C231.454 355.921 231.253 356.007 231.043 356.012C228.693 356.012 226.62 356.062 223.576 355.864C223.373 355.853 223.183 355.765 223.044 355.617C222.905 355.47 222.829 355.274 222.832 355.071V320.4C222.832 320.291 222.854 320.184 222.897 320.084C222.94 319.985 223.003 319.895 223.082 319.821C223.161 319.747 223.254 319.689 223.356 319.652C223.458 319.616 223.567 319.6 223.675 319.607C226.65 319.795 228.713 319.775 231.023 319.746C231.129 319.743 231.234 319.762 231.333 319.8C231.431 319.839 231.521 319.897 231.597 319.971C231.673 320.045 231.733 320.133 231.774 320.23C231.815 320.328 231.836 320.432 231.836 320.538Z" fill="#FFBF00"/>
<path d="M345.617 55.1924V80.8891C365.807 82.8704 381.624 86.4069 391.5 91.4887C398.987 85.545 403.063 79.74 403.063 74.2519C403.063 61.5027 364.508 54.7268 345.617 55.1924Z" fill="#FFBF00"/>
<path d="M403.063 73.7852V105.079C403.063 111.766 396.994 117.957 386.096 123.376V92.1215C387.216 91.5668 388.277 91.0021 389.289 90.4276C390.062 89.9917 390.796 89.5558 391.51 89.12C398.987 84.4343 403.063 79.2435 403.063 73.7852Z" fill="#4CC3FF"/>
<path d="M169.125 58.1113V85.5812C164.144 86.8516 159.309 88.6343 154.696 90.9009C147.219 84.9571 143.144 79.162 143.144 73.6641C143.144 66.5415 155.202 61.2813 169.125 58.1113Z" fill="#FFBF00"/>
<path d="M160.111 91.5374V122.831C149.678 117.64 143.679 111.746 143.183 105.386C143.168 105.096 143.168 104.805 143.183 104.515V73.2109C143.183 78.7089 147.259 83.8601 154.736 88.5358C155.44 88.9717 156.174 89.4076 156.937 89.8335C157.919 90.4081 158.99 90.9827 160.111 91.5374Z" fill="#4CC3FF"/>
<path d="M198.438 254.891V226.094C198.438 226.094 274.11 239.299 345.617 227.52V268.086" stroke="white" stroke-width="2" stroke-linecap="round" stroke-linejoin="round"/>
<path d="M304.236 282.151V273.057C304.236 273.057 350.705 270.799 378.61 261.428V287.896" stroke="white" stroke-width="2" stroke-linecap="round" stroke-linejoin="round"/>
<path d="M368.692 63.2363C380.473 65.0689 393.612 68.4171 399.82 74.5092" stroke="white" stroke-width="1.5" stroke-linecap="round" stroke-linejoin="round"/>
<path d="M364.656 62.6503C359.976 62.0362 355.732 61.6598 352.38 61.4121" stroke="white" stroke-width="1.5" stroke-linecap="round" stroke-linejoin="round"/>
<path d="M399.82 82.4821C399.625 82.4825 399.437 82.4081 399.295 82.2741C394.674 77.7768 385.749 74.2899 372.59 71.8828C372.487 71.8729 372.388 71.8418 372.298 71.7915C372.208 71.7412 372.13 71.6729 372.068 71.5907C372.006 71.5086 371.962 71.4145 371.938 71.3144C371.914 71.2142 371.912 71.1103 371.93 71.0091C371.949 70.9079 371.988 70.8117 372.046 70.7265C372.104 70.6414 372.179 70.5691 372.266 70.5144C372.353 70.4596 372.451 70.4235 372.553 70.4084C372.654 70.3933 372.758 70.3995 372.858 70.4266C386.285 72.8734 395.537 76.5089 400.336 81.2142C400.475 81.3535 400.554 81.5423 400.554 81.7392C400.554 81.9361 400.475 82.1249 400.336 82.2642C400.269 82.3329 400.189 82.3876 400.1 82.425C400.012 82.4624 399.917 82.4818 399.82 82.4821Z" fill="white"/>
<path d="M368.692 70.4672C362.475 69.4766 356.634 68.9516 352.38 68.6445" stroke="white" stroke-width="1.5" stroke-linecap="round" stroke-linejoin="round"/>
<path d="M361.156 76.459C367.256 77.113 373.309 78.1385 379.283 79.5298" stroke="white" stroke-width="1.5" stroke-linecap="round" stroke-linejoin="round"/>
<path d="M399.82 90.6244C399.722 90.6249 399.626 90.6058 399.535 90.5684C399.445 90.531 399.363 90.4759 399.295 90.4065C394.689 86.1445 389.146 83.0229 383.111 81.2931C383.017 81.268 382.929 81.2243 382.852 81.1645C382.775 81.1046 382.711 81.0299 382.664 80.9449C382.617 80.8598 382.587 80.766 382.577 80.6693C382.567 80.5725 382.577 80.4747 382.605 80.3817C382.63 80.2875 382.674 80.1993 382.734 80.1222C382.794 80.0452 382.868 79.9807 382.953 79.9328C383.038 79.8848 383.132 79.8542 383.229 79.8429C383.326 79.8315 383.424 79.8396 383.518 79.8666C389.816 81.6375 395.597 84.8919 400.375 89.3565C400.515 89.4958 400.593 89.6846 400.593 89.8815C400.593 90.0783 400.515 90.2672 400.375 90.4065C400.226 90.5494 400.027 90.6278 399.82 90.6244Z" fill="white"/>
<path d="M357.12 76.0447C355.394 75.8763 353.798 75.7475 352.38 75.6484" stroke="white" stroke-width="1.5" stroke-linecap="round" stroke-linejoin="round"/>
<path d="M403.063 73.7852V105.068C399.394 94.6767 389.289 90.4172 389.289 90.4172C390.063 89.9813 390.796 89.5454 391.51 89.1096C398.987 84.434 403.063 79.2433 403.063 73.7852Z" fill="#000D1A"/>
<path d="M403.063 86.1777V88.6542C398.64 94.0034 391.828 97.2426 391.491 97.4011C391.393 97.4429 391.289 97.4664 391.183 97.4705C391.042 97.472 390.903 97.4326 390.783 97.357C390.663 97.2814 390.568 97.1729 390.509 97.0445C390.424 96.8671 390.412 96.6632 390.477 96.4775C390.542 96.2918 390.679 96.1395 390.856 96.0539C390.945 96.0836 399.027 92.1906 403.063 86.1777Z" fill="white"/>
<path d="M403.063 94.4121V96.8787C398.64 102.228 391.828 105.467 391.491 105.626C391.395 105.672 391.29 105.696 391.183 105.695C391.042 105.696 390.903 105.657 390.783 105.581C390.663 105.506 390.568 105.397 390.509 105.269C390.424 105.092 390.412 104.888 390.477 104.702C390.542 104.516 390.679 104.364 390.856 104.278C390.945 104.239 399.027 100.395 403.063 94.4121Z" fill="white"/>
<path d="M403.063 102.604V105.08C398.64 110.429 391.828 113.668 391.491 113.827C391.393 113.869 391.289 113.892 391.183 113.896C391.042 113.898 390.903 113.858 390.783 113.783C390.663 113.707 390.568 113.599 390.509 113.47C390.424 113.293 390.412 113.089 390.477 112.903C390.542 112.718 390.679 112.565 390.856 112.48C390.945 112.43 399.027 108.587 403.063 102.604Z" fill="white"/>
<path d="M144.661 75.4009C144.661 75.4009 148.628 69.8238 164.702 65.7129" stroke="white" stroke-width="1.5" stroke-linecap="round" stroke-linejoin="round"/>
<path d="M144.78 82.9985C144.78 82.9985 148.747 77.4215 164.821 73.3105" stroke="white" stroke-width="1.5" stroke-linecap="round" stroke-linejoin="round"/>
<path d="M144.958 90.2485C144.958 90.2485 148.925 84.6814 164.999 80.5605" stroke="white" stroke-width="1.5" stroke-linecap="round" stroke-linejoin="round"/>
<path d="M156.908 89.8434C156.908 89.8434 144.017 94.3508 143.184 105.357C143.184 105.555 143.184 104.366 143.184 104.584V73.2109C143.184 78.7089 147.259 83.8601 154.736 88.5358C155.44 88.9717 156.174 89.4076 156.938 89.8335L156.908 89.8434Z" fill="#000D1A"/>
<path d="M147.993 105.15V95.3234C147.993 94.5211 148.499 94.1644 149.134 94.5409L155.391 98.2259" stroke="white" stroke-width="1.5" stroke-linecap="round" stroke-linejoin="round"/>
<path d="M146.307 104.565C146.316 104.889 146.401 105.206 146.554 105.492C146.707 105.777 146.925 106.023 147.189 106.21L152.911 109.588C152.65 109.413 152.439 109.174 152.296 108.894C152.125 108.592 152.036 108.251 152.038 107.904V107.111C152.036 107.074 152.026 107.037 152.007 107.004C151.988 106.971 151.961 106.944 151.929 106.923L146.416 103.664C146.356 103.664 146.307 103.664 146.307 103.733V104.565Z" fill="white" stroke="white" stroke-width="1.5" stroke-linecap="round" stroke-linejoin="round"/>
<path d="M155.371 98.2153C154.905 97.9479 154.518 98.2153 154.518 98.7998V108.181C154.519 108.505 154.401 108.818 154.188 109.062C153.974 109.306 153.679 109.465 153.358 109.508V109.508C153.056 109.553 152.748 109.493 152.485 109.34L151.345 108.656" stroke="white" stroke-width="1.5" stroke-linecap="round" stroke-linejoin="round"/>
<path d="M154.637 98.373H155.48C155.666 98.373 155.85 98.4097 156.022 98.4809C156.194 98.5521 156.351 98.6564 156.482 98.7879C156.614 98.9195 156.718 99.0756 156.79 99.2475C156.861 99.4194 156.898 99.6036 156.898 99.7896V99.7896C156.898 100.165 156.748 100.526 156.482 100.791C156.216 101.057 155.856 101.206 155.48 101.206H154.637V98.373Z" stroke="white" stroke-width="1.5" stroke-linecap="round" stroke-linejoin="round"/>
<path d="M463.038 94.7384L483.922 100.226C484.642 100.415 485.28 100.838 485.734 101.428C486.188 102.018 486.433 102.741 486.43 103.486V160.823C486.431 161.101 486.362 161.376 486.229 161.621C486.097 161.866 485.905 162.074 485.672 162.227C485.438 162.379 485.171 162.471 484.893 162.494C484.615 162.517 484.336 162.47 484.08 162.358L462.938 153.106C462.345 152.836 461.842 152.401 461.49 151.853C461.138 151.305 460.952 150.666 460.955 150.015V96.3531C460.955 96.0988 461.012 95.8478 461.124 95.6193C461.236 95.3909 461.399 95.191 461.6 95.0351C461.801 94.8792 462.035 94.7714 462.284 94.72C462.533 94.6685 462.791 94.6748 463.038 94.7384Z" fill="#FFBF00"/>
<path d="M474.084 129.009C474.872 128.724 475.186 127.6 474.786 126.499C474.386 125.399 473.424 124.738 472.636 125.024C471.848 125.309 471.534 126.433 471.934 127.534C472.334 128.634 473.297 129.295 474.084 129.009Z" fill="#000D1A"/>
<path d="M473.361 122.435C473.538 122.487 473.724 122.496 473.905 122.462C474.087 122.428 474.257 122.35 474.402 122.237C474.548 122.124 474.664 121.978 474.742 121.81C474.819 121.643 474.856 121.46 474.848 121.276V110.508C474.828 110.086 474.672 109.681 474.404 109.353C474.137 109.025 473.771 108.791 473.361 108.686C473.185 108.631 472.998 108.62 472.817 108.653C472.635 108.686 472.464 108.762 472.319 108.875C472.173 108.987 472.056 109.133 471.979 109.301C471.901 109.468 471.865 109.651 471.873 109.835V120.612C471.894 121.035 472.049 121.44 472.317 121.768C472.585 122.096 472.95 122.33 473.361 122.435Z" fill="#000D1A"/>
<path d="M465.596 136.68L481.789 142.445" stroke="#F9FAFB" stroke-miterlimit="10" stroke-linecap="round"/>
<path d="M465.596 141.811L481.789 147.576" stroke="#F9FAFB" stroke-miterlimit="10" stroke-linecap="round"/>
<path d="M465.596 146.941L476.881 150.953" stroke="#F9FAFB" stroke-miterlimit="10" stroke-linecap="round"/>
<path d="M316.235 287.623V311.357L293.309 312.278V281.719L309.353 281.025L311.733 285.097L316.235 287.623Z" fill="#000D1A"/>
<path d="M316.235 287.623L309.353 287.9V281.025L316.235 287.623Z" fill="#FFBF00"/>
<path d="M213.342 244.638C214.848 244.638 216.069 243.418 216.069 241.914C216.069 240.409 214.848 239.189 213.342 239.189C211.836 239.189 210.615 240.409 210.615 241.914C210.615 243.418 211.836 244.638 213.342 244.638Z" fill="white"/>
<path d="M240.086 247.362C241.592 247.362 242.813 246.143 242.813 244.638C242.813 243.134 241.592 241.914 240.086 241.914C238.58 241.914 237.359 243.134 237.359 244.638C237.359 246.143 238.58 247.362 240.086 247.362Z" fill="white"/>
<path d="M296.779 248.829C298.285 248.829 299.506 247.609 299.506 246.105C299.506 244.6 298.285 243.381 296.779 243.381C295.273 243.381 294.052 244.6 294.052 246.105C294.052 247.609 295.273 248.829 296.779 248.829Z" fill="white"/>
<path d="M268.617 248.829C270.123 248.829 271.344 247.609 271.344 246.105C271.344 244.6 270.123 243.381 268.617 243.381C267.111 243.381 265.89 244.6 265.89 246.105C265.89 247.609 267.111 248.829 268.617 248.829Z" fill="white"/>
<path d="M326.092 247.362C327.598 247.362 328.819 246.143 328.819 244.638C328.819 243.134 327.598 241.914 326.092 241.914C324.586 241.914 323.365 243.134 323.365 244.638C323.365 246.143 324.586 247.362 326.092 247.362Z" fill="white"/>
<path d="M386.74 281.192L376.893 283.401L375.902 281.568C375.535 280.974 375.208 280.776 374.781 280.944L367.711 282.519C367.479 282.593 367.278 282.74 367.138 282.939C366.999 283.138 366.928 283.376 366.937 283.619L367.086 288.79L367.155 301.014C367.155 302.272 367.998 303.104 369.03 302.866L386.83 298.775C387.388 298.581 387.87 298.214 388.205 297.728C388.541 297.242 388.712 296.661 388.694 296.071L388.625 283.054C388.615 281.786 387.732 280.964 386.74 281.192Z" fill="#000D1A"/>
<path d="M534.089 113.262L542.746 115.421" stroke="#000D1A" stroke-width="2" stroke-linecap="round" stroke-linejoin="round"/>
<path d="M535.318 120.395L548.934 123.396" stroke="#000D1A" stroke-width="2" stroke-linecap="round" stroke-linejoin="round"/>
<path d="M536.33 105.992C531.997 111.054 531.997 120.356 536.33 126.854C540.664 133.352 547.803 134.591 552.196 129.548C556.589 124.506 556.589 115.195 552.196 108.687C547.803 102.179 540.743 100.98 536.33 105.992Z" stroke="#4CC3FF" stroke-width="3" stroke-miterlimit="10"/>
<path d="M562.698 144.624L561.855 145.615C561.735 145.734 561.589 145.824 561.427 145.875C561.266 145.927 561.095 145.939 560.928 145.911C560.761 145.883 560.603 145.815 560.468 145.714C560.332 145.612 560.223 145.48 560.149 145.327L550.649 131.321L553.188 128.408L562.698 142.405C562.917 142.739 563.034 143.13 563.034 143.53C563.034 143.929 562.917 144.32 562.698 144.654" fill="#4CC3FF"/>
<path d="M539.166 165.093V160.14C539.166 159.575 539.523 159.238 539.969 159.397L560.585 166.737H560.704C560.913 166.816 566 175.128 566 175.395V210.681C566 211.246 565.643 211.582 565.197 211.424L554.11 207.462" fill="#000D1A"/>
<path d="M565.97 175.504V175.583L561.776 174.097C561.41 173.914 561.104 173.63 560.893 173.279C560.682 172.928 560.576 172.525 560.586 172.116V166.678H560.665C560.913 166.783 561.119 166.968 561.25 167.203L565.722 174.602C565.886 174.874 565.972 175.186 565.97 175.504Z" fill="#4CC3FF"/>
<path d="M536.39 169.529L528.08 166.557C527.633 166.399 527.276 166.726 527.276 167.3V208.292C527.275 208.576 527.356 208.854 527.509 209.093C527.662 209.332 527.881 209.522 528.139 209.64L553.297 218.555C553.743 218.714 554.11 218.387 554.11 217.812V182.606C554.11 182.338 549.023 174.027 548.815 173.957L548.696 173.908L541.873 171.481" fill="#FFBF00"/>
<path d="M554.091 182.725V182.804L549.886 181.279C549.519 181.096 549.213 180.813 549.002 180.462C548.791 180.111 548.685 179.707 548.696 179.298V173.859H548.766C549.017 173.968 549.226 174.156 549.36 174.394L553.843 181.794C554.012 182.075 554.098 182.398 554.091 182.725Z" fill="#4CC3FF"/>
<path d="M539.206 186.885L533.256 177.207L536.33 178.296V170.372C536.33 166.409 538.869 164.052 541.992 165.161L545.195 166.3C543.351 165.647 541.853 167.023 541.853 169.381V180.278L545.116 181.437L539.206 186.885Z" fill="white"/>
<path d="M278.017 205.131C277.952 205.032 277.866 204.95 277.764 204.889C277.663 204.829 277.549 204.793 277.432 204.784C277.044 204.74 276.686 204.556 276.426 204.265C276.166 203.975 276.022 203.598 276.022 203.209C276.022 202.819 276.166 202.443 276.426 202.152C276.686 201.862 277.044 201.677 277.432 201.634C277.548 201.62 277.659 201.58 277.759 201.519C277.858 201.457 277.943 201.375 278.007 201.277C278.07 201.178 278.113 201.068 278.132 200.952C278.151 200.836 278.145 200.717 278.116 200.604C277.868 199.7 277.502 198.834 277.025 198.028C276.966 197.926 276.884 197.838 276.786 197.771C276.688 197.704 276.577 197.66 276.46 197.642H276.311C276.127 197.641 275.948 197.704 275.805 197.82C275.521 198.039 275.172 198.158 274.814 198.157C274.605 198.157 274.399 198.116 274.206 198.036C274.014 197.956 273.839 197.84 273.692 197.693C273.544 197.545 273.428 197.371 273.348 197.178C273.268 196.986 273.227 196.78 273.227 196.572C273.223 196.214 273.338 195.866 273.554 195.581C273.627 195.488 273.678 195.381 273.706 195.267C273.733 195.152 273.736 195.033 273.713 194.918C273.691 194.802 273.644 194.693 273.575 194.597C273.507 194.501 273.418 194.422 273.316 194.363C272.503 193.891 271.629 193.531 270.718 193.293H270.51C270.309 193.294 270.116 193.368 269.967 193.501C269.817 193.634 269.721 193.817 269.697 194.016C269.653 194.403 269.468 194.761 269.178 195.021C268.887 195.281 268.51 195.424 268.12 195.424C267.73 195.424 267.353 195.281 267.063 195.021C266.772 194.761 266.587 194.403 266.543 194.016C266.519 193.817 266.423 193.634 266.274 193.501C266.124 193.368 265.931 193.294 265.73 193.293H265.522C264.592 193.532 263.7 193.902 262.874 194.393C262.772 194.451 262.684 194.531 262.616 194.627C262.547 194.723 262.5 194.832 262.478 194.947C262.459 195.063 262.463 195.181 262.49 195.295C262.517 195.409 262.567 195.516 262.636 195.611C262.86 195.892 262.979 196.242 262.973 196.602C262.971 196.897 262.886 197.186 262.729 197.436C262.571 197.686 262.347 197.887 262.082 198.018C261.817 198.148 261.52 198.202 261.226 198.174C260.932 198.147 260.651 198.038 260.415 197.86C260.273 197.742 260.094 197.679 259.909 197.681H259.761C259.645 197.703 259.535 197.749 259.437 197.815C259.34 197.882 259.258 197.968 259.195 198.068C258.712 198.895 258.345 199.785 258.104 200.712C258.08 200.823 258.079 200.938 258.101 201.05C258.124 201.161 258.169 201.267 258.234 201.36C258.299 201.453 258.383 201.531 258.48 201.59C258.578 201.65 258.686 201.688 258.799 201.703C259.178 201.755 259.526 201.943 259.778 202.232C260.03 202.52 260.168 202.89 260.168 203.273C260.168 203.656 260.03 204.026 259.778 204.315C259.526 204.603 259.178 204.791 258.799 204.843C258.683 204.857 258.571 204.896 258.472 204.958C258.372 205.02 258.288 205.102 258.223 205.2C258.156 205.297 258.11 205.407 258.09 205.524C258.069 205.64 258.074 205.759 258.104 205.873C258.344 206.782 258.704 207.655 259.175 208.469C259.237 208.569 259.317 208.655 259.413 208.723C259.508 208.791 259.616 208.84 259.731 208.865H259.889C260.072 208.864 260.249 208.805 260.395 208.697C260.678 208.476 261.028 208.361 261.387 208.37C261.808 208.37 262.211 208.537 262.509 208.834C262.806 209.131 262.973 209.534 262.973 209.955C262.978 210.314 262.859 210.663 262.636 210.945C262.565 211.038 262.514 211.145 262.487 211.258C262.459 211.372 262.456 211.49 262.478 211.605C262.499 211.72 262.545 211.83 262.612 211.926C262.678 212.022 262.764 212.103 262.864 212.164C263.667 212.648 264.536 213.015 265.443 213.253C265.515 213.263 265.588 213.263 265.661 213.253C265.824 213.256 265.983 213.208 266.117 213.115C266.215 213.05 266.298 212.965 266.361 212.866C266.424 212.767 266.466 212.656 266.484 212.54C266.536 212.161 266.724 211.813 267.013 211.562C267.302 211.31 267.672 211.172 268.056 211.172C268.439 211.172 268.809 211.31 269.098 211.562C269.387 211.813 269.575 212.161 269.627 212.54C269.64 212.657 269.677 212.769 269.737 212.87C269.797 212.971 269.878 213.058 269.974 213.125C270.117 213.215 270.282 213.263 270.45 213.263C270.516 213.273 270.583 213.273 270.649 213.263C271.615 213.025 272.541 212.644 273.396 212.134C273.496 212.076 273.584 211.998 273.652 211.904C273.721 211.81 273.768 211.703 273.792 211.589C273.814 211.474 273.812 211.355 273.784 211.24C273.757 211.126 273.706 211.019 273.634 210.925C273.413 210.643 273.297 210.293 273.306 209.935C273.306 209.515 273.474 209.111 273.771 208.814C274.069 208.517 274.472 208.35 274.893 208.35C275.251 208.341 275.602 208.456 275.885 208.677C276.031 208.786 276.208 208.845 276.39 208.845H276.549C276.663 208.821 276.77 208.774 276.864 208.705C276.958 208.637 277.037 208.55 277.094 208.449C277.607 207.593 277.988 206.664 278.225 205.695C278.231 205.487 278.157 205.285 278.017 205.131ZM268.1 208.429C267.131 208.429 266.183 208.142 265.378 207.604C264.572 207.066 263.944 206.301 263.573 205.406C263.203 204.511 263.107 203.527 263.296 202.577C263.486 201.628 263.954 200.756 264.64 200.072C265.326 199.388 266.2 198.923 267.151 198.735C268.102 198.547 269.087 198.646 269.982 199.017C270.877 199.389 271.641 200.018 272.178 200.824C272.715 201.63 273.001 202.577 272.999 203.546C272.999 204.841 272.484 206.083 271.567 206.999C270.65 207.915 269.407 208.429 268.11 208.429H268.1Z" fill="white"/>
<path d="M548.954 239.992L511.519 260.636C509.536 261.736 507.89 264.817 507.89 267.501V306.987C507.89 309.672 509.516 310.95 511.519 309.85L515.228 307.8V322.084L525.888 301.925L548.954 289.196C550.937 288.096 552.583 285.025 552.583 282.331V242.855C552.583 240.16 550.957 238.882 548.954 239.992Z" fill="#FFBF00"/>
<path d="M526.434 265.777L535.348 260.863" stroke="white" stroke-width="1.5" stroke-linecap="round" stroke-linejoin="round"/>
<path d="M526.434 277.04L542.865 267.977" stroke="white" stroke-width="1.5" stroke-linecap="round" stroke-linejoin="round"/>
<path d="M526.434 288.305L537.52 282.193" stroke="white" stroke-width="1.5" stroke-linecap="round" stroke-linejoin="round"/>
<path d="M522.077 269.89C522.733 268.308 522.526 266.72 521.616 266.343C520.705 265.967 519.435 266.944 518.779 268.526C518.123 270.108 518.33 271.696 519.241 272.073C520.152 272.449 521.422 271.472 522.077 269.89Z" fill="white"/>
<path d="M522.071 281.044C522.726 279.462 522.519 277.874 521.609 277.498C520.698 277.121 519.428 278.098 518.772 279.68C518.117 281.262 518.323 282.85 519.234 283.227C520.145 283.604 521.415 282.626 522.071 281.044Z" fill="white"/>
<path d="M522.065 292.204C522.72 290.622 522.514 289.034 521.603 288.658C520.692 288.281 519.422 289.258 518.766 290.84C518.111 292.422 518.317 294.01 519.228 294.387C520.139 294.764 521.409 293.787 522.065 292.204Z" fill="white"/>
<path d="M468.899 248.997L447.023 255.228C446.64 255.338 446.303 255.569 446.063 255.887C445.823 256.205 445.694 256.593 445.694 256.991V357.935C445.694 358.219 445.76 358.499 445.887 358.754C446.013 359.008 446.197 359.229 446.424 359.4C446.651 359.571 446.915 359.687 447.194 359.739C447.474 359.791 447.761 359.777 448.035 359.699L469.9 353.478C470.286 353.368 470.626 353.135 470.867 352.815C471.109 352.495 471.239 352.105 471.239 351.704V250.76C471.239 250.476 471.174 250.196 471.047 249.942C470.92 249.688 470.736 249.466 470.509 249.295C470.282 249.124 470.019 249.008 469.739 248.957C469.46 248.905 469.172 248.919 468.899 248.997Z" fill="#FFBF00"/>
<path d="M459.805 258.27L452.605 260.32V275.555L465.735 271.811V262.509L459.805 264.193V258.27Z" fill="#000D1A"/>
<path d="M460.668 262.874L462.651 262.3V260.318L460.668 260.883V262.874Z" fill="#000D1A"/>
<path d="M463.643 259.19L465.636 258.616V256.635L463.643 257.199V259.19Z" fill="#000D1A"/>
<path d="M463.643 262.023L465.636 261.458V259.467L463.643 260.031V262.023Z" fill="#000D1A"/>
<path d="M452.605 283.676L465.636 280.328" stroke="#F9FAFB" stroke-miterlimit="10" stroke-linecap="round"/>
<path d="M452.605 289.979L465.636 286.631" stroke="#F9FAFB" stroke-miterlimit="10" stroke-linecap="round"/>
<path d="M452.605 296.29L465.636 292.941" stroke="#F9FAFB" stroke-miterlimit="10" stroke-linecap="round"/>
<path d="M452.605 302.59L465.636 299.242" stroke="#F9FAFB" stroke-miterlimit="10" stroke-linecap="round"/>
<path d="M452.605 308.889L465.636 305.541" stroke="#F9FAFB" stroke-miterlimit="10" stroke-linecap="round"/>
<path d="M452.605 321.282L465.636 317.934" stroke="#F9FAFB" stroke-miterlimit="10" stroke-linecap="round"/>
<path d="M452.605 327.79L465.636 324.441" stroke="#F9FAFB" stroke-miterlimit="10" stroke-linecap="round"/>
<path d="M452.605 334.309L465.636 330.961" stroke="#F9FAFB" stroke-miterlimit="10" stroke-linecap="round"/>
<path d="M452.605 340.827L465.636 337.479" stroke="#F9FAFB" stroke-miterlimit="10" stroke-linecap="round"/>
<path d="M452.605 347.336L465.636 343.988" stroke="#F9FAFB" stroke-miterlimit="10" stroke-linecap="round"/>
<path d="M270.471 29.227C268.071 30.3364 265.721 31.5152 263.351 32.6643L259.81 34.4375C258.63 35.0219 257.46 35.6262 256.3 36.2403H256.211C255.431 36.6534 254.519 36.7404 253.675 36.4823C252.83 36.2241 252.123 35.6419 251.709 34.8634C251.631 34.7053 251.561 34.5433 251.5 34.378C250.82 32.3004 250.267 30.1832 249.844 28.0383C249.636 26.9585 249.418 25.8887 249.259 24.799C249.101 23.7094 248.942 22.6098 248.853 21.5004C248.81 21.0161 248.937 20.5322 249.21 20.1303C249.484 19.7284 249.888 19.4332 250.355 19.2946C250.821 19.156 251.321 19.1825 251.77 19.3696C252.219 19.5567 252.59 19.893 252.819 20.3216C253.355 21.3122 253.811 22.3027 254.297 23.2933C254.783 24.2839 255.179 25.2745 255.596 26.3146C256.431 28.338 257.137 30.4126 257.708 32.5256L252.869 30.7624C253.93 29.9897 254.991 29.2072 256.032 28.4147L259.186 26.0274C261.258 24.4127 263.36 22.8178 265.413 21.1636C265.903 20.7688 266.465 20.4741 267.069 20.2966C267.673 20.119 268.305 20.0619 268.931 20.1286C269.557 20.1953 270.163 20.3844 270.716 20.6852C271.268 20.986 271.756 21.3926 272.151 21.8817C272.547 22.3709 272.841 22.933 273.019 23.5359C273.197 24.1389 273.254 24.771 273.187 25.396C273.121 26.021 272.931 26.6268 272.63 27.1788C272.329 27.7307 271.922 28.218 271.432 28.6128C271.137 28.8538 270.814 29.0599 270.471 29.227Z" fill="#000D1A"/>
<path d="M289.024 26.2843V31.0591C289.024 31.3277 289.004 31.5959 288.964 31.8615L285.504 55.1609L271.313 58.3705L263.38 55.1609L261.704 36.4184C261.329 32.5496 261.897 28.6477 263.36 25.046C264.246 23.0115 265.894 21.4043 267.951 20.5684C268.17 20.4793 268.398 20.3901 268.626 20.3208L270.312 19.7759L279.891 18.6367L281.924 19.4986L285.593 21.0637C286.614 21.5024 287.483 22.2311 288.093 23.1592C288.703 24.0873 289.027 25.174 289.024 26.2843Z" fill="#4CC3FF"/>
<path d="M285.474 55.1719C291.285 65.722 285.414 88.9322 285.375 117.056L280.149 117.373C276.549 85.7721 273.951 65.7814 266.643 55.1719H285.474Z" fill="#000D1A"/>
<path d="M263.39 55.172C261.664 72.7952 256.825 109.834 257.589 115.6L262.547 116.373C266.514 103.227 273.207 76.7477 279.137 55.1621L263.39 55.172Z" fill="#000D1A"/>
<path d="M248.903 122.623C248.903 122.623 248.595 120.286 257.163 118.186L257.57 111.251L264.224 107.428C264.224 107.428 261.913 118.919 261.665 121.762C259.652 122.356 250.479 123.881 248.903 122.623Z" fill="#000D1A"/>
<path d="M280.397 122.831L280 114.213L285.335 113.916C285.335 113.916 285.395 118.592 285.414 122.831H280.397Z" fill="#000D1A"/>
<path d="M278.166 125.606C278.166 127.042 284.175 126.299 285.95 125.19C286.039 124.779 286.037 124.353 285.945 123.942C285.852 123.532 285.671 123.146 285.415 122.812C285.415 122.812 284.77 122.099 281.081 122.436C281.081 122.436 278.156 123.298 278.166 125.606Z" fill="#000D1A"/>
<path d="M290.046 28.9099C289.09 30.6857 287.873 32.3085 286.436 33.7242C285.074 35.078 283.556 36.2652 281.914 37.2606C278.547 39.3675 274.619 40.4038 270.649 40.2324L269.856 40.1729C269.522 40.1401 269.19 40.0838 268.864 40.0045C268.569 39.9409 268.278 39.8615 267.991 39.7668C267.714 39.6777 267.466 39.5786 267.228 39.4795C266.332 39.109 265.464 38.6754 264.63 38.1819C263.12 37.3064 261.696 36.2915 260.376 35.1507C259.086 34.0412 257.87 32.8888 256.726 31.6935C255.562 30.4957 254.463 29.2359 253.434 27.9194C253.125 27.5285 252.967 27.0392 252.989 26.5414C253.012 26.0436 253.214 25.5706 253.557 25.2093C253.901 24.848 254.363 24.6227 254.86 24.5746C255.356 24.5265 255.854 24.6589 256.26 24.9476H256.31C258.878 26.7406 261.457 28.6425 264.005 30.3166C265.284 31.1487 266.534 32.0105 267.753 32.694C268.307 33.017 268.888 33.2921 269.489 33.5162C269.628 33.5162 269.757 33.6053 269.866 33.6251L270.163 33.6846C270.262 33.6846 270.292 33.6846 270.342 33.6846H270.718C273.262 33.3989 275.671 32.3918 277.66 30.7822C279.688 29.284 281.347 27.3425 282.509 25.1061C283.056 24.2128 283.914 23.5533 284.919 23.2544C285.923 22.9556 287.003 23.0387 287.95 23.4877C288.897 23.9366 289.644 24.7197 290.047 25.6861C290.451 26.6525 290.482 27.7338 290.135 28.7217L290.046 28.9099Z" fill="#000D1A"/>
<path d="M252.928 22.6287C253.268 22.6287 253.543 22.3537 253.543 22.0146C253.543 21.6754 253.268 21.4004 252.928 21.4004C252.589 21.4004 252.313 21.6754 252.313 22.0146C252.313 22.3537 252.589 22.6287 252.928 22.6287Z" fill="#FFBF00"/>
<path d="M253.335 21.5488C254.382 22.3427 255.192 23.4082 255.675 24.6296L253.9 25.006C253.74 24.0245 253.25 23.1267 252.512 22.4602L253.335 21.5488Z" fill="#FFBF00"/>
<path d="M238.986 2.24304L231.053 27.8101C231.053 27.8101 236.249 22.6789 245.491 25.6308L253.811 1.06423C253.811 1.06423 244.846 -1.98678 238.986 2.24304Z" fill="#000D1A"/>
<path d="M248.971 36.9238C241.871 36.9238 233.958 32.5453 231.013 27.8101L238.986 2.24219C241.296 5.84805 251.143 11.0686 256.587 12.4852L248.971 36.9238Z" fill="#4CC3FF"/>
<path d="M250.122 26.0576C251.222 26.7388 252.478 27.1276 253.771 27.1869L254.069 23.5316L252.086 22.541L250.122 26.0576Z" fill="#FFBF00"/>
<path d="M251.282 26.4141C252.427 26.4141 253.355 25.4872 253.355 24.3438C253.355 23.2004 252.427 22.2734 251.282 22.2734C250.138 22.2734 249.21 23.2004 249.21 24.3438C249.21 25.4872 250.138 26.4141 251.282 26.4141Z" fill="#FFBF00"/>
<path d="M253.99 27.1964C255.003 27.1964 255.824 26.376 255.824 25.3638C255.824 24.3517 255.003 23.5312 253.99 23.5312C252.977 23.5312 252.155 24.3517 252.155 25.3638C252.155 26.376 252.977 27.1964 253.99 27.1964Z" fill="#FFBF00"/>
<path d="M250.301 22.6291C250.876 22.6291 251.342 22.1634 251.342 21.5889C251.342 21.0145 250.876 20.5488 250.301 20.5488C249.726 20.5488 249.26 21.0145 249.26 21.5889C249.26 22.1634 249.726 22.6291 250.301 22.6291Z" fill="#FFBF00"/>
<path d="M251.302 21.2812C251.593 22.0037 252.155 22.5835 252.869 22.8959L249.478 25.3328C248.912 24.1475 248.841 22.7865 249.279 21.5487L251.302 21.2812Z" fill="#FFBF00"/>
<path d="M281.934 19.4985C281.495 20.9471 280.628 22.2293 279.447 23.177C278.266 24.1247 276.825 24.6937 275.315 24.8093C273.804 24.925 272.293 24.582 270.981 23.8252C269.669 23.0684 268.617 21.9331 267.962 20.5684C268.18 20.4792 268.408 20.3901 268.636 20.3207L270.322 19.7759L279.901 18.6367L281.934 19.4985Z" fill="#FFBF00"/>
<path d="M274.735 20.3309C278.793 20.3309 282.083 17.0446 282.083 12.9907C282.083 8.93674 278.793 5.65039 274.735 5.65039C270.677 5.65039 267.387 8.93674 267.387 12.9907C267.387 17.0446 270.677 20.3309 274.735 20.3309Z" fill="#FFBF00"/>
<path d="M279.257 18.816L278.771 13.863C278.696 13.0799 278.343 12.3495 277.775 11.8043C277.208 11.259 276.463 10.9351 275.677 10.8913L272.93 10.7724C272.003 10.7314 271.081 10.6154 270.173 10.4257L268.527 10.0691C268.27 10.0193 268.025 9.91925 267.807 9.77459C267.589 9.62993 267.402 9.44356 267.256 9.22622C267.11 9.00888 267.009 8.76488 266.959 8.5083C266.908 8.25172 266.908 7.98764 266.96 7.73128C267.169 6.61678 267.729 5.59818 268.558 4.82459C269.388 4.051 270.444 3.56303 271.571 3.43212C273.421 3.20536 275.289 3.17547 277.144 3.34297C278.372 3.48468 279.548 3.91847 280.572 4.60793C281.597 5.29739 282.442 6.22241 283.035 7.30533L283.084 7.39448C283.677 8.44363 284.019 9.61557 284.082 10.8185C284.146 12.0215 283.93 13.2229 283.451 14.3286L282.103 17.4292C281.885 17.9716 281.473 18.4139 280.947 18.6701C280.421 18.9264 279.819 18.9784 279.257 18.816Z" fill="#000D1A"/>
<path d="M280.52 15.142C281.033 13.9688 280.81 12.7391 280.022 12.3953C279.234 12.0516 278.18 12.724 277.667 13.8972C277.154 15.0704 277.377 16.3001 278.165 16.6439C278.953 16.9876 280.008 16.3152 280.52 15.142Z" fill="#FFBF00"/>
<path d="M269.627 10.2373C272.163 10.2373 274.219 8.1839 274.219 5.65088C274.219 3.11787 272.163 1.06445 269.627 1.06445C267.092 1.06445 265.036 3.11787 265.036 5.65088C265.036 8.1839 267.092 10.2373 269.627 10.2373Z" fill="#000D1A"/>
<path d="M271.998 1.72852C273.2 2.49773 274.552 3.001 275.965 3.20449L277.135 3.3828L273.099 4.37339L271.998 1.72852Z" fill="#000D1A"/>
<path d="M111.738 46.5544V150.976C111.747 151.648 111.533 152.304 111.13 152.841C110.726 153.379 110.155 153.768 109.507 153.948C84.1508 160.981 64.2584 169.599 51.7935 179.297C51.5971 179.452 51.3609 179.549 51.1121 179.575C50.8633 179.602 50.612 179.558 50.3872 179.448C50.1623 179.338 49.9731 179.167 49.8412 178.955C49.7093 178.743 49.6401 178.497 49.6416 178.247V68.7641C49.6424 68.1885 49.8057 67.6248 50.1126 67.1377C50.4196 66.6505 50.8578 66.2597 51.377 66.0101C63.9213 59.9574 84.2103 49.6055 110.172 45.2071C110.366 45.1734 110.566 45.1832 110.757 45.2358C110.947 45.2884 111.123 45.3825 111.273 45.5113C111.423 45.6401 111.542 45.8004 111.623 45.9807C111.703 46.1611 111.743 46.357 111.738 46.5544Z" fill="#4CC3FF"/>
<path d="M72.0135 70.149C65.5381 71.5358 60.2725 79.1832 60.2725 87.2664C60.2725 95.3496 65.5381 100.303 72.0135 98.9157C78.4889 97.5289 83.7645 90.3372 83.7645 82.2144C83.7645 74.0915 78.4889 68.7622 72.0135 70.149ZM72.0135 91.5358C68.8502 92.2094 66.2917 89.7825 66.2917 85.8696C66.2917 81.9568 68.8502 78.2025 72.0135 77.5289C75.1769 76.8553 77.7353 79.5101 77.7353 83.4031C77.7353 87.2961 75.1769 90.8721 72.0135 91.5358Z" fill="white"/>
<path d="M66.5396 83.7116C67.2437 80.6209 69.4055 78.0652 72.0135 77.4808C72.2277 77.4269 72.4472 77.397 72.668 77.3916V70.0117L72.0135 70.1504C67.6999 71.141 63.9316 74.7566 61.8789 79.5214L66.5396 83.7116Z" fill="#000D1A"/>
<path d="M72.668 70.0111V77.4008C73.5755 77.3391 74.4797 77.5629 75.2534 78.0409C76.0271 78.5188 76.6314 79.2268 76.9816 80.0655L81.6522 74.4192C80.7809 72.8592 79.4542 71.6016 77.849 70.814C76.2439 70.0265 74.4365 69.7464 72.668 70.0111Z" fill="white"/>
<path d="M81.6519 74.3691L76.9316 80.0155C77.3087 80.7412 77.5474 81.5305 77.6357 82.3434L83.4071 79.0843C83.1536 77.4085 82.5561 75.8032 81.6519 74.3691Z" fill="#FFBF00"/>
<path d="M70.9717 158.255C81.4749 153.382 92.364 149.386 103.527 146.309" stroke="white" stroke-width="1.5" stroke-linecap="round" stroke-linejoin="round"/>
<path d="M64.8439 161.377C63.0292 162.368 61.512 163.249 60.2725 164.012" stroke="white" stroke-width="1.5" stroke-linecap="round" stroke-linejoin="round"/>
<path d="M70.9717 150.478C81.4785 145.614 92.3669 141.618 103.527 138.531" stroke="white" stroke-width="1.5" stroke-linecap="round" stroke-linejoin="round"/>
<path d="M64.8439 153.6C63.0292 154.59 61.512 155.472 60.2725 156.244" stroke="white" stroke-width="1.5" stroke-linecap="round" stroke-linejoin="round"/>
<path d="M70.9717 142.712C81.4762 137.84 92.3649 133.841 103.527 130.756" stroke="white" stroke-width="1.5" stroke-linecap="round" stroke-linejoin="round"/>
<path d="M64.8439 145.832C63.0292 146.823 61.512 147.704 60.2725 148.467" stroke="white" stroke-width="1.5" stroke-linecap="round" stroke-linejoin="round"/>
<path d="M70.9717 134.937C81.4749 130.064 92.364 126.068 103.527 122.99" stroke="white" stroke-width="1.5" stroke-linecap="round" stroke-linejoin="round"/>
<path d="M64.8439 138.047C63.0292 139.037 61.512 139.919 60.2725 140.692" stroke="white" stroke-width="1.5" stroke-linecap="round" stroke-linejoin="round"/>
<path d="M70.9717 127.159C81.4749 122.287 92.364 118.291 103.527 115.213" stroke="white" stroke-width="1.5" stroke-linecap="round" stroke-linejoin="round"/>
<path d="M64.8439 130.281C63.0292 131.272 61.512 132.153 60.2725 132.916" stroke="white" stroke-width="1.5" stroke-linecap="round" stroke-linejoin="round"/>
<path d="M70.9717 119.394C81.4762 114.521 92.3649 110.522 103.527 107.438" stroke="white" stroke-width="1.5" stroke-linecap="round" stroke-linejoin="round"/>
<path d="M64.8439 122.514C63.0292 123.504 61.512 124.386 60.2725 125.149" stroke="white" stroke-width="1.5" stroke-linecap="round" stroke-linejoin="round"/>
<path d="M70.9717 111.609C81.4785 106.745 92.3669 102.749 103.527 99.6621" stroke="white" stroke-width="1.5" stroke-linecap="round" stroke-linejoin="round"/>
<path d="M64.8439 114.729C63.0292 115.719 61.512 116.601 60.2725 117.373" stroke="white" stroke-width="1.5" stroke-linecap="round" stroke-linejoin="round"/>
<path d="M72.0127 76.4988L77.7345 69L89.6937 65.4141" stroke="#000D1A" stroke-width="1.5" stroke-linecap="round" stroke-linejoin="round"/>
<path d="M82.0186 77.2824L90.2789 74.9941" stroke="white" stroke-width="1.5" stroke-linecap="round" stroke-linejoin="round"/>
<path d="M82.0186 85.6828L90.2789 83.3945" stroke="white" stroke-width="1.5" stroke-linecap="round" stroke-linejoin="round"/>
<path d="M97.3991 64.8896L94.0176 66.009V62.6311L97.3991 61.5117V64.8896Z" fill="white"/>
<path d="M97.3991 74.3408L94.0176 75.4602V72.0823L97.3991 70.9629V74.3408Z" fill="white"/>
<path d="M97.3991 82.7999L94.0176 83.9193V80.5414L97.3991 79.4121V82.7999Z" fill="white"/>
</svg>
