<svg width="120" height="120" viewBox="0 0 120 120" fill="none" xmlns="http://www.w3.org/2000/svg">
<path d="M36.4532 56.3147C34.5367 54.3933 31.4184 54.3933 29.5015 56.3147C27.585 58.2361 27.585 61.3625 29.5015 63.2839L38.8331 72.6393L35.1362 76.3456L25.8047 66.9902C23.8887 65.0695 22.8336 62.5157 22.8336 59.7993V40.9294C22.8336 38.2069 20.6324 36 17.9168 36C15.2013 36 13 38.2069 13 40.9294V69L29 96V105H55V85.3578C55 78.6674 52.3491 72.2512 47.6303 67.5203L36.4532 56.3147Z" fill="#D1D5E0"/>
<path d="M83.5468 56.3147C85.4633 54.3933 88.5816 54.3933 90.4985 56.3147C92.415 58.2361 92.415 61.3625 90.4985 63.2839L81.1669 72.6393L84.8638 76.3456L94.1953 66.9902C96.1113 65.0695 97.1664 62.5157 97.1664 59.7993V40.9294C97.1664 38.2069 99.3676 36 102.083 36C104.799 36 107 38.2069 107 40.9294V69L91 96V105H65V85.3578C65 78.6674 67.6509 72.2512 72.3697 67.5203L83.5468 56.3147Z" fill="#D1D5E0"/>
<path d="M80.0122 19.0566C74.6952 13.648 66.0748 13.648 60.7577 19.0566L60 19.8273L59.2423 19.0565C53.9252 13.6478 45.3048 13.6478 39.9878 19.0565C34.6707 24.4651 34.6707 33.2342 39.9878 38.6427L60 59L80.0122 38.6428C85.3293 33.2342 85.3293 24.4653 80.0122 19.0566Z" fill="#4CC3FF"/>
</svg>
