<svg width="78" height="60" viewBox="0 0 78 60" fill="none" xmlns="http://www.w3.org/2000/svg">
<path d="M51.9721 34.6137C57.1109 34.6137 64.5056 33.5507 64.5056 27.3423C64.5056 26.8746 64.4639 26.3643 64.3803 25.8965L61.3305 12.4167C60.6202 9.44012 59.9936 8.1219 54.8966 5.48547C50.9277 3.40184 42.2796 0 39.6893 0C37.308 0 36.5978 3.1467 33.7568 3.1467C30.9995 3.1467 28.9941 0.807941 26.4456 0.807941C23.9807 0.807941 22.3931 2.50886 21.1398 6.03828C21.1398 6.03828 17.714 15.9461 17.2544 17.3494C17.1709 17.6045 17.1709 17.9022 17.1709 18.1573C17.1709 21.9844 32.0439 34.5712 51.9721 34.6137ZM65.2994 29.8512C66.0096 33.253 66.0096 33.6357 66.0096 34.061C66.0096 39.8866 59.5758 43.1184 51.0948 43.1184C31.9186 43.1184 15.1655 31.7222 15.1655 24.1531C15.1655 23.09 15.3744 22.0695 15.7922 21.0914C8.89877 21.4316 0 22.7073 0 30.7016C0 43.8413 30.5399 60 54.7713 60C73.3208 60 78 51.4529 78 44.7342C77.9582 39.4614 73.4462 33.4231 65.2994 29.8512Z" fill="#EE0000"/>
<path d="M65.3019 29.8509C66.0121 33.2528 66.0121 33.6355 66.0121 34.0607C66.0121 39.8864 59.5783 43.1181 51.0973 43.1181C31.921 43.1181 15.168 31.7219 15.168 24.1529C15.168 23.0898 15.3769 22.0692 15.7946 21.0912L17.2987 17.3066C17.2151 17.5618 17.2151 17.8169 17.2151 18.1146C17.2151 21.9416 32.0882 34.571 52.0164 34.571C57.1551 34.571 64.5499 33.5079 64.5499 27.2996C64.5499 26.8318 64.5081 26.3215 64.4245 25.8538L65.3019 29.8509Z" fill="#000D1A"/>
</svg>
