<svg width="120" height="120" viewBox="0 0 120 120" fill="none" xmlns="http://www.w3.org/2000/svg">
<path d="M25 15H95V105H25V15Z" fill="#4CC3FF"/>
<path d="M76 45C76 53.2843 69.2843 60 61 60C52.7157 60 46 53.2843 46 45C46 36.7157 52.7157 30 61 30C69.2843 30 76 36.7157 76 45Z" fill="white"/>
<path d="M40 71H80V74H40V71Z" fill="white"/>
<path d="M40 79H80V82H40V79Z" fill="white"/>
<path d="M40 87H80V90H40V87Z" fill="white"/>
<path d="M17 24C17 22.3431 18.3431 21 20 21H25V27H20C18.3431 27 17 25.6569 17 24Z" fill="#D1D5E0"/>
<path d="M17 36C17 34.3431 18.3431 33 20 33H25V39H20C18.3431 39 17 37.6569 17 36Z" fill="#D1D5E0"/>
<path d="M17 48C17 46.3431 18.3431 45 20 45H25V51H20C18.3431 51 17 49.6569 17 48Z" fill="#D1D5E0"/>
<path d="M17 60C17 58.3431 18.3431 57 20 57H25V63H20C18.3431 63 17 61.6569 17 60Z" fill="#D1D5E0"/>
<path d="M17 72C17 70.3431 18.3431 69 20 69H25V75H20C18.3431 75 17 73.6569 17 72Z" fill="#D1D5E0"/>
<path d="M17 84C17 82.3431 18.3431 81 20 81H25V87H20C18.3431 87 17 85.6569 17 84Z" fill="#D1D5E0"/>
<path d="M17 96C17 94.3431 18.3431 93 20 93H25V99H20C18.3431 99 17 97.6569 17 96Z" fill="#D1D5E0"/>
<path d="M33 24C33 22.3431 31.6569 21 30 21H25V27H30C31.6569 27 33 25.6569 33 24Z" fill="#000D1A"/>
<path d="M33 36C33 34.3431 31.6569 33 30 33H25V39H30C31.6569 39 33 37.6569 33 36Z" fill="#000D1A"/>
<path d="M33 48C33 46.3431 31.6569 45 30 45H25V51H30C31.6569 51 33 49.6569 33 48Z" fill="#000D1A"/>
<path d="M33 60C33 58.3431 31.6569 57 30 57H25V63H30C31.6569 63 33 61.6569 33 60Z" fill="#000D1A"/>
<path d="M33 72C33 70.3431 31.6569 69 30 69H25V75H30C31.6569 75 33 73.6569 33 72Z" fill="#000D1A"/>
<path d="M33 84C33 82.3431 31.6569 81 30 81H25V87H30C31.6569 87 33 85.6569 33 84Z" fill="#000D1A"/>
<path d="M33 96C33 94.3431 31.6569 93 30 93H25V99H30C31.6569 99 33 97.6569 33 96Z" fill="#000D1A"/>
<path fill-rule="evenodd" clip-rule="evenodd" d="M69.0235 38.9034C69.6291 39.4687 69.6618 40.4179 69.0966 41.0235L59.7633 51.0235C59.4796 51.3274 59.0824 51.5 58.6667 51.5C58.2509 51.5 57.8538 51.3274 57.5701 51.0235L52.9034 46.0235C52.3382 45.4179 52.3709 44.4687 52.9765 43.9034C53.5822 43.3382 54.5313 43.3709 55.0966 43.9765L58.6667 47.8016L66.9034 38.9765C67.4687 38.3709 68.4179 38.3382 69.0235 38.9034Z" fill="#000D1A"/>
</svg>
