<svg width="120" height="120" viewBox="0 0 120 120" fill="none" xmlns="http://www.w3.org/2000/svg">
<circle cx="22" cy="74" r="11" fill="#D1D5E0"/>
<circle cx="41" cy="18" r="11" fill="#D1D5E0"/>
<circle cx="60" cy="74" r="11" fill="#D1D5E0"/>
<circle cx="79" cy="18" r="11" fill="#D1D5E0"/>
<circle cx="98" cy="74" r="11" fill="#D1D5E0"/>
<path d="M6 107C6 98.1634 13.1634 91 22 91C30.8366 91 38 98.1634 38 107V111.952C38 112.531 37.531 113 36.9524 113H7.04762C6.46903 113 6 112.531 6 111.952V107Z" fill="#4CC3FF"/>
<path d="M25 51C25 42.1634 32.1634 35 41 35C49.8366 35 57 42.1634 57 51V55.9524C57 56.531 56.531 57 55.9524 57H26.0476C25.469 57 25 56.531 25 55.9524V51Z" fill="#4CC3FF"/>
<path d="M39 47C39 45.8954 39.8954 45 41 45C42.1046 45 43 45.8954 43 47V57H39V47Z" fill="#000D1A"/>
<path d="M44 107C44 98.1634 51.1634 91 60 91C68.8366 91 76 98.1634 76 107V111.952C76 112.531 75.531 113 74.9524 113H45.0476C44.469 113 44 112.531 44 111.952V107Z" fill="#4CC3FF"/>
<path d="M63 51C63 42.1634 70.1634 35 79 35C87.8366 35 95 42.1634 95 51V55.9524C95 56.531 94.531 57 93.9524 57H64.0476C63.469 57 63 56.531 63 55.9524V51Z" fill="#4CC3FF"/>
<path d="M77 47C77 45.8954 77.8954 45 79 45C80.1046 45 81 45.8954 81 47V57H77V47Z" fill="#000D1A"/>
<path d="M82 107C82 98.1634 89.1634 91 98 91C106.837 91 114 98.1634 114 107V111.952C114 112.531 113.531 113 112.952 113H83.0476C82.469 113 82 112.531 82 111.952V107Z" fill="#4CC3FF"/>
</svg>
