<svg width="120" height="120" viewBox="0 0 120 120" fill="none" xmlns="http://www.w3.org/2000/svg">
<path d="M37.926 46.7368C44.2046 46.7368 49.2945 41.647 49.2945 35.3684C49.2945 29.0898 44.2046 24 37.926 24C31.6474 24 26.5576 29.0898 26.5576 35.3684C26.5576 41.647 31.6474 46.7368 37.926 46.7368Z" fill="#D1D5E0"/>
<path d="M82.074 46.7368C75.7954 46.7368 70.7055 41.647 70.7055 35.3684C70.7055 29.0898 75.7954 24 82.074 24C88.3526 24 93.4424 29.0898 93.4424 35.3684C93.4424 41.647 88.3526 46.7368 82.074 46.7368Z" fill="#D1D5E0"/>
<path d="M30.2998 96V63.1562H41.0998C41.3998 63.6123 41.9998 64.6159 41.9998 64.9808C41.9998 65.437 44.2498 71.8233 45.5998 74.5603C46.9498 77.2973 54.1498 78.6658 55.0498 78.6658C55.7698 78.6658 64.3498 77.4493 68.5498 76.8411L77.5498 62.7L94.1998 63.1562V96H30.2998Z" fill="#000D1A"/>
<path fill-rule="evenodd" clip-rule="evenodd" d="M88.0083 65.0625C88.0083 73.8015 83.5356 81.4603 76.805 86.0029V96H105L100.557 63.0741C99.5782 56.1911 93.6182 51 86.6955 51H85.2075C77.486 51 71.2033 57.3088 71.2033 65.0625C71.2033 69.7151 67.4341 73.5 62.8008 73.5H60H57.1992C52.5659 73.5 48.7967 69.7151 48.7967 65.0625C48.7967 57.3088 42.514 51 34.7925 51H33.3045C26.3818 51 20.4218 56.1911 19.4427 63.0741L15 96H43.195V86.0029C36.4644 81.4603 31.9917 73.8015 31.9917 65.0625H37.5934C37.5934 75.9171 46.3896 84.75 57.1992 84.75H60H62.8008C73.6104 84.75 82.4066 75.9171 82.4066 65.0625H88.0083Z" fill="#4CC3FF"/>
</svg>
