<svg width="120" height="120" viewBox="0 0 120 120" fill="none" xmlns="http://www.w3.org/2000/svg">
<path d="M61.9935 14.8997L62.005 14.9054L62.0166 14.9109L96.1664 31.1319C97.5291 31.8609 98.5506 32.9951 98.9801 34.3069L107.463 70.5253C107.623 72.0225 107.263 73.4887 106.406 74.6963L82.79 103.684L82.7677 103.711L82.7466 103.74C81.8089 105.008 80.4118 105.635 78.9622 105.475L78.8803 105.466H78.7979H41.1896C39.705 105.369 38.1836 104.67 37.0982 103.619L13.5347 74.6964C12.6702 73.4771 12.3303 72.0231 12.58 70.5667L20.9738 34.0298C20.9742 34.0282 20.9745 34.0266 20.9749 34.025C21.3151 32.5967 22.233 31.5201 23.5066 30.9304L23.515 30.9264L23.5234 30.9224L57.5554 14.6467C58.213 14.5069 58.9848 14.5 59.8585 14.5C60.6548 14.5 61.3961 14.6033 61.9935 14.8997Z" stroke="#D1D5E0" stroke-width="3"/>
<path d="M93.0015 38.6803C92.5441 37.2267 91.4463 36.0456 90.074 35.3187L62.1716 22.0539C61.4397 21.6905 60.6163 21.5996 59.8845 21.5996C59.1526 21.5996 58.3293 21.5996 57.5974 21.7813L29.6949 35.137C28.3227 35.773 27.3163 36.9541 26.9504 38.4986L20.0891 68.3899C19.8147 69.9345 20.1806 71.479 21.0955 72.751L40.3985 96.4641C41.4963 97.5544 43.0515 98.2812 44.6067 98.3721H75.3452C76.9919 98.5538 78.5471 97.8269 79.5534 96.4641L98.8564 72.751C99.7713 71.479 100.137 69.9345 99.9543 68.3899L93.0015 38.6803Z" fill="#4CC3FF"/>
<path d="M88.586 66.8868C88.495 66.8868 88.404 66.8868 88.404 66.7968C88.404 66.7068 88.2221 66.7068 88.0401 66.7068C87.6762 66.6168 87.3122 66.6168 86.9483 66.6168C86.7663 66.6168 86.5844 66.6168 86.4024 66.5267H86.3114C85.3106 66.4367 84.2188 66.2567 83.2179 65.9866C82.945 65.8966 82.672 65.6265 82.5811 65.3564L81.8532 65.1764C82.2171 62.5657 82.0352 59.8651 81.4893 57.2544C80.8524 54.6437 79.7606 52.1231 78.3048 49.8725L78.8507 49.3324V49.2424C78.8507 48.9723 78.9417 48.6122 79.1237 48.4321C79.9425 47.712 80.7614 47.1718 81.6712 46.6317C81.8532 46.5417 82.0352 46.4516 82.2171 46.3616C82.5811 46.1816 82.854 46.0015 83.2179 45.8215C83.3089 45.7315 83.3999 45.7315 83.4909 45.6414C83.5819 45.5514 83.4909 45.5514 83.4909 45.4614C84.3098 44.8312 84.4917 43.751 83.8548 42.9407C83.5819 42.5807 83.036 42.3106 82.5811 42.3106C82.1261 42.3106 81.6712 42.4906 81.3073 42.7607L81.2163 42.8507C81.1253 42.9407 81.0343 43.0308 80.9433 43.0308C80.6704 43.3008 80.3974 43.5709 80.2155 43.841C80.1245 44.021 79.9425 44.111 79.8515 44.2011C79.2146 44.9213 78.3958 45.6414 77.5769 46.1816C77.395 46.2716 77.213 46.3616 77.031 46.3616C76.94 46.3616 76.7581 46.3616 76.6671 46.2716H76.5761L75.8482 46.7217C75.1204 46.0015 74.3015 45.2813 73.5736 44.5612C70.2072 41.9505 66.0219 40.3301 61.7457 39.88L61.6547 39.1598V39.2498C61.3818 39.0698 61.2908 38.7997 61.1998 38.5296C61.1998 37.5394 61.1998 36.5491 61.3818 35.4688V35.3788C61.3818 35.1988 61.4727 35.0187 61.4727 34.8387C61.5637 34.4786 61.5637 34.1185 61.6547 33.7584V33.2183C61.7457 32.318 61.0178 31.4178 60.108 31.3278C59.5621 31.2378 59.0162 31.5078 58.5613 31.958C58.1973 32.318 58.0154 32.7682 58.0154 33.2183V33.6684C58.0154 34.0285 58.1063 34.3886 58.1973 34.7487C58.2883 34.9287 58.2883 35.1088 58.2883 35.2888V35.3788C58.4703 36.3691 58.4703 37.3593 58.4703 38.4396C58.3793 38.7097 58.2883 38.9797 58.0154 39.1598V39.3398L57.9244 40.06C56.9235 40.15 55.9227 40.3301 54.8309 40.5101C50.5547 41.4104 46.6423 43.6609 43.6399 46.8117L43.094 46.4516H43.003C42.912 46.4516 42.821 46.5417 42.639 46.5417C42.4571 46.5417 42.2751 46.4516 42.0931 46.3616C41.2743 45.7315 40.4554 45.0113 39.8185 44.2911C39.7275 44.111 39.5456 44.021 39.4546 43.931C39.1816 43.6609 38.9997 43.3909 38.7267 43.1208C38.6357 43.0308 38.5448 43.0308 38.4538 42.9407C38.3628 42.8507 38.3628 42.8507 38.3628 42.8507C37.9988 42.5807 37.5439 42.4006 37.089 42.4006C36.5431 42.4006 36.0882 42.5807 35.8152 43.0308C35.2693 43.841 35.4513 44.9213 36.1792 45.5514C36.2702 45.5514 36.2702 45.6414 36.2702 45.6414C36.2702 45.6414 36.4521 45.8215 36.5431 45.8215C36.8161 46.0015 37.18 46.1816 37.5439 46.3616C37.7259 46.4516 37.9079 46.5417 38.0898 46.6317C38.9997 47.1718 39.9095 47.712 40.6374 48.4321C40.8194 48.6122 41.0013 48.9723 40.9103 49.2424V49.1523L41.4562 49.6925C41.3653 49.8725 41.2743 49.9625 41.1833 50.1426C38.3628 54.5537 37.18 59.775 37.9988 64.9063L37.271 65.0864C37.271 65.1764 37.18 65.1764 37.18 65.1764C37.089 65.4465 36.8161 65.6265 36.5431 65.8066C35.5423 66.0766 34.5415 66.2567 33.4496 66.3467C33.2677 66.3467 33.0857 66.3467 32.9037 66.4367C32.5398 66.4367 32.1759 66.5267 31.8119 66.5267C31.7209 66.5267 31.63 66.6168 31.448 66.6168C31.357 66.6168 31.357 66.6168 31.266 66.7068C30.2652 66.8868 29.6283 67.7871 29.8103 68.7773C29.9922 69.5875 30.8111 70.1277 31.63 70.0376C31.8119 70.0376 31.9029 70.0376 32.0849 69.9476C32.1759 69.9476 32.1759 69.9476 32.1759 69.8576C32.1759 69.7676 32.4488 69.8576 32.5398 69.8576C32.9037 69.7676 33.2677 69.5875 33.5406 69.4975C33.7226 69.4075 33.9046 69.3175 34.0865 69.3175H34.1775C35.1783 68.9574 36.0882 68.6873 37.18 68.5073H37.271C37.5439 68.5073 37.8169 68.5973 37.9988 68.7773C38.0898 68.7773 38.0898 68.8673 38.0898 68.8673L38.9087 68.7773C40.2735 72.9184 42.821 76.6093 46.3694 79.31C47.1882 79.9402 47.9161 80.4803 48.826 80.9304L48.371 81.5606C48.371 81.6506 48.462 81.6506 48.462 81.6506C48.644 81.9207 48.644 82.2808 48.553 82.5508C48.1891 83.451 47.6432 84.3513 47.0973 85.1615V85.2515C47.0063 85.4316 46.9153 85.5216 46.7333 85.7016C46.5514 85.8817 46.3694 86.2418 46.0964 86.6018C46.0054 86.6919 46.0054 86.7819 45.9145 86.8719C45.9145 86.8719 45.9145 86.9619 45.8235 86.9619C45.3686 87.8622 45.7325 88.9424 46.5514 89.3926C46.7333 89.4826 47.0063 89.5726 47.1882 89.5726C47.9161 89.5726 48.553 89.1225 48.9169 88.4923C48.9169 88.4923 48.9169 88.4023 49.0079 88.4023C49.0079 88.3123 49.0989 88.2223 49.1899 88.1322C49.2809 87.7722 49.4628 87.5021 49.5538 87.142L49.7358 86.6018C50.0087 85.6116 50.4637 84.7114 50.9186 83.8111C51.1006 83.5411 51.3735 83.361 51.6465 83.271C51.7374 83.271 51.7374 83.271 51.7374 83.181L52.1014 82.4608C54.6489 83.451 57.2875 83.9012 60.017 83.9012C61.6547 83.9012 63.2924 83.7211 64.9301 83.271C65.931 83.091 66.9318 82.7309 67.8416 82.4608L68.2056 83.091C68.2966 83.091 68.2966 83.091 68.2966 83.181C68.5695 83.271 68.8425 83.451 69.0244 83.7211C69.4793 84.6213 69.9343 85.5216 70.2072 86.5118V86.6018L70.3892 87.142C70.4802 87.5021 70.5712 87.8622 70.7531 88.1322C70.8441 88.2223 70.8441 88.3123 70.9351 88.4023C70.9351 88.4023 70.9351 88.4923 71.0261 88.4923C71.39 89.1225 72.0269 89.5726 72.7548 89.5726C73.0277 89.5726 73.2097 89.4826 73.4826 89.3926C73.8466 89.2125 74.2105 88.8524 74.3015 88.4023C74.3925 87.9522 74.3925 87.5021 74.2105 87.052C74.2105 86.9619 74.1195 86.9619 74.1195 86.9619C74.1195 86.8719 74.0286 86.7819 73.9376 86.6919C73.7556 86.3318 73.5736 86.0617 73.3007 85.7916C73.2097 85.6116 73.1187 85.5216 72.9367 85.3415V85.1615C72.2999 84.3513 71.8449 83.451 71.481 82.5508C71.39 82.2808 71.39 81.9207 71.572 81.6506C71.572 81.5606 71.663 81.5606 71.663 81.5606L71.39 80.8404C76.0302 78.0497 79.5786 73.7286 81.2163 68.5973L81.9442 68.6873C82.0352 68.6873 82.0352 68.5973 82.0352 68.5973C82.2171 68.4172 82.4901 68.3272 82.763 68.3272H82.854C83.8548 68.5072 84.8557 68.7773 85.7655 69.1374H85.8565C86.0385 69.2274 86.2204 69.3175 86.4024 69.3175C86.7663 69.4975 87.0393 69.6775 87.4032 69.7676C87.4942 69.7676 87.5852 69.8576 87.7672 69.8576C87.8581 69.8576 87.8581 69.8576 87.9491 69.9476C88.1311 70.0376 88.2221 70.0376 88.404 70.0376C89.2229 70.0376 89.9508 69.4975 90.2237 68.7773C90.1327 67.7871 89.4049 67.0669 88.586 66.8868ZM62.2916 64.0961L59.835 65.2664L57.3785 64.0961L56.7416 61.4855L58.4703 59.3249H61.1998L62.9285 61.4855L62.2916 64.0961ZM77.122 58.2446C77.5769 60.1351 77.6679 62.0256 77.4859 63.9161L68.8425 61.4855C68.0236 61.3054 67.5687 60.4952 67.7507 59.685C67.8416 59.4149 67.9326 59.2349 68.1146 59.0548L74.9384 52.9333C75.9392 54.5537 76.6671 56.3542 77.122 58.2446ZM72.2089 49.6024L64.7482 54.8238C64.1113 55.1839 63.2014 55.0938 62.7465 54.4637C62.5646 54.2836 62.4736 54.1036 62.4736 53.8335L61.9277 44.7412C65.931 45.1913 69.4793 46.9018 72.2089 49.6024ZM55.7407 45.0113L57.5604 44.6512L57.1055 53.6535C57.1055 54.4637 56.3776 55.0938 55.5588 55.0938C55.2858 55.0938 55.1039 55.0038 54.8309 54.9138L47.2792 49.6024C49.6448 47.3519 52.5563 45.7315 55.7407 45.0113ZM44.6407 52.9333L51.3735 58.8748C52.0104 59.4149 52.1014 60.3152 51.5555 60.9453C51.3735 61.2154 51.1915 61.3054 50.8276 61.3954L42.0021 63.9161C41.7292 60.1351 42.639 56.2641 44.6407 52.9333ZM43.094 68.1472L52.1014 66.6168C52.8293 66.6168 53.5571 67.0669 53.6481 67.7871C53.7391 68.0571 53.7391 68.4172 53.5571 68.6873L50.0997 76.9694C46.9153 74.8989 44.3677 71.7481 43.094 68.1472ZM63.7473 79.31C62.4736 79.5801 61.1998 79.7601 59.835 79.7601C57.9244 79.7601 55.9227 79.4 54.103 78.8599L58.5613 70.8478C59.0162 70.3077 59.744 70.1277 60.3809 70.4878C60.6539 70.6678 60.8359 70.8478 61.1088 71.1179L65.476 78.9499C64.9301 79.0399 64.3842 79.13 63.7473 79.31ZM74.8474 71.478C73.4826 73.6386 71.572 75.529 69.3884 76.8794L65.84 68.4172C65.658 67.697 66.0219 66.9769 66.6588 66.7068C66.9318 66.6168 67.2047 66.5267 67.4777 66.5267L76.5761 68.0571C76.1212 69.3175 75.5753 70.4878 74.8474 71.478Z" fill="white"/>
</svg>
