<svg width="120" height="120" viewBox="0 0 120 120" fill="none" xmlns="http://www.w3.org/2000/svg">
<path d="M32.8063 72.625H22V97.9982H47.2938V87.0901H32.8063V72.625Z" fill="#D1D5E0"/>
<path d="M72.707 22V32.9081H87.1945V47.3732H98.0008V22H72.707Z" fill="#D1D5E0"/>
<path d="M32.925 47.3732H22V22H72.706V32.9081H56.7935L71.281 47.3732H61.781L47.2935 32.9081H32.8063V47.2546L32.925 47.3732Z" fill="#4CC3FF"/>
<path d="M47.2938 61.7215L32.925 47.375H22V72.6296H32.8063V56.8603L47.2938 71.3254V61.7215Z" fill="#4CC3FF"/>
<path d="M87.194 47.375V63.1443L72.7065 48.6792V58.2831L87.0753 72.6296H87.0799L87.194 72.7436V87.0901H72.7065V97.9982H98.0003V47.375H87.194Z" fill="#4CC3FF"/>
<path d="M48.7185 72.625H58.2185L65.4622 79.8575L72.706 86.9715L72.7065 97.9982H47.2935V87.0901H63.0872L60.7122 84.6002L48.7185 72.625Z" fill="#4CC3FF"/>
</svg>
