<?xml version="1.0" encoding="UTF-8" standalone="no"?>
<svg
   class="w-full h-full"
   viewBox="0 0 901.55396 190.76867"
   version="1.1"
   id="svg22"
   sodipodi:docname="logo.svg"
   width="901.55396"
   height="190.76868"
   inkscape:version="1.1.1 (3bf5ae0d25, 2021-09-20)"
   xmlns:inkscape="http://www.inkscape.org/namespaces/inkscape"
   xmlns:sodipodi="http://sodipodi.sourceforge.net/DTD/sodipodi-0.dtd"
   xmlns="http://www.w3.org/2000/svg"
   xmlns:svg="http://www.w3.org/2000/svg">
  <defs
     id="defs26" />
  <sodipodi:namedview
     id="namedview24"
     pagecolor="#ffffff"
     bordercolor="#666666"
     borderopacity="1.0"
     inkscape:pageshadow="2"
     inkscape:pageopacity="0.0"
     inkscape:pagecheckerboard="0"
     showgrid="false"
     fit-margin-top="0"
     fit-margin-left="0"
     fit-margin-right="0"
     fit-margin-bottom="0"
     inkscape:zoom="1"
     inkscape:cx="451"
     inkscape:cy="95.5"
     inkscape:window-width="1866"
     inkscape:window-height="1016"
     inkscape:window-x="1974"
     inkscape:window-y="27"
     inkscape:window-maximized="1"
     inkscape:current-layer="svg22" />
  <path
     d="m 318.03183,96.284425 c 0,30.556215 -21.74015,50.219275 -46.9421,50.219275 -12.09325,0 -25.38659,-4.89268 -31.94094,-15.13963 v 59.4046 H 215.37772 V 48.373019 h 23.77107 V 61.06631 c 6.55435,-10.293105 20.26311,-15.185793 31.75631,-15.185793 25.20195,0 47.12673,19.70922 47.12673,50.403908 m -23.77108,0 A 27.371353,27.371353 0 1 0 267.2125,124.62508 27.41751,27.41751 0 0 0 294.26075,96.515212"
     class="fill-current"
     id="path2"
     style="stroke-width:4.61574" />
  <path
     d="m 403.88464,48.373019 h 23.77107 v 95.684341 h -23.77107 v -14.81653 a 38.587607,38.587607 0 0 1 -32.77177,17.40134 c -25.61737,0 -46.15743,-20.67852 -46.15743,-50.403902 0,-28.894548 19.66306,-50.219279 46.71132,-50.219279 a 37.98756,37.98756 0 0 1 32.31019,15.78584 z m -0.41542,47.726777 a 27.232881,27.232881 0 0 0 -51.32706,-13.385654 22.247879,22.247879 0 0 0 -2.44634,5.815836 27.694455,27.694455 0 1 0 53.7734,7.569818"
     class="fill-current"
     id="path4"
     style="stroke-width:4.61574" />
  <path
     d="m 505.93868,49.157695 -4.61574,22.57098 a 30.048483,30.048483 0 0 0 -13.84723,-3.507964 c -15.55505,0 -24.18649,15.601209 -24.18649,42.418669 v 33.41798 H 439.14891 V 48.373019 h 23.77105 v 20.493896 c 5.12348,-16.016626 15.55506,-23.078713 27.46367,-23.078713 a 35.264272,35.264272 0 0 1 15.55505,3.277178"
     class="fill-current"
     id="path6"
     style="stroke-width:4.61574" />
  <path
     d="m 511.47758,5.3081405 a 9.2314849,9.2314849 0 0 1 3.55412,-3.138705 c 12.41634,-6.000465 24.41727,1.200093 24.41727,12.3701905 A 15.278108,15.278108 0 1 1 511.47758,5.3081405 m 0.69236,43.0648785 h 23.77107 v 95.684341 h -23.58644 z"
     class="fill-current"
     id="path8"
     style="stroke-width:4.61574" />
  <path
     class="fill-current"
     d="m 605.26946,48.373019 c 0,6.277409 0,12.554819 0,18.832228 -6.76977,0 -13.53949,0 -20.30926,0 0,25.617371 0,51.234743 0,76.852113 -7.92371,0 -15.84737,0 -23.77108,0 0,-25.61737 0,-51.234742 0,-76.852113 -5.73889,0 -11.47783,0 -17.21672,0 0,-6.277409 0,-12.554819 0,-18.832228 5.73889,0 11.47783,0 17.21672,0 0,-11.754774 0,-23.509501 0,-35.264273 7.92371,0 15.84737,0 23.77108,0 0,11.754772 0,23.509499 0,35.264273 6.76977,0 13.53949,0 20.30926,0 0,0 0,0 0,0 z"
     id="path10"
     style="stroke-width:4.61574" />
  <path
     class="fill-current"
     d="m 682.16773,48.373019 c 8.52375,0 17.04746,0 25.57122,0 -19.80154,47.465202 -39.60308,94.930451 -59.40461,142.395651 -8.33912,0 -16.6782,0 -25.01732,0 7.18518,-17.83213 14.37032,-35.66432 21.55551,-53.49645 -12.70866,-29.63307 -25.41737,-59.266135 -38.12603,-88.899201 8.6776,0 17.35519,0 26.03279,0 8.26218,20.201581 16.52436,40.403116 24.78653,60.604701 8.20066,-20.201585 16.40126,-40.40312 24.60191,-60.604701 0,0 0,0 0,0 z"
     id="path12"
     style="stroke-width:4.61574" />
  <path
     d="M 717.89358,96.515212 A 37.202884,37.202884 0 0 1 754.35794,58.38918 36.92594,36.92594 0 0 1 791.28388,95.869008 36.92594,36.92594 0 0 1 754.35794,133.99504 36.92594,36.92594 0 0 1 717.89358,96.515212 m -13.10871,-0.230787 a 48.511453,48.511453 0 0 0 48.55761,50.219275 42.695618,42.695618 0 0 0 38.07988,-20.90931 v 64.98965 h 13.15486 V 48.373019 H 791.46851 V 66.835988 A 43.01872,43.01872 0 0 0 753.38864,45.695887 48.834555,48.834555 0 0 0 704.83103,96.099796 m 111.47018,0 a 51.096269,51.096269 0 0 0 85.25276,37.295194 l -8.26218,-8.76991 a 39.049181,39.049181 0 0 1 -25.802,9.23149 36.92594,36.92594 0 0 1 -38.12603,-37.895247 36.92594,36.92594 0 0 1 38.12603,-37.710616 38.495292,38.495292 0 0 1 25.802,9.646902 l 7.98524,-9.231485 a 50.773167,50.773167 0 0 0 -85.02198,36.92594"
     style="fill:#e61430;stroke-width:4.61574"
     id="path14" />
  <path
     style="fill:#e61430;stroke-width:4.61574"
     d="m 88.02554,26.07618 c 12.66364,12.663633 25.32727,25.327267 37.9909,37.990898 C 113.35281,76.730709 100.68918,89.39434 88.02554,102.05798 75.36191,89.39434 62.69828,76.730709 50.03465,64.067078 62.69828,51.403447 75.36191,38.739813 88.02554,26.07618 Z"
     id="path16" />
  <path
     style="fill:#e61430;stroke-width:4.61574"
     d="m 136.45662,76.099229 c 12.66364,12.663636 25.32727,25.327271 37.9909,37.990901 -12.66363,12.66363 -25.32726,25.32726 -37.9909,37.99089 -12.66363,-12.66363 -25.32726,-25.32726 -37.99089,-37.99089 12.66363,-12.66363 25.32726,-25.327265 37.99089,-37.990901 z"
     id="path18" />
  <path
     style="fill:#e61430;stroke-width:4.61574"
     d="M 37.9909,76.111175 C 50.65453,88.774806 63.31816,101.43844 75.98179,114.10207 63.31816,126.7657 50.65453,139.42933 37.9909,152.09297 25.32726,139.42933 12.66363,126.7657 0,114.10207 12.66363,101.43844 25.32726,88.774806 37.9909,76.111175 Z"
     id="path20" />
</svg>
