<?xml version="1.0" encoding="UTF-8" standalone="no"?>
<svg
   xmlns:dc="http://purl.org/dc/elements/1.1/"
   xmlns:cc="http://creativecommons.org/ns#"
   xmlns:rdf="http://www.w3.org/1999/02/22-rdf-syntax-ns#"
   xmlns:svg="http://www.w3.org/2000/svg"
   xmlns="http://www.w3.org/2000/svg"
   xmlns:sodipodi="http://sodipodi.sourceforge.net/DTD/sodipodi-0.dtd"
   xmlns:inkscape="http://www.inkscape.org/namespaces/inkscape"
   width="120"
   height="30"
   version="1.1"
   id="svg6"
   sodipodi:docname="exoscale.svg"
   inkscape:version="1.0.1 (0767f8302a, 2020-10-17)">
  <metadata
     id="metadata12">
    <rdf:RDF>
      <cc:Work
         rdf:about="">
        <dc:format>image/svg+xml</dc:format>
        <dc:type
           rdf:resource="http://purl.org/dc/dcmitype/StillImage" />
        <dc:title></dc:title>
      </cc:Work>
    </rdf:RDF>
  </metadata>
  <defs
     id="defs10" />
  <sodipodi:namedview
     pagecolor="#ffffff"
     bordercolor="#666666"
     borderopacity="1"
     objecttolerance="10"
     gridtolerance="10"
     guidetolerance="10"
     inkscape:pageopacity="0"
     inkscape:pageshadow="2"
     inkscape:window-width="1868"
     inkscape:window-height="1016"
     id="namedview8"
     showgrid="false"
     inkscape:zoom="10.475"
     inkscape:cx="60"
     inkscape:cy="30"
     inkscape:window-x="52"
     inkscape:window-y="27"
     inkscape:window-maximized="1"
     inkscape:current-layer="svg6" />
  <path
     d="M 20.367,1.5744872 5,28.174488 H 7.132 L 20.367,5.3804877 v 3.75 L 9.338,28.174488 h 2.206 l 8.823,-15.22 v 3.823 l -6.617,11.397 h 2.206 l 4.412,-7.573 v 3.75 l -2.206,3.823 h 17.573 z"
     fill="#da291c"
     id="path2" />
  <path
     d="M 36.263,14.404488 H 43.2 v 1.482 h -5.276 v 2.42 h 4.698 v 1.482 h -4.698 v 2.493 h 5.348 v 1.482 h -7 z m 17.598,0 -3.252,4.553 3.397,4.77 h -1.95 l -2.456,-3.577 -2.457,3.577 h -1.88 l 3.36,-4.77 -3.252,-4.6 h 1.95 l 2.313,3.36 2.35,-3.36 h 1.88 z m 1.482,4.698 c 0,-2.674 2.024,-4.842 4.914,-4.842 2.855,0 4.878,2.168 4.878,4.806 0,2.638 -2.024,4.842 -4.914,4.842 -2.855,0 -4.878,-2.168 -4.878,-4.806 z m 8.058,0 c 0,-1.843 -1.337,-3.324 -3.18,-3.324 -1.843,0 -3.144,1.482 -3.144,3.288 0,1.806 1.337,3.324 3.18,3.324 1.843,0 3.144,-1.482 3.144,-3.288 z m 3.758,3.288 0.976,-1.192 c 0.903,0.76 1.807,1.23 2.963,1.23 1.012,0 1.662,-0.47 1.662,-1.192 v -0.036 c 0,-0.65 -0.36,-1.012 -2.096,-1.445 -1.987,-0.47 -3.108,-1.084 -3.108,-2.782 v -0.036 c 0,-1.6 1.337,-2.7 3.18,-2.7 1.373,0 2.457,0.397 3.397,1.192 l -0.867,1.23 c -0.83,-0.614 -1.698,-0.976 -2.53,-0.976 -0.976,0 -1.518,0.506 -1.518,1.12 v 0.036 c 0,0.723 0.434,1.048 2.24,1.482 1.987,0.47 3,1.192 3,2.746 v 0.036 c 0,1.734 -1.373,2.782 -3.324,2.782 a 5.96,5.96 0 0 1 -3.975,-1.482 z m 9.503,-3.288 c 0,-2.674 1.987,-4.842 4.806,-4.842 1.734,0 2.782,0.614 3.686,1.445 l -1.048,1.23 c -0.76,-0.687 -1.554,-1.156 -2.638,-1.156 -1.77,0 -3.07,1.445 -3.07,3.288 0,1.843 1.3,3.324 3.07,3.324 1.156,0 1.88,-0.47 2.674,-1.192 l 1.058,1.085 c -0.976,1.012 -2.06,1.662 -3.794,1.662 -2.7,-0.036 -4.734,-2.168 -4.734,-4.842 z m 14.345,-4.77 h 1.518 l 4.12,9.395 H 94.9 l -0.94,-2.24 h -4.4 l -0.976,2.24 h -1.698 z m 2.35,5.7 -1.626,-3.722 -1.6,3.722 z m 5.637,-5.637 h 1.626 v 7.84 h 4.914 v 1.482 h -6.54 z m 8.998,0 h 6.938 v 1.482 h -5.276 v 2.42 h 4.698 v 1.482 h -4.698 v 2.493 H 115 v 1.502 h -7 z"
     id="path4" />
</svg>
