<svg width="804" height="321" viewBox="0 0 804 321" fill="none" xmlns="http://www.w3.org/2000/svg"><path d="m555.689 106.773-6.597 43.653 22.972 3.47 6.597-43.653-22.972-3.47Z" fill="#000D1A"/><path d="M622.846 85.44a7.19 7.19 0 1 0 0-14.377 7.19 7.19 0 0 0-7.191 7.188 7.19 7.19 0 0 0 7.191 7.19Z" fill="#4CC3FF"/><path d="M546.697 80.276a7.19 7.19 0 0 0 7.191-7.189 7.19 7.19 0 0 0-7.191-7.189 7.19 7.19 0 1 0 0 14.378Z" fill="#000D1A"/><path d="M783.353 0h-80.115v319.998h80.115V0Z" fill="#E9EBF2"/><path d="M547.987 224.607h167.051V0h-11.8L547.987 155.207v69.4Z" fill="#E9EBF2"/><path d="M704.62 155.757h-61.308l60.939-60.921.369 60.921Z" fill="#fff"/><path d="M539.506 211.52h49.138c6.361 0 11.524 5.161 11.524 11.52v1.014c0 6.359-5.163 11.521-11.524 11.521h-49.138V211.52Z" fill="#000D1A"/><path d="M245.23 319.998h-80.115L145.939 0h80.207l19.084 319.998Z" fill="#E9EBF2"/><path d="M4.149 224.607H171.2L157.74 0h-11.801L0 155.207l4.149 69.4Z" fill="#E9EBF2"/><path d="M156.726 155.757h-61.4l57.343-60.921 4.057 60.921Z" fill="#fff"/><path d="M395.409 301.938h76.98v8.11c0 5.438-4.425 9.954-9.957 9.954h-67.023v-18.064ZM472.389 14.286v7.65h-76.98V3.87h66.563c5.715 0 10.417 4.7 10.417 10.415Z" fill="#4CC3FF"/><path d="M565.779 176.405c-2.028 51.797-19.268 91.243-42.224 92.073-26.182.922-49.875-49.032-52.826-111.705-2.95-62.672 15.857-114.1 42.132-115.022 23.417-.83 44.805 38.986 51.259 92.073.737 6.36 1.29 12.903 1.659 19.632.277 7.926.277 15.575 0 22.949Z" fill="#FFBF00"/><path d="M385.546 287.833s3.78 8.295 14.751 8.295c10.97 0 18.622-12.073 18.622-12.073l-33.373 3.778ZM383.24 34.744s13.276-16.036 28.672 2.489l-28.948-2.212.276-.277Z" fill="#000D1A"/><path d="M511.628 276.518c27.561-1.381 47.227-55.868 43.925-121.7-3.301-65.832-28.32-118.08-55.881-116.698-27.56 1.381-47.226 55.868-43.925 121.7 3.302 65.832 28.32 118.079 55.881 116.698ZM442.519 36.595l-107.311-2.857 4.425 258.893 109.616-10.323-6.73-245.713Z" fill="#4CC3FF"/><path d="m501.153 38.154-36.692-1.013 10.694 242.763 37.43-3.502-11.432-238.248Z" fill="#4CC3FF"/><path d="M523.094 95.944h-14.935V94.56h14.935c.185 0 .461 0 .646-.092 1.475-.368 2.489-1.843 2.12-3.318a214.897 214.897 0 0 0-7.928-27.28c-.369-1.107-1.476-1.844-2.582-1.844h-16.318v-1.383h16.318c1.752 0 3.319 1.107 3.872 2.766 3.227 8.94 5.9 18.156 8.021 27.465.553 2.212-.922 4.516-3.135 4.977-.461 0-.737.092-1.014.092ZM512.584 277.047c-.184 0-.276 0-.368-.092-.277-.184-.369-.645-.185-.922 3.411-4.7 5.808-9.953 7.191-15.668l-22.863 1.751c-.369 0-.738-.276-.738-.645 0-.368.277-.737.645-.737l23.786-1.843c.184 0 .461.092.553.276.184.184.184.369.184.645-1.382 6.175-3.964 11.89-7.652 17.051-.092.092-.368.184-.553.184Z" fill="#fff"/><path d="M339.836 286.885c24.74-.484 43.713-56.241 42.378-124.537-1.336-68.297-22.474-123.27-47.215-122.786-24.74.483-43.713 56.24-42.378 124.537 1.336 68.296 22.475 123.269 47.215 122.786Z" fill="#4CC3FF"/><path d="M335.391 45.346c21.573 0 40.012 52.81 41.118 117.879 1.106 65.069-15.488 117.88-37.061 117.88s-40.011-52.719-41.025-117.88c-1.014-65.16 15.396-117.88 36.968-117.88Zm-.184-11.52c-11.155 0-26.828 7.372-37.891 42.487-7.375 23.41-11.063 54.286-10.602 87.005.461 32.718 5.347 63.594 13.552 87.004 12.262 35.115 28.119 42.488 39.366 42.488 11.248 0 26.828-7.373 37.891-42.488 7.375-23.41 11.063-54.286 10.51-87.004-.553-32.719-5.347-63.595-13.46-87.005-12.262-35.207-28.119-42.58-39.366-42.488Z" fill="#fff"/><path d="M523.28 192.719c-.185 2.212-.277 4.516-.461 6.728-2.766 33.733-10.049 64.608-21.849 84.516-7.745 13.087-17.517 21.382-29.133 22.58h-.092c-.922.093-1.844.185-2.766.185-.922 0-1.752-.092-2.674-.092l-65.363.092 40.564-45.991 9.588-98.525-5.255-59.815-14.013-42.488-18.531-31.152-17.424-10.968h68.038c11.431 0 21.296 6.636 29.501 17.88 19.083 25.99 29.593 76.497 30.423 126.635.277 10.139 0 20.369-.553 30.415Z" fill="#4CC3FF"/><path d="M425.464 35.67c-8.297-11.245-18.161-17.88-29.501-17.88-10.971 0-20.282 6.174-28.026 16.589l-.092.184 15.119.369.369-.277c4.056-3.502 8.389-5.437 12.907-5.437 4.794 0 9.403 2.12 13.736 5.99 18.992 16.774 33.374 67.281 34.48 126.912.922 55.668-10.049 103.41-26.551 123.133-5.255 6.267-10.971 9.77-17.148 9.77-5.07 0-9.957-2.397-14.658-6.821l-.093-.092-14.013 1.291v.092c8.113 10.691 17.793 17.05 28.856 17.05 12.907 0 23.601-8.571 32.083-22.672 16.041-27.097 23.785-74.562 22.956-121.751-.83-49.954-11.34-100.46-30.424-126.45Z" fill="#fff"/><path d="M376.143 185.896c-.185 3.964-.461 7.742-.738 11.521-2.12 25.438-7.098 47.189-13.828 62.12H248.918c-15.488 0-27.934-12.535-27.934-27.927V101.012c0-15.484 12.538-27.926 27.934-27.926h112.105c5.255 12.719 9.404 29.309 12.17 48.11a318.63 318.63 0 0 1 2.397 22.12c.461 6.452.829 13.18.922 20 .092 7.65 0 15.207-.369 22.58Z" fill="#000D1A"/><path d="M300.36 250.229a170.403 170.403 0 0 0 3.596 9.401h-73.754c-5.162 0-9.311-4.055-9.495-9.216l-5.163-167.465c-.184-5.253 3.964-9.677 9.219-9.77h73.661c-.369 1.014-.737 2.028-1.014 3.134-7.375 23.41-11.063 54.286-10.602 87.004.461 32.719 5.347 63.502 13.552 86.912Z" fill="#FFBF00"/><path d="M316.585 259.537h-12.63a171.022 171.022 0 0 1-3.596-9.401c-2.397-6.913-4.333-13.917-5.992-21.014-.83-3.779-1.66-7.558-2.397-11.521-3.135-17.972-4.886-36.129-5.163-54.377-.553-32.719 3.227-63.594 10.602-87.004.369-1.106.645-2.12 1.014-3.134h12.354c-8.113 21.659-12.999 54.009-12.354 90.138.646 39.815 7.744 75.022 18.162 96.313Z" fill="#4CC3FF"/><path d="M236.636 91.038c1.499-1.525 1.447-4.005-.115-5.539-1.562-1.534-4.043-1.54-5.542-.015-1.499 1.525-1.447 4.006.115 5.54 1.563 1.533 4.044 1.54 5.542.014ZM250.851 91.085c1.499-1.525 1.447-4.005-.115-5.54-1.562-1.533-4.044-1.54-5.542-.014-1.499 1.525-1.447 4.005.115 5.54 1.562 1.533 4.044 1.54 5.542.014ZM265.132 91.066c1.499-1.526 1.447-4.006-.115-5.54-1.562-1.533-4.043-1.54-5.542-.015-1.498 1.526-1.447 4.006.115 5.54 1.563 1.533 4.044 1.54 5.542.015ZM278.88 229.125h-35.678c-3.227 0-5.9-2.581-5.992-5.807a5.476 5.476 0 0 1 5.162-5.806h36.047c3.227 0 5.9 2.58 5.993 5.806a5.478 5.478 0 0 1-5.163 5.807h-.369Z" fill="#fff"/><path d="M359.732 229.125h-35.678c-3.227 0-5.901-2.581-5.993-5.807a5.478 5.478 0 0 1 5.163-5.806h36.047c3.226 0 5.9 2.58 5.992 5.806a5.477 5.477 0 0 1-5.163 5.807h-.368Z" fill="#FFBF00"/><path d="M259.611 197.421h-17.332c-3.226 0-5.9-2.58-5.992-5.806-.092-3.041 2.212-5.622 5.255-5.806h17.608c3.227 0 5.901 2.58 5.993 5.806a5.478 5.478 0 0 1-5.163 5.806h-.369ZM255.278 143.226h-17.332c-3.226 0-5.9-2.581-5.992-5.806-.092-3.042 2.212-5.622 5.255-5.807h17.608c3.227 0 5.901 2.581 5.993 5.807a5.478 5.478 0 0 1-5.163 5.806h-.369ZM254.173 121.105h-17.332c-3.227 0-5.901-2.581-5.993-5.806a5.478 5.478 0 0 1 5.163-5.807h17.701c3.226 0 5.9 2.581 5.992 5.807.092 3.041-2.212 5.622-5.255 5.806h-.276Z" fill="#fff"/><path d="M376.141 185.901c-.184 3.963-.461 7.742-.737 11.52h-21.389c-3.226 0-5.9-2.58-5.992-5.806v-.276c-.092-3.042 2.397-5.438 5.347-5.53h.184l22.587.092ZM375.589 143.223h-48.4c-1.475 0-2.674-1.106-2.674-2.581l-.553-16.682c0-1.474 1.106-2.765 2.581-2.765h46.649a309.895 309.895 0 0 1 2.397 22.028Z" fill="#FFBF00"/><path d="M394.948 3.871h.922c5.532 0 10.049 4.516 10.049 10.046v8.019h-21.02v-8.019c0-5.53 4.518-10.046 10.049-10.046ZM384.899 301.938h21.02v8.018c0 5.53-4.517 10.046-10.049 10.046h-.922c-5.531 0-10.049-4.516-10.049-10.046v-8.018Z" fill="#fff"/><path d="M398.686 309.892c.016-2.749-1.705-4.987-3.844-4.999-2.138-.013-3.884 2.206-3.9 4.954-.016 2.749 1.705 4.987 3.843 5 2.139.012 3.885-2.206 3.901-4.955ZM394.892 19.908c2.139-.012 3.859-2.25 3.844-5-.016-2.748-1.763-4.966-3.901-4.954-2.139.013-3.859 2.25-3.843 5 .015 2.748 1.762 4.966 3.9 4.954Z" fill="#000D1A"/><path d="M443.349 140.83h-34.295c-2.49 0-4.61-1.936-4.794-4.424-1.107-12.074-2.858-24.148-5.44-36.037-.553-2.58 1.107-5.161 3.688-5.714.369-.093.645-.093 1.014-.093h33.466v1.383h-33.466c-.277 0-.461 0-.738.092-1.843.369-3.042 2.212-2.581 4.055a317.75 317.75 0 0 1 5.439 36.221c.185 1.752 1.66 3.134 3.412 3.134h34.295v1.383ZM370.887 269.581a.63.63 0 0 1-.646-.645c0-.369.277-.738.646-.738l57.435-3.686c.369 0 .737.276.737.645s-.276.737-.645.737l-57.527 3.687c.092 0 .092 0 0 0Z" fill="#fff"/><path d="M375.037 289.861c-.185 0-.461-.092-.553-.277-.185-.276-.093-.737.184-.921 8.85-5.807 16.041-18.802 21.388-38.618a258.145 258.145 0 0 0 6.269-32.442c0-.369.369-.645.646-.645h7.836c1.014-7.65 1.752-15.945 2.213-24.608h-24.892a.728.728 0 0 1-.738-.738c0-.461.277-.737.738-.737h25.629c.185 0 .369.092.461.184.092.092.185.277.185.553-.461 9.125-1.291 17.88-2.305 25.991 0 .369-.369.645-.646.645h-7.744c-1.383 10.783-3.411 21.567-6.176 32.074-5.44 20.184-12.907 33.456-21.942 39.447-.277.092-.369.092-.553.092ZM512.678 187.834h-44.345c-1.198 0-2.397-.461-3.226-1.382-.83-.922-1.291-2.028-1.291-3.226v-.185c.277-7.004.277-14.009.184-20.829-.184-12.074-1.014-24.055-2.304-35.76-.277-2.489 1.475-4.793 4.056-5.069h44.897c2.305 0 4.241 1.751 4.518 4.055 1.383 11.982 2.12 24.332 2.397 36.774.092 6.175 0 12.995-.185 21.198-.184 2.489-2.212 4.424-4.701 4.424Zm-2.121-65.069h-44.713c-1.751.185-2.95 1.751-2.765 3.503 1.29 11.705 2.12 23.778 2.304 35.944.093 6.82.093 13.825-.184 20.922v.092c0 .829.369 1.659.922 2.212.553.645 1.383.921 2.212.921h44.345c1.659 0 3.134-1.29 3.134-3.041.277-8.203.277-14.931.185-21.198a366.254 366.254 0 0 0-2.397-36.682c-.093-1.475-1.383-2.673-3.043-2.673Z" fill="#fff"/><path d="M472.482 181.382c-1.199 0-2.213-1.014-2.213-2.12v-.092c.185-5.622.185-11.337.093-16.959-.185-10.691-.83-21.382-1.844-31.889-.092-1.198.737-2.212 1.936-2.396H506.869c1.107 0 2.029.829 2.213 1.935 1.106 10.599 1.752 21.567 1.936 32.535.092 5.622.092 11.244-.092 16.866 0 1.198-1.014 2.12-2.213 2.12h-36.231Z" fill="#FFBF00"/><path d="M518.669 104.699h-68.037v1.383h68.037v-1.383ZM522.357 204.055h-68.221v1.382h68.221v-1.382ZM555.823 177.14H542.64v-.737c.184-6.912.092-13.917-.184-20.829-.369-7.282-.922-14.47-1.844-21.567l-.092-.737h13.275v1.382h-11.8c.829 6.912 1.382 13.917 1.751 20.922.277 6.635.369 13.456.277 20.184h11.8v1.382ZM563.014 125.711h-10.326v1.382h10.326v-1.382ZM565.596 183.312h-10.049v1.383h10.049v-1.383Z" fill="#fff"/><path d="M455.308 66.464c1.509-1.586 1.325-4.209-.409-5.857-1.735-1.649-4.364-1.699-5.873-.112-1.508 1.586-1.325 4.209.41 5.857 1.734 1.648 4.363 1.699 5.872.112ZM463.282 94.3c1.508-1.586 1.325-4.209-.41-5.857-1.734-1.649-4.363-1.7-5.872-.112-1.508 1.586-1.325 4.209.409 5.857 1.735 1.648 4.364 1.699 5.873.112Z" fill="#000D1A"/><path d="M459.866 80.132c1.508-1.586 1.325-4.209-.41-5.857-1.734-1.649-4.363-1.699-5.872-.113-1.509 1.587-1.325 4.21.409 5.858 1.735 1.648 4.364 1.699 5.873.112Z" fill="#fff"/><path d="M510.027 250.354c1.574-1.802 1.513-4.43-.136-5.87-1.649-1.44-4.262-1.147-5.836.655-1.575 1.802-1.514 4.431.135 5.87 1.649 1.44 4.263 1.147 5.837-.655Z" fill="#000D1A"/><path d="M515.39 221.963c1.574-1.802 1.514-4.43-.136-5.87-1.649-1.44-4.262-1.146-5.836.656-1.574 1.802-1.514 4.43.135 5.87 1.65 1.44 4.263 1.146 5.837-.656Z" fill="#fff"/><path d="M513.315 236.467c1.574-1.802 1.513-4.43-.136-5.87-1.649-1.44-4.262-1.146-5.836.656-1.575 1.802-1.514 4.43.135 5.87 1.649 1.44 4.263 1.146 5.837-.656Z" fill="#000D1A"/><path d="M403.843 80.898c1.088-1.144.922-3.066-.369-4.294-1.292-1.227-3.221-1.295-4.308-.152-1.088 1.144-.923 3.067.369 4.294 1.292 1.228 3.221 1.296 4.308.152Z" fill="#fff"/><path d="M410.319 104.605c1.088-1.144.922-3.066-.37-4.294-1.291-1.227-3.22-1.295-4.308-.152-1.087 1.144-.922 3.067.37 4.294 1.292 1.228 3.22 1.296 4.308.152Z" fill="#000D1A"/><path d="M406.94 91.062c1.088-1.144.922-3.066-.37-4.294-1.291-1.227-3.22-1.295-4.308-.151-1.087 1.143-.922 3.066.37 4.293 1.292 1.228 3.22 1.296 4.308.152ZM491.381 168.849c-5.255 0-10.141-2.857-12.723-7.373a2.273 2.273 0 0 1 .83-3.133 2.275 2.275 0 0 1 3.135.829c1.843 3.042 5.162 4.977 8.666 5.069h.553c2.397-.092 4.609-1.198 6.177-2.949a9.12 9.12 0 0 0 2.304-6.452c-.276-5.345-4.701-9.677-10.049-9.677a2.282 2.282 0 0 1-2.304-2.304 2.282 2.282 0 0 1 2.304-2.304c7.837.092 14.29 6.267 14.659 14.101.184 3.594-1.014 7.097-3.503 9.77-2.397 2.672-5.808 4.239-9.404 4.516-.092-.185-.369-.093-.645-.093ZM481.148 149.675c-.461 0-.922-.184-1.383-.461-1.014-.737-1.291-2.212-.553-3.225l.276-.277c.83-.921 2.305-1.106 3.227-.184.922.829 1.107 2.304.185 3.226-.369.645-1.014.921-1.752.921Z" fill="#fff"/><path d="M479.028 155.666a2.31 2.31 0 0 1-2.305-2.12v-.553c.092-1.29 1.198-2.212 2.489-2.119 1.291.092 2.213 1.198 2.121 2.396.092 1.198-.922 2.304-2.121 2.396h-.184Z" fill="#fff"/><path d="M492.212 131.336h-18.623v1.382h18.623v-1.382Z" fill="#000D1A"/><path d="M506.777 133.456h-2.766l-.185-2.765h2.674l.277 2.765ZM417.075 62.024c-2.489 0-4.886-1.382-6.084-3.594-7.56-13.917-16.687-21.659-27.105-23.133-.368-.093-.645-.37-.553-.738.092-.368.369-.645.738-.553 10.878 1.567 20.374 9.585 28.21 23.871 1.015 1.751 2.858 2.857 4.887 2.857h8.85c.369 0 .738.277.738.737 0 .461-.277.738-.738.738h-8.943v-.185Z" fill="#fff"/><path d="m667.836 179.172-28.303-9.585-14.198 26.175-23.785-71.521 34.387-13.456 31.899 68.387Z" fill="#FFBF00"/><path d="m619.159 237.42 18.531-20.092-19.268.737.737 19.355ZM677.793 95.945l-17.24 29.77h34.387l-17.147-29.77Z" fill="#4CC3FF"/><path d="M740.484 122.117h-11.8v11.797h11.8v-11.797Z" fill="#FFBF00"/><path d="m619.49 133.427-34.286 8.436 6.214 25.237 34.285-8.436-6.213-25.237Z" fill="#000D1A"/><path d="m697.05 168.792-6.437 16.88 16.884 6.434 6.437-16.879-16.884-6.435ZM790.54 244.317l-31.943 13.456 13.46 31.934L804 276.251l-13.46-31.934Z" fill="#fff"/><path d="m685.81 43.421-13.962 11.466 7.899 9.614 13.962-11.466-7.899-9.614Z" fill="#000D1A"/><path d="m579.701 73.548 21.204-11.52s14.567 10.69 25.076 25.898l-32.451 15.852s-7.468-20.645-13.829-30.23ZM560.524 48.478l12.631-14.931 14.658 13.917-16.594 14.009-10.695-12.995Z" fill="#FFBF00"/><path d="M523.28 192.715c-.185 2.212-.277 4.516-.461 6.728h-68.038l.461-6.728h68.038Z" fill="#000D1A"/><path d="m515.903 201.75-1.382-.092c.368-3.779.829-12.166.829-12.166l1.383.092s-.554 8.48-.83 12.166ZM464.277 201.75l-1.382-.092c.368-3.779.829-12.166.829-12.166l1.382.092s-.46 8.48-.829 12.166Z" fill="#4CC3FF"/><path d="M472.759 195.387h-4.15v1.382h4.15v-1.382ZM488.431 195.387h-4.149v1.382h4.149v-1.382ZM496.267 195.387h-4.149v1.382h4.149v-1.382ZM511.94 195.387h-4.149v1.382h4.149v-1.382ZM442.614 13.64v7.558h-1.475v-7.557c0-5.346-4.333-9.77-9.773-9.77h3.872c1.291 0 2.489.46 3.411 1.198 2.49 2.212 3.965 5.254 3.965 8.572ZM445.469 310.229v-7.557h-1.475v7.557c0 5.346-4.333 9.77-9.772 9.77h3.872c1.198 0 2.489-.461 3.411-1.198 2.581-2.212 3.964-5.254 3.964-8.572Z" fill="#fff"/><path d="M478.843 45.9h-23.14a94.421 94.421 0 0 0-6.914-11.245c-6.454-8.663-13.737-14.654-22.034-16.866h25.168c8.297 2.212 13.645 8.203 20.006 16.866a94.421 94.421 0 0 1 6.914 11.245ZM483.085 278.893c-.922 1.751-1.844 3.502-2.858 5.069-7.56 12.719-14.198 21.382-25.353 22.949h-28.948c6.269-.276 12.353-2.488 17.24-6.451 5.162-3.963 9.864-9.678 13.921-16.59.921-1.659 1.936-3.318 2.765-5.069l23.233.092Z" fill="#000D1A"/><path d="M474.694 284.787H463.17a.726.726 0 0 1-.737-.737c0-.461.276-.738.737-.738h11.524c.369 0 .738.277.738.738a.727.727 0 0 1-.738.737ZM471.468 42.03h-11.524a.727.727 0 0 1-.738-.738c0-.46.277-.737.738-.737h11.524c.368 0 .737.276.737.737 0 .46-.277.737-.737.737Z" fill="#fff"/></svg>