<svg width="1920" height="350" viewBox="0 0 1920 350" fill="none" xmlns="http://www.w3.org/2000/svg"><mask id="background-image_svg__a" mask-type="alpha" maskUnits="userSpaceOnUse" x="0" y="0" width="1920" height="350"><path d="M0 0h1920v350H0V0Z" fill="#F6F7F9"/></mask><g mask="url(#background-image_svg__a)"><path d="M1585.03 116.22s-46.3-8.47-68.99-8.54c0 0 4.38 40.79-12.46 68.19-.15.249-.24.532-.26.824-.01.291.04.583.16.85.12.266.3.499.53.678.24.179.51.298.79.348l70.31 12.65c.42.07.85-.009 1.22-.223.36-.214.64-.549.78-.947 2.58-7.27 13.73-41.16 7.92-73.83Z" fill="#fff"/><path d="M1868.81 213.85s1.27 75.3-54.06 76.31c-55.33 1.01-53.78 43.15-53.78 43.15l-116.19-52.44-.28-.52c.21-6.43 3.58-41.21 53.79-42.13 55.34-1 54.07-76.31 54.07-76.31a759.696 759.696 0 0 1 116.45 51.94Z" fill="#E9EBF2"/><path d="m553.982 210.1-98.016-14.861-13.095 86.393 98.016 14.861 13.095-86.393ZM1136.53 0s19.37 33 62.99 35.23c43.62 2.23 76.17-11.57 105.67-11.89 40.07-.43 41 31.27 128.12 37.43C1520.44 66.93 1606.33 0 1606.33 0h-469.8Z" fill="#F9FAFB"/><path d="m259.179 85.064 10.572 4.206a21.4 21.4 0 0 1 11.971 27.794l-8.701 21.874-30.453-12.118 16.611-41.756Z" fill="#E9EBF2"/><path d="M206.445 215.21 83.613 165.93l45.784-114.09a16.817 16.817 0 0 1 21.876-9.36l124.592 50-1.85-.74a16.722 16.722 0 0 0-18.191 3.83 16.72 16.72 0 0 0-3.565 5.47l-45.814 114.17Z" fill="#fff"/><path d="M608.416 350H-15.303L8.164 183.1c7.199-51.25 64.99-77.85 108.594-50 33.565 21.41 78.139 46.63 136.48 74.29a665.804 665.804 0 0 0 75.989 30.28 760.887 760.887 0 0 0 31.615 9.72 820.178 820.178 0 0 0 22.347 6 797.992 797.992 0 0 0 13.588 3.34 995.572 995.572 0 0 0 108.364 19.19c12.752 1.56 25.84 2.94 39.264 4.14a70.224 70.224 0 0 1 45.585 22.538A70.244 70.244 0 0 1 608.416 350Z" fill="#E9EBF2"/><path d="M260.438 350s66.99-32.15 122.982-43.6c55.991-11.45 98.985 2.65 153.227 26.87 46.173 20.61 98.516 1.88 114.473-3.53 27.306-9.24 94.667-20.69 141.34 20.26H260.438Z" fill="#F9FAFB"/><path d="M493.342 247.62a3.428 3.428 0 0 1 2.87 3.91l-3.479 22.79-2.93 19.2a3.43 3.43 0 0 1-3.91 2.87l-73.989-11.31a3.43 3.43 0 0 1-2.869-3.91l3.189-20.93 3.21-21.05a3.43 3.43 0 0 1 3.909-2.87l73.999 11.3Z" fill="#fff"/><path d="m492.743 274.32-2.929 19.2a3.432 3.432 0 0 1-3.91 2.87l-73.989-11.31a3.428 3.428 0 0 1-2.87-3.91l3.19-20.93c25.13 5.514 51.966 10.207 80.508 14.08Z" fill="#F9FAFB"/><path d="m339.365 210-21.447 58.3a4.358 4.358 0 0 1-5.599 2.58l-68.53-25.25a4.363 4.363 0 0 1-2.58-5.6l21.477-58.33a4.361 4.361 0 0 1 5.599-2.58l68.53 25.24a4.366 4.366 0 0 1 2.55 5.64Z" fill="#fff"/><path d="m329.206 237.65-11.288 30.65a4.358 4.358 0 0 1-5.599 2.58l-68.53-25.25a4.356 4.356 0 0 1-2.58-5.6l11.998-32.66a665.844 665.844 0 0 0 75.999 30.28Z" fill="#F9FAFB"/><path d="m1716.5 343.63-56.77 1.5c-21.78-9.38-43.66-18.55-65.64-27.51-11.64-4.79-23.35-9.4-35.04-14.1-11.69-4.7-23.43-9.25-35.21-13.69-23.48-9.07-47.15-17.68-70.87-26.18a4.678 4.678 0 0 1-2.66-2.355 4.7 4.7 0 0 1-.26-3.548 4.743 4.743 0 0 1 2.31-2.709 4.691 4.691 0 0 1 3.54-.318c24.22 7.24 48.42 14.6 72.46 22.43 12.06 3.82 24 7.87 36 11.83 11.99 3.96 23.99 8.07 35.91 12.26 23.9 8.26 47.72 16.78 71.46 25.56a3506.639 3506.639 0 0 1 44.77 16.83ZM1568.52 347.53l-44.67 1.17-1.31-.52c-11.74-4.57-23.43-9.24-35.21-13.69-23.49-9.08-47.17-17.68-70.87-26.19a4.685 4.685 0 0 1-2.73-2.347 4.709 4.709 0 0 1-.27-3.588 4.706 4.706 0 0 1 5.94-2.995c24.21 7.25 48.41 14.6 72.45 22.43 12.07 3.82 23.99 7.88 36.04 11.82 12.05 3.94 24 8.08 35.91 12.26l4.72 1.65Z" fill="#fff"/><path d="M371.961 262.03c6.389 0 11.568-5.18 11.568-11.57 0-6.39-5.179-11.57-11.568-11.57-6.389 0-11.568 5.18-11.568 11.57 0 6.39 5.179 11.57 11.568 11.57Z" fill="#E9EBF2"/><path d="M383.17 253.39a11.574 11.574 0 0 1-12.714 8.739 11.572 11.572 0 0 1-10.093-11.669 11.251 11.251 0 0 1 .42-3.09 853.112 853.112 0 0 0 22.387 6.02Z" fill="#F9FAFB"/><path d="M1950 0v188.61c0 46.92-50.51 76.54-91.42 53.56l-.27-.14c-28.52-15.9-59.25-29.89-90.82-42.18-14.86-5.79-29.91-11.21-45-16.28-22.82-7.66-45.76-14.51-68.31-20.63-16.09-4.37-31.99-8.37-47.52-12-24.52-5.77-48.11-10.67-70.07-14.81-12.38-2.34-24.25-4.44-35.46-6.32a119.035 119.035 0 0 1-70.55-39.802 119.065 119.065 0 0 1-28.75-75.728c-.14-9-.45-14.26-.45-14.26L1950 0Z" fill="#E9EBF2"/><path d="m1868.14 77.21 2.85 108.45c-26.84-15.52-82.79-40.92-119.3-47.89l-2.67-101.52c41.13 5.67 84.37 21.15 119.12 40.96Z" fill="#F9FAFB"/><path d="m1868.14 77.21 1.93 73.28c-31.25-4.45-15.71-38.05-30.24-40.75-12.24-2.27-6.23 17.7-20.12 16.07-16-1.87-4.14-43.16-18-44.15-13.7-1-7.56 18.58-20.99 17.8-13.91-.81-7.89-32.45-18.88-33.72-10.99-1.27-11.48 20.64-11.48 20.64l-1.32-50.13c41.11 5.67 84.35 21.15 119.1 40.96Z" fill="#fff"/><path d="M1868.81 213.85a124.498 124.498 0 0 1-4.46 32c-35.48-20.91-75.14-38.47-116.11-53.2a124.71 124.71 0 0 0 4.12-30.69 759.551 759.551 0 0 1 116.45 51.89Z" fill="#F9FAFB"/><path d="M1705.42 147.22s-44.86-14.23-67.4-17.16c0 0-.8 41.37-21.22 66.4-.15.192-.26.418-.3.659a1.519 1.519 0 0 0 .41 1.345c.17.173.38.303.62.376l68.8 21.6a1.502 1.502 0 0 0 1.79-.74c3.27-6.39 18.97-38.95 17.3-72.48Z" fill="#fff"/><path d="M1702.83 177.51c-23-7.06-46.14-13.3-68.83-18.83a157.077 157.077 0 0 0 3.93-26.42c.01-.281.08-.557.21-.809.12-.252.3-.475.52-.653.22-.179.47-.309.74-.383.27-.073.56-.089.84-.045 20.66 3.13 56.44 14.13 63.83 16.43.4.121.75.365 1 .697.26.332.4.735.42 1.153.25 9.691-.64 19.379-2.66 28.86ZM1586.31 146.1c-24.6-5.39-48.27-9.92-70.29-13.72.56-7.009.65-14.048.26-21.07-.03-.466.04-.933.2-1.371.17-.439.42-.838.74-1.172a3.353 3.353 0 0 1 2.52-1.007c20.34.73 53.87 6.43 62.99 8 .69.118 1.32.447 1.81.942.49.495.81 1.131.91 1.818a122.94 122.94 0 0 1 .86 27.58Z" fill="#F9FAFB"/><path d="M1638.65 189.1s26.62 7.88 41.79 12.77M1644.07 175.1s26.64 7.87 41.8 12.76" stroke="#F9FAFB" stroke-width="4" stroke-linecap="round" stroke-linejoin="round"/><path d="M1756.46 21.679c2.53-.282 4.27-3.354 3.88-6.862-.39-3.507-2.76-6.122-5.3-5.84-2.53.283-4.27 3.355-3.88 6.862.39 3.507 2.76 6.122 5.3 5.84Z" fill="#F9FAFB"/><path d="M1774.68 17.21s43.79 7.22 92.72 30.6" stroke="#F9FAFB" stroke-width="6" stroke-linecap="round" stroke-linejoin="round"/><path d="M1676.17 38c-21.23-2.83-38.11 7.51-37.7 23.1.41 15.59 18.09 27.55 39.19 33.36 9.12 2.52 12.07 9.33 15.18 9.14 3.11-.19-2.74-8.3 3.62-10.26 11.45-3.52 19.18-11.43 18.9-22-.46-15.62-18-30.55-39.19-33.34Z" fill="#F9FAFB"/><path d="M1680.61 69.635c1.53-1.495 1.35-4.17-.4-5.974-1.76-1.805-4.43-2.057-5.96-.563-1.54 1.495-1.36 4.17.39 5.975 1.76 1.805 4.43 2.057 5.97.562ZM1697.5 71.896c1.54-1.495 1.36-4.17-.4-5.975-1.75-1.805-4.42-2.056-5.96-.562-1.53 1.495-1.35 4.17.4 5.975 1.76 1.805 4.43 2.056 5.96.562ZM1663.72 67.382c1.54-1.495 1.36-4.17-.4-5.974-1.75-1.805-4.42-2.057-5.96-.562-1.53 1.494-1.35 4.169.4 5.974 1.76 1.805 4.43 2.057 5.96.562Z" fill="#E9EBF2"/><path d="M335.496 142.05a8.303 8.303 0 0 0 1.77 2.49 9.175 9.175 0 0 0 4.429 2.37l37.425 8.65a1.923 1.923 0 0 0 2.314-1.433c.076-.33.064-.674-.035-.997a70.567 70.567 0 0 1-3.999-13.28 61.006 61.006 0 0 1 3.869-37.46 1.544 1.544 0 0 0-.008-1.384 1.547 1.547 0 0 0-1.112-.826c-6.119-1.18-25.086-5.18-39.464-9.1a2 2 0 0 0-2.319 1.08c-2.78 6.09-12.229 29.4-2.87 49.89Z" fill="#4CC3FF"/><path d="M370.171 101.7a25.587 25.587 0 0 1 1.94-5.25 1.774 1.774 0 0 0-.432-2.259 1.772 1.772 0 0 0-.748-.351l-17.698-3.94a2.266 2.266 0 0 0-2.409 1.1 26.265 26.265 0 0 0-2.73 6.28 1.751 1.751 0 0 0 1.37 2.19l18.097 3.86a2.261 2.261 0 0 0 2.61-1.63Z" fill="#000D1A"/><path d="M1520.81 79a207.484 207.484 0 0 1-27.61 21.48 7.248 7.248 0 0 0-3.11 4.366 7.24 7.24 0 0 0 .71 5.314 7.088 7.088 0 0 0 4.15 3.37c.87.266 1.79.346 2.7.234a6.52 6.52 0 0 0 2.57-.884 212.757 212.757 0 0 0 26.51-18.69M1523.94 76.05a218.813 218.813 0 0 0 15.1-16c-1.16-5.87-.2-12.17 3.12-16.75 3.32-4.58 8.22-6.21 13-4.53a248.84 248.84 0 0 1-6.82 9.87c.92 3.333 1.77 6.667 2.56 10 2.48 1.26 4.96 2.56 7.44 3.9 2.55-3.06 5.04-6.213 7.48-9.46 1.29 6.49-.08 13.44-3.88 17.78a10.847 10.847 0 0 1-6.23 3.853c-2.46.522-5.02.171-7.25-.993-4.42 4.74-8.97 9.233-13.64 13.48" fill="#FFBF00"/><path d="M1521.8 98.13a206.538 206.538 0 0 0-4.1-16.33c.65-.58 1.31-1.16 2-1.75 3 4 5.89 8.193 8.66 12.58a233.09 233.09 0 0 1-6.56 5.5Z" fill="#000D1A"/><path d="M1544.6 102.34a209.334 209.334 0 0 0-38.54-48.49c-.23-1.31-.47-2.61-.73-3.92-3.09-1.92-6.2-3.737-9.34-5.45-1.52 2.12-3.07 4.19-4.65 6.21 2.46 2.59 4.88 5.28 7.23 8.07h3.63a204.642 204.642 0 0 1 37.49 48.26c1.67-1.52 3.3-3.08 4.91-4.68Z" fill="#000D1A"/><path d="M1546.46 127a212.867 212.867 0 0 0-30-48.88c2.72-2.9 5.39-5.9 8-9a221.633 221.633 0 0 1 31.84 49.36 2.852 2.852 0 0 1-.58 3.17c-2.28 2.04-4.59 4.04-6.92 6-.18.162-.4.276-.64.331-.23.056-.48.051-.71-.014a1.452 1.452 0 0 1-.62-.356c-.17-.169-.3-.379-.37-.611Z" fill="#FFBF00"/><path d="M1608.5 289.93s3.49-2.86.06-25.29c-4-26.31 11.2-35.94 11.2-35.94a97.722 97.722 0 0 0 26.64 2.28s11.27 14.43 20.14 20c0 0 4.13 12.32-10.84 25.73-14.96 13.41-37.14 16.55-47.2 13.22Z" fill="#000D1A"/><path d="M1606.84 287s3.48-2.86 0-25.29c-4-26.31 11.2-35.94 11.2-35.94a97.829 97.829 0 0 0 26.65 2.28s11.27 14.43 20.13 20c0 0 4.13 12.32-10.84 25.73-14.96 13.41-37.08 16.54-47.14 13.22Z" fill="#4CC3FF"/><path d="M1618.7 259.89a80.313 80.313 0 0 0-2.94-9.09c-.12-.374-.1-.778.06-1.137.16-.358.45-.644.81-.803 3.24-1.6 6.4-3.25 9.39-4.91l1.31 2.49c-2.62 1.46-5.37 2.9-8.18 4.31a82.423 82.423 0 0 1 2.55 8.13l-3 1.01ZM1637.81 268.41l-1.29-2.51c2.7-1.47 5.35-3 7.91-4.54-.76-3.28-1.65-6.48-2.66-9.53l3-1.17c1.19 3.551 2.2 7.163 3 10.82.06.326.01.661-.13.96a1.59 1.59 0 0 1-.66.71c-3.01 1.79-6.06 3.56-9.17 5.26ZM1627.38 260.75l-1.75-2.2c4-3.07 7.8-6.24 11.26-9.42l2 2c-3.53 3.24-7.4 6.48-11.51 9.62Z" fill="#000D1A"/><path d="M1761.09 218.56s41.35 16.88 67.76 32.86M1745.7 238.67s37.54 12.29 64.54 29.58" stroke="#F9FAFB" stroke-width="4" stroke-linecap="round" stroke-linejoin="round"/><path d="M1469.57 29.165c3.65-.097 6.52-3.576 6.41-7.772-.11-4.196-3.16-7.52-6.81-7.423-3.65.096-6.52 3.575-6.41 7.771.11 4.196 3.16 7.52 6.81 7.424ZM1470.77 74.827c3.65-.096 6.52-3.576 6.41-7.771-.11-4.196-3.16-7.52-6.81-7.423-3.65.096-6.51 3.575-6.4 7.771.11 4.196 3.15 7.52 6.8 7.423ZM149.765 264.636l-68.099-27.311c-6.37-2.555-13.606.54-16.16 6.911l-1.94 4.836c-2.554 6.372.54 13.608 6.91 16.163l68.099 27.311c6.371 2.555 13.606-.539 16.161-6.911l1.939-4.836c2.554-6.372-.539-13.608-6.91-16.163Z" fill="#F9FAFB"/><path d="M138.435 281.95a6.01 6.01 0 0 0 6.009-6.01 6.009 6.009 0 1 0-12.018 0 6.01 6.01 0 0 0 6.009 6.01Z" fill="#E9EBF2"/><path d="m74.564 250.32 19.227 7.71M105.82 258.54l-2.98 7.44M112.019 261.03l-2.98 7.44M118.228 263.51l-2.99 7.45M124.428 266l-2.99 7.44" stroke="#fff" stroke-width="4" stroke-linecap="round" stroke-linejoin="round"/><path d="m134.464 300.922-68.099-27.31c-6.37-2.555-13.606.539-16.16 6.91l-1.94 4.836c-2.554 6.372.54 13.608 6.91 16.163l68.099 27.311c6.371 2.555 13.606-.539 16.161-6.911l1.939-4.836c2.554-6.372-.539-13.608-6.91-16.163Z" fill="#F9FAFB"/><path d="M123.127 318.24a6.01 6.01 0 0 0 6.009-6.01 6.01 6.01 0 1 0-6.009 6.01Z" fill="#E9EBF2"/><path d="m59.257 286.61 19.217 7.71M90.511 294.82l-2.99 7.45M96.71 297.31l-2.98 7.45M102.921 299.8l-2.99 7.44M109.12 302.29l-2.99 7.44" stroke="#fff" stroke-width="4" stroke-linecap="round" stroke-linejoin="round"/><path d="M244.269 350h-21.397l-51.222-15a2.989 2.989 0 0 1-1.79-1.437 2.997 2.997 0 0 1 1.188-4.073 2.987 2.987 0 0 1 2.282-.25L244.269 350ZM261.108 334.7c-.285 0-.567-.041-.84-.12l-78.379-22.9a3 3 0 0 1 1.68-5.76l78.378 22.9a3 3 0 0 1-.839 5.88ZM270.606 307.89c-.285 0-.567-.04-.84-.12l-78.379-22.9a3.003 3.003 0 0 1-.602-5.51 2.996 2.996 0 0 1 2.282-.25L271.446 302a2.998 2.998 0 0 1 2.129 3.305 2.998 2.998 0 0 1-2.969 2.575v.01Z" fill="#F9FAFB"/><path d="M29.181 33.76c0 .06.11.39.18.63l.24.81c.17.56.35 1.13.55 1.71.37 1.15.82 2.34 1.23 3.51.87 2.36 1.8 4.73 2.79 7.09 2 4.73 4.199 9.41 6.538 14a258.77 258.77 0 0 0 15.928 27 297.614 297.614 0 0 0 40.994 48.23 331.564 331.564 0 0 0 50.373 39.31 390.563 390.563 0 0 0 57.051 30 4.7 4.7 0 0 1-3.409 8.75 402.366 402.366 0 0 1-60.551-27.17 347.345 347.345 0 0 1-55.172-37.81A317.698 317.698 0 0 1 39.12 101.2 282.711 282.711 0 0 1 19.993 73c-2.89-5-5.68-10-8.24-15.2-1.28-2.6-2.516-5.243-3.709-7.93-.58-1.37-1.18-2.7-1.73-4.12-.29-.69-.57-1.4-.84-2.14l-.42-1.12c-.15-.41-.27-.73-.46-1.32l-.6-1.84A13.002 13.002 0 0 1 17.28 21.399a12.996 12.996 0 0 1 11.361 9.931c.257.791.437 1.605.54 2.43ZM-3.954 87.08c0 .06.14.37.23.61l.32.78c.22.54.46 1.09.71 1.65.48 1.11 1 2.25 1.55 3.38a175.501 175.501 0 0 0 3.449 6.79c2.4 4.53 5.059 9 7.829 13.37A259.732 259.732 0 0 0 28.53 139a297.57 297.57 0 0 0 45.283 44.17 331.658 331.658 0 0 0 53.852 34.39 389.111 389.111 0 0 0 59.622 24.49 4.704 4.704 0 0 1 2.816 5.671 4.702 4.702 0 0 1-5.386 3.329 401.4 401.4 0 0 1-62.841-21.36 347.047 347.047 0 0 1-58.471-32.38 316.298 316.298 0 0 1-51.123-44A282.595 282.595 0 0 1-9.424 127c-3.339-4.64-6.589-9.38-9.618-14.32-1.52-2.453-3-4.98-4.44-7.58-.71-1.3-1.43-2.58-2.12-3.94-.35-.66-.69-1.34-.999-2l-.56-1.16c-.18-.4-.33-.7-.58-1.27l-.77-1.73A13 13 0 0 1-7.454 80.137a13 13 0 0 1 2.73 4.553c.327.773.584 1.572.77 2.39Z" fill="#fff"/><path d="m215.324 261.27 7.789 17.07c1.56 3.42-9.479 11.81-24.656 18.75-15.178 6.94-28.766 9.75-30.316 6.36l-8.149-17.84" fill="#FFBF00"/><path d="M211.004 259.14h1.53c.279.036.556.086.83.15.161.037.318.087.47.15a2.159 2.159 0 0 1 1.35 1.07c.093.218.141.453.14.69a2.962 2.962 0 0 1-.22 1 3.612 3.612 0 0 1-.2.46l-.13.23c-.09.16-.19.32-.3.49-.11.17-.23.33-.37.5-.14.17-.13.17-.2.26s-.29.36-.46.54l-.25.27a8.937 8.937 0 0 1-.54.57c-.2.18-.39.38-.61.58l-.32.29-.77.68-.84.69-.599.47a64.683 64.683 0 0 1-4.66 3.27c-.69.45-1.42.9-2.169 1.35l-1.73 1c-.39.23-.79.46-1.2.68-.41.22-.82.46-1.24.68l-.62.35-1.29.68-1.309.67a116.65 116.65 0 0 1-4.84 2.32c-1.659.76-3.309 1.47-4.919 2.13l-1.37.56-1.35.52-.669.25-1.33.49-1.3.46c-.65.23-1.28.44-1.9.64l-2.449.76c-2 .58-3.84 1-5.52 1.38l-.75.14c-.609.11-1.199.2-1.749.28h-.34l-.43.05-.83.08h-2.16c-.22 0-.43 0-.62-.06a5.004 5.004 0 0 1-.57-.09l-.26-.06a2.841 2.841 0 0 1-.469-.14 2.642 2.642 0 0 1-.42-.18 1.897 1.897 0 0 1-.93-.9.532.532 0 0 1-.05-.14 1.993 1.993 0 0 1 0-1.15c.037-.143.084-.283.14-.42.06-.15.12-.3.2-.46.08-.16.27-.47.43-.72l.18-.25.14-.19.15-.19.32-.4.089-.11" fill="#000D1A"/><path d="M149.463 262.37h-.06l8.159 17.87c1.55 3.39 15.138.57 30.316-6.36 15.177-6.93 26.226-15.33 24.666-18.75l-7.769-17-.39-.86" fill="#FFBF00"/><path d="M150.483 263.52a1.94 1.94 0 0 1-.93-.9 1.097 1.097 0 0 1-.09-.25 2.098 2.098 0 0 1 0-1.05c.03-.144.074-.284.13-.42.76-2 3.57-4.69 7.779-7.64l.47-.33c.48-.33 1-.66 1.48-1l.52-.34 1.06-.67 1.11-.68 1.729-1 1.2-.68c2.84-1.59 5.999-3.18 9.299-4.7 3.299-1.52 6.579-2.85 9.638-3.95l1.3-.46c.65-.22 1.28-.44 1.91-.64l1.23-.39 1.21-.37.59-.17 1.729-.47.56-.14c4.999-1.25 8.859-1.59 10.859-.87a2.169 2.169 0 0 1 1.339 1.07c.101.216.152.452.15.69a3.331 3.331 0 0 1-.42 1.49 9.91 9.91 0 0 1-.599.97c-.12.17-.39.51-.62.78-.23.27-.48.54-.75.82l-.57.57c-.3.29-.63.59-1 .89-.37.3-1 .81-1.47 1.23-.26.21-.54.42-.82.63-.28.21-.85.64-1.31 1-.459.36-.929.66-1.419 1l-.49.33-1 .67-.53.34-1.09.67c-1.1.68-2.27 1.36-3.479 2-.41.23-.82.46-1.24.68l-.63.35-1.29.68-1.31.67c-1.559.787-3.169 1.56-4.829 2.32-1.66.76-3.303 1.47-4.929 2.13l-1.37.56-1.35.52-.67.25c-.45.17-.89.34-1.33.49-1.309.47-2.589.91-3.819 1.3l-1.23.38-.6.18-1.17.33-.579.16-1.67.42c-.54.13-1.07.26-1.59.36-.34.08-.68.14-1 .2-.66.13-1.29.23-1.89.31-.45.07-.879.12-1.299.15l-.81.06H152.473l-.6-.08-.53-.1c-.17 0-.33-.09-.48-.15a3.936 3.936 0 0 1-.41-.17M206.615 258.69a2.15 2.15 0 1 0 0-4.3 2.15 2.15 0 0 0 0 4.3ZM216.433 281.46a2.15 2.15 0 1 0 .002-4.298 2.15 2.15 0 0 0-.002 4.298Z" fill="#000D1A"/></g></svg>