<svg width="1919" height="351" viewBox="0 0 1919 351" fill="none" xmlns="http://www.w3.org/2000/svg"><path d="M1246 0s60.11 3.9 143.34 51.06c83.23 47.16 85.07-5.06 63.8-23.06-21.27-18 27.74-13.41 80.45 7.86C1586.3 57.13 1743.52 100.6 1729.64 0H1246ZM104 0s227.29 155.1 264.1 100.56C388.19 70.79 272.67 0 272.67 0H104Z" fill="#F1F2F5"/><path d="M1918.27 350.002h-638.73c18.34-4.54 167.46-140.28 241.88-236.14a14.493 14.493 0 0 1 18.06-1.48l33.39 22.62 10.6-14.61 21.61-29.76 5.07-7 24.76-34.11a18.806 18.806 0 0 1 6.6-5.652 18.747 18.747 0 0 1 16.9-.123 18.755 18.755 0 0 1 6.68 5.555 2665.52 2665.52 0 0 0 44 57.06c64.34 81.08 127.51 151.01 209.18 243.64Z" fill="#F3F4F7"/><path d="M1523.39 195.899c-13 35.12-24.4 75.53-34.68 75.26 0 0-7.09-.92-3.08-10.79s-44.55-3.77-56.33 89.63h-149.76c18.34-4.54 167.46-140.28 241.88-236.14a14.413 14.413 0 0 1 12.23-3.78s11.16 11.12 5.92 17.52-21.88 5.46-21.27 10.7c.61 5.24 22.22-.53 26.28 9 3.93 9.19-12.52 25.25-21.19 48.6ZM1626.81 108.401c14.18-9.55 8 11.1 17.57 8.33 9.57-2.77 23.48-54.16 4.18-74.86-2.7.208-5.31 1-7.67 2.323a18.55 18.55 0 0 0-5.98 5.337l-24.76 34.11-5.07 7-21.61 29.76c8.21 4.38 16.18 9 23.82 13.68 5.37-9.91 12.48-20.93 19.52-25.68Z" fill="#fff"/><path d="M1657.51 185.849a2.867 2.867 0 0 1-.76-1.985c.02-.734.31-1.436.82-1.963.51-.527 1.2-.84 1.93-.873.73-.034 1.45.213 2.01.691 10.45 8.74 19.92 16.43 22.64 17.93 20.76 11.46-18.36-29.67-76.86-65.59-5.42 10-9.08 18.82-9.11 18.9 18.21 13.62 45.47 35.2 79.18 65.49 41.1 36.93 8.54-.96-19.85-32.6Z" fill="#E9EBF2"/><path d="m1583.47 120.379-10.6 14.62s9.05 5.81 25.31 18c0-.08 3.69-8.92 9.11-18.9-7.64-4.73-15.61-9.34-23.82-13.72Z" fill="#F1F2F5"/><path d="M1807.38 349.999h-190.34v-44.39h168.3l22.04 9.48v34.91Z" fill="#F6F7F9"/><path d="M1728.93 254.359h-168.3v51.25h224.71v-9.25l-56.41-42Z" fill="#E9EBF2"/><path d="m1617.04 296.359-56.41-42-56.42 42v53.64h112.83v-53.64Z" fill="#fff"/><path d="M1482.48 349.999h21.73v-44.39l-21.73 9.48v34.91ZM1638.77 349.999h-21.73v-44.39l21.73 9.48v34.91Z" fill="#fff"/><path d="M1565.37 268.219h-9.48v11.79h9.48v-11.79Z" fill="#F3F4F7"/><path d="M1557.7 268.219h-1.81v11.79h1.81v-11.79Z" fill="#E9EBF2"/><path d="M1535.65 291.5h-9.48v11.79h9.48V291.5Z" fill="#F3F4F7"/><path d="M1527.98 291.5h-1.81v11.79h1.81V291.5Z" fill="#E9EBF2"/><path d="M1555.07 291.5h-9.48v11.79h9.48V291.5Z" fill="#F3F4F7"/><path d="M1547.4 291.5h-1.81v11.79h1.81V291.5Z" fill="#E9EBF2"/><path d="M1574.49 291.5h-9.48v11.79h9.48V291.5Z" fill="#F3F4F7"/><path d="M1566.82 291.5h-1.81v11.79h1.81V291.5Z" fill="#E9EBF2"/><path d="M1593.91 291.5h-9.48v11.79h9.48V291.5Z" fill="#F3F4F7"/><path d="M1586.24 291.5h-1.81v11.79h1.81V291.5Z" fill="#E9EBF2"/><path d="M1535.65 311.621h-9.48v11.79h9.48v-11.79Z" fill="#F3F4F7"/><path d="M1527.98 311.621h-1.81v11.79h1.81v-11.79Z" fill="#E9EBF2"/><path d="M1555.07 311.621h-9.48v11.79h9.48v-11.79Z" fill="#F3F4F7"/><path d="M1547.4 311.621h-1.81v11.79h1.81v-11.79Z" fill="#E9EBF2"/><path d="M1574.49 311.621h-9.48v11.79h9.48v-11.79Z" fill="#F3F4F7"/><path d="M1566.82 311.621h-1.81v11.79h1.81v-11.79Z" fill="#E9EBF2"/><path d="M1593.91 311.621h-9.48v11.79h9.48v-11.79Z" fill="#F3F4F7"/><path d="M1586.24 311.621h-1.81v11.79h1.81v-11.79Z" fill="#E9EBF2"/><path d="M1535.65 331.73h-9.48v11.79h9.48v-11.79Z" fill="#F3F4F7"/><path d="M1527.98 331.73h-1.81v11.79h1.81v-11.79Z" fill="#E9EBF2"/><path d="M1555.07 331.73h-9.48v11.79h9.48v-11.79Z" fill="#F3F4F7"/><path d="M1547.4 331.73h-1.81v11.79h1.81v-11.79Z" fill="#E9EBF2"/><path d="M1574.49 331.73h-9.48v11.79h9.48v-11.79Z" fill="#F3F4F7"/><path d="M1566.82 331.73h-1.81v11.79h1.81v-11.79Z" fill="#E9EBF2"/><path d="M1593.91 331.73h-9.48v11.79h9.48v-11.79Z" fill="#F3F4F7"/><path d="M1586.24 331.73h-1.81v11.79h1.81v-11.79Z" fill="#E9EBF2"/><path d="M1629.06 321.91h-6.11v24.39h6.11v-24.39Z" fill="#F3F4F7"/><path d="M1624.12 321.91h-1.17v24.39h1.17v-24.39Z" fill="#E9EBF2"/><path d="M1498.05 321.91h-6.11v24.39h6.11v-24.39Z" fill="#F3F4F7"/><path d="M1493.11 321.91h-1.17v24.39h1.17v-24.39ZM1617.04 305.609l21.73 9.48h168.61l-22.04-9.48h-168.3ZM1833.79 321.91h-143.72V350h179.35l-35.63-28.09Z" fill="#E9EBF2"/><path d="M1690.07 321.91 1654.44 350h71.27l-35.64-28.09Z" fill="#fff"/><path d="M1694.04 336.23h-7.94v9.88h7.94v-9.88Z" fill="#F3F4F7"/><path d="M1687.62 336.23h-1.52v9.88h1.52v-9.88Z" fill="#E9EBF2"/><path d="M697.25 350.001H.67s26-26.21 64.91-69.24c46-50.83 110-125.14 170.66-207.46a12.616 12.616 0 0 1 15.686-3.853 12.627 12.627 0 0 1 4.484 3.663c27.91 36.36 106 135.81 145.61 163.42a48.655 48.655 0 0 1 56.27-2.28c47.37 30.88 146.36 90.59 238.96 115.75Z" fill="#F3F4F7"/><path d="M194.87 213.821c-81 52.2-128.36 66.67-129.28 66.94 46-50.83 110-125.14 170.66-207.46a12.616 12.616 0 0 1 15.686-3.853 12.627 12.627 0 0 1 4.484 3.663s1.33 18-16.47 44.31c-17.8 26.31.05 25.43 8.25 20.58 8.2-4.85 28.51 23.11-53.33 75.82Z" fill="#fff"/><path d="M402 236.532s-53.19 50.12-112.83 73.7c-59.64 23.58 30.78-23.6 59.76-59 28.98-35.4 6.13-22.2-2.89-24.28-9.02-2.08 12.29-31.1 12.29-31.1l43.67 40.68Z" fill="#E9EBF2"/><path d="M192.1 350s56.71-7 111-37.84c47.44-27 88.49-65.56 99-75.63 0 0 9-9.62 29.75-10.15 20.75-.53-.85 11.8-12.85 24.74-12 12.94 1.85 11.72 11.72 6.48 9.87-5.24 22.5 2.77-32.68 37.91-55.18 35.14-59.18 36.38-52.4 40.38 6.78 4 .31 14.11.31 14.11H192.1ZM182.24 237.471c-6-3.84 14.19-14 23.56-20.87 24.41-17.81 33.28-25.91 38.75-33.87 4.5-6.55 11.68-2.49-8.21 19.76-20.82 23.29-46.76 39.69-54.1 34.98Z" fill="#fff"/><path d="M191.96 301.078h79.62v28.09H156.32l35.64-28.09Z" fill="#E9EBF2"/><path d="m271.579 301.078 35.64 28.09v20.83h-71.28v-20.83l35.64-28.09Z" fill="#fff"/><path d="M264.82 325.27h7.94v-9.88h-7.94v9.88Z" fill="#F3F4F7"/><path d="M271.24 325.27h1.52v-9.88h-1.52v9.88Z" fill="#E9EBF2"/><path d="M264.82 343.84h7.94v-9.88h-7.94v9.88Z" fill="#F3F4F7"/><path d="M271.24 343.84h1.52v-9.88h-1.52v9.88Z" fill="#E9EBF2"/><path d="M284.34 343.84h7.94v-9.88h-7.94v9.88Z" fill="#F3F4F7"/><path d="M290.76 343.84h1.52v-9.88h-1.52v9.88Z" fill="#E9EBF2"/><path d="M245.56 343.84h7.94v-9.88h-7.94v9.88Z" fill="#F3F4F7"/><path d="M251.98 343.84h1.52v-9.88h-1.52v9.88Z" fill="#E9EBF2"/><path d="M235.94 329.172h-79.62v20.83h79.62v-20.83ZM269.4 302.798l34.37 27.08v20.12h3.45v-20.83l-35.64-28.09-2.18 1.72Z" fill="#F6F7F9"/><path d="M114.53 350h109.11v-86.98h-94.78L114.53 350Z" fill="#F6F7F9"/><path d="m180.19 114.34-39.55 219.94h77.68l-38.13-219.94Z" fill="#E9EBF2"/><path d="M205.97 263.02h17.67l-5.32 71.26h-12.35v-71.26ZM155.74 263.02h-26.88l11.2 71.26h12.35l3.33-71.26Z" fill="#E9EBF2"/><path d="m218.32 334.279-38.84-61.65-38.84 61.65v15.72h77.68v-15.72Z" fill="#fff"/><path d="M191.52 327.568a11.33 11.33 0 0 1-11.33 11.33c-.539 0-1.077-.04-1.61-.12a11.331 11.331 0 0 0 6.929-18.617 11.333 11.333 0 0 0-6.929-3.803c.533-.08 1.071-.12 1.61-.12a11.33 11.33 0 0 1 11.33 11.33Z" fill="#E9EBF2"/><path d="M188.29 327.569a11.333 11.333 0 0 1-9.71 11.21 11.318 11.318 0 0 1-6.969-18.637 11.323 11.323 0 0 1 6.969-3.783 11.346 11.346 0 0 1 9.71 11.21Z" fill="#F3F4F7"/><path d="M179.48 272.629h-6.63l-27.7 44.84-4.51 16.81 38.84-61.65Z" fill="#F1F2F5"/><path d="M180.19 117.069a2.73 2.73 0 1 0 0-5.46 2.73 2.73 0 0 0 0 5.46Z" fill="#E9EBF2"/><path d="M134.76 0s107.58 67 125.77 39.35C267.72 28.41 230.94 0 230.94 0h-96.18Z" fill="#F6F7F9"/><path d="M354.85 0s39.31 35.81 119.76 35.81 113.75-21.27 191-4.63S762.22 0 762.22 0H354.85ZM358.34 50.57s-33.45-18-25.95-31.48c7.5-13.48 39.54 14.45 45.19 31.91 5.65 17.46-19.24-.43-19.24-.43Z" fill="#F1F2F5"/><path d="M1517.87 0S1639 40.28 1691.42 25.79c8-2.21 23.89-8.88 22.5-25.79h-196.05Z" fill="#F6F7F9"/><path d="M1671.2 8.812s-26.8-9.42-30.46 1.48 27.87 14.59 40.35 9-9.89-10.48-9.89-10.48Z" fill="#F1F2F5"/><path d="M1407.84 40.71s29 26.29 39.43 14.42-27.56-33.42-46.41-32.95c-18.85.47 6.98 18.53 6.98 18.53Z" fill="#F6F7F9"/><path d="M1488.43 30.7c1.31 4.64 26.2 15.71 58.42 27.26s40.74 7.8 40 4.22c-.74-3.58-25-6.3-49.28-16.43-24.28-10.13-51.82-24.58-49.14-15.05Z" fill="#F1F2F5"/><path d="M1667.05 74.5c.48 3.047.64 6.137.48 9.22a53.417 53.417 0 0 1-1.21 9.08 46.867 46.867 0 0 1-2.81 8.729 36.991 36.991 0 0 1-4.62 7.86.756.756 0 0 1-.99.207.763.763 0 0 1-.32-.957 58.717 58.717 0 0 0 2.92-8.14 61.454 61.454 0 0 0 1.69-8.39c.36-2.83.59-5.68.68-8.53 0-1.43.06-2.85 0-4.28-.06-1.43 0-2.88-.1-4.2v-.15a2.122 2.122 0 0 1 3.41-1.742c.43.326.71.803.8 1.332l.07-.04ZM1648.56 133.311a26.4 26.4 0 0 0 6.83-4.28 35.095 35.095 0 0 0 5.44-5.91 37.78 37.78 0 0 0 2.14-3.41c.31-.59.7-1.14 1-1.76l.86-1.82c.29-.608.56-1.232.78-1.87l.75-1.88c.46-1.28.83-2.59 1.3-3.87l.07-.18c.23-.394.58-.7 1-.867.42-.167.89-.185 1.33-.051.43.134.81.412 1.06.788.26.376.38.827.34 1.28-.35 1.43-.74 2.86-1.17 4.27-.43 1.41-1 2.8-1.67 4.13a36.44 36.44 0 0 1-4.78 7.56 31.052 31.052 0 0 1-6.68 5.94 22.554 22.554 0 0 1-8.23 3.43.76.76 0 0 1-.52-.117.738.738 0 0 1-.32-.428.755.755 0 0 1 .04-.533.73.73 0 0 1 .37-.382l.06-.04Z" fill="#fff"/><path d="M1597 186.521s12.89 13.07 52.85 8.93c0 0-22.28-4.61-32.69-17.31l-20.16 8.38ZM1592 181.081s-13.17-19.24 12.79-36.46c0 0-10.49 16.76 2.49 28.18l-15.28 8.28Z" fill="#000D1A"/><path d="M1600.11 183.85a6.565 6.565 0 0 1-1.93 4.619 6.532 6.532 0 0 1-4.62 1.911 6.53 6.53 0 0 1-3.73-1.183 6.57 6.57 0 0 1-2.62-3.807 6.529 6.529 0 0 1 1.74-6.154 6.524 6.524 0 0 1 9.24 0 6.529 6.529 0 0 1 1.92 4.624v-.01Z" fill="#4CC3FF"/><path d="M1588.83 188.341h-3.01l1.21-2.61.17-.36.01.01.53.96 1.09 2ZM1620.67 169.73c0-.37 10-15.25 10-15.25l-1.29 12.43 2.67 2.57 17.18 4.22-23.86 1.78-4.7-5.75Z" fill="#4CC3FF"/><path d="M1626 175.46c-10 6.36-17 9.91-28.22 11.74a23.772 23.772 0 0 1-6.45-7.12s7.12-9.17 29.5-10.6l5.17 5.98Z" fill="#4CC3FF"/><path d="M1598.16 181.09c0 1.209-.34 2.393-.98 3.422a6.534 6.534 0 0 1-9.44 1.828l-.31-.24a3.252 3.252 0 0 1-.4-.36l.17-.36a6.577 6.577 0 0 1-.18-1.53 6.51 6.51 0 0 1 1.02-3.509 6.53 6.53 0 0 1 6.36-2.964 6.51 6.51 0 0 1 3.35 1.473c.27.717.41 1.475.41 2.24Z" fill="#4CC3FF"/><path d="M1808.86 253.305c8.15-1.182 14.42-4.529 13.99-7.475-.43-2.946-7.38-4.376-15.54-3.194-8.15 1.183-14.42 4.53-13.99 7.476.43 2.946 7.38 4.375 15.54 3.193ZM1862.35 239.828c8.16-1.182 14.42-4.529 13.99-7.475-.42-2.946-7.38-4.376-15.54-3.193-8.15 1.182-14.42 4.529-13.99 7.475.43 2.946 7.39 4.376 15.54 3.193Z" fill="#000D1A"/><path d="m1860.46 237.05.52 3.63s-14.66 2.25-18.49 4.95c-3.83 2.7-5.26 9.39-12.32 10.42-1.41.237-2.85.268-4.27.09-3.7-.54-5.83-3.09-7.63-8.33-2.12-6.14-15-9.08-21.22-10.45l-.07-4.54 14.84 3.93a23.359 23.359 0 0 0 12.58-.16c4.1-1.202 7.8-3.506 10.68-6.66 3.66-4 7.38-8.39 9.31-11.7l3.74 1.2-8.26 11.45a5.182 5.182 0 0 0-.93 2.6c-.07.935.12 1.87.55 2.706a5.143 5.143 0 0 0 1.86 2.035c.8.496 1.71.765 2.65.779a79.2 79.2 0 0 0 16.46-1.95Z" fill="#FFBF00"/><path d="m1809.89 251.329 8.1-4.13 2.57 4.53s-6-.61-10 2.37l-.67-2.77Z" fill="#FFBF00"/><path d="m1810.66 250.176-4.41.64.91 6.285 4.41-.64-.91-6.285Z" fill="#000D1A"/><path d="M1808.29 257.423c1.22-.172 2.18-.525 2.14-.787-.03-.263-1.05-.336-2.27-.163-1.22.172-2.18.525-2.14.787.04.263 1.05.336 2.27.163Z" fill="#000D1A"/><path d="M1809.48 257.536c1.22-.177 2.15-.661 2.09-1.082-.06-.421-1.1-.619-2.31-.442-1.22.177-2.16.661-2.1 1.082.06.421 1.1.619 2.32.442ZM1863.95 235.243l-4.42.64.91 6.284 4.42-.64-.91-6.284Z" fill="#000D1A"/><path d="M1861.82 236.103c1.22-.177 2.17-.533 2.14-.795-.04-.263-1.06-.332-2.28-.155-1.22.176-2.18.532-2.14.795.04.262 1.06.331 2.28.155ZM1862.76 242.618c1.22-.177 2.16-.661 2.1-1.082-.06-.421-1.1-.619-2.32-.442-1.22.177-2.16.661-2.09 1.082.06.421 1.09.619 2.31.442ZM1848.53 214.899l-4.42.64.92 6.284 4.41-.64-.91-6.284Z" fill="#000D1A"/><path d="M1846.4 215.767c1.22-.177 2.18-.533 2.14-.795-.04-.263-1.06-.332-2.28-.155-1.22.176-2.17.532-2.14.795.04.262 1.06.332 2.28.155ZM1847.34 222.27c1.22-.176 2.16-.661 2.1-1.082-.06-.42-1.1-.618-2.32-.442-1.22.177-2.15.662-2.09 1.082.06.421 1.1.619 2.31.442ZM1797.1 231.594l-4.42.64.91 6.285 4.42-.64-.91-6.285Z" fill="#000D1A"/><path d="M1794.96 232.454c1.21-.176 2.17-.532 2.13-.795-.03-.262-1.05-.331-2.27-.155-1.22.177-2.18.533-2.14.795.04.263 1.06.332 2.28.155ZM1795.91 238.958c1.22-.177 2.16-.661 2.1-1.082-.06-.421-1.1-.619-2.32-.442-1.22.177-2.16.661-2.1 1.082.06.421 1.1.619 2.32.442ZM1846.66 217.492c8.15-1.182 14.42-4.529 13.99-7.475-.43-2.946-7.38-4.375-15.54-3.193-8.15 1.182-14.42 4.529-13.99 7.475.43 2.946 7.38 4.376 15.54 3.193Z" fill="#000D1A"/><path d="M1795.24 234.383c8.16-1.182 14.42-4.529 14-7.475-.43-2.946-7.39-4.376-15.54-3.193-8.16 1.182-14.42 4.529-13.99 7.475.42 2.946 7.38 4.375 15.53 3.193ZM1830.14 256.049a14.76 14.76 0 0 1-4.27.09 21.364 21.364 0 0 1-2-6.95 1.79 1.79 0 0 1 1.58-1.95c.24-.032.48-.016.7.046.23.063.45.171.64.319.18.147.34.331.45.54.12.208.19.438.21.675.17 2.02 1.08 5.78 2.69 7.23ZM142.113 274.102c8.07-1.667 14.124-5.382 13.522-8.297-.602-2.915-7.632-3.927-15.702-2.26-8.07 1.666-14.124 5.381-13.521 8.296.602 2.915 7.632 3.927 15.701 2.261ZM78.373 287.262c8.07-1.667 14.124-5.381 13.521-8.297-.602-2.915-7.632-3.927-15.701-2.26-8.07 1.666-14.124 5.381-13.522 8.296.602 2.916 7.632 3.928 15.702 2.261Z" fill="#000D1A"/><path d="M124.92 272.189a5.15 5.15 0 0 1-4.364-3.092 5.151 5.151 0 0 1 .734-5.298l9-10.92-3.67-1.43c-2.12 3.19-6.09 7.35-10 11.12a23.482 23.482 0 0 1-9 5.4 23.467 23.467 0 0 1-10.38-1.4c-5.07-1.92-10.36-4.16-13.58-6.26l-2.8 2.77 12.54 6.48a5.157 5.157 0 0 1 2.764 4.57 5.16 5.16 0 0 1-2.764 4.57 79.24 79.24 0 0 1-15.62 5.67l1.17 3.47s14.1-4.59 18.73-3.91c4.2.63 8.12 5 13.84 4.17l.5-.1c5.59-1.49 7.45-7.08 11-9.31 4-2.46 18.75-3.83 18.75-3.83l-.3-3.65a79.333 79.333 0 0 1-16.55.98Z" fill="#4CC3FF"/><path d="M128.766 255.047c8.07-1.667 14.123-5.381 13.521-8.296-.602-2.916-7.632-3.928-15.702-2.261-8.07 1.667-14.123 5.381-13.521 8.296.602 2.916 7.632 3.928 15.702 2.261Z" fill="#000D1A"/><path d="m130.074 250.379-4.368.902 1.284 6.219 4.368-.902-1.284-6.219Z" fill="#000D1A"/><path d="M127.997 251.368c1.206-.249 2.141-.662 2.087-.921-.054-.26-1.075-.268-2.281-.019-1.206.249-2.14.661-2.087.921.054.26 1.075.268 2.281.019ZM129.335 257.815c1.206-.249 2.114-.789 2.028-1.205-.086-.417-1.133-.552-2.339-.303-1.206.249-2.114.788-2.028 1.205.086.416 1.133.552 2.339.303ZM82.973 263.746c8.07-1.667 14.123-5.381 13.521-8.296-.602-2.916-7.632-3.928-15.702-2.261-8.07 1.667-14.123 5.381-13.521 8.297.602 2.915 7.632 3.927 15.702 2.26Z" fill="#000D1A"/><path d="m84.28 259.082-4.367.902 1.285 6.219 4.367-.902-1.284-6.219Z" fill="#000D1A"/><path d="M82.213 260.071c1.206-.249 2.14-.661 2.087-.921-.054-.26-1.075-.268-2.281-.019-1.206.249-2.14.661-2.087.921.054.26 1.075.268 2.281.019ZM83.541 266.518c1.206-.249 2.115-.789 2.029-1.205-.087-.417-1.134-.552-2.34-.303-1.206.249-2.114.789-2.028 1.205.086.416 1.133.552 2.34.303ZM110 288.41a15.149 15.149 0 0 0 4-1.37 21.393 21.393 0 0 0-.49-7.22 1.787 1.787 0 0 0-2.15-1.29 1.747 1.747 0 0 0-.625.292 1.742 1.742 0 0 0-.699 1.159c-.034.229-.023.464.034.689.55 1.98.93 5.83-.07 7.74ZM79.691 282.598l-4.368.902 1.285 6.219 4.367-.902-1.284-6.219Z" fill="#000D1A"/><path d="M77.613 283.583c1.207-.249 2.14-.662 2.087-.921-.053-.26-1.075-.268-2.28-.019-1.207.249-2.141.661-2.088.921.054.259 1.075.268 2.281.019ZM78.942 290.022c1.206-.249 2.114-.789 2.028-1.205-.086-.417-1.134-.552-2.34-.303-1.206.249-2.114.788-2.028 1.205.086.416 1.134.552 2.34.303ZM143.422 269.438l-4.368.902 1.284 6.219 4.368-.903-1.284-6.218Z" fill="#000D1A"/><path d="M141.354 270.423c1.206-.249 2.14-.662 2.086-.921-.053-.26-1.074-.269-2.28-.019-1.207.249-2.141.661-2.087.921.053.259 1.075.268 2.281.019ZM142.683 276.862c1.206-.249 2.114-.789 2.028-1.205-.086-.417-1.133-.553-2.34-.303-1.206.249-2.114.788-2.028 1.205.086.416 1.134.552 2.34.303ZM337.21 162.718s-16.47 1.29-36.53-7.22a4.876 4.876 0 0 1-3-4.6c.09-4.19.58-12.49-4.25-21.15l10.42-8.67 9.72 25.38s20.81 7.15 23.64 16.26Z" fill="#000D1A"/><path d="M272.53 79.398s-5.34 15.64-2.07 37.18a4.894 4.894 0 0 0 3.73 4c4.08 1 12.09 2.34 19.28 9.16l10.9-7.52-21.94-15.94s-1.78-21.88-9.9-26.88Z" fill="#000D1A"/><path d="m305.23 124.49 8.87-4.84a2.333 2.333 0 0 0 .78-3.4l-3.41-4.79a2.336 2.336 0 0 0-2.604-.867 2.35 2.35 0 0 0-.846.477l-7.66 6.82 4.87 6.6Z" fill="#FFBF00"/><path d="m285.53 140.841 2.11-3.4-2.26-.32s-.97 3.53.15 3.72Z" fill="#000D1A"/><path d="M303.693 127.772c3.604-2.248 5.099-6.357 3.34-9.178-1.76-2.821-6.107-3.286-9.711-1.038-3.604 2.247-5.099 6.356-3.339 9.177 1.759 2.821 6.107 3.286 9.71 1.039Z" fill="#FFBF00"/><path d="m295.83 133.141-5.39 2.21s-2.12 3.25-5.06 1.77c-2.94-1.48-1.49-7.59 5-12l5.45 8.02Z" fill="#000D1A"/><path d="M287.9 126.829s4.91-7.51 10.61-9.94l-16.08-10.6-4.26 15.48a43.749 43.749 0 0 1 9.73 5.06ZM294.16 133.819s8.94-3.23 12.25-8.44l7.2 21.08-16.72-4.18a42.528 42.528 0 0 0-2.73-8.46Z" fill="#FFBF00"/><path d="M287.36 126.431s5.3 3.92 7.22 8.43l11.77-3.92.06-5.56-7.9-8.49-8.63 3.21-2.52 6.33Z" fill="#FFBF00"/></svg>