<svg width="1920" height="501" viewBox="0 0 1920 501" fill="none" xmlns="http://www.w3.org/2000/svg"><path d="M1133.88 0s85.88 5.57 204.77 73c118.89 67.43 121.55-7.27 91.16-33s39.63-19.15 114.94 11.23S1844.64 143.71 1824.82 0h-690.94ZM-26.32 0S298.32 221.57 350.9 143.66C379.6 101.13 214.57 0 214.57 0H-26.32Z" fill="#F1F2F5"/><path d="M2094.28 500.002h-914.52c1.73-1.7 216.68-212.93 347.6-337.33a20.692 20.692 0 0 1 12.53-5.596c4.69-.386 9.37.84 13.27 3.476l47.69 32.3 15.15-20.85 30.87-42.51 7.24-10 35.38-48.72a26.811 26.811 0 0 1 9.42-8.075 26.8 26.8 0 0 1 33.69 7.765c21.26 28.35 42.11 55.34 62.88 81.51 91.89 115.8 182.13 215.7 298.8 348.03Z" fill="#F3F4F7"/><path d="M1480.63 387.371s-10.13-1.32-4.41-15.41c5.72-14.09-63.63-5.39-80.47 128h-216c1.73-1.7 216.68-212.93 347.6-337.33a20.629 20.629 0 0 1 17.47-5.41s15.94 15.9 8.46 25c-7.48 9.1-31.27 7.81-30.39 15.29.88 7.48 31.75-.75 37.54 12.83 5.62 13.15-17.89 36.1-30.27 69.46-18.61 50.2-34.85 107.96-49.53 107.57ZM1677.91 154.859c20.26-13.65 11.45 15.85 25.1 11.89 13.65-3.96 33.54-77.36 6-106.94-3.85.304-7.6 1.446-10.97 3.345a26.594 26.594 0 0 0-8.53 7.655l-35.38 48.72-7.24 10-30.89 42.47c11.73 6.26 23.11 12.84 34 19.54 7.7-14.16 17.85-29.9 27.91-36.68Z" fill="#fff"/><path d="M1721.78 265.502c-3.42-3.8 1.78-9.17 5.7-5.9 14.93 12.48 28.46 23.47 32.34 25.61 29.66 16.37-26.23-42.38-109.8-93.7-7.74 14.26-13 26.88-13 27 26 19.46 65 50.28 113.12 93.56 58.7 52.76 12.18-1.36-28.36-46.57Z" fill="#E9EBF2"/><path d="m1616 172-15.15 20.87s12.94 8.31 36.16 25.67c0-.12 5.27-12.74 13-27-10.9-6.73-22.28-13.31-34.01-19.54Z" fill="#F1F2F5"/><path d="M1935.88 500h-271.93v-63.41h240.44l31.49 13.54V500Z" fill="#F6F7F9"/><path d="M1823.81 363.371h-240.44v73.22h321.02v-13.22l-80.58-60Z" fill="#E9EBF2"/><path d="m1663.95 423.379-80.59-60-80.58 60v76.62h161.17v-76.62ZM1471.73 500h31.05v-63.41l-31.05 13.54V500Z" fill="#fff"/><path d="M1695 500h-31.05v-63.41l31.05 13.54V500Z" fill="#fff"/><path d="M1590.13 383.172h-13.54v16.84h13.54v-16.84Z" fill="#F3F4F7"/><path d="M1579.18 383.172h-2.59v16.84h2.59v-16.84Z" fill="#E9EBF2"/><path d="M1547.68 416.43h-13.54v16.84h13.54v-16.84Z" fill="#F3F4F7"/><path d="M1536.73 416.43h-2.59v16.84h2.59v-16.84Z" fill="#E9EBF2"/><path d="M1575.42 416.43h-13.54v16.84h13.54v-16.84Z" fill="#F3F4F7"/><path d="M1564.47 416.43h-2.59v16.84h2.59v-16.84Z" fill="#E9EBF2"/><path d="M1603.16 416.43h-13.54v16.84h13.54v-16.84Z" fill="#F3F4F7"/><path d="M1592.21 416.43h-2.59v16.84h2.59v-16.84Z" fill="#E9EBF2"/><path d="M1630.9 416.43h-13.54v16.84h13.54v-16.84Z" fill="#F3F4F7"/><path d="M1619.95 416.43h-2.59v16.84h2.59v-16.84Z" fill="#E9EBF2"/><path d="M1547.68 445.172h-13.54v16.84h13.54v-16.84Z" fill="#F3F4F7"/><path d="M1536.73 445.172h-2.59v16.84h2.59v-16.84Z" fill="#E9EBF2"/><path d="M1575.42 445.172h-13.54v16.84h13.54v-16.84Z" fill="#F3F4F7"/><path d="M1564.47 445.172h-2.59v16.84h2.59v-16.84Z" fill="#E9EBF2"/><path d="M1603.16 445.172h-13.54v16.84h13.54v-16.84Z" fill="#F3F4F7"/><path d="M1592.21 445.172h-2.59v16.84h2.59v-16.84Z" fill="#E9EBF2"/><path d="M1630.9 445.172h-13.54v16.84h13.54v-16.84Z" fill="#F3F4F7"/><path d="M1619.95 445.172h-2.59v16.84h2.59v-16.84Z" fill="#E9EBF2"/><path d="M1547.68 473.898h-13.54v16.84h13.54v-16.84Z" fill="#F3F4F7"/><path d="M1536.73 473.898h-2.59v16.84h2.59v-16.84Z" fill="#E9EBF2"/><path d="M1575.42 473.898h-13.54v16.84h13.54v-16.84Z" fill="#F3F4F7"/><path d="M1564.47 473.898h-2.59v16.84h2.59v-16.84Z" fill="#E9EBF2"/><path d="M1603.16 473.898h-13.54v16.84h13.54v-16.84Z" fill="#F3F4F7"/><path d="M1592.21 473.898h-2.59v16.84h2.59v-16.84Z" fill="#E9EBF2"/><path d="M1630.9 473.898h-13.54v16.84h13.54v-16.84Z" fill="#F3F4F7"/><path d="M1619.95 473.898h-2.59v16.84h2.59v-16.84Z" fill="#E9EBF2"/><path d="M1681.12 459.871h-8.73v34.84h8.73v-34.84Z" fill="#F3F4F7"/><path d="M1674.06 459.871h-1.67v34.84h1.67v-34.84Z" fill="#E9EBF2"/><path d="M1493.97 459.871h-8.73v34.84h8.73v-34.84Z" fill="#F3F4F7"/><path d="M1486.91 459.871h-1.67v34.84h1.67v-34.84ZM1663.95 436.59l31.05 13.54h240.88l-31.49-13.54h-240.44ZM1973.59 459.871h-205.3v40.13H2024.51l-50.92-40.13Z" fill="#E9EBF2"/><path d="m1768.29 459.879-50.91 40.12h101.82l-50.91-40.12Z" fill="#fff"/><path d="M1773.95 480.328h-11.34v14.11h11.34v-14.11Z" fill="#F3F4F7"/><path d="M1764.78 480.328h-2.17v14.11h2.17v-14.11Z" fill="#E9EBF2"/><path d="M821.11 500H-174s37.12-37.44 92.73-98.91c65.69-72.62 157.19-178.77 243.8-296.38a17.995 17.995 0 0 1 14.337-7.342 18.002 18.002 0 0 1 14.473 7.072c39.88 51.95 151.42 194 208 233.46a69.471 69.471 0 0 1 80.38-3.25c67.69 44.11 209.11 129.4 341.39 165.35Z" fill="#F3F4F7"/><path d="M103.43 305.46C-12.35 380-79.95 400.7-81.26 401.09c65.69-72.62 157.19-178.77 243.8-296.38a18.004 18.004 0 0 1 22.409-5.515 17.992 17.992 0 0 1 6.401 5.245s1.91 25.65-23.52 63.3.11 36.33 11.78 29.39c11.67-6.94 40.73 33.03-76.18 108.33Z" fill="#fff"/><path d="M399.37 337.899s-76 71.6-161.19 105.29c-85.19 33.69 44-33.72 85.38-84.22 41.38-50.5 8.75-31.71-4.13-34.68-12.88-2.97 17.57-44.43 17.57-44.43l62.37 58.04Z" fill="#E9EBF2"/><path d="M99.46 500.002s81-10 158.54-54.06c67.77-38.51 126.41-93.66 141.37-108 0 0 12.8-13.74 42.5-14.5 29.7-.76-1.12 16.85-18.3 35.35s2.65 16.73 16.74 9.24c14.09-7.49 32.14 4-46.68 54.17s-84.55 52-74.86 57.69c9.69 5.69.44 20.15.44 20.15l-219.75-.04ZM85.38 339.242c-8.57-5.49 20.27-20.05 33.67-29.82 34.87-25.43 47.54-37 55.35-48.37 6.43-9.37 16.68-3.56-11.73 28.22-29.74 33.28-66.8 56.73-77.29 49.97Z" fill="#fff"/><path d="M99.27 430.109h113.75v40.13H48.36l50.91-40.13Z" fill="#E9EBF2"/><path d="m213.02 430.109 50.91 40.13v29.76H162.11v-29.76l50.91-40.13Z" fill="#fff"/><path d="M203.35 464.672h11.34v-14.11h-11.34v14.11Z" fill="#F3F4F7"/><path d="M212.52 464.672h2.17v-14.11h-2.17v14.11Z" fill="#E9EBF2"/><path d="M203.35 491.199h11.34v-14.11h-11.34v14.11Z" fill="#F3F4F7"/><path d="M212.52 491.199h2.17v-14.11h-2.17v14.11Z" fill="#E9EBF2"/><path d="M231.25 491.199h11.34v-14.11h-11.34v14.11Z" fill="#F3F4F7"/><path d="M240.42 491.199h2.17v-14.11h-2.17v14.11Z" fill="#E9EBF2"/><path d="M175.84 491.199h11.34v-14.11h-11.34v14.11Z" fill="#F3F4F7"/><path d="M185.02 491.199h2.17v-14.11h-2.17v14.11Z" fill="#E9EBF2"/><path d="M162.1 470.238H48.36v29.76H162.1v-29.76ZM209.9 432.569l49.1 38.69v28.74h4.93v-29.76l-50.91-40.13-3.12 2.46Z" fill="#F6F7F9"/><path d="M-11.34 500h155.86V375.75H9.13L-11.34 500Z" fill="#F6F7F9"/><path d="m82.46 163.34-56.51 314.2h110.98l-54.47-314.2Z" fill="#E9EBF2"/><path d="M119.28 375.75h25.24l-7.59 101.79h-17.65V375.75ZM47.53 375.75H9.13l16 101.79h17.65l4.75-101.79Z" fill="#E9EBF2"/><path d="m136.93 477.539-55.49-88.07-55.49 88.07v22.46h110.98v-22.46Z" fill="#fff"/><path d="M98.64 467.999a16.153 16.153 0 0 1-11.625 15.523c-2.227.65-4.569.813-6.865.477a16.18 16.18 0 0 0 0-32 16.138 16.138 0 0 1 12.908 3.767 16.148 16.148 0 0 1 5.582 12.233Z" fill="#E9EBF2"/><path d="M94 468a16.178 16.178 0 0 1-13.87 16 16.18 16.18 0 0 1 0-32A16.188 16.188 0 0 1 94 468Z" fill="#F3F4F7"/><path d="M81.44 389.469h-9.47l-39.57 64.06-6.45 24.01 55.49-88.07Z" fill="#F1F2F5"/><path d="M82.46 167.241a3.9 3.9 0 1 0 0-7.8 3.9 3.9 0 0 0 0 7.8Z" fill="#E9EBF2"/><path d="M17.56 0s153.68 95.73 179.67 56.22C207.51 40.58 155 0 155 0H17.56Z" fill="#F6F7F9"/><path d="M332 0s56.14 51.15 171.08 51.15c114.94 0 162.5-30.38 272.81-6.6S913.92 0 913.92 0H332ZM337 72.241s-47.78-25.78-37.08-45c10.7-19.22 56.48 20.65 64.56 45.54 8.08 24.89-27.48-.54-27.48-.54Z" fill="#F1F2F5"/><path d="M1522.29 0s173.06 57.54 247.92 36.84c11.42-3.16 34.13-12.69 32.15-36.84h-280.07Z" fill="#F6F7F9"/><path d="M1741.32 12.59S1703-.87 1697.81 14.7c-5.19 15.57 39.82 20.85 57.65 12.8s-14.14-14.91-14.14-14.91Z" fill="#F1F2F5"/><path d="M1365.1 58.16s41.38 37.55 56.33 20.59c14.95-16.96-39.38-47.74-66.3-47.06-26.92.68 9.97 26.47 9.97 26.47Z" fill="#F6F7F9"/><path d="M1480.23 43.848c1.87 6.64 37.43 22.45 83.45 38.94s58.21 11.16 57.19 6c-1.02-5.16-35.75-9-70.4-23.48-34.65-14.48-74.07-35.06-70.24-21.46Z" fill="#F1F2F5"/><path d="M1735.4 106.432c.37 2.189.6 4.4.69 6.62.06 1.1.06 2.19.08 3.28.02 1.09-.06 2.18-.08 3.27a77.99 77.99 0 0 1-1.73 13 65.069 65.069 0 0 1-4 12.47 53.338 53.338 0 0 1-6.6 11.24 1.093 1.093 0 0 1-1.4.285 1.09 1.09 0 0 1-.49-.583c-.09-.247-.09-.518.01-.762v-.08c.4-1 .79-1.931 1.21-2.881l.6-1.42.5-1.47c.32-1 .71-1.919 1-2.899.29-.98.56-2 .85-2.95a87.577 87.577 0 0 0 2.41-12c.52-4.047.85-8.11 1-12.19.06-2 .1-4.07.08-6.11-.02-2.04-.08-4.12-.14-6v-.17c-.08-.796.15-1.592.66-2.214a2.998 2.998 0 0 1 2.03-1.101 3.013 3.013 0 0 1 3.31 2.684l.01-.019ZM1709 190.441a33.002 33.002 0 0 0 5.1-2.67c.81-.55 1.63-1.05 2.39-1.65l1.16-.86 1.11-.94a48.798 48.798 0 0 0 7.77-8.44 54.627 54.627 0 0 0 3.06-4.86c.45-.85 1-1.63 1.38-2.52l1.23-2.61c.42-.864.8-1.752 1.12-2.66l1.07-2.69c.66-1.82 1.19-3.7 1.86-5.53l.09-.25a2.795 2.795 0 0 1 3.44-1.683c.69.21 1.26.672 1.61 1.291.35.62.46 1.35.29 2.042-.51 2.04-1.07 4.07-1.67 6.09l-1.14 3a25.796 25.796 0 0 1-1.26 2.93l-1.43 2.85c-.47 1-1.1 1.83-1.64 2.75a50.743 50.743 0 0 1-3.75 5.2 44.709 44.709 0 0 1-9.54 8.5 31.947 31.947 0 0 1-11.76 4.88 1.094 1.094 0 0 1-.82-.176.953.953 0 0 1-.29-.307c-.08-.12-.13-.255-.16-.397a1.058 1.058 0 0 1 .66-1.2l.12-.09Z" fill="#fff"/><path d="M1656.07 272.778s12.89 13.07 52.85 8.93c0 0-22.28-4.61-32.68-17.31l-20.17 8.38ZM1651 267.341s-13.17-19.24 12.8-36.45c0 0-10.5 16.75 2.48 28.17l-15.28 8.28Z" fill="#000D1A"/><path d="M1659.15 270.109c0 1.308-.39 2.584-1.13 3.666a6.49 6.49 0 0 1-2.99 2.403 6.527 6.527 0 0 1-3.82.314 6.514 6.514 0 0 1-3.34-1.883 6.47 6.47 0 0 1-1.4-2.25 4.33 4.33 0 0 1-.21-.7 6.525 6.525 0 0 1-.08-2.747c.17-.911.52-1.776 1.05-2.538a6.52 6.52 0 0 1 2.01-1.881 6.482 6.482 0 0 1 2.59-.892 6.56 6.56 0 0 1 2.74.254c.88.278 1.7.741 2.39 1.357a6.455 6.455 0 0 1 1.62 2.218c.38.846.57 1.763.57 2.689v-.01Z" fill="#4CC3FF"/><path d="M1647.87 274.609h-3.01l1.21-2.61.18-.37.01.02.52.95 1.09 2.01ZM1679.72 256c0-.37 10-15.25 10-15.25l-1.29 12.43 2.67 2.57 17.17 4.22-23.86 1.78-4.69-5.75Z" fill="#4CC3FF"/><path d="M1685.08 261.718c-10 6.36-17 9.91-28.21 11.74a23.724 23.724 0 0 1-6.45-7.12s7.12-9.17 29.49-10.6l5.17 5.98Z" fill="#4CC3FF"/><path d="M1657.2 267.349c0 1.208-.34 2.393-.98 3.421a6.534 6.534 0 0 1-9.44 1.829l-.31-.24c-.14-.11-.27-.23-.4-.35l.18-.37a6.503 6.503 0 0 1 .3-4.016 6.522 6.522 0 0 1 2.6-3.077 6.52 6.52 0 0 1 3.91-.967c1.37.097 2.68.626 3.73 1.51.27.722.41 1.488.41 2.26Z" fill="#4CC3FF"/><path d="M1774.66 386.876c8.16-1.153 14.43-4.477 14.01-7.425-.41-2.947-7.36-4.4-15.52-3.247-8.16 1.154-14.43 4.478-14.02 7.425.42 2.947 7.37 4.401 15.53 3.247ZM1828.79 366.453c8.15-1.182 14.42-4.529 13.99-7.475-.43-2.946-7.38-4.376-15.54-3.193-8.15 1.182-14.42 4.529-13.99 7.475.43 2.946 7.38 4.376 15.54 3.193Z" fill="#000D1A"/><path d="m1826.89 363.679.53 3.63s-14.67 2.25-18.49 4.95c-3.82 2.7-5.26 9.39-12.32 10.42-1.41.237-2.84.267-4.26.09-3.71-.54-5.83-3.09-7.64-8.33-2.12-6.14-15-9.08-21.21-10.45l-.08-4.54 14.84 3.93a23.406 23.406 0 0 0 12.59-.16 23.432 23.432 0 0 0 10.68-6.66c3.66-4 7.37-8.39 9.31-11.7l3.74 1.2-8.26 11.45a5.22 5.22 0 0 0-.96 2.606c-.07.94.11 1.882.54 2.724a5.102 5.102 0 0 0 1.87 2.047c.8.497 1.73.765 2.67.773a79.206 79.206 0 0 0 16.45-1.98Z" fill="#FFBF00"/><path d="m1776.32 378.001 8.1-4.13 2.57 4.53s-6-.61-10 2.37l-.67-2.77Z" fill="#FFBF00"/><path d="m1777.1 376.801-4.42.64.91 6.285 4.42-.64-.91-6.285Z" fill="#000D1A"/><path d="M1774.97 377.661c1.22-.176 2.17-.532 2.14-.795-.04-.262-1.06-.331-2.28-.155-1.22.177-2.18.533-2.14.795.04.263 1.06.332 2.28.155ZM1775.91 384.173c1.22-.177 2.16-.661 2.1-1.082-.06-.421-1.1-.619-2.32-.442-1.22.176-2.16.661-2.09 1.082.06.421 1.09.619 2.31.442ZM1830.38 361.88l-4.41.64.91 6.284 4.42-.64-.92-6.284Z" fill="#000D1A"/><path d="M1828.25 362.739c1.21-.176 2.17-.532 2.13-.795-.03-.262-1.05-.331-2.27-.155-1.22.177-2.18.533-2.14.795.04.263 1.06.332 2.28.155ZM1829.2 369.239c1.22-.177 2.16-.661 2.1-1.082-.07-.421-1.1-.619-2.32-.442-1.22.177-2.16.661-2.1 1.082.06.421 1.1.619 2.32.442ZM1814.95 341.532l-4.41.64.91 6.284 4.42-.64-.92-6.284Z" fill="#000D1A"/><path d="M1812.84 342.4c1.21-.177 2.17-.533 2.13-.795-.03-.263-1.05-.332-2.27-.155-1.22.176-2.18.532-2.14.795.04.262 1.06.331 2.28.155ZM1813.26 355.966c1.22-.172 2.16-.653 2.1-1.074-.06-.421-1.1-.623-2.32-.45-1.22.172-2.16.653-2.1 1.074.06.421 1.1.623 2.32.45ZM1763.53 358.219l-4.41.64.91 6.285 4.41-.64-.91-6.285Z" fill="#000D1A"/><path d="M1761.39 359.087c1.22-.177 2.18-.533 2.14-.795-.04-.262-1.06-.332-2.27-.155-1.22.177-2.18.533-2.14.795.04.262 1.05.332 2.27.155ZM1762.34 365.591c1.22-.177 2.16-.661 2.09-1.082-.06-.421-1.09-.619-2.31-.442-1.22.176-2.16.661-2.1 1.082.06.421 1.1.619 2.32.442ZM1813.09 344.129c8.15-1.182 14.42-4.529 13.99-7.475-.43-2.946-7.39-4.376-15.54-3.193-8.16 1.182-14.42 4.529-13.99 7.475.42 2.946 7.38 4.376 15.54 3.193Z" fill="#000D1A"/><path d="M1761.67 361.02c8.16-1.183 14.42-4.529 13.99-7.475-.42-2.946-7.38-4.376-15.53-3.194-8.16 1.183-14.42 4.529-14 7.475.43 2.946 7.39 4.376 15.54 3.194ZM1796.57 382.68c-1.41.236-2.84.266-4.26.09a21.643 21.643 0 0 1-2-6.95c-.04-.467.1-.93.4-1.294.29-.363.72-.599 1.18-.656a1.765 1.765 0 0 1 1.3.384c.18.147.34.328.45.533.11.205.18.431.2.663.21 2.02 1.16 5.78 2.73 7.23ZM125.712 382.59c8.07-1.667 14.123-5.381 13.521-8.297-.602-2.915-7.632-3.927-15.701-2.26-8.07 1.667-14.124 5.381-13.522 8.296.602 2.916 7.632 3.928 15.702 2.261ZM61.972 395.75c8.07-1.667 14.123-5.381 13.521-8.296-.602-2.916-7.632-3.928-15.702-2.261-8.07 1.667-14.123 5.381-13.521 8.297.602 2.915 7.632 3.927 15.702 2.26Z" fill="#000D1A"/><path d="M108.51 380.69a5.15 5.15 0 0 1-3.63-8.39l8.95-10.92-3.66-1.38c-2.13 3.19-6.1 7.35-10 11.12a23.418 23.418 0 0 1-9 5.4 23.325 23.325 0 0 1-10.38-1.41c-5.07-1.91-10.36-4.16-13.58-6.25l-2.8 2.77L77 378.06a5.157 5.157 0 0 1 2.764 4.57A5.157 5.157 0 0 1 77 387.2a79.303 79.303 0 0 1-15.62 5.67l1.17 3.47s14.1-4.59 18.73-3.91c4.2.63 8.12 5 13.84 4.17l.5-.1c5.59-1.49 7.45-7.08 11.05-9.31 4-2.46 18.76-3.83 18.76-3.83l-.31-3.65a79.362 79.362 0 0 1-16.61.98Z" fill="#4CC3FF"/><path d="M112.355 363.535c8.069-1.666 14.123-5.381 13.521-8.296-.602-2.915-7.632-3.928-15.702-2.261-8.07 1.667-14.123 5.381-13.521 8.297.602 2.915 7.632 3.927 15.702 2.26Z" fill="#000D1A"/><path d="m113.682 358.867-4.368.903 1.285 6.218 4.368-.902-1.285-6.219Z" fill="#000D1A"/><path d="M111.606 359.852c1.206-.249 2.14-.661 2.086-.921-.053-.259-1.074-.268-2.281-.019-1.206.249-2.14.662-2.086.921.053.26 1.074.269 2.281.019ZM112.934 366.303c1.206-.249 2.114-.788 2.028-1.205-.086-.416-1.133-.552-2.34-.303-1.206.249-2.114.789-2.028 1.205.086.417 1.134.552 2.34.303ZM66.571 372.235c8.07-1.667 14.124-5.382 13.522-8.297-.602-2.915-7.632-3.927-15.702-2.261-8.07 1.667-14.124 5.382-13.521 8.297.602 2.915 7.632 3.927 15.701 2.261Z" fill="#000D1A"/><path d="m67.88 367.571-4.368.902 1.284 6.218 4.368-.902-1.285-6.218Z" fill="#000D1A"/><path d="M65.802 368.559c1.206-.249 2.14-.661 2.087-.921-.054-.259-1.075-.268-2.281-.019-1.206.249-2.14.662-2.087.921.053.26 1.075.269 2.28.019ZM67.14 375.006c1.206-.249 2.114-.788 2.028-1.205-.086-.416-1.133-.552-2.34-.303-1.206.249-2.114.789-2.028 1.205.086.417 1.134.552 2.34.303ZM93.62 396.909a15.11 15.11 0 0 0 4-1.37 21.361 21.361 0 0 0-.49-7.22 1.775 1.775 0 0 0-2.145-1.295 1.77 1.77 0 0 0-1.295 2.145c.52 1.98.94 5.83-.07 7.74ZM63.28 391.086l-4.368.902 1.285 6.219 4.367-.902-1.284-6.219Z" fill="#000D1A"/><path d="M61.212 392.071c1.206-.249 2.14-.661 2.087-.921-.054-.26-1.075-.268-2.281-.019-1.206.249-2.14.661-2.087.921.054.26 1.075.268 2.281.019ZM62.54 398.51c1.206-.249 2.114-.788 2.029-1.205-.087-.416-1.134-.552-2.34-.303-1.206.249-2.114.789-2.028 1.205.086.417 1.133.552 2.34.303ZM127.02 377.926l-4.368.902 1.285 6.219 4.368-.902-1.285-6.219Z" fill="#000D1A"/><path d="M124.943 378.911c1.206-.249 2.14-.662 2.086-.921-.053-.26-1.075-.268-2.281-.019-1.206.249-2.14.661-2.086.921.053.26 1.074.268 2.281.019ZM126.271 385.35c1.206-.249 2.114-.789 2.028-1.205-.086-.417-1.134-.552-2.34-.303-1.206.249-2.114.789-2.028 1.205.086.417 1.134.552 2.34.303ZM232.46 233.138s-16.47 1.29-36.52-7.22a4.87 4.87 0 0 1-3-4.6c.08-4.19.57-12.49-4.25-21.16l10.41-8.67 9.72 25.38s20.82 7.13 23.64 16.27Z" fill="#000D1A"/><path d="M167.78 149.82s-5.33 15.63-2.06 37.17a4.88 4.88 0 0 0 3.72 4c4.08 1 12.09 2.34 19.29 9.16l10.89-7.51-21.93-15.94s-1.78-21.89-9.91-26.88Z" fill="#000D1A"/><path d="m200.48 194.899 8.87-4.83a2.334 2.334 0 0 0 1.156-1.524 2.337 2.337 0 0 0-.376-1.876l-3.41-4.79a2.323 2.323 0 0 0-3.45-.39l-7.66 6.82 4.87 6.59Z" fill="#FFBF00"/><path d="m180.79 211.259 2.11-3.41-2.26-.31s-.97 3.52.15 3.72Z" fill="#000D1A"/><path d="M198.94 198.197c3.604-2.247 5.099-6.356 3.34-9.177-1.76-2.821-6.107-3.286-9.711-1.039-3.604 2.248-5.099 6.357-3.339 9.178 1.759 2.821 6.107 3.286 9.71 1.038Z" fill="#FFBF00"/><path d="m191.08 203.549-5.39 2.21s-2.12 3.25-5.05 1.78c-2.93-1.47-1.5-7.59 5-12l5.44 8.01Z" fill="#000D1A"/><path d="M183.16 197.241s4.91-7.5 10.61-9.93l-16.08-10.6-4.26 15.48a43.609 43.609 0 0 1 9.73 5.05ZM189.41 204.239s8.94-3.24 12.25-8.45l7.2 21.08-16.72-4.18a41.802 41.802 0 0 0-2.73-8.45Z" fill="#FFBF00"/><path d="M182.62 196.839s5.29 3.93 7.21 8.43l11.77-3.91.06-5.57-7.89-8.48-8.64 3.2-2.51 6.33Z" fill="#FFBF00"/></svg>