<svg width="1920" height="350" viewBox="0 0 1920 350" fill="none" xmlns="http://www.w3.org/2000/svg"><mask id="background-image_svg__a" mask-type="alpha" maskUnits="userSpaceOnUse" x="0" y="0" width="1920" height="350"><path d="M0 0h1920v350H0V0Z" fill="#F9FAFB"/></mask><g mask="url(#background-image_svg__a)"><path d="M186.819 43.687c8.401 19.395 33.504 79.678 50.706 142.46 1.4 4.898-1.701 9.997-6.801 11.096l-107.211 22.594c-4.501 1-9.001-1.7-10.301-6.098L68.407 68.28c-1.6-5.098 1.7-10.397 6.9-11.396l101.711-18.395c4.101-.7 8.201 1.4 9.801 5.198Z" fill="#E9EBF2"/><path d="M161.717 46.087 97.51 58.683l-2.4-7.198c-1-3 .9-6.298 4-6.898l53.706-10.497c2.6-.5 5.2 1 6.001 3.499l2.9 8.498Z" fill="#E9EBF2"/><path d="m144.915 40.387-35.704 7.697-1.5-6.898c-1.3-5.998 2.5-11.796 8.501-13.096l14.101-3.099c6.001-1.3 11.802 2.5 13.102 8.498l1.5 6.898Z" stroke="#E9EBF2" stroke-width="5" stroke-miterlimit="10" stroke-linecap="round" stroke-linejoin="round"/><path d="M661.67 350H62.907s13.302-29.991 42.605-55.384c29.703-25.792 75.908-46.786 141.514-26.992.5.2 1.001.3 1.501.5C378.94 307.712 462.349 337.804 661.67 350Z" fill="#F3F4F7"/><path d="m192.521 250.028 90.009-6.598s24.702 82.776 56.806 106.569H227.324s-31.703-61.182-34.803-99.971Z" fill="#fff"/><path d="M838.488.5S955.7 80.377 1080.81 86.275C1234.73 93.473 1478.85 11.797 1663.17.5H838.488ZM1840.99 349.999H935.098s329.032-67.881 489.752-95.773c79.11-13.696 162.92-17.495 236.62-4.499 43.11 7.498 82.71 20.794 116.02 41.089 25.3 15.395 46.9 34.99 63.5 59.183Z" fill="#F3F4F7"/><path d="M264.328 323.207c-2.901.5-8.501 0-15.002-7.698-9.701-11.496-31.703-18.894-73.107-.4-41.405 18.495-58.106 15.396-64.707 0L63.007 149.457s50.205-29.791 101.91-28.792c10.402.2 20.903 1.6 31.104 4.799 3.5 1.1 6.3 3.899 7.5 7.398l7.401 22.393 54.906 165.353c.4 1.1-.3 2.299-1.5 2.599Z" fill="#F2F3F6"/><path d="M264.327 323.208c-2.9.499-8.501 0-15.001-7.698-9.701-11.497-31.704-18.895-73.108-.4s-58.106 15.396-64.707 0l-6-20.394c29.703-25.793 75.908-46.787 141.514-26.992.501.199 1.001.299 1.501.499l17.401 52.485c.3 1-.4 2.2-1.6 2.5Z" fill="#F9FAFB"/><path d="M111.411 315.009s-3.7-12.696 11.702-17.495c15.401-4.798 38.404-8.997 33.103-27.092l-7.801-21.094-52.405 12.896 15.401 52.785Z" fill="#E9EBF2"/><path d="M0 115.965s49.505-27.892 95.31-30.59c4-.2 7.701 2.398 8.801 6.197l52.205 178.849c-2.4-8.298-11.001-13.196-19.402-10.897-16.801 4.499-47.805 14.796-94.91 37.989L0 115.965Z" fill="#F9FAFB"/><path d="M19.802 129.062c6.001-2.399 11.902-4.398 17.902-6.398 6.001-1.899 12.002-3.699 18.102-5.298 6.1-1.6 12.201-2.999 18.402-4.199 6.2-1.2 12.401-2.099 18.702-2.799 1.1-.1 2.1.7 2.2 1.799.1 1.1-.6 2-1.6 2.2h-.1c-6.1.999-12.101 2.199-18.102 3.699-6 1.499-11.9 3.199-17.802 5.098-5.9 1.9-11.7 3.999-17.501 6.198-5.701 2.2-11.502 4.599-17.002 7.098h-.1c-2 .9-4.4 0-5.3-1.999-.9-2 0-4.399 2-5.299.1-.1.2-.1.2-.1ZM28.003 159.256c6-2.499 11.801-4.699 17.902-6.798 6-2.1 12.001-3.899 18.102-5.599a293.193 293.193 0 0 1 18.502-4.498c6.2-1.3 12.501-2.2 18.802-2.899 1.1-.1 2.1.699 2.2 1.799.1 1.1-.6 1.999-1.6 2.199h-.1c-6.101 1-12.202 2.3-18.202 3.799-6 1.6-12.001 3.299-17.802 5.299-5.9 1.999-11.701 4.099-17.402 6.498-5.7 2.299-11.501 4.799-16.902 7.498h-.1c-2 1-4.4.1-5.3-1.8-.9-1.899-.1-4.398 1.8-5.298-.1-.1 0-.1.1-.2ZM36.404 193.345c5.9-2.799 11.801-5.199 17.802-7.498 6-2.299 12.001-4.299 18.102-6.198 6.1-1.9 12.301-3.499 18.502-4.899 6.2-1.399 12.601-2.399 18.902-3.099 1.1-.1 2.1.7 2.2 1.799.1 1.1-.6 2-1.6 2.2h-.1c-6.101 1.1-12.201 2.299-18.302 3.999-6 1.699-12.001 3.499-17.802 5.698-5.9 2.099-11.701 4.499-17.402 6.998-5.7 2.499-11.4 5.199-16.801 8.098h-.1c-1.9.999-4.4.3-5.4-1.6-1.001-1.899-.301-4.399 1.6-5.398.3-.1.3-.1.4-.1ZM44.104 225.234c5.9-2.699 11.801-5.098 17.802-7.398 6-2.199 12.001-4.298 18.102-6.098 6.1-1.899 12.301-3.399 18.502-4.798 6.2-1.4 12.601-2.4 18.902-3.1 1.1-.1 2.1.7 2.2 1.8.1 1.1-.6 1.999-1.6 2.199h-.1c-6.101 1-12.201 2.3-18.202 3.999-6 1.7-12.001 3.499-17.802 5.599a261.67 261.67 0 0 0-17.402 6.898c-5.7 2.499-11.4 5.198-16.801 7.997h-.1c-1.9 1-4.401.3-5.401-1.699-1-1.9-.3-4.399 1.7-5.399 0 .1.1 0 .2 0ZM53.906 258.325c5.9-2.899 11.8-5.298 17.701-7.697 6.001-2.3 12.002-4.499 18.102-6.398 6.101-2 12.302-3.599 18.602-4.999 6.301-1.4 12.602-2.399 19.002-3.199 1.1-.1 2.1.7 2.2 1.799.1 1.1-.6 2-1.6 2.2h-.1c-6.2 1.099-12.301 2.299-18.302 4.099-6 1.699-12 3.599-17.801 5.798-5.901 2.199-11.702 4.599-17.402 7.098-5.7 2.599-11.402 5.298-16.702 8.297h-.1c-1.9 1.1-4.4.4-5.4-1.599-1.1-1.9-.4-4.399 1.6-5.399h.2Z" fill="#fff"/><path d="M222.923 99.473c-11.601 2.699-31.503-1.7-31.503-1.7s-16.802 11.497-28.503 13.397c0 0 5.101 44.387 40.804 49.185h.2c31.003-17.894 19.002-60.882 19.002-60.882Z" fill="#F2F3F6"/><path d="M210.922 155.255a37.865 37.865 0 0 1-7.101 5.098h-.2c-25.202-3.399-35.103-26.492-38.804-39.789 10.401.2 20.903 1.6 31.104 4.799 3.5 1.1 6.3 3.899 7.5 7.398l7.501 22.494Z" fill="#fff"/><path d="m233.324 231.734-1.6-3.799c-.1-.3-.4-.499-.8-.599l-33.403-2.4c-.4 0-.7-.3-.8-.6-1.1-2.999-3.801-4.998-6.901-5.198l-19.002-1.4c-.6 0-1.1.6-.9 1.2l15.701 50.086c.1.399.401.599.801.599l47.905 2.9c.5 0 1-.4 1-1l-1.801-39.489c-.1-.1-.1-.2-.2-.3Z" fill="#FFBF00"/><path d="M239.425 232.232c-8.101-.5-33.204-1.999-43.005-2.599-2-.1-3.6 1.6-3.3 3.599 1.1 7.598 2.7 24.693-3.7 32.191-1.001 1.199-1.401 2.899-.701 4.299v.1l34.404.399s23.803-2.399 19.202-35.189c-.2-1.6-1.4-2.7-2.9-2.8Z" fill="#000D1A"/><path d="m251.226 238.431-44.704-2.7c-1.701-.1-3.201 1.4-3.001 3.099.8 8.598 1.2 30.792-14.801 30.892l46.605 2.799s23.302 1.199 18.502-31.691c-.201-1.2-1.301-2.3-2.601-2.399Z" fill="#FFBF00"/><path d="m149.016 136.561-11.801 1.4-6.501-53.685c-.4-3.299 1.9-6.198 5.201-6.598 3.3-.4 6.2 1.9 6.6 5.198l6.501 53.685Z" fill="#4CC3FF"/><path d="m130.77 84.527-4.765.579 1.458 12.008 4.765-.579-1.458-12.008Z" fill="#000D1A"/><path d="m126.013 85.076 3.4 28.092c-2.9.4-5.5-1.699-5.9-4.599l-2.1-17.695c-.4-2.799 1.7-5.498 4.6-5.798ZM144.516 148.657l-7.301-10.697 11.801-1.399-4.5 12.096Z" fill="#000D1A"/><path d="M1844.79 319.907s26.7 13.796 75.21-89.774h-73.51s-32.2 80.577-1.7 89.774Z" fill="#E9EBF2"/><path d="M1844.79 319.91h-138.31s-17.4-12.797-.3-59.783c.1-.2.2-.5.3-.7 17.5-47.586 29.7-65.581 29.7-65.581l138.71 9.197s-30.9 57.184-36.8 84.376c-5.8 27.092 3 30.791 6.7 32.491Z" fill="#F2F3F6"/><path d="M1885.3 149.657c-3.6 7.198-10.8 18.094-18.41 28.991-12.7 18.195-26.4 36.19-26.4 36.19l-30.3-.5-118.21-1.999s-6.7-22.594 11.3-40.089c18-17.495 28.4-53.484 28.4-53.484s147.42-4.199 155.32-1.3c8 2.899 9 10.897-1.7 32.191Z" fill="#F2F3F6"/><path d="M1840.59 108.369s31 1.9 46.51 9.098c0 0-9-2.9-16.81 6.198-7.8 9.097-19.4 19.394-27.3 7.498-7.9-11.897-2.4-22.794-2.4-22.794Z" fill="#E9EBF2"/><path d="M1839.59 116.567c-.7 10.597 4.3 16.195 7.2 18.594 1.1.9 2 1.4 2 1.4-51.1 1.399-94.61-.2-122.61-1.8-21.5-1.299-34-2.599-34-2.599-14.7-22.294 3.3-48.986 21.8-74.878 5.8-7.998 11.6-15.996 16.5-23.794 7.5-11.896 12.9-23.193 12.6-33.49h142.82c0 23.893-16.3 56.884-37.01 91.274-3.9 6.498-6.3 12.096-7.7 16.995-1 3.099-1.5 5.798-1.6 8.298Z" fill="#F2F3F6"/><path d="M1801.96 76.905c8.72-7.903 10.51-20.11 4.02-27.267-6.5-7.155-18.83-6.55-27.54 1.353s-10.51 20.11-4.01 27.267c6.49 7.155 18.82 6.55 27.53-1.353Z" fill="#E9EBF2"/><path d="m1803.49 27.893-13.3 36.09-35.61-4c-.4 1.3-.7 2.7-1 4-3.9 20.193 9.3 36.689 29.51 36.689 20.2 0 39.9-16.396 43.8-36.69 3.5-18.095-6.7-33.09-23.4-36.09Z" fill="#F9FAFB"/><path d="M1810.03 85.79c14.68-13.32 17.71-33.897 6.76-45.96-10.95-12.062-31.73-11.043-46.41 2.277-14.69 13.32-17.72 33.896-6.77 45.959 10.95 12.063 31.73 11.043 46.42-2.276Z" stroke="#F9FAFB" stroke-width="2" stroke-miterlimit="10"/><path d="M1779.07 47.293c1.27-1.15 1.52-2.945.55-4.008-.96-1.063-2.77-.993-4.04.158-1.27 1.15-1.52 2.944-.55 4.008.96 1.063 2.78.992 4.04-.158Z" fill="#E9EBF2"/><path d="M1777.29 45.486h-50.91" stroke="#E9EBF2" stroke-width="2" stroke-miterlimit="10"/><path d="M1736.18 33.59h-46.9v23.693h46.9V33.59Z" fill="#F2F3F6"/><path d="M1736.18 33.59v23.793h-22.3c5.8-7.998 11.6-15.995 16.5-23.793h5.8Z" fill="#E9EBF2"/><path d="M1729.08 152.556c-.7.799-1.5 1.499-2.4 1.999-1.5.8-3.1 1.3-4.9 1.3h-41.11s5.41-5.399 10.41-14.496c5.3-9.497 10.2-22.894 8.2-38.089 0 0 25.2.8 42.9 0 0-.1 4.5 29.191-13.1 49.286Z" fill="#FFBF00"/><path d="M1726.68 154.456c-1.5.8-3.1 1.3-4.9 1.3h-41.11c-3.4 0-7.5-7.998-2.2-14.496h42.61c-2.5 4.498-.9 15.495 5.6 13.196Z" fill="#000D1A"/><path d="M1835.59 176.049s-27 30.391-37.7 73.579c0 0 42 .3 68.7 3.499 0 0 13.91-40.289 34.51-72.479 0-.1-52.61-2.8-65.51-4.599Z" fill="#fff"/><path d="M1866.89 178.648c-12.7 18.195-26.4 36.19-26.4 36.19l-29.6-.5c10.6-23.593 24.7-38.289 24.7-38.289 5.8.8 17.1 1.799 31.3 2.599Z" fill="#E9EBF2"/><path d="M1866.89 178.648c-5.7 8.098-11.6 16.196-16.3 22.694l24.31 1.599s-13.11 24.194-23.81 48.587c5.5.399 10.8.899 15.6 1.499 0 0 13.91-40.288 34.51-72.479-.1 0-17-.8-34.31-1.9Z" fill="#F2F3F6"/><path d="m1713.88 192.846 86.81.9M1724.58 175.049l86.91 1M1738.08 157.756l86.81.9" stroke="#fff" stroke-width="4" stroke-miterlimit="10" stroke-linecap="round" stroke-linejoin="round"/><path d="m1788.69 257.127-31.91-10.697c-1.3-.4-1.4-2.099-.3-2.799 2.6-1.6 6.6-4.299 10.9-8.198 7.4-6.698 15.51-16.795 18.61-30.291.2-.9 1.2-1.4 2.1-1.1 5.3 1.9 22.1 7.998 35.5 11.897.9.3 1.4 1.2 1 2.099-2.9 6.798-14.8 33.091-31.2 39.089-1.6.5-3.2.5-4.7 0Z" fill="#000D1A"/><path d="m1785.89 253.428-31.91-10.697c-1.3-.4-1.4-2.1-.3-2.799 2.6-1.6 6.6-4.299 10.9-8.198 7.4-6.698 15.51-16.795 18.61-30.291.2-.9 1.2-1.4 2.1-1.1 5.3 1.9 22.1 7.998 35.5 11.897.9.3 1.4 1.199 1 2.099-2.9 6.798-14.8 33.091-31.2 39.089-1.6.5-3.2.5-4.7 0Z" fill="#4CC3FF"/><path d="M1787.99 202.542c-2 5.399-7 15.996-17.11 18.295 0 0 4.11 1 7.01.6l.2 3.999s11-5.099 17.3-23.993l-3.1-1c-1.7-.6-3.7.3-4.3 2.099Z" fill="#000D1A"/><path d="m1795.39 201.441 2.2.7c1.3.4 2 1.8 1.6 3.099l-4.9-1.799 1.1-2Z" fill="#000D1A"/><path d="M1815.39 319.908h-108.91s-17.4-12.796-.3-59.783c25.8 7.598 49.8 17.695 71.2 30.691 13.91 8.398 26.61 18.095 38.01 29.092Z" fill="#fff"/></g></svg>