<svg width="1920" height="350" viewBox="0 0 1920 350" fill="none" xmlns="http://www.w3.org/2000/svg"><path d="m1476.6 208.605 28.84-17.982 12.09 19.401-38.39 23.932-6.15-9.862a11.408 11.408 0 0 1-1.55-4.105c-.24-1.457-.19-2.948.14-4.386.34-1.439.95-2.797 1.81-3.998a11.19 11.19 0 0 1 3.21-3ZM1619.12 256.57s21.08 34.85 28.34 53.35c0 0 40.99-21.73 73.31-50.5l-28.41-47.26s-40.83 27.31-73.24 44.41Z" fill="#F1F2F5"/><path d="M68.43 235.39 136.483 191c-7.688 19.86-8.068 32-7.488 49.76L68.43 279.71v-44.32Z" fill="#fff"/><path d="m483.19 193 47.549-35.67s-27.144-26.75-38.501-61.1l-51.647 35.13s23.444 45.13 42.599 61.64Z" fill="#F1F2F5"/><path d="m461.796 268.14-5.448-5.46L475.103 245l17.136 15.41-10.667 8.7a14.757 14.757 0 0 1-19.776-.97Z" fill="#E9EBF2"/><path d="m530.579 229.15-50.708 41.35a11.065 11.065 0 0 0 4.061-8.402 11.06 11.06 0 0 0-3.811-8.518c-38.201-33.4-77.831-85.1-77.831-85.1l42.63-29.08 13.746-9.4c9.618 18.41 24.744 36.59 39.441 51.77a437.583 437.583 0 0 0 32.592 30.31 11 11 0 0 1-.12 17.07Z" fill="#F1F2F5"/><path d="M498.107 181.81 483.191 193c-14.117-12.16-30.553-39.86-38.231-53.6l13.707-9.4c9.617 18.45 24.744 36.63 39.44 51.81ZM474.603 313.22l-41.57 36.43-.41.35h-63.835l-3.559-2.53c-1.26-.91-2.5-1.82-3.699-2.71l-1.57-1.18-2.679-2a386.686 386.686 0 0 1-11.998-9.6l-1.259-1.06-1.64-1.39-.71-.62-1.349-1.18-.17-.15-.14-.13 19.465-15.54 53.907-43c12.057 16.21 61.216 44.31 61.216 44.31Z" fill="#E9EBF2"/><path d="M433.993 350H246.327s-36.781-24.53-57.656-72.66l95.077-49s18.846 43.82 75.742 83.54a317.925 317.925 0 0 0 73.543 37.77l.96.35ZM495.738 143.35 358.351 262.72c1.759-2.43 97.976-111.34-29.693-184.11-25.514-14.54-54.637-11.79-80.181-6.49-1.13.23-2.25.47-3.369.73-53.838 12.25-97.877 48.62-106.875 55.85-1.15.93-1.75 1.44-1.75 1.44.56-.74 1.12-1.47 1.69-2.2C196.939 51.85 283.089 0 283.089 0h141.016a121.772 121.772 0 0 1 8.838 3.74 104.07 104.07 0 0 1 33.732 24.67 202.242 202.242 0 0 1 5.999 7c50.668 61.92 23.064 107.94 23.064 107.94Z" fill="#fff"/><path d="M245.157 248.231c9.768 31.22 24.764 49.91 24.764 49.91l-38.99 27.33-34.992 24.53h-67.484c-22.105-29-31.793-58.81-34.222-86.84a176.545 176.545 0 0 1 0-30.16c.453-5.333 1.12-10.59 2-15.77 9.737-56.34 45.399-105.22 95.977-133.14 61.785-34.09 91.538-15.16 91.538-15.16-55.347 72.42-51.718 137.23-38.591 179.3Z" fill="#E9EBF2"/><path d="M390.262 191.941c-10.267 6.58-25.783 12.95-41.79 6.34-51.557-21.28-45.869-83.17-18.265-119 12.997-16.91 30.902-28 49.988-26.32 0 0-25.534-20.9-120.631 5.73a138.851 138.851 0 0 0-12.997 13.84c-22.695 27.21-62.626 91.55-13.887 165.94 10.347 15.79 26.524 27.07 44.869 33.53a92.495 92.495 0 0 0 80.771-9.25c.89-1.22 23.574-32.75 31.942-70.81Z" fill="#F1F2F5"/><path d="M242.987 76.91s62.525-64.74 156.733 7.92l89.819-60.77s-57.237-39.19-143.086-15c-85.85 24.19-103.466 67.85-103.466 67.85Z" fill="#F3F4F7"/><path d="m269.921 298.141-45.899 32.18c-13.816-13.31-25.643-33.83-35.311-53l56.486-29.11c9.728 31.24 24.724 49.93 24.724 49.93ZM433.032 349.65l-.41.35h-63.834l-3.56-2.53c-1.269-.92-2.499-1.83-3.699-2.71l-1.569-1.18-2.68-2a387.675 387.675 0 0 1-11.997-9.6l-1.259-1.06-1.64-1.39-.71-.62-1.349-1.18-.17-.15-.14-.13 19.465-15.54a317.883 317.883 0 0 0 73.552 37.74Z" fill="#F6F7F9"/><path d="m412.428 191.039 73.232-59.68M414.947 158.43l70.713-53.84M412.428 126.149l65.604-49.95M242.987 46.64l30.533-23.25 11.637-8.85L299.643 3.5M396.682 59.57l62.734-38.31M374.876 46.02l55.926-34.15" stroke="#F6F7F9" stroke-width="6" stroke-miterlimit="10" stroke-linecap="round"/><path d="m128.954 240.8-34.761 22.36a176.566 176.566 0 0 1 0-30.16c.453-5.333 1.12-10.59 2-15.77l40.29-26.23c-7.688 19.9-8.068 32-7.529 49.8Z" fill="#F6F7F9"/><path d="M1956.71 202.831s-29.06 95-131.74 131.78c-72.25 25.91-116.2-20.62-135.97-50.47a149.124 149.124 0 0 1-12.29-22.2l31.8-22.94 86.43-62.36s65.87 95.95 161.77 26.19ZM1662.23 76.87s-34.99 33.341-19.61 83.541c8.99 29.47 40.73 28.63 56.09 16.26l63.12-50.92s-30.18 9.95-45.68 4.76c-15.51-5.19-36.81-46.53 1.94-80.12l-55.86 26.48Z" fill="#E9EBF2"/><path d="M1654.8 0s53.6 24.55 70.4 70.41c16.79 45.86-6.46 90.43-26.49 106.26l146.39-118.1L1774.91 0H1654.8Z" fill="#F1F2F5"/><path d="M1927.89 274.13c-50.35 50.69-101.34 60.19-102.88 60.47 79.41-26.19 124.9-156 28.06-238.35-96.85-82.35-190.84-19.38-190.84-19.38C1714.22 19.38 1753.57 0 1753.57 0h138.85c20.66 7.11 38.75 23.26 38.75 23.26a172.807 172.807 0 0 1 25.22 32.85c41.77 70.35 29.12 160-28.5 218.02ZM1576.5 70.64l91.51-63.38L1654.8 0h-143.38l-30.9 22.08 49.1 40.83 19.43-14.79s11.3 6.8 27.45 22.52Z" fill="#fff"/><path d="M1576.5 70.64 1556 84.83l-26.38-21.92-33.39 25.43c43.59 25.39 74.62 86.66 74.62 86.66l53.5-43.49c-16.86-27.66-34.11-47.51-47.85-60.87Z" fill="#F1F2F5"/><path d="M1576.5 70.64c-16.16-15.72-27.44-22.52-27.44-22.52l-19.44 14.79 26.37 21.92 20.51-14.19Z" fill="#E9EBF2"/><path d="M1385.29 0s38.99 21.92 64.05 44.38l31.18-22.3L1453.97 0h-68.68Z" fill="#fff"/><path d="m1453.97 0 26.55 22.09L1511.42 0h-57.45Z" fill="#E9EBF2"/><path d="M1720.77 259.42a343.402 343.402 0 0 1-31.72 24.72 148.179 148.179 0 0 1-12.29-22.2l31.75-22.94 12.26 20.42ZM1536.06 182.7c14.18 17.44 49.93 64 88.29 133.82l-47.36 25.66s-48.32-89.11-87.74-130.74a11.2 11.2 0 0 0-14.15-1.71l46.2-29.43a11.259 11.259 0 0 1 7.84-1.607c2.72.442 5.18 1.868 6.92 4.007Z" fill="#fff"/><path d="m1875.55 89.65 58.13-47.36M1901.67 24.6l7.35-5.99M1817.43 50.39l31.4-25.59" stroke="#F6F7F9" stroke-width="6" stroke-miterlimit="10" stroke-linecap="round"/><path d="m1832.07 0-50.4 41.06a2.93 2.93 0 0 1-1.89.68 2.991 2.991 0 0 1-2.83-1.993 3.048 3.048 0 0 1-.07-1.817c.17-.598.52-1.129 1-1.52L1822.55 0h9.52ZM1785.77 0l-48.36 39.41c-.53.434-1.2.67-1.89.67a2.991 2.991 0 0 1-2.83-1.993 2.97 2.97 0 0 1-.06-1.817 2.95 2.95 0 0 1 .99-1.52L1776.27 0h9.5Z" fill="#F6F7F9"/><path d="m1900.44 116.069 22.55-18.38M1848.83 67.65l39.1-31.86" stroke="#F6F7F9" stroke-width="6" stroke-miterlimit="10" stroke-linecap="round"/><path d="M254.315 174.78a8.753 8.753 0 0 0 1.89 2.26 9.169 9.169 0 0 0 4.269 2l38.05 7.27a68.657 68.657 0 0 1-7.078-15.22c-3.219-9.69-5.389-23-.81-36.74 0 0-23.474-3.69-39.69-7.59-.02.03-9.398 26.29 3.369 48.02Z" fill="#FFBF00"/><path d="M256.214 177a9.159 9.159 0 0 0 4.269 2l38.05 7.27c3.16.61 8.348-6.11 4.629-13l-39.39-7.53c1.45 4.63-1.96 14.53-7.558 11.26ZM1607.45 218.529l32 6.21a178.24 178.24 0 0 1 3.32 43.91 177.553 177.553 0 0 1-34.45 27.42l-26.31-19.25a126.844 126.844 0 0 0 1-34.26 126.496 126.496 0 0 0 24.44-24.03Z" fill="#000D1A"/><path d="m1603.95 217 32 6.21a178.724 178.724 0 0 1 3.31 43.91 178.472 178.472 0 0 1-34.45 27.43l-26.31-19.25a126.919 126.919 0 0 0 1-34.27 126.548 126.548 0 0 0 24.45-24.03Z" fill="#FFBF00"/><path d="M1591.81 250.89a21.58 21.58 0 0 0-.56 4.87 1.244 1.244 0 0 0 .41 1l.19.13c.24.122.52.151.79.08.5-.142 1.04-.092 1.51.14.28.181.53.415.72.691.19.275.32.586.4.914.07.328.07.667.01.997-.06.33-.18.646-.36.928-.28.526-.71.958-1.23 1.24-.35.199-.62.518-.76.9a1.45 1.45 0 0 0 0 1.12 14.934 14.934 0 0 0 2.47 3.76c.06.074.14.138.23.19.22.125.48.168.73.12.4-.083.76-.32 1-.66.31-.551.82-.967 1.42-1.168a2.61 2.61 0 0 1 1.85.078c.51.368.87.914 1.01 1.533.14.618.04 1.266-.27 1.817a1.66 1.66 0 0 0-.09 1.2c.07.234.23.433.44.56a.84.84 0 0 0 .3.12c1.42.276 2.88.306 4.31.09.41-.092.76-.326 1-.66.28-.355.43-.791.42-1.24-.01-.664.15-1.32.47-1.9.8-1.49 2.36-2.24 3.5-1.66a1.872 1.872 0 0 1 .95 1.22c.04.134.1.26.19.37.09.109.19.201.31.27l.22.08c.2.033.4.02.59-.037.19-.058.36-.158.5-.293a21.672 21.672 0 0 0 3.72-4c.28-.375.43-.832.43-1.3.01-.192-.03-.384-.11-.558-.08-.174-.2-.326-.36-.442-1-.67-1.2-2.25-.57-3.7.63-1.45 2-2.35 3.1-2.1a1.22 1.22 0 0 0 1.06-.34c.34-.316.57-.733.66-1.19.37-1.829.5-3.698.39-5.56 0-.194-.05-.384-.13-.558a1.377 1.377 0 0 0-.37-.442.781.781 0 0 0-.2-.11.986.986 0 0 0-.82.08 1.898 1.898 0 0 1-1.55.13c-1.2-.44-1.71-2.09-1.16-3.69.19-.619.54-1.179 1-1.63.33-.303.55-.708.62-1.15.09-.414.01-.845-.22-1.2a12.635 12.635 0 0 0-3.09-3.15.898.898 0 0 0-.28-.13 1 1 0 0 0-.73.06c-.37.189-.66.51-.81.9a2.554 2.554 0 0 1-3 1.76 2.65 2.65 0 0 1-1.3-1.287c-.26-.572-.3-1.22-.13-1.823.09-.398.02-.814-.2-1.16a.965.965 0 0 0-.57-.44c-.1-.015-.2-.015-.31 0-1.42.035-2.83.277-4.18.72-.19.061-.36.16-.5.289-.15.129-.26.285-.34.461a1.64 1.64 0 0 0-.14 1.17c.13.579.11 1.186-.08 1.75a2.72 2.72 0 0 1-.44.897c-.2.267-.45.493-.74.662-.29.17-.61.282-.94.328a2.52 2.52 0 0 1-.99-.057c-.5-.18-.91-.536-1.15-1a1.09 1.09 0 0 0-.6-.53.82.82 0 0 0-.21 0 1.25 1.25 0 0 0-1 .34 22.308 22.308 0 0 0-3 3.48c-.22.317-.32.707-.26 1.09.02.179.08.351.17.503.1.152.23.281.38.377.49.354.85.874 1 1.466.14.592.08 1.217-.19 1.764a2.544 2.544 0 0 1-3 1.59 1.22 1.22 0 0 0-1 .17c-.25.193-.44.458-.53.76Zm8.69-.7c1.87-4.27 6.12-6.76 9.81-5.45 3.69 1.31 5.25 6.34 3.16 11.11s-6.84 7-10.29 5.24c-3.46-1.76-4.57-6.64-2.68-10.9Z" fill="#000D1A"/><path d="M1660.36 117.27c.01 1.73-.35 3.441-1.06 5.016a12.009 12.009 0 0 1-3.08 4.105 11.921 11.921 0 0 1-4.51 2.431c-1.66.473-3.41.578-5.12.308-7.36-1.06-13.06-7-12.99-13.36.07-6.36 6.07-11.63 13.46-11.86a12.93 12.93 0 0 1 9.55 3.799 12.906 12.906 0 0 1 2.86 4.391c.65 1.645.95 3.404.89 5.17ZM1713.94 120.279c-.2 9.78-6.58 16.84-13.94 15.78-7.36-1.06-13-8.79-12.82-17.28.18-8.49 6.1-15.56 13.49-15.79 7.39-.23 13.47 7.51 13.27 17.29Z" fill="#4CC3FF"/><path d="M1674.83 105.999c0 8.19-6.17 14.33-13.55 13.72-7.38-.61-13.21-6.7-13.22-13.61-.01-6.91 5.79-13 13.18-13.72 7.39-.72 13.58 5.43 13.59 13.61Z" fill="#4CC3FF"/><path d="M1694.84 99.87c.14 12-8.11 21.08-17.91 20.25a19.584 19.584 0 0 1-12.46-6.207 19.61 19.61 0 0 1-5.21-12.913c.03-4.86 1.77-9.554 4.92-13.257a20.68 20.68 0 0 1 12.29-6.993c9.77-1.45 18.23 7.11 18.37 19.12Z" fill="#4CC3FF"/><path d="m1699.99 108.46-52.91-.37c0 7.007-.17 14.007-.53 21l52.75 6.84c.43-9.133.66-18.29.69-27.47Z" fill="#4CC3FF"/><path d="M1694.36 105.001c-1.51 1.16-3 2.28-4.52 3.39 0 0 4.51-7.84 3.48-16.66 0-.03 2.68 7.05 1.04 13.27ZM1659.06 122.371l-5.8-.49c.06-1.89.1-3.78.14-5.67l5.8.31c-.04 1.95-.08 3.9-.14 5.85ZM1677.86 124l-5.79-.48c.06-2.093.11-4.183.15-6.27l5.8.3c-.04 2.12-.1 4.27-.16 6.45ZM1696.66 125.54l-5.8-.49c.07-2.287.13-4.577.17-6.87l5.81.31c-.04 2.34-.1 4.69-.18 7.05Z" fill="#000D1A"/><path d="M20.95 235.75c9.044 0 16.376-7.333 16.376-16.38 0-9.046-7.332-16.38-16.376-16.38s-16.376 7.334-16.376 16.38c0 9.047 7.332 16.38 16.376 16.38Z" fill="#4CC3FF"/><path d="M-7.923 221.489c12.02 0 21.765-9.747 21.765-21.77s-9.745-21.77-21.765-21.77c-12.02 0-21.764 9.747-21.764 21.77s9.744 21.77 21.764 21.77Z" fill="#4CC3FF"/><path d="M20.09 208.42h-64.714v27.33H20.09v-27.33Z" fill="#4CC3FF"/><path d="m13.211 204.939-5.538 3.48s5.479-8.07 4.499-17.06c0 0 3.049 7.3 1.04 13.58ZM16.37 218.529H9.273v7.1h7.099v-7.1Z" fill="#000D1A"/><path d="m442.64 274.699 3.879 18.36c.78 3.68-11.827 9.46-28.153 12.91-16.326 3.45-30.193 3.24-30.993-.42l-4.059-19.18h.05" fill="#4CC3FF"/><path d="m438.881 271.67.23.05.49.13c.17 0 .319.09.469.14l.29.09c.264.092.521.203.77.33.149.07.293.15.43.24a2.189 2.189 0 0 1 1.08 1.34c.055.233.055.476 0 .71a2.7 2.7 0 0 1-.43 1c-.09.13-.19.26-.3.4l-.17.2-.4.4c-.15.14-.3.28-.47.42l-.26.21c-.17.14-.36.28-.56.42l-.299.22-.66.43-.71.43-.38.22-.9.49-1 .49-.689.33c-1.55.73-3.32 1.46-5.259 2.17-.78.29-1.58.57-2.42.85l-1.849.62-1.32.4-1.349.39-.69.2-1.4.38-1.43.37a130.005 130.005 0 0 1-10.487 2.22l-1.46.24-1.439.22-.71.1-1.4.18-1.369.17-2 .21c-.87.08-1.72.15-2.549.2-2.06.14-3.999.18-5.679.14h-.76c-.62 0-1.209-.06-1.769-.11h-.77l-.83-.11-.77-.13-.37-.07-.68-.16-.319-.09-.6-.19a4.949 4.949 0 0 1-.53-.21l-.24-.11-.43-.24a2.642 2.642 0 0 1-.36-.27 1.933 1.933 0 0 1-.72-1.08.752.752 0 0 1 0-.15 2.003 2.003 0 0 1 .24-1.13c.06-.12.14-.25.22-.38l.3-.4a8.15 8.15 0 0 1 .58-.61l.22-.21.18-.15.19-.16.4-.31.12-.09" fill="#000D1A"/><path d="M378.135 261.39h-.06l4.059 19.22c.77 3.65 14.637 3.86 30.993.41 16.356-3.45 28.933-9.22 28.163-12.9l-3.869-18.3-.2-.92" fill="#4CC3FF"/><path d="M378.895 262.73a1.889 1.889 0 0 1-.71-1.08 1.13 1.13 0 0 1 0-.26 2.062 2.062 0 0 1 .24-1c.069-.134.146-.264.23-.39 1.17-1.76 4.509-3.79 9.248-5.75l.54-.22c.529-.22 1.089-.43 1.659-.65l.58-.21 1.18-.43 1.229-.42 1.91-.61 1.32-.41c3.119-.93 6.528-1.8 10.097-2.55 3.569-.75 6.998-1.34 10.278-1.75l1.359-.17 2-.21 1.3-.11 1.249-.09h.62l1.78-.08h.579c5.129-.13 8.998.38 10.788 1.52.262.137.494.327.68.557.185.231.322.497.4.783.044.231.044.469 0 .7a3.268 3.268 0 0 1-.73 1.36c-.11.13-.24.27-.37.4s-.28.28-.43.42c-.15.14-.49.41-.77.62-.28.21-.59.43-.92.64l-.679.44-1.14.65c-.53.29-1.1.58-1.7.87l-.94.44c-.469.22-.999.44-1.489.66-.49.22-1 .44-1.59.65l-.56.22-1.149.43-.58.21-1.21.42c-1.23.42-2.509.83-3.849 1.23l-1.36.4-.689.19-1.4.39-1.43.37c-1.689.42-3.429.83-5.219 1.21-1.789.38-3.549.71-5.268 1l-1.46.24-1.43.22-.709.1-1.4.19c-1.39.17-2.729.31-3.999.43l-1.28.1h-.62l-1.219.07h-4.949c-.67 0-1.31-.06-1.92-.11-.449 0-.879-.08-1.289-.14-.27 0-.54-.07-.79-.12-.38-.07-.75-.14-1.09-.22-.34-.08-.66-.17-1-.26l-.569-.2-.49-.23a4.565 4.565 0 0 1-.44-.24 3.163 3.163 0 0 1-.36-.26M435.173 270.329a2.149 2.149 0 1 0 0-4.298 2.149 2.149 0 0 0 0 4.298ZM439.781 294.691a2.15 2.15 0 1 0-.001-4.301 2.15 2.15 0 0 0 .001 4.301Z" fill="#000D1A"/></svg>