<svg viewBox="0 0 12 20" xmlns="http://www.w3.org/2000/svg"><path d="M10.999 6.237a.384.384 0 00-.285-.132H7.817v-1.1c0-.217.046-.467.392-.467h2.306a.334.334 0 00.268-.116.392.392 0 00.108-.265V1.04a.392.392 0 00-.113-.276.382.382 0 00-.271-.114H7.179c-3.69 0-3.973 3.195-3.973 4.169v1.286H1.284c-.102 0-.2.04-.272.114a.392.392 0 00-.112.275v3.117c0 .103.04.202.112.275.073.073.17.114.272.114h1.922v8.96c0 .104.04.203.112.276.072.073.17.114.272.114h3.843c.101 0 .2-.04.271-.114a.393.393 0 00.113-.275V10h2.575a.381.381 0 00.258-.1.392.392 0 00.126-.251l.323-3.117a.395.395 0 00-.1-.296z" fill="#fff"></path></svg>