<svg viewBox="0 0 24 23" xmlns="http://www.w3.org/2000/svg"><path d="M12 .95C5.895.95.95 5.826.95 11.843c0 4.814 3.166 8.897 7.555 10.336.553.103.755-.234.755-.523 0-.26-.009-.945-.013-1.853-3.074.657-3.722-1.461-3.722-1.461-.503-1.258-1.23-1.594-1.23-1.594-1-.676.078-.662.078-.662 1.11.076 1.692 1.123 1.692 1.123.985 1.666 2.587 1.184 3.218.906.1-.705.384-1.184.7-1.457-2.454-.272-5.033-1.21-5.033-5.383 0-1.19.428-2.161 1.137-2.924-.124-.275-.497-1.383.097-2.883 0 0 .925-.292 3.039 1.117a10.754 10.754 0 012.762-.368c.94.006 1.879.126 2.763.368 2.1-1.409 3.025-1.117 3.025-1.117.594 1.5.22 2.608.11 2.883.705.763 1.133 1.735 1.133 2.924 0 4.185-2.583 5.106-5.042 5.374.387.327.746.995.746 2.016 0 1.458-.014 2.63-.014 2.983 0 .286.194.627.76.518 4.42-1.43 7.584-5.516 7.584-10.323C23.05 5.827 18.102.949 12 .949z" fill="#fff"></path></svg>