<svg viewBox="0 0 17 18" xmlns="http://www.w3.org/2000/svg"><path d="M2.353 4.848a2.013 2.013 0 002.002-2.023A2.013 2.013 0 002.353.8 2.013 2.013 0 00.35 2.825c0 1.117.897 2.023 2.003 2.023zM3.984 6.467H.754a.404.404 0 00-.404.405v10.524c0 .223.18.405.404.405h3.23a.404.404 0 00.404-.405V6.872a.404.404 0 00-.404-.405zM16.096 17.8h-2.422a.403.403 0 01-.404-.404v-6.071c0-.537-.213-1.052-.591-1.431a2.016 2.016 0 00-3.446 1.43v6.072a.405.405 0 01-.404.405H6.406a.403.403 0 01-.403-.405V6.872a.405.405 0 01.403-.405H8.83a.403.403 0 01.404.405.332.332 0 00.412.323.33.33 0 00.169-.104 3.4 3.4 0 012.56-1.028c2.406 0 4.126 1.481 4.126 4.533v6.8a.405.405 0 01-.404.405z" fill="#fff"></path></svg>