<svg width="17" height="18" viewBox="0 0 15.954 18" fill="none" xmlns="http://www.w3.org/2000/svg"><path d="M7.823.403c-2.827 0-3.433.174-3.755.221C2.212.9.518 2.207.106 4.076c-.197.92-.22 1.941-.183 2.878.053 1.342.064 2.682.186 4.02.084.887.23 1.77.44 2.637.39 1.602 1.972 2.934 3.522 3.478a9.448 9.448 0 005.154.273c.188-.044.375-.096.558-.153.416-.132.903-.28 1.261-.539a.04.04 0 00.01-.014.039.039 0 00.006-.017v-1.296a.04.04 0 00-.004-.017.039.039 0 00-.026-.02.039.039 0 00-.017 0 14.285 14.285 0 01-3.345.391c-1.939 0-2.46-.92-2.609-1.303a4.03 4.03 0 01-.226-1.026c0-.006 0-.013.002-.019a.036.036 0 01.01-.013.036.036 0 01.017-.007.04.04 0 01.018 0c1.077.26 2.18.39 3.289.39.267 0 .533.001.8-.006 1.114-.031 2.289-.09 3.386-.303.027-.006.054-.01.078-.017 1.73-.332 3.375-1.375 3.542-4.015.006-.104.023-1.088.023-1.196 0-.366.117-2.6-.018-3.972-.249-1.848-1.859-3.304-3.768-3.586C11.89.577 10.67.403 7.844.403zM5.465 3.216c.93 0 1.634.358 2.103 1.073l.453.76.453-.76c.469-.715 1.172-1.073 2.102-1.073.803 0 1.452.283 1.947.834.479.552.717 1.297.717 2.235v4.59H11.42V6.42c0-.938-.39-1.416-1.185-1.416-.874 0-1.312.566-1.312 1.684v2.437H7.116V6.688c0-1.118-.439-1.684-1.313-1.684-.79 0-1.185.478-1.185 1.416v4.455H2.801v-4.59c0-.938.239-1.683.718-2.235.494-.551 1.142-.834 1.946-.834z" fill="#fff"></path><defs id="mastodon_inline_svg__defs191"><linearGradient id="mastodon_inline_svg__paint0_linear_89_8" x1="30.5" y1="0" x2="30.5" y2="65" gradientUnits="userSpaceOnUse" gradientTransform="scale(.42896)"><stop stop-color="#6364ff" id="mastodon_inline_svg__stop186"></stop><stop offset="1" stop-color="#563acc" id="mastodon_inline_svg__stop188"></stop></linearGradient></defs></svg>