<svg width="1920" height="400" viewBox="0 0 1920 400" fill="none" xmlns="http://www.w3.org/2000/svg"><mask id="background-image_svg__a" mask-type="alpha" maskUnits="userSpaceOnUse" x="0" y="0" width="1920" height="400"><path d="M0 0h1920v400H0V0Z" fill="#F9FAFB"/></mask><g mask="url(#background-image_svg__a)"><path d="M158.839 93.63c8.371 19.43 33.473 79.75 50.685 142.51a8.92 8.92 0 0 1-6.76 11.07l-107.211 22.6a8.9 8.9 0 0 1-10.351-6.1l-44.765-145.5a8.897 8.897 0 0 1 6.93-11.38L149.079 88.4a8.89 8.89 0 0 1 9.761 5.23Z" fill="#EAEBF0"/><path d="M133.696 96 69.53 108.59l-2.4-7.23a5.297 5.297 0 0 1 1.952-5.986 5.302 5.302 0 0 1 2.048-.884L124.826 84a5.29 5.29 0 0 1 6 3.52l2.87 8.48Z" fill="#EAEBF0"/><path d="m88.18 78.038 14.135-3.056a11.004 11.004 0 0 1 13.078 8.427l1.49 6.891-35.68 7.713-1.481-6.851a10.997 10.997 0 0 1 8.459-13.124Z" stroke="#EAEBF0" stroke-width="5" stroke-linecap="round" stroke-linejoin="round"/><path d="M633.617 399.999H34.857s13.29-30 42.594-55.43c29.723-25.79 75.937-46.83 141.464-27l1.48.45c130.493 39.64 213.952 69.75 413.222 81.98Z" fill="#F3F4F7"/><path d="m164.549 300.001 90.009-6.61s24.683 82.83 56.836 106.61H199.383s-31.753-61.21-34.834-100Z" fill="#fff"/><path d="M780.082 0s127.193 86.71 263.028 93.1c167.02 7.9 432.04-80.82 632.06-93.1H780.082ZM1907.2 400H947.099s348.761-71.95 519.051-101.5c83.86-14.56 172.68-18.52 250.79-4.82 45.68 8 87.71 22 122.94 43.54 26.82 16.39 49.72 37.1 67.32 62.78Z" fill="#F3F4F7"/><path d="M1868.72 337.219s28.18 14.53 79.28-94.68h-77.52s-33.91 84.99-1.76 94.68Z" fill="#EAEBF0"/><path d="M1900.43 213.91s-32.6 60.33-38.76 89c-6.16 28.67 3.09 32.59 7 34.35h-145.72s-18.5-13.65 0-63.86 31.23-69.17 31.23-69.17l146.25 9.68ZM236.307 373.16c-2.901.5-8.461 0-15.002-7.74-9.691-11.45-31.713-18.94-73.107-.44s-58.136 15.41-64.747 0L35.006 199.4s50.165-29.81 101.931-28.84a110.333 110.333 0 0 1 31.083 4.82 11.618 11.618 0 0 1 4.643 2.793 11.614 11.614 0 0 1 2.868 4.597l7.43 22.41 54.886 165.38a2.001 2.001 0 0 1-1.54 2.6Z" fill="#F2F3F6"/><path d="M236.307 373.159c-2.901.5-8.461 0-15.002-7.74-9.691-11.45-31.713-18.94-73.107-.44s-58.136 15.41-64.747 0l-6-20.41c29.723-25.79 75.937-46.83 141.464-27l1.48.45 17.422 52.5a2.005 2.005 0 0 1-1.51 2.64Z" fill="#F9FAFB"/><path d="M83.421 365.001s-3.74-12.7 11.671-17.47c15.412-4.77 38.384-9 33.124-27.07l-7.801-21.08-52.405 12.82 15.411 52.8Z" fill="#EAEBF0"/><path d="M-28 165.93S21.485 138 67.27 135.31a8.65 8.65 0 0 1 8.78 6.23l52.166 178.9a15.899 15.899 0 0 0-19.402-10.91c-16.772 4.49-47.755 14.81-94.92 38L-28 165.93Z" fill="#F9FAFB"/><path d="M-8.158 179c6-2.38 11.881-4.44 17.902-6.4a333.35 333.35 0 0 1 18.132-5.33c6.13-1.62 12.241-3 18.422-4.24 6.18-1.24 12.44-2.13 18.701-2.85a2.027 2.027 0 0 1 2.024.972 2.018 2.018 0 0 1-1.453 3.028c-6.091 1-12.152 2.22-18.142 3.75-5.99 1.53-11.991 3.15-17.872 5.07-5.88 1.92-11.721 4-17.492 6.17a260.44 260.44 0 0 0-17.002 7.11h-.07a3.996 3.996 0 0 1-4.652-.469 3.998 3.998 0 0 1 1.332-6.771l.17-.04ZM.003 209.251c6-2.53 11.851-4.71 17.852-6.79 6-2.08 12.001-3.94 18.142-5.65a278.45 278.45 0 0 1 18.462-4.47c6.2-1.28 12.48-2.22 18.781-3a2.017 2.017 0 0 1 2.286 1.715 2.018 2.018 0 0 1-1.715 2.285h-.05c-6.111 1-12.182 2.26-18.182 3.84-6 1.58-12.002 3.32-17.832 5.33-5.83 2.01-11.741 4.16-17.492 6.49-5.75 2.33-11.471 4.83-16.922 7.47h-.08a4 4 0 0 1-3.48-7.17l.23-.05ZM8.414 243.289c5.93-2.78 11.77-5.18 17.772-7.47 6-2.29 12-4.33 18.131-6.2 6.13-1.87 12.301-3.48 18.542-4.88a183.027 183.027 0 0 1 18.932-3.12 2.004 2.004 0 0 1 2.132 1.709 1.998 1.998 0 0 1-1.562 2.241h-.06a181.91 181.91 0 0 0-18.262 4c-6 1.68-12 3.53-17.831 5.7-5.831 2.17-11.672 4.47-17.382 7-5.71 2.53-11.401 5.22-16.772 8.09h-.07a3.989 3.989 0 0 1-3.218.61 3.99 3.99 0 0 1-2.595-1.997 4.006 4.006 0 0 1 .659-4.685 4.01 4.01 0 0 1 1.394-.928l.19-.07ZM16.074 275.219c5.94-2.74 11.791-5.1 17.792-7.36 6-2.26 12.001-4.27 18.132-6.12 6.13-1.85 12.291-3.43 18.522-4.81a189.166 189.166 0 0 1 18.912-3.09 2.02 2.02 0 1 1 .58 4h-.06a183.758 183.758 0 0 0-18.252 4c-6 1.67-12.001 3.5-17.832 5.65-5.83 2.15-11.671 4.41-17.392 6.9-5.72 2.49-11.41 5.16-16.791 8h-.08a4.001 4.001 0 0 1-3.71-7.05l.18-.12ZM25.926 308.28c5.92-2.85 11.75-5.32 17.741-7.67a272.4 272.4 0 0 1 18.132-6.37c6.13-1.92 12.312-3.57 18.562-5a179.054 179.054 0 0 1 19.002-3.18 2.018 2.018 0 0 1 2.29 1.71 2.019 2.019 0 0 1-1.71 2.29h-.06a173.72 173.72 0 0 0-18.292 4.05c-6 1.71-12.001 3.6-17.842 5.82-5.84 2.22-11.67 4.54-17.371 7.07-5.7 2.53-11.371 5.39-16.722 8.32h-.08a4.003 4.003 0 0 1-5.207-1.697 4.002 4.002 0 0 1 1.367-5.303l.19-.04Z" fill="#fff"/><path d="M194.952 149.43c-11.561 2.7-31.453-1.66-31.493-1.66-.04 0-16.812 11.52-28.533 13.41 0 0 5.131 44.36 40.764 49.17h.07l.06-.05c31.114-17.89 19.132-60.87 19.132-60.87Z" fill="#F2F3F6"/><path d="M182.931 205.18a41.149 41.149 0 0 1-7.11 5.14l-.06.05h-.07c-25.153-3.39-35.104-26.49-38.784-39.79a110.273 110.273 0 0 1 31.113 4.8 11.618 11.618 0 0 1 4.643 2.793 11.614 11.614 0 0 1 2.868 4.597l7.4 22.41Z" fill="#fff"/><path d="M1911.4 157.73c-3.84 7.62-11.4 19.13-19.38 30.56-13.36 19.19-27.88 38.14-27.88 38.14l-31.89-.54-124.58-2.1s-7-23.78 11.89-42.28 29.95-56.36 29.95-56.36 155.36-4.46 163.72-1.37c8.36 3.09 9.47 11.5-1.83 33.95Z" fill="#F2F3F6"/><path d="M1864.19 114.141s32.7 2 49.01 9.64c0 0-9.46-3-17.73 6.54-8.26 9.54-20.48 20.48-28.73 7.93a25.343 25.343 0 0 1-4.34-11.731c-.45-4.211.17-8.467 1.79-12.379Z" fill="#EAEBF0"/><path d="M1863.19 122.799c-.7 11.14 4.51 17.11 7.54 19.61.65.549 1.34 1.035 2.08 1.45-53.86 1.49-99.69-.18-129.3-1.92-22.68-1.33-35.85-2.7-35.85-2.7-15.5-23.53 3.46-51.65 23-78.91 6.07-8.48 12.2-16.89 17.36-25 7.94-12.55 13.59-24.51 13.24-35.29h150.54c0 25.24-17.18 60-39.01 96.3a75.166 75.166 0 0 0-8.1 17.87 41.03 41.03 0 0 0-1.5 8.59Z" fill="#F2F3F6"/><path d="M1823.59 81.056c9.19-8.34 11.07-21.234 4.21-28.8-6.87-7.567-19.89-6.94-29.08 1.399-9.19 8.339-11.07 21.233-4.21 28.8 6.87 7.566 19.89 6.94 29.08-1.4Z" fill="#EAEBF0"/><path d="m1825.19 29.31-14 38.09-37.59-4.27a41.746 41.746 0 0 0-1.07 4.27c-4.16 21.34 9.77 38.651 31.13 38.651 21.35 0 42-17.31 46.18-38.65 3.72-19.11-7.06-35-24.67-38.1l.02.01Z" fill="#F9FAFB"/><path d="M1832.09 90.423c15.48-14.044 18.65-35.756 7.09-48.497-11.56-12.74-33.48-11.684-48.96 2.36-15.48 14.042-18.65 35.755-7.09 48.496 11.56 12.74 33.48 11.684 48.96-2.36Z" stroke="#F9FAFB" stroke-width="2" stroke-miterlimit="10"/><path d="M1799.26 49.778c1.34-1.221 1.62-3.11.61-4.218-1-1.108-2.91-1.017-4.25.204-1.35 1.22-1.63 3.11-.62 4.217 1.01 1.109 2.91 1.017 4.26-.203Z" fill="#EAEBF0"/><path d="M1797.47 47.81h-53.61" stroke="#EAEBF0" stroke-width="2" stroke-miterlimit="10"/><path d="M1754.22 35.29h-49.49v25.03h49.49V35.29Z" fill="#F2F3F6"/><path d="M1754.18 35.29v25h-23.56c6.07-8.48 12.2-16.89 17.36-25h6.2Z" fill="#EAEBF0"/><path d="M1744.51 158.16a8.798 8.798 0 0 1-2.28 1.86 9.296 9.296 0 0 1-4.57 1.19h-38.77a68.327 68.327 0 0 0 9.83-13.62c5-8.91 9.6-21.55 7.69-35.94 0 0 23.75.79 40.41 0-.01 0 4.36 27.56-12.31 46.51Z" fill="#FFBF00"/><path d="M1742.18 160a9.307 9.307 0 0 1-4.57 1.19h-38.76c-3.22 0-7.01-7.57-2.12-13.62h40.13c-2.24 4.2-.75 14.57 5.32 12.43Z" fill="#0A1129"/><path d="M1839.85 337.22h-116.9s-13.34-9.84-6-43.54c45.64 8 87.67 22.04 122.9 43.54ZM1859.02 185.49s-28.51 32.07-39.74 77.59c0 0 44.31.28 72.44 3.64 0 0 14.65-42.44 36.34-76.46 0 0-55.48-2.87-69.04-4.77Z" fill="#fff"/><path d="M1892.02 188.29c-13.36 19.19-27.88 38.14-27.88 38.14l-31.16-.54a158.369 158.369 0 0 1 26-40.4c6.21.86 18.09 1.91 33.04 2.8Z" fill="#EAEBF0"/><path d="M1892.02 188.289c-6 8.59-12.18 17.11-17.22 23.93l25.64 1.69s-13.81 25.55-25.15 51.28c5.77.42 11.36.93 16.43 1.53 0 0 14.65-42.44 36.34-76.46 0 0-17.77-.87-36.04-1.97Z" fill="#F2F3F6"/><path d="m205.363 281.721-1.58-3.82a.938.938 0 0 0-.79-.57l-33.423-2.33a.93.93 0 0 1-.8-.61 7.929 7.929 0 0 0-6.901-5.25l-19.002-1.37a.902.902 0 0 0-.789.343.9.9 0 0 0-.151.847l15.682 50.04a.906.906 0 0 0 .82.65l47.874 2.88a.905.905 0 0 0 1.001-1l-1.871-39.53a.755.755 0 0 0-.07-.28Z" fill="#FFBF00"/><path d="m211.424 282.231-43.004-2.6a3.138 3.138 0 0 0-3.2 2.209 3.149 3.149 0 0 0-.111 1.381c1.101 7.65 2.671 24.72-3.66 32.17a4.087 4.087 0 0 0-.73 4.3v.07l34.443.42s23.813-2.45 19.182-35.25a3.15 3.15 0 0 0-2.92-2.7Z" fill="#0A1129"/><path d="m223.206 288.449-44.665-2.69a2.832 2.832 0 0 0-2.209.857 2.837 2.837 0 0 0-.791 2.233c.78 8.55 1.25 30.81-14.802 30.91l46.605 2.81s23.332 1.19 18.522-31.68a2.865 2.865 0 0 0-2.66-2.44Z" fill="#FFBF00"/><path d="m1730.65 203.25 91.6.98M1741.94 184.51l91.6.98M1756.16 166.26l91.61.98" stroke="#fff" stroke-width="4" stroke-linecap="round" stroke-linejoin="round"/><path d="M107.856 127.539a5.938 5.938 0 0 1 6.614 5.181l6.522 53.736-11.805 1.432-6.521-53.725a5.944 5.944 0 0 1 5.182-6.613l.008-.011Z" fill="#4CC3FF"/><path d="m102.699 134.423-4.725.573 1.453 11.972 4.726-.573-1.454-11.972Z" fill="#0A1129"/><path d="m97.982 134.999 3.416 28.144a5.258 5.258 0 0 1-5.855-4.588l-2.149-17.701a5.26 5.26 0 0 1 4.588-5.855ZM116.485 198.609l-7.291-10.73 11.811-1.43-4.52 12.16ZM1809.55 265.55l-31.08-10.43a1.51 1.51 0 0 1-1.03-1.265c-.03-.288.02-.579.15-.839.12-.259.32-.477.57-.626a73.4 73.4 0 0 0 10.57-8c7.15-6.51 15.09-16.33 18.13-29.54.05-.208.14-.403.27-.573.13-.169.3-.309.49-.41.19-.101.39-.161.61-.176.21-.015.42.016.63.089 5.16 1.89 21.53 7.82 34.55 11.62a1.521 1.521 0 0 1 .94.781c.09.188.15.393.16.603.01.21-.03.42-.1.616-2.78 6.64-14.38 32.21-30.38 38a6.763 6.763 0 0 1-4.48.15Z" fill="#0A1129"/><path d="m1806.86 262.001-31.09-10.43c-.27-.092-.52-.26-.7-.485a1.607 1.607 0 0 1-.33-.786c-.03-.288.02-.579.15-.84.13-.26.33-.478.57-.629a73.11 73.11 0 0 0 10.57-8c7.16-6.5 15.1-16.32 18.14-29.54.04-.209.14-.405.27-.575.13-.171.29-.311.48-.412a1.524 1.524 0 0 1 1.25-.083c5.17 1.9 21.53 7.82 34.56 11.62.2.059.39.16.55.294.16.135.29.301.38.489.1.187.15.392.16.602.01.209-.02.418-.09.615-2.78 6.64-14.38 32.21-30.38 38a6.823 6.823 0 0 1-4.49.16Z" fill="#4CC3FF"/><path d="M1808.89 212.35c-1.91 5.28-6.84 15.57-16.65 17.82 2.24.568 4.56.774 6.86.61l.22 3.91s10.71-5 16.82-23.38l-3-1a3.385 3.385 0 0 0-2.55.153 3.363 3.363 0 0 0-1.7 1.887Z" fill="#0A1129"/><path d="m1816.19 211.311 2.13.72c.59.203 1.08.631 1.36 1.191.29.561.34 1.21.15 1.809l-4.76-1.7 1.12-2.02Z" fill="#0A1129"/></g></svg>