<svg width="520" height="365" viewBox="0 0 520 365" fill="none" xmlns="http://www.w3.org/2000/svg"><path d="M177.219 54.607l-32.206 8.657 23.577 23.627 8.629-32.284zM165.398 54.79l-6.391-6.405-2.348 8.758 8.739-2.352zM150.632 49.78l-5.569 1.496 4.075 4.094 1.494-5.59zM170.978 39.678l-4.248 3.91 5.508 1.732-1.26-5.642zM442.804 94.804c-.651 1.874-7.399 3.351-15.641 3.351s-14.99-1.477-15.641-3.35a7.6 7.6 0 01.133-.836c1.138-5.774 7.652-10.184 15.508-10.184 7.856 0 14.38 4.42 15.508 10.184a7.6 7.6 0 01.133.835z" fill="#4CC3FF"/><path d="M445.507 302.368h-3.425c-16.576-24.228-91.801-42.509-182.107-42.509-90.307 0-165.46 18.281-182.077 42.509h-3.415V312.43c0 29.035 83.061 52.571 185.512 52.571s185.512-23.536 185.512-52.571V302.368z" fill="#000D1A"/><path d="M259.995 354.938c102.455 0 185.512-23.537 185.512-52.571 0-29.033-83.057-52.57-185.512-52.57s-185.512 23.537-185.512 52.57c0 29.034 83.057 52.571 185.512 52.571z" fill="#fff"/><path d="M259.995 346.17c95.804 0 173.469-19.61 173.469-43.802 0-24.191-77.665-43.802-173.469-43.802-95.804 0-173.469 19.611-173.469 43.802 0 24.192 77.665 43.802 173.469 43.802z" fill="#FFBF00"/><path d="M443.626 272.172H76.363l10.864 34.117 345.861-1.019 10.538-33.098z" fill="#FFBF00"/><path d="M423.138 283.984l-10.965 41.664M99.087 283.984l10.965 41.664M261.702 289.23v61.105M259.995 326.503c98.437 0 178.235-16.743 178.235-37.396 0-20.653-79.798-37.396-178.235-37.396-98.437 0-178.235 16.743-178.235 37.396 0 20.653 79.798 37.396 178.235 37.396z" stroke="#fff" stroke-width="1.5" stroke-linecap="round" stroke-linejoin="round"/><path d="M469.928 250.448a19.609 19.609 0 01-3.313 10.581c-3.354 5.296-9.147 10.347-17.114 15.052-9.939 5.897-23.202 11.203-39.097 15.867a311.386 311.386 0 01-13.994 3.728c-36.687 8.89-84.351 14.257-136.395 14.257-52.043 0-99.717-5.377-136.405-14.257a314.783 314.783 0 01-14.004-3.728c-15.122-4.399-27.866-9.451-37.602-15.021-.498-.275-1.017-.56-1.464-.846-8.76-5.194-14.94-10.795-18.07-16.691a18.958 18.958 0 01-2.347-8.942c0-7.648 5.081-14.961 14.37-21.672.742-.54 1.504-1.018 2.297-1.599a101.436 101.436 0 0112.734-7.129 172.598 172.598 0 0118.161-7.343c38.497-13.239 96.933-21.773 162.351-21.773 65.418 0 123.844 8.483 162.34 21.773a172.52 172.52 0 0118.161 7.343 102.765 102.765 0 0112.744 7.129c10.712 7.149 16.647 15.011 16.647 23.271z" fill="#000D1A"/><path d="M515.355 190.801l-8.232 11.864-40.499 58.366-191.315-.754-36.992-.153-168.642-.662-17.276-.071-16.769-24.136-22.724-32.59-8.638-12.435h30.61l449.389.51h21.911l9.177.061z" fill="#000D1A"/><path d="M520 168.477h-1.697c-14.696-36.745-124.728-65.301-258.318-65.301-133.59 0-243.613 28.515-258.308 65.301H0v8.381c0 40.696 116.405 73.672 259.995 73.672S520 217.544 520 176.848v-8.371z" fill="#000D1A"/><path d="M259.995 240.722c143.591 0 259.995-32.989 259.995-73.682 0-40.694-116.404-73.683-259.995-73.683S0 126.346 0 167.04c0 40.693 116.404 73.682 259.995 73.682z" fill="#fff"/><path d="M259.995 228.42c134.274 0 243.124-27.481 243.124-61.38s-108.85-61.38-243.124-61.38S16.87 133.141 16.87 167.04s108.851 61.38 243.125 61.38z" stroke="#4CC3FF" stroke-width="1.5" stroke-miterlimit="10"/><path d="M275.3 251.232h-36.992v47.53H275.3v-47.53z" fill="#fff"/><path d="M275.3 292.336h-36.992v6.426H275.3v-6.426z" fill="#4CC3FF"/><path d="M139.037 290.86a586.918 586.918 0 01-18.019-2.943 513.142 513.142 0 01-18.486-3.656l-.721-7.129-4.249-41.704c11.952 2.709 24.767 5.092 38.314 7.22l2.704 41.165.457 7.047zM204.506 249.878v47.754a820.833 820.833 0 01-35.712-2.984l-.254-7.007-1.464-40.93a778.653 778.653 0 0037.43 3.167zM71.963 276.928c-.498-.275-1.017-.56-1.464-.845-8.76-5.194-15.132-10.327-18.293-16.223l-16.535-24.371-3.557-17.313s6.098 3.839 32.328 10.571l1.24.316 3.984 30.369 1.575 11.976.722 5.52zM480.548 218.205l-6.656 32.325-7.186 10.55a31.029 31.029 0 01-2.896 3.667l-.071.091-.061.061a36.108 36.108 0 01-2.693 2.77l-.773.713-.772.673a46.875 46.875 0 01-1.85 1.517c-.396.316-.792.621-1.209.927-.417.305-.823.611-1.26.916-.437.306-.864.611-1.311.907-.447.295-.894.611-1.362.906-.467.295-.884.57-1.341.845-.458.275-1.017.632-1.535.937a360.774 360.774 0 01-9.014 2.577l.945-7.221 5.488-42.223c27.277-6.986 33.557-10.938 33.557-10.938zM414.714 237.107l-4.218 41.643-.721 7.129c-3.523.679-7.118 1.358-10.783 2.037a604.862 604.862 0 01-19.238 3.127c-2.114.315-4.238.621-6.393.916l.458-7.037 2.703-41.144c13.425-1.915 26.21-4.145 38.192-6.671zM345.342 247.475l-1.463 40.909-.254 6.997a765.747 765.747 0 01-35.682 2.648v-47.713c12.826-.672 25.316-1.619 37.399-2.841z" fill="#fff"/><path d="M70.957 269.29l1.016 7.638c-.386-.112-1.077-.733-1.464-.845a77.675 77.675 0 01-4.146-2.628l-1.016-.662a58.121 58.121 0 01-5.082-3.921l-.792-.702-.813-.764c-.234-.214-.458-.438-.681-.662l-.356-.356c-.213-.225-.427-.438-.63-.662a36.718 36.718 0 01-1.586-1.803l-.71-.917a19.65 19.65 0 01-.672-.916c6.464 2.495 12.816 4.888 16.403 7.017l.529.183zM138.58 283.812l.457 7.047a586.918 586.918 0 01-18.019-2.943 513.142 513.142 0 01-18.486-3.656l-.721-7.129.721.163a508.007 508.007 0 0018.486 3.656 662.282 662.282 0 0017.562 2.862zM168.794 287.671a814.44 814.44 0 0035.712 2.984v6.976a819.53 819.53 0 01-35.712-2.984l-.254-7.006.254.03zM343.625 288.436h.254l-.254 6.996a765.747 765.747 0 01-35.682 2.648v-6.976c12.186-.662 24.137-1.548 35.682-2.668zM409.775 278.893l.721-.143-.721 7.129c-3.523.679-7.118 1.358-10.783 2.037a604.898 604.898 0 01-19.238 3.126c-2.114.316-4.238.622-6.393.917l.458-7.037c2.032-.275 3.973-.561 5.935-.856a647.65 647.65 0 0019.238-3.126 573.218 573.218 0 0010.783-2.047zM463.809 264.788l-.081.091-.061.061a36.304 36.304 0 01-2.693 2.771l-.772.712-.773.673a47.575 47.575 0 01-1.849 1.517c-.397.316-.793.621-1.21.927-.416.305-.823.611-1.26.916-.437.306-.864.611-1.311.907-.447.295-.894.611-1.362.906-.467.295-.884.57-1.341.845-.457.275-1.016.632-1.535.937a360.774 360.774 0 01-9.014 2.577l.945-7.221c3.496-.906 13.903-3.605 22.358-6.68l-.041.061z" fill="#4CC3FF"/><path d="M129.423 69.446a3.183 3.183 0 00-2.439.826 3.206 3.206 0 00-1.037 2.362V195.2a3.209 3.209 0 00.746 2.062 3.185 3.185 0 001.897 1.095c27.917 4.756 61.505 7.832 97.979 8.565a3.198 3.198 0 002.3-.921 3.218 3.218 0 00.962-2.287V91.658l-17.886-17.965c-30.092-.6-58.07-2.088-82.522-4.247z" fill="#FFBF00"/><path d="M371.613 4.918V89.62a1.77 1.77 0 01-.612 1.347 1.758 1.758 0 01-1.421.404 751.908 751.908 0 00-84.351-5.794 1.783 1.783 0 01-1.687-1.772V10.723L294.243.111c27.044.377 52.603 1.436 75.723 3.056a1.76 1.76 0 011.647 1.751z" fill="#4CC3FF"/><path d="M289.731 67.033l4.837-1.69 9.249-1.1 5.894 3.054 2.002 9.9-2.5 25.327-13.73 3.117-7.622-3.117-1.616-21.05 3.486-14.441z" fill="#000D1A"/><path d="M309.214 102.523c3.668 6.6 2.733 35.197.803 55.596l-4.472.56-8.872-56.156h12.541z" fill="#FFBF00"/><path d="M287.872 102.523c-1.667 17.1-3.476 50.117-2.734 55.708l4.411-.621c3.851-12.741 7.988-33.873 11.301-55.087h-12.978z" fill="#FFBF00"/><path d="M276.763 165.034s-.305-2.271 7.988-4.308l.234-5.092 6.575-5.296s-2.225 11.152-2.459 13.901c-1.972.54-10.834 2.017-12.338.795zM305.484 164.22l-.386-8.351 5.152-.285s.061 4.542.071 8.677l-4.837-.041z" fill="#000D1A"/><path d="M298.563 66.614c3.923 0 7.104-3.187 7.104-7.118 0-3.932-3.181-7.119-7.104-7.119-3.924 0-7.104 3.187-7.104 7.119 0 3.931 3.18 7.118 7.104 7.118z" fill="#FFBF00"/><path d="M294.192 65.108l.468-4.736a3.185 3.185 0 013.049-2.872l2.662-.112c.892-.04 1.779-.153 2.653-.336l1.595-.346a1.946 1.946 0 001.515-2.271 5.182 5.182 0 00-1.548-2.81 5.158 5.158 0 00-2.904-1.355 24.607 24.607 0 00-5.386-.082 7.417 7.417 0 00-5.691 3.788l-.051.082a7.615 7.615 0 00-.356 6.762l1.301 2.994a2.298 2.298 0 002.714 1.294h-.021z" fill="#000D1A"/><path d="M295.417 63.08c.761-.332.976-1.526.48-2.665-.497-1.14-1.516-1.793-2.277-1.46-.762.334-.976 1.527-.48 2.666.496 1.14 1.516 1.793 2.277 1.46z" fill="#FFBF00"/><path d="M303.329 167.02c0 1.395 5.803.662 7.52-.407a2.806 2.806 0 00-.528-2.302s-.61-.692-4.177-.366c0-.051-2.835.784-2.815 3.075zM310.168 67.522c2.257 1.527 4.472 3.126 6.688 4.735 2.215 1.61 4.4 3.26 6.534 5l-2.398-.468a70.986 70.986 0 017.642-1.191 96.949 96.949 0 013.862-.336c1.291-.082 2.592-.153 3.903-.143a2.143 2.143 0 012.095 1.75 2.153 2.153 0 01-1.313 2.395c-1.219.49-2.459.886-3.699 1.283-1.24.398-2.48.744-3.72 1.09a69.427 69.427 0 01-7.551 1.67 3.541 3.541 0 01-2.114-.326l-.284-.142c-2.47-1.222-4.858-2.536-7.256-3.87a343.969 343.969 0 01-7.114-4.074 4.383 4.383 0 01-1.474-6.009 4.358 4.358 0 015.996-1.477l.203.113zM294.966 73.46c-1.393 2.168-2.866 4.287-4.34 6.405-1.474 2.118-3.049 4.206-4.594 6.243l-.203.254a3.45 3.45 0 01-3.232 1.284 70.831 70.831 0 01-7.551-1.67c-1.25-.347-2.5-.693-3.729-1.09-1.23-.397-2.47-.805-3.689-1.283a2.146 2.146 0 01-1.368-2.41 2.146 2.146 0 012.14-1.756c1.311 0 2.612.061 3.902.143 1.291.081 2.582.204 3.873.336 2.566.256 5.117.65 7.642 1.181l-3.435 1.538c1.077-2.363 2.256-4.654 3.455-6.946a198.75 198.75 0 013.7-6.792 4.373 4.373 0 012.665-2.02 4.359 4.359 0 014.583 1.596 4.368 4.368 0 01.841 3.241 4.368 4.368 0 01-.559 1.613l-.101.132z" fill="#000D1A"/><path d="M340.453 74.344a6.94 6.94 0 00-3.384.845l.813 3.208 2.622-.264-.051-3.789z" fill="#FFBF00"/><path d="M340.332 78.132c1.043 0 1.89-.848 1.89-1.894a1.893 1.893 0 00-1.89-1.894 1.893 1.893 0 00-1.891 1.894c0 1.046.847 1.894 1.891 1.894z" fill="#FFBF00"/><path d="M337.73 78.408c.926 0 1.677-.753 1.677-1.68 0-.929-.751-1.681-1.677-1.681s-1.676.752-1.676 1.68c0 .928.75 1.68 1.676 1.68zM341.012 74.476a.59.59 0 100-1.18.59.59 0 000 1.18z" fill="#FFBF00"/><path d="M340.85 73.326a7.032 7.032 0 00-3.323 1.721l1.393 1.019a4.266 4.266 0 012.276-1.65l-.346-1.09zM343.451 75.944a.834.834 0 100-1.669.834.834 0 000 1.669z" fill="#FFBF00"/><path d="M342.791 74.588a2.587 2.587 0 01-1.799-.092l.203 3.432a7.677 7.677 0 002.988-2.413l-1.392-.927zM263.653 79.09a7.392 7.392 0 002.429 2.79l2.093-2.861-1.077-1.834-3.445 1.905z" fill="#FFBF00"/><path d="M265.473 80.272a2.004 2.004 0 002.001-2.006 2.004 2.004 0 00-2.001-2.006 2.004 2.004 0 00-2.002 2.006c0 1.108.896 2.006 2.002 2.006z" fill="#FFBF00"/><path d="M267.19 82.257a1.77 1.77 0 001.768-1.772 1.77 1.77 0 00-1.768-1.772 1.77 1.77 0 00-1.768 1.772 1.77 1.77 0 001.768 1.772z" fill="#FFBF00"/><path d="M283.166 82.013l-12.47 4.644-10.274-19.279 12.47-4.644 10.274 19.279z" fill="#4CC3FF"/><path d="M265.473 80.272a2.004 2.004 0 002.001-2.006 2.004 2.004 0 00-2.001-2.006 2.004 2.004 0 00-2.002 2.006c0 1.108.896 2.006 2.002 2.006z" fill="#FFBF00"/><path d="M303.725 56.715a3.448 3.448 0 003.445-3.452 3.449 3.449 0 00-3.445-3.453 3.45 3.45 0 00-3.445 3.453 3.45 3.45 0 003.445 3.452z" fill="#000D1A"/><path d="M300.28 54.7a3.45 3.45 0 003.445-3.453 3.45 3.45 0 00-3.445-3.452 3.448 3.448 0 00-3.445 3.452 3.448 3.448 0 003.445 3.453z" fill="#000D1A"/><path d="M295.544 54.7a3.448 3.448 0 003.445-3.453 3.448 3.448 0 00-3.445-3.452 3.448 3.448 0 00-3.444 3.452 3.448 3.448 0 003.444 3.453z" fill="#000D1A"/><path d="M291.459 54.68a2.299 2.299 0 002.296-2.302 2.299 2.299 0 00-2.296-2.302 2.299 2.299 0 00-2.297 2.302 2.3 2.3 0 002.297 2.301z" fill="#000D1A"/><path d="M290.605 57.633a2.299 2.299 0 002.297-2.302 2.3 2.3 0 00-2.297-2.302 2.299 2.299 0 00-2.296 2.302 2.299 2.299 0 002.296 2.301z" fill="#000D1A"/><path d="M67.796 26.081v90.7a3.64 3.64 0 01-2.55 3.463c-16.677 5.296-29.787 11.488-38.121 18.209-6.636-5.041-10.244-78.143-10.244-83.968 0-13.127 32.196-26.428 49.391-29.667a1.278 1.278 0 011.403.715c.08.171.122.359.121.548zM480.842 44.026a1.115 1.115 0 00-1.412 1.07v79.293c15.051 6.498 23.689 14.054 23.689 22.12V57.714c0-4.98-8.089-9.645-22.277-13.688z" fill="#4CC3FF"/><path d="M447.072 78.244a1.828 1.828 0 00-1.565 1.803v97.656a1.129 1.129 0 001.372 1.089c34.553-8.004 56.241-19.513 56.241-32.283v-16.295l-2.389-13.24 2.389-35.797V57.713c0 8.117-21.586 15.44-56.048 20.531z" fill="#FFBF00"/><path d="M351.582 223.909V190.23M65.55 203.48v-33.689M427.163 122.495V97.279" stroke="#4CC3FF" stroke-width="1.5" stroke-linecap="round" stroke-linejoin="round"/><path d="M211.935 73.744l17.896 17.934h-17.896V73.744zM294.253 10.724h-10.7L294.253 0v10.724z" fill="#000D1A"/><path d="M356.054 37.152l-56.383-2.638V19.961l56.383 2.638v14.553z" fill="#fff"/><path d="M352.242 35.715l-6.31 12.923V36.683l6.31-.967zM54.204 45.67c.87-.933.915-2.309.1-3.073-.816-.765-2.183-.63-3.053.303-.87.932-.915 2.308-.1 3.073.816.764 2.183.629 3.053-.304zM48.903 51.288v-.591a2.173 2.173 0 011.067-1.813l.915-.54c.438-.266.925-.44 1.433-.509l.61-.081a2.757 2.757 0 011.229.112l1.016.325a1.566 1.566 0 011.016 1.528v.397a9.204 9.204 0 01-7.286 1.172z" fill="#fff"/><path d="M57.099 49.06c2.68-2.871 2.82-7.105.313-9.457-2.508-2.351-6.715-1.93-9.395.94-2.68 2.87-2.82 7.104-.313 9.456 2.508 2.351 6.714 1.931 9.395-.94z" stroke="#fff" stroke-miterlimit="10"/><path d="M54.2 73.314c.87-.932.915-2.308.1-3.073-.816-.764-2.182-.629-3.053.303-.87.933-.915 2.308-.1 3.073.816.765 2.183.63 3.053-.303zM48.903 78.927v-.58a2.153 2.153 0 011.067-1.813l.915-.55a3.714 3.714 0 011.433-.5l.61-.08c.412-.06.832-.025 1.229.101l1.016.336a1.556 1.556 0 011.016 1.528v.387a9.133 9.133 0 01-7.286 1.17z" fill="#fff"/><path d="M57.095 76.702c2.68-2.87 2.82-7.104.313-9.456-2.508-2.352-6.715-1.931-9.395.94-2.68 2.87-2.82 7.103-.313 9.455 2.508 2.352 6.714 1.932 9.395-.939z" stroke="#fff" stroke-miterlimit="10"/><path d="M54.205 104.009c.87-.932.915-2.308.1-3.072-.816-.765-2.182-.629-3.053.303-.87.932-.915 2.308-.1 3.072.816.765 2.183.629 3.053-.303zM48.903 109.632v-.591a2.148 2.148 0 011.067-1.802l.915-.55c.44-.262.927-.435 1.433-.51l.61-.081a2.909 2.909 0 011.229.112l1.016.336a1.548 1.548 0 011.016 1.517v.398a9.212 9.212 0 01-7.286 1.171z" fill="#fff"/><path d="M57.1 107.409c2.68-2.87 2.82-7.104.313-9.456-2.508-2.352-6.715-1.931-9.395.94-2.68 2.87-2.82 7.103-.313 9.455 2.508 2.352 6.714 1.932 9.395-.939z" stroke="#fff" stroke-miterlimit="10"/><path d="M68.73 148.934l6.952.692a2.031 2.031 0 011.687 1.915v28.261a1.462 1.462 0 01-.496 1.136 1.456 1.456 0 01-1.19.34l-19.137-2.566a2.031 2.031 0 01-1.667-1.925v-6.039l13.852-21.814z" fill="#4CC3FF"/><path d="M72.583 174.445V146.52a1.7 1.7 0 00-1.443-1.62l-19.635-2.627a1.228 1.228 0 00-1.327.715c-.073.166-.11.346-.105.527v27.925a1.7 1.7 0 001.432 1.63l19.635 2.627a1.245 1.245 0 001.015-.286 1.244 1.244 0 00.428-.966z" fill="#000D1A"/><path d="M68.212 150.502l-13.902-1.813v-1.71l13.902 1.782v1.741zM68.212 155.379l-13.902-1.813v-1.711l13.902 1.783v1.741zM68.212 160.258l-13.902-1.813v-1.711l13.902 1.783v1.741zM68.212 165.137l-13.902-1.813v-1.711l13.902 1.783v1.741zM68.212 170.014l-13.902-1.813v-1.711l13.902 1.782v1.742z" fill="#fff"/><path d="M260.411 265.522a3.425 3.425 0 00-3.419-3.432 3.426 3.426 0 00-3.42 3.432v15.042a3.426 3.426 0 003.42 3.432 3.426 3.426 0 003.419-3.432v-15.042z" fill="#000D1A"/><path d="M256.996 267.996a2.493 2.493 0 002.49-2.495 2.493 2.493 0 00-2.49-2.495 2.492 2.492 0 00-2.489 2.495 2.492 2.492 0 002.489 2.495zM256.996 282.682a2.493 2.493 0 002.49-2.495 2.493 2.493 0 00-2.49-2.496 2.493 2.493 0 00-2.489 2.496 2.492 2.492 0 002.489 2.495z" fill="#FFBF00"/><path d="M325.595 281.632a3.293 3.293 0 01-2.389-1.001 3.312 3.312 0 01-.934-2.421l.427-15.042a3.548 3.548 0 011.057-2.456 3.535 3.535 0 012.469-1.017 3.309 3.309 0 012.393 1.005 3.31 3.31 0 01.93 2.427l-.416 15.042a3.56 3.56 0 01-1.067 2.451 3.54 3.54 0 01-2.47 1.012z" fill="#000D1A"/><path d="M327.85 264.928c.991-.98 1.025-2.556.075-3.521-.949-.965-2.523-.954-3.514.025-.991.979-1.025 2.556-.075 3.521.949.965 2.522.954 3.514-.025z" fill="#FFBF00"/><path d="M327.424 279.621c.991-.979 1.025-2.555.075-3.521-.949-.965-2.523-.954-3.514.025-.991.98-1.025 2.556-.075 3.521.949.966 2.523.954 3.514-.025z" fill="#fff"/><path d="M391.674 274.503a2.976 2.976 0 01-2.32-.998 2.989 2.989 0 01-.728-2.423l1.707-15.042a3.946 3.946 0 011.271-2.424 3.928 3.928 0 012.539-1.008 3.04 3.04 0 012.301 1.023 3.068 3.068 0 01.748 2.409l-1.697 15.042a3.948 3.948 0 01-1.278 2.42 3.923 3.923 0 01-2.543 1.001z" fill="#000D1A"/><path d="M395.375 257.692c1.057-1.001 1.191-2.577.301-3.521-.891-.945-2.469-.899-3.526.101-1.056 1.001-1.191 2.577-.3 3.522.89.944 2.468.898 3.525-.102z" fill="#4CC3FF"/><path d="M393.7 272.374c1.057-1.001 1.191-2.577.301-3.522-.891-.944-2.469-.898-3.525.102-1.057 1.001-1.192 2.577-.301 3.521.89.945 2.469.899 3.525-.101z" fill="#FFBF00"/><path d="M459.613 258.208a2.79 2.79 0 01-2.819-2.151 2.798 2.798 0 01-.006-1.271l2.632-15.042a4.244 4.244 0 014.003-3.473 2.802 2.802 0 012.259 1.017 2.808 2.808 0 01.566 2.415l-2.621 15.042a4.265 4.265 0 01-1.403 2.436 4.24 4.24 0 01-2.611 1.027z" fill="#000D1A"/><path d="M464.377 241.41c1.105-1.015 1.312-2.59.463-3.519-.85-.929-2.434-.86-3.539.155-1.105 1.014-1.312 2.59-.462 3.519.849.929 2.433.859 3.538-.155z" fill="#FFBF00"/><path d="M461.813 256.097c1.104-1.014 1.312-2.59.462-3.519-.849-.929-2.433-.859-3.538.155-1.105 1.015-1.312 2.59-.463 3.519.85.929 2.434.86 3.539-.155z" fill="#fff"/><path d="M186.203 281.632a3.301 3.301 0 002.392-1 3.32 3.32 0 00.941-2.422l-.427-15.042a3.55 3.55 0 00-1.067-2.426 3.536 3.536 0 00-2.449-1.006 3.318 3.318 0 00-2.396 1.005 3.307 3.307 0 00-.937 2.427l.426 15.042a3.54 3.54 0 001.068 2.424 3.523 3.523 0 002.449.998z" fill="#000D1A"/><path d="M187.479 264.892c.949-.965.916-2.542-.076-3.521-.991-.979-2.564-.99-3.514-.025-.949.965-.916 2.542.076 3.521.991.979 2.564.99 3.514.025z" fill="#FFBF00"/><path d="M187.903 279.578c.949-.966.915-2.542-.076-3.521-.991-.98-2.564-.991-3.514-.026-.949.966-.916 2.542.076 3.521.991.98 2.564.991 3.514.026z" fill="#fff"/><path d="M120.134 274.503a2.983 2.983 0 002.952-2.129c.126-.419.159-.86.097-1.292l-1.708-15.042a3.946 3.946 0 00-1.271-2.424 3.928 3.928 0 00-2.539-1.008 3.043 3.043 0 00-2.934 2.146 3.076 3.076 0 00-.115 1.286l1.707 15.042a3.931 3.931 0 003.811 3.421z" fill="#000D1A"/><path d="M119.943 257.855c.891-.945.756-2.521-.3-3.522-1.057-1-2.635-1.046-3.526-.101-.89.944-.756 2.52.301 3.521 1.056 1 2.635 1.046 3.525.102z" fill="#4CC3FF"/><path d="M121.607 272.542c.891-.944.756-2.521-.3-3.521-1.057-1.001-2.635-1.046-3.526-.102-.89.944-.756 2.521.301 3.521 1.056 1.001 2.635 1.047 3.525.102z" fill="#FFBF00"/><path d="M52.196 258.208a2.792 2.792 0 002.82-2.151c.098-.417.1-.852.005-1.271l-2.632-15.042a4.247 4.247 0 00-4.014-3.473 2.803 2.803 0 00-2.825 3.432l2.622 15.042a4.244 4.244 0 004.024 3.463z" fill="#000D1A"/><path d="M51.837 242.492c.855-.932.65-2.516-.46-3.537-1.109-1.021-2.7-1.093-3.556-.161-.854.933-.649 2.516.46 3.537 1.11 1.022 2.701 1.094 3.556.161z" fill="#FFBF00"/><path d="M53.534 256.238c.85-.929.642-2.504-.463-3.519-1.104-1.014-2.689-1.084-3.538-.155-.85.929-.642 2.505.463 3.519 1.104 1.015 2.689 1.084 3.538.155zM193.872 154.968c8.56-8.315 8.341-22.455-.488-31.582-8.829-9.127-22.925-9.785-31.485-1.469-8.56 8.315-8.341 22.454.488 31.581 8.829 9.127 22.925 9.785 31.485 1.47zM182.441 95.242h-9.115v9.135h9.115v-9.135zM154.921 171.918h-9.115v9.135h9.115v-9.135zM211.639 106.363h-5.152v5.164h5.152v-5.164zM209.069 173.904h-5.152v5.164h5.152v-5.164zM145.805 115.682h-5.152v5.163h5.152v-5.163zM220.888 139.676h-5.152v5.163h5.152v-5.163zM503.12 80.11v48.659c0 8.748-11.129 16.02-27.765 20.888a1.261 1.261 0 01-1.606-1.212V99.286a1.251 1.251 0 011.016-1.222c13.486-3.035 28.355-9.135 28.355-17.955z" fill="#fff"/><path d="M503.119 80.11v8.493c0 8.82-14.868 14.003-28.395 17.038a1.25 1.25 0 00-1.016 1.222v-7.577a1.24 1.24 0 011.016-1.212c13.527-3.045 28.395-9.145 28.395-17.965z" fill="#F6F7F9"/><path d="M168.702 137.487a8.957 8.957 0 012.699-6.452 8.916 8.916 0 016.509-2.53 9.5 9.5 0 016.502 2.879 9.54 9.54 0 012.695 6.592" stroke="#000D1A" stroke-width="1.5" stroke-miterlimit="10"/><path d="M187.595 143.362h-1.158a1.213 1.213 0 01-1.179-1.212v-4.715a1.141 1.141 0 01.728-1.075c.144-.056.297-.082.451-.076h1.158c.61.021 1.189.277 1.615.716.426.438.667 1.025.672 1.636v2.496a2.235 2.235 0 01-.671 1.602 2.21 2.21 0 01-1.616.628zM168.184 142.853h1.159a1.129 1.129 0 001.091-.702c.059-.142.089-.295.088-.449v-4.715a1.225 1.225 0 00-1.179-1.222h-1.159a2.213 2.213 0 00-2.123 1.367 2.215 2.215 0 00-.173.873v2.536a2.373 2.373 0 002.296 2.312z" fill="#000D1A"/><path d="M188.184 138.016a8.966 8.966 0 01-2.698 6.452 8.923 8.923 0 01-6.508 2.53" stroke="#000D1A" stroke-miterlimit="10" stroke-linecap="round"/><path d="M178.194 145.797a1.593 1.593 0 011.545 1.589v.122l-3.049-.082v-.122a1.506 1.506 0 01.438-1.069 1.492 1.492 0 011.066-.438zM489.786 125.407l-4.715-2.464a.676.676 0 01-.356-.469.825.825 0 01.122-.611l5-7.414 1.239.795-4.512 6.701 4.004 2.098-.782 1.364zM503.119 109.55v1.691l-2.825-1.151.66-1.426 2.165.886zM500.264 118.584l2.855-4.563v2.781l-1.585 2.536-1.27-.754zM495.233 121.384l-1.453-.346 2.622-8.575 1.453.346-2.622 8.575z" fill="#000D1A"/><path d="M454.968 86.565c8.882-1.436 39.096-6.925 46.749-16.03M454.968 103.257a256.066 256.066 0 0012.703-2.403M454.968 111.16a246.117 246.117 0 0012.703-2.506M454.968 119.052a244.73 244.73 0 0012.703-2.597M454.968 126.956a255.627 255.627 0 0012.703-2.688M454.968 134.859c2.713-.53 7.368-1.477 12.703-2.791M454.968 142.751c2.713-.54 7.368-1.527 12.703-2.882M454.968 150.654a248.21 248.21 0 0012.703-2.984M454.968 158.557c2.713-.59 7.368-1.639 12.703-3.055M454.968 166.45c2.713-.6 7.368-1.69 12.703-3.167" stroke="#fff" stroke-width="1.5" stroke-miterlimit="10" stroke-linecap="round"/><path d="M369.662 162.621l-27.328 1.518v27.385l27.328-1.518v-27.385z" fill="#4CC3FF"/><path d="M342.333 164.137l-9.653-4.715v26.55l9.653 5.55v-27.385z" fill="#000D1A"/><path d="M355.972 139.422l-8.648.479v8.666l8.648-.478v-8.667zM367.304 152.15l-4.207.235v4.216l4.207-.234v-4.217zM338.807 133.279l-4.197.235v4.206l4.197-.235v-4.206z" fill="#4CC3FF"/><path d="M427.163 100.64c8.666 0 15.691-1.633 15.691-3.646 0-2.014-7.025-3.646-15.691-3.646s-15.691 1.632-15.691 3.646c0 2.013 7.025 3.646 15.691 3.646z" fill="#000D1A"/><path d="M442.783 94.51h-31.311v2.485h31.311V94.51z" fill="#000D1A"/><path d="M427.163 98.155c8.666 0 15.691-1.632 15.691-3.646 0-2.013-7.025-3.646-15.691-3.646s-15.691 1.633-15.691 3.646c0 2.014 7.025 3.646 15.691 3.646z" fill="#4CC3FF"/><path d="M427.163 86.87c3.312 0 5.996-.803 5.996-1.792 0-.99-2.684-1.793-5.996-1.793-3.311 0-5.996.803-5.996 1.793 0 .99 2.685 1.792 5.996 1.792z" fill="#fff"/><path d="M440.313 60.992h-26.301l10.163 24.096h5.975l10.163-24.096z" fill="#FFBF00"/><path d="M430.76 83.663l-.6 1.426h-5.985l-.6-1.426a17.79 17.79 0 017.185 0z" fill="#4CC3FF"/><path d="M430.76 83.663l-.6 1.426h-5.985l-.6-1.426a17.79 17.79 0 017.185 0z" fill="#4CC3FF"/><path d="M427.163 85.974c1.655 0 2.998-.401 2.998-.896s-1.343-.896-2.998-.896c-1.656 0-2.998.4-2.998.896 0 .495 1.342.896 2.998.896z" fill="#000D1A"/><path d="M424.084 65.19h-2.348v2.352h2.348v-2.353z" fill="#fff"/><path d="M418.209 56.531h-2.348v2.353h2.348V56.53zM436.929 59.813h-2.907v2.912h2.907v-2.913zM433.86 51.389h-3.75v3.758h3.75v-3.758z" fill="#FFBF00"/><path d="M429.51 71.188h-2.347v2.352h2.347v-2.353zM436.929 60.992h-2.907v1.732h2.907v-1.732z" fill="#fff"/><path d="M16.88 63.143s3.202-8.474 21.16-17.11M16.88 70.963s3.202-8.473 21.16-17.12M16.88 92.493s3.202-8.473 21.16-17.13M16.88 117.504s3.202-8.473 21.16-17.119M16.88 126.059s3.202-8.474 21.16-17.11M16.88 134.623s3.202-8.483 21.16-17.119" stroke="#fff" stroke-width="1.5" stroke-miterlimit="10" stroke-linecap="round"/><path d="M27.125 70.434c1.016.784 2.032 1.558 3.201 2.312a3.624 3.624 0 011.596 3.004v90.476a1.294 1.294 0 01-1.374 1.302 1.293 1.293 0 01-.659-.233c-8.394-5.733-13.029-12.027-13.029-18.616V53.844c.02 5.825 3.628 11.416 10.265 16.59z" fill="#FFBF00"/></svg>