<svg viewBox="0 0 20 16" xmlns="http://www.w3.org/2000/svg"><path d="M19.204 3.485a.403.403 0 00-.162-.703l-.64-.161a.404.404 0 01-.266-.566l.356-.72a.404.404 0 00-.47-.565l-1.618.452a.405.405 0 01-.356-.064 4.049 4.049 0 00-5.288.375 4.038 4.038 0 00-1.185 2.858v.29a.202.202 0 01-.178.202c-2.274.267-4.45-.889-6.797-3.588a.413.413 0 00-.413-.121.404.404 0 00-.234.34 6.12 6.12 0 00.372 3.976.202.202 0 01-.21.29l-.907-.177a.405.405 0 00-.461.477 4.159 4.159 0 001.918 3.055.202.202 0 010 .363l-.43.17a.405.405 0 00-.21.558 3.524 3.524 0 002.59 2.004.202.202 0 010 .38c-1.1.454-2.281.682-3.472.67a.412.412 0 10-.161.809 16.247 16.247 0 006.586 1.56c2.006.03 3.977-.532 5.664-1.617a10.108 10.108 0 004.5-8.43V4.9a.402.402 0 01.145-.307l1.327-1.108z" fill="#fff"></path></svg>