<svg width="128" height="120" viewBox="0 0 128 120" fill="none" xmlns="http://www.w3.org/2000/svg">
<ellipse cx="63.972" cy="59.9997" rx="18.991" ry="18.9998" fill="#4CC3FF"/>
<path opacity="0.25" d="M78.7969 71.8734C81.4027 68.6209 82.9613 64.4924 82.9613 59.9997C82.9613 49.5065 74.4587 41 63.9702 41C59.0091 41 54.4922 42.9032 51.1094 46.0197C65.548 46.5747 77.279 57.6956 78.7969 71.8734Z" fill="#000D1A"/>
<path d="M42.5737 36.4913V45.0623L47.7889 41.8888C57.7566 35.8234 70.2313 35.8234 80.199 41.8888L80.8213 42.2674V42.2728L80.9619 42.351V33.9605L80.8242 33.8916C69.1374 28.1845 55.2884 28.7544 44.0341 35.6027L42.5737 36.4913Z" fill="#4CC3FF"/>
<path d="M85.3959 83.5085V74.9375L80.1807 78.111C70.213 84.1764 57.7383 84.1764 47.7705 78.111L47.1454 77.7306V77.7265L46.9775 77.6406V86.0311L47.1454 86.1092C58.8322 91.8163 72.6812 91.2454 83.9355 84.3971L85.3959 83.5085Z" fill="#4CC3FF"/>
<path d="M42.5517 45.0651V36.4941L10.9951 55.6965V64.3102L42.5517 83.5126V74.9416L18.0026 60.0034L42.5517 45.0651Z" fill="#000D1A"/>
<path d="M85.3922 83.5126L116.949 64.3102V55.6965L85.3922 36.4941V45.0651L109.941 60.0034L85.3922 74.9416V83.5126Z" fill="#000D1A"/>
<path fill-rule="evenodd" clip-rule="evenodd" d="M41.9805 31.2168L3.99817 53.9076V65.4435L42.0394 89.2176L42.0101 94.418L0 67.6694V51.6361L42.01 26L41.9805 31.2168ZM86.0195 31.2168L124.002 53.9076V65.4435L85.9606 89.2176L85.9899 94.418L128 67.6694V51.6361L85.9899 26L86.0195 31.2168Z" fill="#D1D5E0"/>
</svg>
