<svg viewBox="0 0 20 14" xmlns="http://www.w3.org/2000/svg"><path fill-rule="evenodd" clip-rule="evenodd" d="M18.71 1.24c.303.302.521.677.634 1.089.645 2.582.496 6.66.012 9.34-.112.412-.33.787-.634 1.089a2.46 2.46 0 01-1.096.63c-1.517.411-7.623.411-7.623.411s-6.106 0-7.623-.41a2.46 2.46 0 01-1.096-.631 2.437 2.437 0 01-.635-1.088C0 9.099.178 5.019.637 2.34c.112-.411.33-.787.634-1.088a2.461 2.461 0 011.096-.63C3.884.212 9.99.199 9.99.199s6.106 0 7.623.411c.415.112.793.329 1.096.63zM13.45 7L8.42 9.912V4.085l5.031 2.914z" fill="#fff"></path></svg>