<?xml version="1.0" encoding="utf-8"?>
<!-- Generator: Adobe Illustrator 23.0.2, SVG Export Plug-In . SVG Version: 6.00 Build 0)  -->
<svg version="1.1" id="Ebene_1" xmlns="http://www.w3.org/2000/svg" xmlns:xlink="http://www.w3.org/1999/xlink" x="0px" y="0px"
	 viewBox="0 0 286.3 104.88" style="enable-background:new 0 0 286.3 104.88;" xml:space="preserve">
<style type="text/css">
	.st0{fill:#808B8F;}
</style>
<g>
	<path class="st0" d="M257.39,99.99V94.6h3.72c1.2,0,2.04,0.23,2.53,0.68c0.49,0.46,0.73,1.11,0.73,1.98c0,0.42-0.06,0.79-0.17,1.13
		c-0.11,0.34-0.3,0.62-0.56,0.86c-0.26,0.24-0.62,0.42-1.08,0.55c-0.46,0.13-1.03,0.19-1.71,0.19H257.39z M257.39,92.22V87.5h3.02
		c1.28,0,2.18,0.18,2.7,0.54c0.52,0.36,0.78,0.95,0.78,1.76c0,0.78-0.22,1.38-0.67,1.8c-0.45,0.42-1.24,0.62-2.37,0.62H257.39z
		 M254.59,102.31h6.35c1.17,0,2.15-0.13,2.95-0.4c0.8-0.26,1.45-0.62,1.94-1.08c0.49-0.46,0.85-0.99,1.07-1.62
		c0.22-0.62,0.32-1.29,0.32-1.99c0-0.38-0.04-0.76-0.12-1.14c-0.08-0.38-0.22-0.73-0.43-1.08c-0.21-0.34-0.49-0.67-0.84-0.97
		c-0.35-0.3-0.8-0.58-1.34-0.81c0.85-0.4,1.43-0.91,1.75-1.52c0.32-0.62,0.48-1.28,0.48-2c0-0.62-0.09-1.21-0.26-1.76
		c-0.18-0.55-0.5-1.03-0.97-1.44c-0.47-0.41-1.11-0.73-1.91-0.96c-0.8-0.23-1.82-0.35-3.07-0.35h-5.92V102.31z M236.64,85.2v10.19
		c0,2.56,0.57,4.42,1.7,5.6c1.13,1.17,2.8,1.76,4.99,1.76c1.01,0,1.92-0.13,2.73-0.4c0.81-0.26,1.52-0.69,2.11-1.27
		c0.59-0.58,1.05-1.33,1.37-2.25c0.32-0.92,0.48-2.04,0.48-3.37V85.2h-2.9v10.26c0,1.61-0.28,2.82-0.85,3.61s-1.54,1.19-2.91,1.19
		c-1.39,0-2.38-0.4-2.96-1.19c-0.58-0.79-0.87-1.99-0.87-3.61V85.2H236.64z M218.57,102.31h2.9v-7.5h7.69v7.5h2.9V85.2h-2.9v6.93
		h-7.69V85.2h-2.9V102.31z M194.36,97.09c0.13,1.93,0.81,3.36,2.06,4.28c1.25,0.92,2.96,1.38,5.15,1.38c1.07,0,2.01-0.13,2.82-0.4
		c0.81-0.26,1.48-0.62,2.03-1.08c0.54-0.46,0.95-0.99,1.21-1.61c0.26-0.62,0.4-1.28,0.4-2c0-1.52-0.42-2.68-1.27-3.49
		c-0.85-0.81-2.17-1.38-3.98-1.71l-2.37-0.46c-1.02-0.21-1.74-0.5-2.15-0.86c-0.41-0.37-0.61-0.93-0.61-1.68
		c0-0.3,0.06-0.59,0.18-0.87c0.12-0.28,0.32-0.53,0.6-0.74c0.28-0.22,0.65-0.38,1.1-0.5s1.03-0.18,1.71-0.18
		c1.2,0,2.07,0.23,2.62,0.7c0.55,0.46,0.94,1.17,1.16,2.13l2.73-0.43c-0.1-0.62-0.27-1.22-0.53-1.8c-0.26-0.58-0.63-1.08-1.13-1.52
		c-0.5-0.44-1.14-0.79-1.94-1.07c-0.8-0.27-1.79-0.41-2.97-0.41c-0.93,0-1.79,0.1-2.58,0.3c-0.79,0.2-1.47,0.5-2.05,0.91
		s-1.03,0.92-1.35,1.52c-0.33,0.61-0.49,1.32-0.49,2.13c0,0.81,0.12,1.51,0.35,2.07c0.23,0.57,0.58,1.05,1.03,1.44
		c0.46,0.39,1.02,0.71,1.69,0.95c0.67,0.24,1.44,0.44,2.3,0.6l2.18,0.41c0.54,0.1,0.99,0.23,1.34,0.4s0.63,0.36,0.84,0.59
		c0.21,0.22,0.35,0.47,0.43,0.73c0.08,0.26,0.12,0.53,0.12,0.8c0,0.37-0.06,0.72-0.17,1.04c-0.11,0.33-0.3,0.61-0.58,0.85
		c-0.27,0.24-0.63,0.43-1.08,0.58c-0.45,0.14-1,0.22-1.65,0.22c-1.34,0-2.35-0.26-3.03-0.77c-0.68-0.51-1.08-1.33-1.21-2.44H194.36z
		 M177.48,97.09c0.13,1.93,0.81,3.36,2.06,4.28c1.25,0.92,2.96,1.38,5.15,1.38c1.07,0,2.01-0.13,2.82-0.4
		c0.81-0.26,1.48-0.62,2.03-1.08c0.54-0.46,0.95-0.99,1.21-1.61c0.26-0.62,0.4-1.28,0.4-2c0-1.52-0.42-2.68-1.27-3.49
		c-0.85-0.81-2.17-1.38-3.98-1.71l-2.37-0.46c-1.02-0.21-1.74-0.5-2.15-0.86c-0.41-0.37-0.61-0.93-0.61-1.68
		c0-0.3,0.06-0.59,0.18-0.87c0.12-0.28,0.32-0.53,0.6-0.74c0.28-0.22,0.65-0.38,1.1-0.5s1.03-0.18,1.71-0.18
		c1.2,0,2.07,0.23,2.62,0.7c0.55,0.46,0.94,1.17,1.16,2.13l2.73-0.43c-0.1-0.62-0.27-1.22-0.53-1.8c-0.26-0.58-0.63-1.08-1.13-1.52
		c-0.5-0.44-1.14-0.79-1.94-1.07c-0.8-0.27-1.79-0.41-2.97-0.41c-0.93,0-1.79,0.1-2.58,0.3c-0.79,0.2-1.47,0.5-2.05,0.91
		s-1.03,0.92-1.35,1.52c-0.33,0.61-0.49,1.32-0.49,2.13c0,0.81,0.12,1.51,0.35,2.07c0.23,0.57,0.58,1.05,1.03,1.44
		c0.46,0.39,1.02,0.71,1.69,0.95c0.67,0.24,1.44,0.44,2.3,0.6l2.18,0.41c0.54,0.1,0.99,0.23,1.34,0.4c0.35,0.17,0.63,0.36,0.84,0.59
		c0.21,0.22,0.35,0.47,0.43,0.73c0.08,0.26,0.12,0.53,0.12,0.8c0,0.37-0.06,0.72-0.17,1.04c-0.11,0.33-0.3,0.61-0.58,0.85
		c-0.27,0.24-0.63,0.43-1.08,0.58c-0.45,0.14-1,0.22-1.65,0.22c-1.34,0-2.35-0.26-3.03-0.77c-0.68-0.51-1.08-1.33-1.21-2.44H177.48z
		 M162.96,102.31h11.5l0.34-2.49h-8.94v-5.06h8.01v-2.52h-8.01v-4.55h8.48V85.2h-11.39V102.31z M155.96,96.54
		c-0.08,0.58-0.21,1.09-0.4,1.55c-0.18,0.46-0.44,0.84-0.76,1.16c-0.32,0.32-0.72,0.57-1.19,0.74c-0.47,0.18-1.04,0.26-1.71,0.26
		c-0.75,0-1.42-0.15-2-0.44c-0.58-0.3-1.08-0.73-1.5-1.29c-0.42-0.57-0.73-1.25-0.95-2.05c-0.22-0.8-0.32-1.7-0.32-2.71
		c0-0.99,0.1-1.89,0.31-2.68c0.21-0.8,0.52-1.48,0.92-2.05c0.41-0.57,0.91-1,1.5-1.31c0.59-0.3,1.27-0.46,2.04-0.46
		c0.62,0,1.16,0.08,1.61,0.25c0.45,0.17,0.83,0.41,1.14,0.72c0.31,0.31,0.56,0.69,0.75,1.14c0.19,0.45,0.35,0.96,0.48,1.53
		l2.85-0.41c-0.16-0.86-0.4-1.65-0.73-2.35c-0.33-0.7-0.77-1.31-1.32-1.81c-0.55-0.5-1.22-0.89-2-1.16
		c-0.78-0.27-1.71-0.41-2.78-0.41c-1.15,0-2.21,0.2-3.16,0.61c-0.96,0.41-1.78,1-2.47,1.77c-0.69,0.78-1.22,1.72-1.59,2.84
		c-0.38,1.12-0.56,2.38-0.56,3.79c0,1.37,0.17,2.62,0.52,3.73c0.34,1.11,0.85,2.05,1.51,2.83c0.66,0.78,1.48,1.37,2.44,1.79
		c0.97,0.42,2.07,0.62,3.3,0.62c1.12,0,2.1-0.16,2.95-0.47s1.57-0.75,2.16-1.31c0.59-0.56,1.05-1.21,1.39-1.97
		c0.34-0.75,0.55-1.57,0.65-2.47H155.96z M137.7,96.54c-0.08,0.58-0.21,1.09-0.4,1.55c-0.18,0.46-0.44,0.84-0.76,1.16
		c-0.32,0.32-0.72,0.57-1.19,0.74c-0.47,0.18-1.04,0.26-1.71,0.26c-0.75,0-1.42-0.15-2-0.44c-0.58-0.3-1.08-0.73-1.5-1.29
		c-0.42-0.57-0.73-1.25-0.95-2.05c-0.22-0.8-0.32-1.7-0.32-2.71c0-0.99,0.1-1.89,0.31-2.68c0.21-0.8,0.52-1.48,0.92-2.05
		c0.41-0.57,0.91-1,1.5-1.31c0.59-0.3,1.27-0.46,2.04-0.46c0.62,0,1.16,0.08,1.61,0.25c0.45,0.17,0.83,0.41,1.14,0.72
		c0.31,0.31,0.56,0.69,0.76,1.14c0.19,0.45,0.35,0.96,0.48,1.53l2.85-0.41c-0.16-0.86-0.4-1.65-0.73-2.35
		c-0.33-0.7-0.77-1.31-1.32-1.81c-0.55-0.5-1.22-0.89-2-1.16c-0.78-0.27-1.71-0.41-2.78-0.41c-1.15,0-2.21,0.2-3.16,0.61
		c-0.96,0.41-1.78,1-2.47,1.77c-0.69,0.78-1.22,1.72-1.59,2.84c-0.38,1.12-0.56,2.38-0.56,3.79c0,1.37,0.17,2.62,0.52,3.73
		c0.34,1.11,0.85,2.05,1.51,2.83c0.66,0.78,1.48,1.37,2.44,1.79c0.97,0.42,2.07,0.62,3.3,0.62c1.12,0,2.1-0.16,2.95-0.47
		c0.85-0.31,1.57-0.75,2.16-1.31c0.59-0.56,1.05-1.21,1.39-1.97c0.34-0.75,0.55-1.57,0.65-2.47H137.7z M113.56,95.53l2.52-7.05
		l2.54,7.05H113.56z M108.19,102.31h3l1.58-4.36h6.64l1.61,4.36h3.09l-6.52-17.11h-2.88L108.19,102.31z M87.65,102.31h11.5
		l0.34-2.49h-8.94v-5.06h8.01v-2.52h-8.01v-4.55h8.48V85.2H87.65V102.31z M71.04,85.2v17.11h2.85v-6.76h3.07c0.18,0,0.34,0,0.5-0.01
		c0.16-0.01,0.31-0.02,0.46-0.04l3.07,6.81h3.16l-3.55-7.48c0.97-0.46,1.68-1.07,2.12-1.82c0.44-0.75,0.66-1.69,0.66-2.8
		c0-0.58-0.1-1.16-0.29-1.75c-0.19-0.59-0.53-1.13-1.02-1.62c-0.49-0.49-1.15-0.88-1.99-1.19c-0.84-0.3-1.91-0.46-3.2-0.46H71.04z
		 M73.89,93.11V87.6h2.92c0.69,0,1.26,0.06,1.73,0.19c0.46,0.13,0.84,0.31,1.11,0.54c0.28,0.23,0.48,0.51,0.6,0.84
		c0.12,0.33,0.18,0.69,0.18,1.09c0,0.43-0.05,0.82-0.16,1.17c-0.1,0.35-0.28,0.65-0.53,0.9c-0.25,0.25-0.59,0.44-1.02,0.58
		c-0.43,0.14-0.97,0.2-1.63,0.2H73.89z M53.09,85.2v10.19c0,2.56,0.57,4.42,1.7,5.6c1.13,1.17,2.8,1.76,4.99,1.76
		c1.01,0,1.92-0.13,2.73-0.4c0.81-0.26,1.52-0.69,2.11-1.27c0.59-0.58,1.05-1.33,1.37-2.25c0.32-0.92,0.48-2.04,0.48-3.37V85.2h-2.9
		v10.26c0,1.61-0.28,2.82-0.85,3.61c-0.57,0.79-1.54,1.19-2.91,1.19c-1.39,0-2.38-0.4-2.96-1.19c-0.58-0.79-0.87-1.99-0.87-3.61
		V85.2H53.09z M46.35,96.54c-0.08,0.58-0.21,1.09-0.4,1.55c-0.18,0.46-0.44,0.84-0.76,1.16c-0.32,0.32-0.72,0.57-1.19,0.74
		c-0.47,0.18-1.04,0.26-1.71,0.26c-0.75,0-1.42-0.15-2-0.44c-0.58-0.3-1.08-0.73-1.5-1.29c-0.42-0.57-0.73-1.25-0.95-2.05
		c-0.22-0.8-0.32-1.7-0.32-2.71c0-0.99,0.1-1.89,0.31-2.68c0.21-0.8,0.52-1.48,0.92-2.05c0.41-0.57,0.91-1,1.5-1.31
		c0.59-0.3,1.27-0.46,2.04-0.46c0.62,0,1.16,0.08,1.61,0.25c0.45,0.17,0.83,0.41,1.14,0.72c0.31,0.31,0.56,0.69,0.76,1.14
		c0.19,0.45,0.35,0.96,0.48,1.53l2.85-0.41c-0.16-0.86-0.4-1.65-0.73-2.35c-0.33-0.7-0.77-1.31-1.32-1.81
		c-0.55-0.5-1.22-0.89-2-1.16c-0.78-0.27-1.71-0.41-2.78-0.41c-1.15,0-2.21,0.2-3.16,0.61c-0.96,0.41-1.78,1-2.47,1.77
		c-0.69,0.78-1.22,1.72-1.59,2.84c-0.38,1.12-0.56,2.38-0.56,3.79c0,1.37,0.17,2.62,0.52,3.73c0.34,1.11,0.85,2.05,1.51,2.83
		c0.66,0.78,1.48,1.37,2.44,1.79c0.97,0.42,2.06,0.62,3.3,0.62c1.12,0,2.1-0.16,2.95-0.47c0.85-0.31,1.57-0.75,2.16-1.31
		c0.59-0.56,1.05-1.21,1.39-1.97c0.34-0.75,0.55-1.57,0.65-2.47H46.35z M19.53,102.31h11.5l0.34-2.49h-8.94v-5.06h8.01v-2.52h-8.01
		v-4.55h8.48V85.2H19.53V102.31z M1.87,97.09c0.13,1.93,0.81,3.36,2.06,4.28c1.25,0.92,2.96,1.38,5.15,1.38
		c1.07,0,2.01-0.13,2.82-0.4c0.81-0.26,1.48-0.62,2.03-1.08c0.54-0.46,0.95-0.99,1.21-1.61c0.26-0.62,0.4-1.28,0.4-2
		c0-1.52-0.42-2.68-1.27-3.49c-0.85-0.81-2.17-1.38-3.98-1.71l-2.37-0.46c-1.02-0.21-1.74-0.5-2.15-0.86
		c-0.41-0.37-0.61-0.93-0.61-1.68c0-0.3,0.06-0.59,0.18-0.87c0.12-0.28,0.32-0.53,0.6-0.74c0.28-0.22,0.65-0.38,1.1-0.5
		c0.46-0.12,1.03-0.18,1.71-0.18c1.2,0,2.07,0.23,2.62,0.7c0.55,0.46,0.94,1.17,1.16,2.13l2.73-0.43c-0.1-0.62-0.27-1.22-0.53-1.8
		c-0.26-0.58-0.63-1.08-1.13-1.52c-0.5-0.44-1.14-0.79-1.94-1.07c-0.8-0.27-1.79-0.41-2.97-0.41c-0.93,0-1.79,0.1-2.58,0.3
		c-0.79,0.2-1.47,0.5-2.05,0.91s-1.03,0.92-1.35,1.52c-0.33,0.61-0.49,1.32-0.49,2.13c0,0.81,0.12,1.51,0.35,2.07
		c0.23,0.57,0.58,1.05,1.03,1.44c0.46,0.39,1.02,0.71,1.69,0.95c0.67,0.24,1.44,0.44,2.3,0.6l2.18,0.41c0.54,0.1,0.99,0.23,1.34,0.4
		c0.35,0.17,0.63,0.36,0.84,0.59c0.21,0.22,0.35,0.47,0.43,0.73c0.08,0.26,0.12,0.53,0.12,0.8c0,0.37-0.06,0.72-0.17,1.04
		c-0.11,0.33-0.3,0.61-0.58,0.85c-0.27,0.24-0.63,0.43-1.08,0.58c-0.45,0.14-1,0.22-1.65,0.22c-1.34,0-2.35-0.26-3.03-0.77
		c-0.68-0.51-1.08-1.33-1.21-2.44H1.87z"/>
</g>
<polygon points="267.6,18.28 257.9,18.28 240.06,36.06 240.06,18.28 233.22,18.28 233.22,59.55 240.06,59.55 240.06,41.83 
	257.9,59.55 267.6,59.55 246.96,38.92 "/>
<g>
	<path d="M196.57,24.35c-4.05,4.04-6.07,8.9-6.07,14.57c0,5.7,2.02,10.56,6.07,14.56c4.04,4.04,8.92,6.07,14.63,6.07
		c2.85,0,5.52-0.53,8-1.61c2.48-1.07,4.67-2.56,6.57-4.46l-4.88-4.82c-2.74,2.66-5.97,3.99-9.7,3.99c-3.81,0-7.06-1.33-9.76-3.99
		c-2.7-2.74-4.04-5.98-4.04-9.74c0-3.77,1.35-7,4.04-9.7c2.7-2.7,5.95-4.04,9.76-4.04c3.77,0,7,1.35,9.7,4.04l4.88-4.88
		c-1.9-1.9-4.1-3.39-6.57-4.46c-2.48-1.07-5.15-1.6-8-1.6C205.46,18.28,200.58,20.3,196.57,24.35"/>
</g>
<polygon points="111.61,59.55 139.09,59.55 139.09,52.65 118.45,52.65 118.45,18.28 111.61,18.28 "/>
<g>
	<path d="M88.34,38.92l-13.8-0.06V25.18h13.8c1.86,0,3.47,0.68,4.82,2.02c1.35,1.35,2.02,2.95,2.02,4.82c0,1.9-0.67,3.53-2.02,4.88
		C91.81,38.24,90.2,38.92,88.34,38.92 M99.64,39.81c1.62-2.34,2.44-4.94,2.44-7.79c0-3.77-1.35-7-4.04-9.69
		c-2.7-2.7-5.93-4.04-9.7-4.04H67.7v41.27h6.84V45.81h11.66l7.97,13.74h7.91l-8.51-14.81C96.03,43.75,98.05,42.11,99.64,39.81"/>
</g>
<rect x="49.95" y="18.28" width="6.84" height="41.27"/>
<path d="M21.8,33.68l6.07,12.12H15.73L21.8,33.68z M1.16,59.55h7.67l3.51-6.9h18.98l3.45,6.9h7.67L21.8,18.28L1.16,59.55z"/>
<g>
	<path d="M177.96,24.31c-1.08-1.09-2.24-2.03-3.45-2.83l-2.67,6.6c0.42,0.34,0.84,0.7,1.24,1.1c2.7,2.7,4.05,5.93,4.05,9.7
		c0,3.76-1.35,7-4.05,9.74c-2.7,2.66-5.93,3.99-9.69,3.99c-0.48,0-0.96-0.02-1.43-0.07l-2.66,6.59c1.31,0.25,2.67,0.37,4.09,0.37
		c5.71,0,10.57-2.02,14.57-6.07c4.08-3.96,6.13-8.82,6.13-14.56C184.09,33.21,182.04,28.36,177.96,24.31 M149.65,38.89
		c0-3.77,1.33-7,3.98-9.7c2.74-2.7,5.99-4.04,9.75-4.04c0.51,0,1,0.03,1.48,0.08l2.66-6.59c-1.33-0.25-2.71-0.38-4.15-0.38
		c-5.75,0-10.61,2.02-14.57,6.07c-4.04,4.04-6.07,8.9-6.07,14.57c0,5.7,2.02,10.56,6.07,14.56c1.1,1.11,2.27,2.05,3.49,2.86
		l2.64-6.54c-0.45-0.35-0.89-0.72-1.32-1.13C150.98,45.89,149.65,42.65,149.65,38.89"/>
</g>
<rect x="145.65" y="65.3" transform="matrix(0.3747 -0.9272 0.9272 0.3747 30.5022 183.3772)" class="st0" width="11.1" height="7.55"/>
<rect x="170.05" y="4.92" transform="matrix(0.3747 -0.9272 0.9272 0.3747 101.7458 168.2432)" class="st0" width="11.1" height="7.55"/>
<g>
	<path d="M279.03,24.01L276.56,24v-2.45h2.48c0.33,0,0.62,0.12,0.86,0.36c0.24,0.24,0.36,0.53,0.36,0.86c0,0.34-0.12,0.63-0.36,0.87
		C279.66,23.89,279.37,24.01,279.03,24.01 M281.06,24.17c0.29-0.42,0.44-0.88,0.44-1.4c0-0.68-0.24-1.25-0.73-1.74
		c-0.48-0.48-1.06-0.73-1.74-0.73h-3.7v7.4h1.23v-2.46h2.09l1.43,2.46h1.42l-1.53-2.66C280.41,24.88,280.78,24.58,281.06,24.17"/>
	<path d="M278.26,31.04c-3.79,0-6.88-3.08-6.88-6.88s3.08-6.88,6.88-6.88s6.88,3.09,6.88,6.88S282.05,31.04,278.26,31.04z
		 M278.26,18.31c-3.23,0-5.86,2.63-5.86,5.86s2.63,5.86,5.86,5.86s5.86-2.63,5.86-5.86S281.49,18.31,278.26,18.31z"/>
</g>
</svg>
