<svg width="150" height="120" viewBox="0 0 150 120" fill="none" xmlns="http://www.w3.org/2000/svg">
<path d="M123.615 29.8589C124.005 30.0484 124.458 30.0598 124.857 29.8902C125.257 29.7205 125.563 29.3864 125.697 28.974C125.96 28.1661 126.391 27.1049 127.115 26.0758C127.81 25.0868 129.965 22.5 133.825 22.5C137.45 22.5 139.577 24.8571 140.122 25.4896C140.951 26.453 141.506 27.482 141.867 28.2562C142.62 29.8701 143.161 31.764 143.468 33.6439L143.468 33.645L144.832 41.9484L144.832 41.9515L144.834 41.9636C144.834 41.9639 144.834 41.9642 144.834 41.9644C144.834 41.9645 144.834 41.9646 144.834 41.9647C146.001 49.0104 140.844 55.4888 133.442 55.4888L132.169 55.4888C131.771 55.4887 131.39 55.6468 131.108 55.9281C130.827 56.2094 130.669 56.5909 130.669 56.9888V66.7039C130.669 72.6246 126.415 77.8206 120.629 78.9097C119.92 79.0431 119.406 79.6624 119.406 80.3838L119.406 86.9833C119.406 92.6552 114.881 97.5 108.954 97.5H93.098C87.1708 97.5 82.6455 92.6551 82.6455 86.9832V80.7877C82.6455 79.9593 81.974 79.2877 81.1455 79.2877H53.6561C52.8276 79.2877 52.1561 79.9593 52.1561 80.7877V86.9832C52.1561 92.6552 47.6307 97.5 41.7036 97.5H25.8479C19.9208 97.5 15.3955 92.6552 15.3955 86.9832V66.8367C15.3955 66.0797 14.8315 65.4413 14.0803 65.3481C12.2665 65.1229 10.4211 64.2715 8.89728 62.4123L8.89538 62.41L6.82223 59.8909L6.76596 59.8191L5.58488 60.7438L6.76595 59.8191C4.49013 56.9123 4.55962 53.2111 6.14914 50.5041L6.22379 50.3769L16.5796 34.2292C16.5981 34.2004 16.6157 34.1708 16.6322 34.1408C18.3129 31.0762 21.5835 28.6453 25.7932 28.6453H80.5164C81.0832 28.6453 81.6016 28.3258 81.8563 27.8194C82.2143 27.1079 82.719 26.2587 83.4181 25.4561L82.2871 24.4708L83.4181 25.4561C84.0785 24.698 86.1925 22.5 89.7081 22.5C93.5689 22.5 95.7236 25.0872 96.4191 26.076L97.6262 25.2269L96.4191 26.076C96.8169 26.6415 97.1271 27.2182 97.37 27.7594C97.6119 28.2984 98.1477 28.6453 98.7385 28.6453H118.248C120.223 28.6453 122.029 29.0883 123.615 29.8589Z" stroke="#D1D5E0" stroke-width="3" stroke-linejoin="round"/>
<path d="M118.248 36.1453C120.927 36.1453 123.06 38.324 123.169 41.1173V66.7039C123.169 69.3855 120.982 71.6201 118.358 71.6201H105.4C102.775 71.6201 100.588 69.3855 100.588 66.7039V56.648C99.4401 57.5419 98.6746 58.9385 98.6746 60.5587V68.9944C98.6746 71.676 100.862 73.9106 103.486 73.9106H111.906V86.9832C111.906 88.6592 110.594 90 108.953 90H93.0978C91.4575 90 90.1453 88.6592 90.1453 86.9832V74.8045C90.1453 73.1285 88.8332 71.7877 87.1929 71.7877H47.6083C45.9681 71.7877 44.6559 73.1285 44.6559 74.8045V86.9832C44.6559 88.6592 43.3437 90 41.7034 90H25.8477C24.2075 90 22.8953 88.6592 22.8953 86.9832V52.0112L15.7329 57.7654C15.4049 57.9888 14.9674 57.9888 14.6941 57.6536L12.6711 55.1955C12.4524 54.9162 12.4524 54.581 12.6164 54.3017L23.114 37.933C23.6061 36.8715 24.5902 36.1453 25.7931 36.1453H81.6708C83.475 36.1453 84.8419 37.8212 84.5685 39.6648L83.4203 46.648C83.147 48.4916 84.5138 50.1676 86.3181 50.1676H97.5264C99.0027 50.1676 100.151 49.1061 100.424 47.7095C99.7134 47.933 98.948 48.0447 98.1279 48.0447H90.1453C87.4663 48.0447 85.662 45.8659 86.0994 43.1844L87.4663 34.8603C87.9037 32.1788 88.8878 30 89.7079 30C90.5281 30 91.1842 32.2346 91.1842 34.9162V36.2011C91.2935 36.1453 91.4575 36.1453 91.6216 36.1453H118.248Z" fill="#4CC3FF"/>
<path d="M136.067 34.8603L137.434 43.1844C137.872 45.8101 136.067 47.9888 133.443 47.9888H124.967V42.0112H127.537C130.162 42.0112 132.349 39.7765 132.349 37.095V34.9162C132.349 32.2346 133.005 30 133.825 30C134.591 30 135.63 32.1788 136.067 34.8603Z" fill="#4CC3FF"/>
</svg>
