<svg width="120" height="120" viewBox="0 0 120 120" fill="none" xmlns="http://www.w3.org/2000/svg">
<path d="M106.757 38.609L106.759 38.6118C107.212 39.5543 107.463 40.581 107.496 41.6263C107.529 42.6704 107.343 43.71 106.952 44.6783C106.232 46.4331 104.874 47.85 103.153 48.6439C102.677 48.8632 102.35 49.3146 102.291 49.8349C102.231 50.3552 102.447 50.8689 102.86 51.1903C103.684 51.8307 104.365 52.636 104.86 53.5547C105.355 54.4734 105.653 55.4854 105.735 56.5259L105.735 56.5266C106.34 64.1657 104.967 71.8318 101.749 78.7859L101.748 78.7898C98.756 85.3038 94.2233 90.9908 88.5414 95.3591C82.8596 99.7273 76.1996 102.645 69.1374 103.861C62.0752 105.076 54.8234 104.553 48.0088 102.335C41.1943 100.118 35.0222 96.2737 30.0263 91.1345C29.7438 90.844 29.3559 90.6801 28.9507 90.6801H28.8407C28.6646 90.6801 28.4898 90.7111 28.3244 90.7718C26.7761 91.3395 25.0841 91.3809 23.51 90.8897C21.9358 90.3984 20.5674 89.4019 19.6163 88.0542L19.6155 88.053C16.4043 83.5115 14.068 78.4106 12.7265 73.0121L12.7254 73.0078C12.3073 71.3461 12.4704 69.5912 13.1876 68.035C13.9047 66.4789 15.1327 65.2153 16.6672 64.4542C17.2105 64.1848 17.538 63.6148 17.4973 63.0097C16.9928 55.5093 18.3871 48.0028 21.5514 41.1843L21.5527 41.1815C23.9919 35.8965 27.4502 31.1453 31.7294 27.2006C36.0085 23.2559 41.0242 20.1953 46.4885 18.1944C51.9529 16.1934 57.7584 15.2915 63.5721 15.5404C69.3848 15.7893 75.0912 17.1837 80.364 19.6436C85.2006 21.9224 89.5843 25.0591 93.3028 28.9018C93.6886 29.3004 94.2628 29.4536 94.7959 29.3C96.2899 28.8697 97.8808 28.9145 99.3482 29.4282C100.815 29.9415 102.085 30.8977 102.985 32.1647C104.42 34.2037 105.682 36.3594 106.757 38.609Z" stroke="#D1D5E0" stroke-width="3" stroke-linejoin="round"/>
<path d="M78.679 43.1908C76.7262 41.1828 74.4119 39.4701 71.7398 38.214C59.8124 32.6132 45.5843 37.8262 40.0213 49.839C38.7764 52.5317 38.0981 55.3405 37.8849 58.1435L43.2321 56.1842C43.0699 58.328 43.2106 60.4699 43.6074 62.5488L32.2036 66.7304C33.0777 71.3281 35.2648 75.6325 38.5538 79.0336L25.7389 83.7328C23.0649 79.9431 21.12 75.6849 20 71.2043L31.4037 67.0208C30.9057 65.0142 30.5503 62.9664 30.3861 60.8929L25.0406 62.8519C24.5559 56.6979 25.586 50.343 28.3577 44.3602C36.9173 25.8705 58.8214 17.8423 77.1817 26.465C83.1179 29.2546 87.9635 33.4556 91.521 38.4835L96.8673 36.524C98.0694 38.219 99.1054 40.0164 100.001 41.8787L88.5965 46.0592C90.6037 50.2187 91.8291 54.7404 92.1966 59.3723L79.3797 64.0675C79.7316 59.3309 78.6604 54.6219 76.393 50.531L87.7989 46.3504C86.7729 44.5004 85.5182 42.7704 84.0252 41.2313L78.679 43.1908Z" fill="#4CC3FF"/>
<path d="M85.4376 61.8525C85.2324 64.654 84.5306 67.4632 83.2816 70.1583C77.7205 82.1731 63.4905 87.3861 51.565 81.7853C48.889 80.5273 46.5571 78.8283 44.6122 76.8164L31.7953 81.5136C35.345 86.5416 40.1848 90.7447 46.1251 93.5362C64.4854 102.157 86.3856 94.1288 94.9471 75.6371C97.7208 69.6583 98.7431 63.3034 98.2544 57.1553L85.4376 61.8525Z" fill="#4CC3FF"/>
</svg>
