<svg width="120" height="120" viewBox="0 0 120 120" fill="none" xmlns="http://www.w3.org/2000/svg">
<path d="M61.9935 14.8997L62.005 14.9054L62.0166 14.9109L96.1664 31.1319C97.5291 31.8609 98.5506 32.9951 98.9801 34.3069L107.463 70.5253C107.623 72.0225 107.263 73.4887 106.406 74.6963L82.79 103.684L82.7677 103.711L82.7466 103.74C81.8089 105.008 80.4118 105.635 78.9622 105.475L78.8803 105.466H78.7979H41.1896C39.705 105.369 38.1836 104.67 37.0982 103.619L13.5347 74.6964C12.6702 73.4771 12.3303 72.0231 12.58 70.5667L20.9738 34.0298C20.9742 34.0282 20.9745 34.0266 20.9749 34.025C21.3151 32.5967 22.233 31.5201 23.5066 30.9304L23.515 30.9264L23.5234 30.9224L57.5554 14.6467C58.213 14.5069 58.9848 14.5 59.8585 14.5C60.6548 14.5 61.3961 14.6033 61.9935 14.8997Z" stroke="#D1D5E0" stroke-width="3"/>
<path d="M93.0015 38.6803C92.5441 37.2267 91.4463 36.0456 90.074 35.3187L62.1716 22.0539C61.4397 21.6905 60.6163 21.5996 59.8845 21.5996C59.1526 21.5996 58.3293 21.5996 57.5974 21.7813L29.6949 35.137C28.3227 35.773 27.3163 36.9541 26.9504 38.4986L20.0891 68.3899C19.8147 69.9345 20.1806 71.479 21.0955 72.751L40.3985 96.4641C41.4963 97.5544 43.0515 98.2812 44.6067 98.3721H75.3452C76.9919 98.5538 78.5471 97.8269 79.5534 96.4641L98.8564 72.751C99.7713 71.479 100.137 69.9345 99.9543 68.3899L93.0015 38.6803Z" fill="#4CC3FF"/>
<path d="M88.5855 66.8866C88.4945 66.8866 88.4036 66.8866 88.4036 66.7966C88.4036 66.7065 88.2216 66.7065 88.0396 66.7065C87.6757 66.6165 87.3117 66.6165 86.9478 66.6165C86.7658 66.6165 86.5839 66.6165 86.4019 66.5265H86.3109C85.3101 66.4365 84.2183 66.2564 83.2175 65.9864C82.9445 65.8963 82.6716 65.6263 82.5806 65.3562L81.8527 65.1762C82.2166 62.5655 82.0347 59.8648 81.4888 57.2541C80.8519 54.6435 79.7601 52.1228 78.3043 49.8723L78.8502 49.3321V49.2421C78.8502 48.972 78.9412 48.6119 79.1232 48.4319C79.942 47.7117 80.7609 47.1716 81.6707 46.6314C81.8527 46.5414 82.0347 46.4514 82.2166 46.3614C82.5806 46.1813 82.8535 46.0013 83.2175 45.8212C83.3084 45.7312 83.3994 45.7312 83.4904 45.6412C83.5814 45.5512 83.4904 45.5512 83.4904 45.4611C84.3093 44.831 84.4912 43.7507 83.8543 42.9405C83.5814 42.5804 83.0355 42.3103 82.5806 42.3103C82.1256 42.3103 81.6707 42.4904 81.3068 42.7605L81.2158 42.8505C81.1248 42.9405 81.0338 43.0305 80.9429 43.0305C80.6699 43.3006 80.397 43.5707 80.215 43.8407C80.124 44.0208 79.942 44.1108 79.851 44.2008C79.2142 44.921 78.3953 45.6412 77.5764 46.1813C77.3945 46.2714 77.2125 46.3614 77.0305 46.3614C76.9396 46.3614 76.7576 46.3614 76.6666 46.2714H76.5756L75.8477 46.7215C75.1199 46.0013 74.301 45.2811 73.5731 44.5609C70.2067 41.9503 66.0215 40.3298 61.7452 39.8797L61.6542 39.1595V39.2496C61.3813 39.0695 61.2903 38.7995 61.1993 38.5294C61.1993 37.5391 61.1993 36.5489 61.3813 35.4686V35.3786C61.3813 35.1985 61.4723 35.0185 61.4723 34.8384C61.5632 34.4784 61.5632 34.1183 61.6542 33.7582V33.218C61.7452 32.3178 61.0173 31.4176 60.1075 31.3276C59.5616 31.2375 59.0157 31.5076 58.5608 31.9577C58.1968 32.3178 58.0149 32.7679 58.0149 33.218V33.6681C58.0149 34.0282 58.1058 34.3883 58.1968 34.7484C58.2878 34.9285 58.2878 35.1085 58.2878 35.2886V35.3786C58.4698 36.3688 58.4698 37.3591 58.4698 38.4394C58.3788 38.7094 58.2878 38.9795 58.0149 39.1595V39.3396L57.9239 40.0598C56.9231 40.1498 55.9222 40.3298 54.8304 40.5099C50.5542 41.4101 46.6418 43.6607 43.6394 46.8115L43.0935 46.4514H43.0025C42.9115 46.4514 42.8205 46.5414 42.6386 46.5414C42.4566 46.5414 42.2746 46.4514 42.0926 46.3614C41.2738 45.7312 40.4549 45.011 39.818 44.2908C39.7271 44.1108 39.5451 44.0208 39.4541 43.9308C39.1812 43.6607 38.9992 43.3906 38.7262 43.1205C38.6352 43.0305 38.5443 43.0305 38.4533 42.9405C38.3623 42.8505 38.3623 42.8505 38.3623 42.8505C37.9984 42.5804 37.5434 42.4004 37.0885 42.4004C36.5426 42.4004 36.0877 42.5804 35.8147 43.0305C35.2688 43.8407 35.4508 44.921 36.1787 45.5512C36.2697 45.5512 36.2697 45.6412 36.2697 45.6412C36.2697 45.6412 36.4516 45.8212 36.5426 45.8212C36.8156 46.0013 37.1795 46.1813 37.5434 46.3614C37.7254 46.4514 37.9074 46.5414 38.0893 46.6314C38.9992 47.1716 39.909 47.7117 40.6369 48.4319C40.8189 48.6119 41.0008 48.972 40.9099 49.2421V49.1521L41.4558 49.6922C41.3648 49.8723 41.2738 49.9623 41.1828 50.1423C38.3623 54.5535 37.1795 59.7748 37.9984 64.9061L37.2705 65.0861C37.2705 65.1762 37.1795 65.1762 37.1795 65.1762C37.0885 65.4462 36.8156 65.6263 36.5426 65.8063C35.5418 66.0764 34.541 66.2564 33.4492 66.3465C33.2672 66.3465 33.0852 66.3465 32.9033 66.4365C32.5393 66.4365 32.1754 66.5265 31.8114 66.5265C31.7205 66.5265 31.6295 66.6165 31.4475 66.6165C31.3565 66.6165 31.3565 66.6165 31.2655 66.7065C30.2647 66.8866 29.6278 67.7868 29.8098 68.7771C29.9918 69.5873 30.8106 70.1274 31.6295 70.0374C31.8114 70.0374 31.9024 70.0374 32.0844 69.9474C32.1754 69.9474 32.1754 69.9474 32.1754 69.8573C32.1754 69.7673 32.4483 69.8573 32.5393 69.8573C32.9033 69.7673 33.2672 69.5873 33.5401 69.4973C33.7221 69.4072 33.9041 69.3172 34.086 69.3172H34.177C35.1779 68.9571 36.0877 68.6871 37.1795 68.507H37.2705C37.5434 68.507 37.8164 68.597 37.9984 68.7771C38.0893 68.7771 38.0893 68.8671 38.0893 68.8671L38.9082 68.7771C40.273 72.9181 42.8205 76.6091 46.3689 79.3098C47.1878 79.9399 47.9156 80.4801 48.8255 80.9302L48.3705 81.5603C48.3705 81.6503 48.4615 81.6503 48.4615 81.6503C48.6435 81.9204 48.6435 82.2805 48.5525 82.5506C48.1886 83.4508 47.6427 84.351 47.0968 85.1612V85.2513C47.0058 85.4313 46.9148 85.5213 46.7328 85.7014C46.5509 85.8814 46.3689 86.2415 46.0959 86.6016C46.005 86.6916 46.005 86.7817 45.914 86.8717C45.914 86.8717 45.914 86.9617 45.823 86.9617C45.3681 87.8619 45.732 88.9422 46.5509 89.3923C46.7328 89.4823 47.0058 89.5724 47.1878 89.5724C47.9156 89.5724 48.5525 89.1222 48.9165 88.4921C48.9165 88.4921 48.9165 88.4021 49.0074 88.4021C49.0074 88.312 49.0984 88.222 49.1894 88.132C49.2804 87.7719 49.4624 87.5018 49.5533 87.1417L49.7353 86.6016C50.0083 85.6114 50.4632 84.7111 50.9181 83.8109C51.1001 83.5408 51.373 83.3608 51.646 83.2708C51.737 83.2708 51.737 83.2708 51.737 83.1807L52.1009 82.4606C54.6485 83.4508 57.287 83.9009 60.0165 83.9009C61.6542 83.9009 63.2919 83.7209 64.9297 83.2708C65.9305 83.0907 66.9313 82.7306 67.8411 82.4606L68.2051 83.0907C68.2961 83.0907 68.2961 83.0907 68.2961 83.1807C68.569 83.2708 68.842 83.4508 69.0239 83.7209C69.4789 84.6211 69.9338 85.5213 70.2067 86.5116V86.6016L70.3887 87.1417C70.4797 87.5018 70.5707 87.8619 70.7526 88.132C70.8436 88.222 70.8436 88.312 70.9346 88.4021C70.9346 88.4021 70.9346 88.4921 71.0256 88.4921C71.3895 89.1222 72.0264 89.5724 72.7543 89.5724C73.0272 89.5724 73.2092 89.4823 73.4822 89.3923C73.8461 89.2123 74.21 88.8522 74.301 88.4021C74.392 87.952 74.392 87.5018 74.21 87.0517C74.21 86.9617 74.119 86.9617 74.119 86.9617C74.119 86.8717 74.0281 86.7817 73.9371 86.6916C73.7551 86.3315 73.5731 86.0615 73.3002 85.7914C73.2092 85.6114 73.1182 85.5213 72.9363 85.3413V85.1612C72.2994 84.351 71.8444 83.4508 71.4805 82.5506C71.3895 82.2805 71.3895 81.9204 71.5715 81.6503C71.5715 81.5603 71.6625 81.5603 71.6625 81.5603L71.3895 80.8401C76.0297 78.0494 79.5781 73.7283 81.2158 68.597L81.9437 68.6871C82.0347 68.6871 82.0347 68.597 82.0347 68.597C82.2166 68.417 82.4896 68.327 82.7625 68.327H82.8535C83.8544 68.507 84.8552 68.7771 85.765 69.1372H85.856C86.038 69.2272 86.2199 69.3172 86.4019 69.3172C86.7658 69.4973 87.0388 69.6773 87.4027 69.7673C87.4937 69.7673 87.5847 69.8573 87.7667 69.8573C87.8576 69.8573 87.8577 69.8573 87.9486 69.9474C88.1306 70.0374 88.2216 70.0374 88.4036 70.0374C89.2224 70.0374 89.9503 69.4973 90.2232 68.7771C90.1323 67.7868 89.4044 67.0666 88.5855 66.8866ZM62.2911 64.0959L59.8345 65.2662L57.378 64.0959L56.7411 61.4852L58.4698 59.3247H61.1993L62.928 61.4852L62.2911 64.0959ZM77.1215 58.2444C77.5764 60.1349 77.6674 62.0254 77.4855 63.9158L68.842 61.4852C68.0231 61.3052 67.5682 60.495 67.7502 59.6848C67.8411 59.4147 67.9321 59.2346 68.1141 59.0546L74.9379 52.933C75.9387 54.5535 76.6666 56.3539 77.1215 58.2444ZM72.2084 49.6022L64.7477 54.8235C64.1108 55.1836 63.201 55.0936 62.746 54.4634C62.5641 54.2834 62.4731 54.1033 62.4731 53.8333L61.9272 44.741C65.9305 45.1911 69.4789 46.9015 72.2084 49.6022ZM55.7403 45.011L57.5599 44.6509L57.105 53.6532C57.105 54.4634 56.3771 55.0936 55.5583 55.0936C55.2853 55.0936 55.1034 55.0036 54.8304 54.9136L47.2787 49.6022C49.6443 47.3516 52.5558 45.7312 55.7403 45.011ZM44.6402 52.933L51.373 58.8746C52.0099 59.4147 52.1009 60.3149 51.555 60.9451C51.373 61.2152 51.1911 61.3052 50.8271 61.3952L42.0017 63.9158C41.7287 60.1349 42.6385 56.2639 44.6402 52.933ZM43.0935 68.1469L52.1009 66.6165C52.8288 66.6165 53.5566 67.0666 53.6476 67.7868C53.7386 68.0569 53.7386 68.417 53.5566 68.6871L50.0992 76.9692C46.9148 74.8986 44.3672 71.7478 43.0935 68.1469ZM63.7469 79.3098C62.4731 79.5798 61.1993 79.7599 59.8345 79.7599C57.9239 79.7599 55.9222 79.3998 54.1025 78.8596L58.5608 70.8476C59.0157 70.3075 59.7436 70.1274 60.3804 70.4875C60.6534 70.6676 60.8354 70.8476 61.1083 71.1177L65.4756 78.9497C64.9297 79.0397 64.3838 79.1297 63.7469 79.3098ZM74.8469 71.4778C73.4822 73.6383 71.5715 75.5288 69.3879 76.8791L65.8395 68.417C65.6575 67.6968 66.0215 66.9766 66.6584 66.7065C66.9313 66.6165 67.2043 66.5265 67.4772 66.5265L76.5756 68.0569C76.1207 69.3172 75.5748 70.4875 74.8469 71.4778Z" fill="white"/>
</svg>
