<?xml version="1.0" encoding="UTF-8" standalone="no"?>
<!-- Created with Inkscape (http://www.inkscape.org/) -->
<svg
   xmlns:dc="http://purl.org/dc/elements/1.1/"
   xmlns:cc="http://creativecommons.org/ns#"
   xmlns:rdf="http://www.w3.org/1999/02/22-rdf-syntax-ns#"
   xmlns:svg="http://www.w3.org/2000/svg"
   xmlns="http://www.w3.org/2000/svg"
   xmlns:sodipodi="http://sodipodi.sourceforge.net/DTD/sodipodi-0.dtd"
   xmlns:inkscape="http://www.inkscape.org/namespaces/inkscape"
   width="500"
   height="297.87"
   id="svg2"
   sodipodi:version="0.32"
   inkscape:version="0.46"
   version="1.0"
   sodipodi:docname="Logo Finnova.svg"
   inkscape:output_extension="org.inkscape.output.svg.inkscape">
  <defs
     id="defs4">
    <inkscape:perspective
       sodipodi:type="inkscape:persp3d"
       inkscape:vp_x="0 : 526.18109 : 1"
       inkscape:vp_y="0 : 1000 : 0"
       inkscape:vp_z="744.09448 : 526.18109 : 1"
       inkscape:persp3d-origin="372.04724 : 350.78739 : 1"
       id="perspective10" />
    <clipPath
       id="clipPath2552"
       clipPathUnits="userSpaceOnUse">
      <path
         id="path2554"
         d="M 0,0 L 595.276,0 L 595.276,841.89 L 0,841.89 L 0,0 z" />
    </clipPath>
    <clipPath
       id="clipPath2504"
       clipPathUnits="userSpaceOnUse">
      <path
         id="path2506"
         d="M 443.338,32.314 L 556.724,32.314 L 556.724,97.954 L 443.338,97.954 L 443.338,32.314 z" />
    </clipPath>
    <clipPath
       id="clipPath2492"
       clipPathUnits="userSpaceOnUse">
      <path
         id="path2494"
         d="M 0,0 L 595.276,0 L 595.276,841.89 L 0,841.89 L 0,0 z" />
    </clipPath>
    <clipPath
       id="clipPath2468"
       clipPathUnits="userSpaceOnUse">
      <path
         id="path2470"
         d="M 0,0 L 595.276,0 L 595.276,841.89 L 0,841.89 L 0,0 z" />
    </clipPath>
    <clipPath
       id="clipPath2432"
       clipPathUnits="userSpaceOnUse">
      <path
         id="path2434"
         d="M 0,0 L 595.276,0 L 595.276,841.89 L 0,841.89 L 0,0 z" />
    </clipPath>
    <clipPath
       id="clipPath2420"
       clipPathUnits="userSpaceOnUse">
      <path
         id="path2422"
         d="M 19.275,158.969 L 576,158.969 L 576,632.828 L 19.275,632.828 L 19.275,158.969 z" />
    </clipPath>
    <inkscape:perspective
       id="perspective2410"
       inkscape:persp3d-origin="372.04724 : 350.78739 : 1"
       inkscape:vp_z="744.09448 : 526.18109 : 1"
       inkscape:vp_y="0 : 1000 : 0"
       inkscape:vp_x="0 : 526.18109 : 1"
       sodipodi:type="inkscape:persp3d" />
  </defs>
  <sodipodi:namedview
     id="base"
     pagecolor="#ffffff"
     bordercolor="#666666"
     borderopacity="1.0"
     inkscape:pageopacity="0.0"
     inkscape:pageshadow="2"
     inkscape:zoom="0.35"
     inkscape:cx="8.5714286"
     inkscape:cy="520"
     inkscape:document-units="px"
     inkscape:current-layer="layer1"
     showgrid="false"
     inkscape:window-width="1280"
     inkscape:window-height="750"
     inkscape:window-x="-8"
     inkscape:window-y="-8" />
  <metadata
     id="metadata7">
    <rdf:RDF>
      <cc:Work
         rdf:about="">
        <dc:format>image/svg+xml</dc:format>
        <dc:type
           rdf:resource="http://purl.org/dc/dcmitype/StillImage" />
      </cc:Work>
    </rdf:RDF>
  </metadata>
  <g
     inkscape:label="Ebene 1"
     inkscape:groupmode="layer"
     id="layer1"
     transform="translate(-457.70536,-518.37078)">
    <g
       id="g2811"
       transform="matrix(3.3866675,0,0,3.3866675,-1082.3903,-1890.371)">
      <path
         d="M 532.84955,753.77827 C 541.06205,752.91827 547.83705,747.24577 550.3108,739.63202 L 532.84955,739.63202 L 532.84955,753.77827 z"
         style="fill:#1c375d;fill-opacity:1;fill-rule:nonzero;stroke:none"
         id="path2510" />
      <path
         d="M 510.0268,733.24726 C 510.0268,741.82601 515.2593,749.18101 522.70805,752.29851 L 522.70805,714.19476 C 515.2593,717.31351 510.0268,724.66851 510.0268,733.24726"
         style="fill:#1c375d;fill-opacity:1;fill-rule:nonzero;stroke:none"
         id="path2514" />
      <path
         d="M 532.84955,720.81227 L 532.84955,731.04352 L 551.20455,731.04352 C 550.7983,727.22602 549.3533,723.71977 547.15455,720.81227 L 532.84955,720.81227 z"
         style="fill:#1c375d;fill-opacity:1;fill-rule:nonzero;stroke:none"
         id="path2518" />
      <path
         id="path2520"
         style="fill:#88a6c8;fill-opacity:1;fill-rule:nonzero;stroke:none"
         d="M 480.74755,768.36364 L 476.3088,768.36364 L 476.3088,795.69989 L 480.74755,795.69989 L 480.74755,768.36364 z" />
      <path
         id="path2522"
         style="fill:#88a6c8;fill-opacity:1;fill-rule:nonzero;stroke:none"
         d="M 480.74755,756.99614 L 476.3088,756.99614 L 476.3088,761.14239 L 480.74755,761.14239 L 480.74755,756.99614 z" />
      <path
         d="M 573.47355,768.36339 L 567.8698,790.39339 L 562.2673,768.36339 L 557.17355,768.36339 L 564.8698,795.69964 L 570.86855,795.69964 L 578.56605,768.36339 L 573.47355,768.36339 z"
         style="fill:#88a6c8;fill-opacity:1;fill-rule:nonzero;stroke:none"
         id="path2526" />
      <path
         d="M 497.4243,767.82389 C 494.27555,767.82389 492.1518,769.10139 490.72805,770.78139 L 490.72805,768.36389 L 486.2893,768.36389 L 486.2893,795.69889 L 490.72805,795.69889 L 490.72805,778.01764 C 490.72805,775.73889 492.0568,772.01264 496.30305,772.01264 C 499.77305,772.01264 501.1243,774.00764 501.1243,777.05764 L 501.1243,795.69889 L 505.5618,795.69889 L 505.5618,776.75389 C 505.5618,774.09639 504.9993,767.82389 497.4243,767.82389"
         style="fill:#88a6c8;fill-opacity:1;fill-rule:nonzero;stroke:none"
         id="path2530" />
      <path
         d="M 522.27605,767.82389 C 519.12605,767.82389 517.00355,769.10139 515.5798,770.78139 L 515.5798,768.36389 L 511.14105,768.36389 L 511.14105,795.69889 L 515.5798,795.69889 L 515.5798,778.01764 C 515.5798,775.73889 516.90855,772.01264 521.1548,772.01264 C 524.6248,772.01264 525.9748,774.00764 525.9748,777.05764 L 525.9748,795.69889 L 530.41355,795.69889 L 530.41355,776.75389 C 530.41355,774.09639 529.85105,767.82389 522.27605,767.82389"
         style="fill:#88a6c8;fill-opacity:1;fill-rule:nonzero;stroke:none"
         id="path2534" />
      <path
         d="M 470.28405,756.45701 C 462.25655,756.45701 462.14405,763.24701 462.14405,764.32701 L 462.14405,768.36326 L 457.7053,768.36326 L 457.7053,772.51076 L 462.14405,772.51076 L 462.14405,795.69951 L 466.5828,795.69951 L 466.5828,772.51076 L 472.63155,772.51076 L 472.63155,768.36326 L 466.5828,768.36326 L 466.5828,764.82451 C 466.5828,762.56951 467.3878,760.62951 470.41655,760.62951 C 470.9953,760.62951 471.7728,760.64951 472.63155,760.77326 L 472.63155,756.59701 C 471.92155,756.51326 470.93155,756.45701 470.28405,756.45701"
         style="fill:#88a6c8;fill-opacity:1;fill-rule:nonzero;stroke:none"
         id="path2538" />
      <path
         d="M 545.20067,767.82389 C 536.68692,767.82389 534.76567,774.91514 534.76567,782.03389 C 534.76567,789.15139 536.68692,796.24389 545.20067,796.24389 C 553.71567,796.24389 555.63567,789.15139 555.63567,782.03389 C 555.63567,774.91514 553.71567,767.82389 545.20067,767.82389 M 551.09067,782.03389 C 551.09067,787.50264 550.08817,792.05514 545.20067,792.05514 C 540.31192,792.05514 539.31067,787.50264 539.31067,782.03389 C 539.31067,776.56514 540.31192,772.01264 545.20067,772.01264 C 550.08817,772.01264 551.09067,776.56514 551.09067,782.03389"
         style="fill:#88a6c8;fill-opacity:1;fill-rule:nonzero;stroke:none"
         id="path2542" />
      <path
         d="M 594.76755,782.11426 C 593.4713,782.06676 592.4088,782.07551 591.57255,782.07551 C 585.9763,782.07551 584.06255,784.78676 584.06255,787.64551 C 584.06255,790.13051 585.4113,792.05426 588.8813,792.05426 C 592.67755,792.05426 594.76755,788.64801 594.76755,785.77176 L 594.76755,782.11426 z M 599.43755,795.69926 L 595.01505,795.69926 C 595.01505,795.69926 594.8638,794.45676 594.79755,793.24926 C 593.3738,794.94551 591.24255,796.24051 588.07255,796.24051 C 581.4138,796.24051 579.54755,790.98301 579.54755,787.54051 C 579.54755,785.10926 580.9663,778.44301 591.51755,778.44301 C 592.2488,778.44301 593.43505,778.45801 594.76755,778.50176 L 594.76755,777.21301 C 594.76755,774.16301 593.3438,772.01176 589.7913,772.01176 C 586.9613,772.01176 585.4363,773.38051 584.9338,775.48176 L 580.5688,775.48176 C 581.06755,772.18426 583.3638,767.82426 589.87005,767.82426 C 597.8038,767.82426 599.2063,773.63176 599.2063,776.91051 L 599.2063,791.79176 C 599.2063,793.17301 599.43755,795.69926 599.43755,795.69926"
         style="fill:#88a6c8;fill-opacity:1;fill-rule:nonzero;stroke:none"
         id="path2546" />
    </g>
  </g>
</svg>
