<svg width="120" height="120" viewBox="0 0 120 120" fill="none" xmlns="http://www.w3.org/2000/svg">
<path d="M94.9475 37.2138C93.6342 28.6064 86.3471 22 77.5781 22C74.2793 22 71.1094 22.9346 68.36 24.6778C64.1772 17.4794 56.6469 13 48.2812 13C35.358 13 24.8438 23.7666 24.8438 37C24.8438 37.082 24.8438 37.167 24.8467 37.249C16.541 38.6816 10 46.0966 10 55C10 64.9258 18.0803 73 27.7734 73H92.2266C101.92 73 110 64.9258 110 55C110 46.0206 103.353 38.5586 94.9475 37.2138Z" fill="#D1D5E0"/>
<circle cx="60" cy="63" r="20" fill="white"/>
<rect x="25" y="57" width="70" height="50" rx="3" fill="#4CC3FF"/>
<rect x="37" y="78" width="4" height="24" fill="white"/>
<rect x="51" y="78" width="4" height="24" fill="white"/>
<rect x="65" y="78" width="4" height="24" fill="white"/>
<rect x="79" y="78" width="4" height="24" fill="white"/>
<path fill-rule="evenodd" clip-rule="evenodd" d="M95 72.7771V60C95 58.3431 93.6569 57 92 57H28C26.3431 57 25 58.3431 25 60V72.7771C25.9053 72.9238 26.8318 73 27.7734 73H92.2266C93.1682 73 94.0947 72.9238 95 72.7771Z" fill="#000D1A"/>
</svg>
