<svg width="120" height="120" viewBox="0 0 120 120" fill="none" xmlns="http://www.w3.org/2000/svg">
<path d="M57 17C57 15.3431 58.3431 14 60 14C61.6569 14 63 15.3431 63 17V85H57V17Z" fill="#D1D5E0"/>
<circle cx="60" cy="35" r="9" fill="#4CC3FF"/>
<path d="M13.8369 66.5719L28 36.672L42.1631 66.5719C42.4774 67.2354 41.9935 68 41.2594 68H14.7406C14.0065 68 13.5226 67.2354 13.8369 66.5719Z" stroke="#D1D5E0" stroke-width="4"/>
<path d="M45.3914 74.3721C46.2286 71.5807 45.3528 68.6338 44.1053 66H11.8947C10.6472 68.6338 9.77138 71.5807 10.6086 74.3721C13.1225 82.7534 22.8078 85 28 85C33.1922 85 42.8775 82.7534 45.3914 74.3721Z" fill="#4CC3FF"/>
<path d="M77.8369 66.5719L92 36.672L106.163 66.5719C106.477 67.2354 105.994 68 105.259 68H78.7406C78.0065 68 77.5226 67.2354 77.8369 66.5719Z" stroke="#D1D5E0" stroke-width="4"/>
<path d="M109.391 74.3721C110.229 71.5807 109.353 68.6338 108.105 66H75.8947C74.6472 68.6338 73.7714 71.5807 74.6086 74.3721C77.1225 82.7534 86.8078 85 92 85C97.1922 85 106.877 82.7534 109.391 74.3721Z" fill="#4CC3FF"/>
<rect x="16" y="32" width="88" height="6" rx="3" fill="#D1D5E0"/>
<path fill-rule="evenodd" clip-rule="evenodd" d="M68.4879 38C68.8195 37.0617 69 36.0519 69 35C69 33.9481 68.8195 32.9383 68.4879 32H51.5121C51.1805 32.9383 51 33.9481 51 35C51 36.0519 51.1805 37.0617 51.5121 38H68.4879Z" fill="#000D1A"/>
<path d="M33 102C33 98.6863 35.6863 96 39 96H81C84.3137 96 87 98.6863 87 102V106H33V102Z" fill="#4CC3FF"/>
<path fill-rule="evenodd" clip-rule="evenodd" d="M46 96C46 92 51.4133 84 60 84C68.5867 84 74 92 74 96H60H46Z" fill="#000D1A"/>
</svg>
