<svg width="120" height="120" viewBox="0 0 120 120" fill="none" xmlns="http://www.w3.org/2000/svg">
<rect x="10" y="30" width="100" height="50" rx="5" fill="#4CC3FF"/>
<path d="M59.9998 64.186C55.3085 64.186 51.083 66.1801 48.1246 69.3669C46.5256 66.2887 43.3084 64.186 39.6 64.186C34.2981 64.186 30 68.4841 30 73.786V87.2204C30 87.8564 30.5156 88.3721 31.1517 88.3721H43.7998V90.2616C43.7998 91.2217 44.5781 92 45.5382 92H74.4614C75.4215 92 76.1998 91.2217 76.1998 90.2616V88.3721H88.8481C89.4842 88.3721 89.9998 87.8564 89.9998 87.2204V73.786C89.9998 68.4841 85.7017 64.186 80.3998 64.186C76.6914 64.186 73.4741 66.2888 71.8751 69.367C68.9167 66.1802 64.6911 64.186 59.9998 64.186Z" fill="#D1D5E0"/>
<path fill-rule="evenodd" clip-rule="evenodd" d="M89.9998 80H30V73.786C30 68.4841 34.2981 64.186 39.6 64.186C43.3084 64.186 46.5256 66.2887 48.1246 69.3669C51.083 66.1801 55.3085 64.186 59.9998 64.186C64.6911 64.186 68.9167 66.1802 71.8751 69.367C73.4741 66.2888 76.6914 64.186 80.3998 64.186C85.7017 64.186 89.9998 68.4841 89.9998 73.786V80Z" fill="#000D1A"/>
<rect x="80" y="106" width="20" height="4" fill="#D1D5E0"/>
<path d="M59.9998 60.5581C65.6331 60.5581 70.1998 55.956 70.1998 50.2791C70.1998 44.6021 65.6331 40 59.9998 40C54.3665 40 49.7998 44.6021 49.7998 50.2791C49.7998 55.956 54.3665 60.5581 59.9998 60.5581Z" fill="white"/>
<path d="M39.6 60.5582C43.2451 60.5582 46.2 57.5803 46.2 53.907C46.2 50.2337 43.2451 47.2558 39.6 47.2558C35.9549 47.2558 33 50.2337 33 53.907C33 57.5803 35.9549 60.5582 39.6 60.5582Z" fill="white"/>
<path d="M86.9998 53.907C86.9998 57.5803 84.0449 60.5582 80.3998 60.5582C76.7547 60.5582 73.7998 57.5803 73.7998 53.907C73.7998 50.2337 76.7547 47.2558 80.3998 47.2558C84.0449 47.2558 86.9998 50.2337 86.9998 53.907Z" fill="white"/>
</svg>
