<svg width="120" height="120" viewBox="0 0 120 120" fill="none" xmlns="http://www.w3.org/2000/svg">
<path d="M91.0268 67.0467L84.9592 62.4264C85.0362 61.7139 85.1022 60.881 85.1022 59.9997C85.1022 59.1185 85.039 58.2856 84.9592 57.5731L91.0323 52.9501C92.16 52.0823 92.4681 50.5422 91.7502 49.2593L85.4405 38.6286C84.7667 37.4287 83.2896 36.8126 81.7906 37.351L74.631 40.1499C73.2585 39.1857 71.82 38.3715 70.3319 37.7206L69.2427 30.3255C69.0639 28.922 67.8097 27.8613 66.3272 27.8613H53.6748C52.1923 27.8613 50.9408 28.922 50.7648 30.3041L49.6728 37.726C48.2315 38.3581 46.815 39.1616 45.382 40.1553L38.2031 37.3483C36.8581 36.8421 35.2491 37.4099 34.5807 38.6045L28.2628 49.2486C27.5174 50.4753 27.8254 52.0689 28.9779 52.9582L35.0455 57.5785C34.9493 58.4811 34.9025 59.2659 34.9025 60.0024C34.9025 60.739 34.9493 61.5238 35.0455 62.4291L28.9724 67.052C27.8447 67.9225 27.5394 69.4626 28.2573 70.7429L34.567 81.3736C35.2408 82.5708 36.7041 83.1922 38.2169 82.6512L45.3765 79.8522C46.7462 80.8138 48.1848 81.628 49.6728 82.2816L50.762 89.674C50.9408 91.0829 52.1923 92.1435 53.6776 92.1435H66.3299C67.8125 92.1435 69.0667 91.0829 69.2427 89.7008L70.3347 82.2816C71.776 81.6468 73.1897 80.8459 74.6255 79.8496L81.8043 82.6565C82.1509 82.7878 82.5112 82.8548 82.8825 82.8548C83.9497 82.8548 84.9317 82.2869 85.4268 81.403L91.764 70.7161C92.4681 69.4626 92.16 67.9225 91.0268 67.0467ZM60.001 70.7161C53.9334 70.7161 48.9989 65.911 48.9989 60.0024C48.9989 54.0938 53.9334 49.2887 60.001 49.2887C66.0686 49.2887 71.0031 54.0938 71.0031 60.0024C71.0031 65.911 66.0686 70.7161 60.001 70.7161Z" fill="#4CC3FF"/>
<path d="M104.996 60.0024C104.996 68.301 102.701 76.4379 98.3649 83.5136C94.0289 90.5892 87.8207 96.328 80.4267 100.096C73.0326 103.863 64.7407 105.512 56.4677 104.861C48.1948 104.21 40.263 101.284 33.5493 96.4062" stroke="#D1D5E0" stroke-width="4" stroke-linecap="round" stroke-linejoin="round"/>
<path d="M98.3118 65.4906L105.276 59.6471L111.119 66.6112" stroke="#D1D5E0" stroke-width="4" stroke-linecap="round" stroke-linejoin="round"/>
<path d="M15.0043 59.9976C15.0043 51.699 17.2991 43.5621 21.6351 36.4864C25.9711 29.4108 32.1793 23.672 39.5733 19.9045C46.9674 16.137 55.2593 14.4877 63.5323 15.1388C71.8052 15.7899 79.737 18.716 86.4507 23.5938" stroke="#D1D5E0" stroke-width="4" stroke-linecap="round" stroke-linejoin="round"/>
<path d="M21.6882 54.5094L14.7242 60.3529L8.88067 53.3888" stroke="#D1D5E0" stroke-width="4" stroke-linecap="round" stroke-linejoin="round"/>
<path fill-rule="evenodd" clip-rule="evenodd" d="M48.9989 60.0024C48.9989 65.911 53.9334 70.7161 60.001 70.7161C66.0686 70.7161 71.0031 65.911 71.0031 60.0024C71.0031 54.0938 66.0686 49.2887 60.001 49.2887C53.9334 49.2887 48.9989 54.0938 48.9989 60.0024ZM60 77C69.3888 77 77 69.3888 77 60C77 50.6112 69.3888 43 60 43C50.6112 43 43 50.6112 43 60C43 69.3888 50.6112 77 60 77Z" fill="#000D1A"/>
</svg>
