<svg width="120" height="120" viewBox="0 0 120 120" fill="none" xmlns="http://www.w3.org/2000/svg">
<path fill-rule="evenodd" clip-rule="evenodd" d="M106 27H26V87H20V93H26H100C103.314 93 106 90.3137 106 87V27Z" fill="#4CC3FF"/>
<rect x="37" y="59" width="23" height="23" rx="2" fill="white"/>
<circle cx="48.5" cy="70.5" r="6.5" fill="#D1D5E0"/>
<path d="M49.332 38.2842V50.7158H45.8648L41.1107 45.0683V50.7158H37V38.2842H40.4673L45.2214 43.9317V38.2842H49.332Z" fill="white"/>
<path d="M61.7662 47.5546V50.7158H51.3643V38.2842H61.5338V41.4454H55.5108V42.9016H60.801V45.9208H55.5108V47.5546H61.7662Z" fill="white"/>
<path d="M83.5722 38.2842L79.5687 50.7158H75.047L73.0274 44.0738L70.9006 50.7158H66.3788L62.3754 38.2842H66.7184L68.8988 45.3525L71.2044 38.2842H75.0827L77.2632 45.4413L79.5687 38.2842H83.5722Z" fill="white"/>
<path d="M89.1736 51C88.1369 51 87.1242 50.8875 86.1352 50.6626C85.1582 50.4258 84.3539 50.112 83.7224 49.7213L85.0807 46.6667C85.6765 47.01 86.3437 47.2883 87.0825 47.5014C87.8212 47.7026 88.5301 47.8033 89.2093 47.8033C89.7931 47.8033 90.2102 47.75 90.4604 47.6434C90.7106 47.525 90.8357 47.3534 90.8357 47.1284C90.8357 46.8679 90.6689 46.6726 90.3353 46.5423C90.0136 46.4121 89.4774 46.27 88.7267 46.1161C87.7616 45.9148 86.9574 45.7017 86.3139 45.4768C85.6705 45.24 85.1105 44.8611 84.6339 44.3402C84.1573 43.8074 83.919 43.0911 83.919 42.1913C83.919 41.4098 84.1395 40.6995 84.5803 40.0601C85.0212 39.4208 85.6765 38.9176 86.5463 38.5505C87.428 38.1835 88.4944 38 89.7455 38C90.6034 38 91.4434 38.0947 92.2655 38.2842C93.0996 38.4617 93.8323 38.7281 94.4638 39.0833L93.1949 42.1202C91.9676 41.5046 90.8059 41.1967 89.7097 41.1967C88.6255 41.1967 88.0833 41.4572 88.0833 41.9781C88.0833 42.2268 88.2442 42.4162 88.5659 42.5464C88.8876 42.6648 89.4178 42.7951 90.1565 42.9372C91.1097 43.1148 91.914 43.3219 92.5693 43.5587C93.2247 43.7837 93.7906 44.1566 94.2672 44.6776C94.7557 45.1985 95 45.9089 95 46.8087C95 47.5902 94.7796 48.3005 94.3387 48.9399C93.8979 49.5674 93.2366 50.0706 92.3549 50.4495C91.4851 50.8165 90.4246 51 89.1736 51Z" fill="white"/>
<path d="M14 38H26V87C26 90.3137 23.3137 93 20 93C16.6863 93 14 90.3137 14 87V38Z" fill="#000D1A"/>
<rect x="66" y="59" width="29" height="4" fill="white"/>
<rect x="66" y="67" width="16" height="4" fill="white"/>
</svg>
