<svg width="134" height="120" viewBox="0 0 134 120" fill="none" xmlns="http://www.w3.org/2000/svg">
<path d="M54 98.3542C50.5052 99.3517 46.815 99.8857 43 99.8857C20.9086 99.8857 3 81.9771 3 59.8857C3 43.2904 13.1063 29.0554 27.5 22.9997" stroke="#D1D5E0" stroke-width="4" stroke-linecap="round" stroke-linejoin="round"/>
<path d="M50.5002 92.4552L58.1612 97.5745L53.042 105.236" stroke="#D1D5E0" stroke-width="4" stroke-linecap="round" stroke-linejoin="round"/>
<path d="M80.4321 21.8813C83.9269 20.8838 87.6172 20.3498 91.4321 20.3498C113.524 20.3498 131.432 38.2584 131.432 60.3498C131.432 76.9451 121.326 91.1801 106.932 97.2358" stroke="#D1D5E0" stroke-width="4" stroke-linecap="round" stroke-linejoin="round"/>
<path d="M83.9319 27.7803L76.2709 22.661L81.3901 15" stroke="#D1D5E0" stroke-width="4" stroke-linecap="round" stroke-linejoin="round"/>
<circle cx="43" cy="60" r="30" fill="#4CC3FF"/>
<path d="M40.459 67C39.0437 67 37.7687 66.7067 36.6339 66.1202C35.4991 65.5209 34.6066 64.6922 33.9563 63.6339C33.3188 62.5628 33 61.3515 33 60C33 58.6485 33.3188 57.4435 33.9563 56.3852C34.6066 55.3142 35.4991 54.4854 36.6339 53.8989C37.7687 53.2996 39.0437 53 40.459 53C41.7596 53 42.9199 53.2295 43.9399 53.6885C44.9599 54.1475 45.8015 54.8106 46.4645 55.6776L43.6148 58.2213C42.786 57.1758 41.8106 56.653 40.6885 56.653C39.745 56.653 38.9863 56.959 38.4126 57.571C37.8388 58.1703 37.5519 58.98 37.5519 60C37.5519 61.02 37.8388 61.8361 38.4126 62.4481C38.9863 63.0474 39.745 63.347 40.6885 63.347C41.8106 63.347 42.786 62.8242 43.6148 61.7787L46.4645 64.3224C45.8015 65.1894 44.9599 65.8525 43.9399 66.3115C42.9199 66.7705 41.7596 67 40.459 67Z" fill="white"/>
<path d="M47.7677 53.306H52.2814V66.694H47.7677V53.306Z" fill="white"/>
<circle cx="93" cy="60" r="30" fill="#4CC3FF"/>
<path d="M86.459 67C85.0437 67 83.7687 66.7067 82.6339 66.1202C81.4991 65.5209 80.6066 64.6922 79.9563 63.6339C79.3188 62.5628 79 61.3515 79 60C79 58.6485 79.3188 57.4435 79.9563 56.3852C80.6066 55.3142 81.4991 54.4854 82.6339 53.8989C83.7687 53.2996 85.0437 53 86.459 53C87.7596 53 88.9199 53.2295 89.9399 53.6885C90.9599 54.1475 91.8015 54.8106 92.4645 55.6776L89.6148 58.2213C88.786 57.1758 87.8106 56.653 86.6885 56.653C85.745 56.653 84.9863 56.959 84.4126 57.571C83.8388 58.1703 83.5519 58.98 83.5519 60C83.5519 61.02 83.8388 61.8361 84.4126 62.4481C84.9863 63.0474 85.745 63.347 86.6885 63.347C87.8106 63.347 88.786 62.8242 89.6148 61.7787L92.4645 64.3224C91.8015 65.1894 90.9599 65.8525 89.9399 66.3115C88.9199 66.7705 87.7596 67 86.459 67Z" fill="white"/>
<path d="M93.7677 53.306H100.366C101.858 53.306 103.171 53.5801 104.306 54.1284C105.454 54.6639 106.34 55.4353 106.964 56.4426C107.602 57.4499 107.921 58.6357 107.921 60C107.921 61.3643 107.602 62.5501 106.964 63.5574C106.34 64.5647 105.454 65.3424 104.306 65.8907C103.171 66.4262 101.858 66.694 100.366 66.694H93.7677V53.306ZM100.175 63.1749C101.144 63.1749 101.915 62.9007 102.489 62.3525C103.076 61.7914 103.369 61.0073 103.369 60C103.369 58.9927 103.076 58.2149 102.489 57.6667C101.915 57.1056 101.144 56.8251 100.175 56.8251H98.2814V63.1749H100.175Z" fill="white"/>
<path d="M68 76.4748C71.1592 71.7233 73 66.0195 73 59.8858C73 53.7522 71.1592 48.0484 68 43.2969C64.8408 48.0484 63 53.7522 63 59.8858C63 66.0195 64.8408 71.7233 68 76.4748Z" fill="#000D1A"/>
</svg>
