<svg id="Layer_1" data-name="Layer 1" xmlns="http://www.w3.org/2000/svg" viewBox="0 0 1080 311.88"><defs><style>.cls-1{fill:#4081cb;}.cls-2{fill:#444;}</style></defs><path class="cls-1" d="M234,39.77c26.49-1.09,50.48,7.43,73.06,20.59,2.62,1.52,5.26,3,8,4.58.42-8.84,1.05-17.19,1.11-25.55,0-4.33-1.76-8.25-6-10.33-6-2.95-12-6-18.18-8.67C265.9,9.32,238.75,5,210.8,10.39c-25.8,4.95-49.89,15-72.62,28.07V75.54C149.36,69.18,160.59,62.92,172,57,191.28,47,212.09,40.67,234,39.77Zm101,166.67a376.72,376.72,0,0,1-42,20.61c-28.63,12-58.24,16.38-88.29,5.85-14.3-5-27.91-12-42.18-18.28,0,8.47.16,17.61-.08,26.74-.1,3.66,1.24,5.85,4.44,7.26,1.82.81,3.53,1.89,5.33,2.74C199.17,264,226.55,274,257.18,269.5c26.74-3.9,52.06-12.15,75.36-25.55,2.24-1.28,4.45-2.61,6.69-3.9V204C337.83,204.8,336.45,205.63,335.05,206.44Z"/><path class="cls-1" d="M239.13,50.57c46.58-.85,85,37.31,86.19,83.66a86.24,86.24,0,1,1-172.43,2.89C152.88,86.92,193.41,49.9,239.13,50.57Z"/><path class="cls-2" d="M135.88,197.92q-40.14-22.36-80.1-45c-8.12-4.59-16.16-9.3-24.93-14.36,2.41-1.62,4-2.8,5.68-3.79,21.89-12.85,43.72-25.8,65.72-38.46,12-6.89,23.92-13.87,35.93-20.72h0V38.46c-.37.21-.76.39-1.14.61C105.85,57.21,74.85,75.67,43.76,94,29.26,102.53,14.75,111,0,119.7v36l141.88,82.62c0-10.71-.25-20.34.1-29.95C142.16,203.27,140.22,200.33,135.88,197.92Z"/><path class="cls-2" d="M478.45,129.79c.42-5.8-1.94-8.73-6.7-11.48q-63.35-36.59-126.5-73.53c-2.56-1.49-5.24-2.76-8.92-4.69,0,11.06.2,20.89-.09,30.71-.13,4.28,1.57,6.69,5.13,8.69,23.25,13,46.42,26.2,69.62,39.32l36.8,20.81c-2.26,1.46-3.87,2.56-5.55,3.56C407.93,163.5,373.75,184,339.23,204v36.06c45.2-26.08,90-52.8,135.08-79.16,2.92-1.71,4.08-3.68,4-6.94C478.22,145.9,477.88,137.81,478.45,129.79Z"/><path class="cls-2" d="M1045.12,84c.26-2.41.43-3.23.42-4-.17-22.16-.21-44.32-.61-66.47-.2-11-.34-11.14,10.35-11.14,6,0,12.09.15,18.13-.06,3.7-.12,5.21,1,5.2,5q-.16,64,0,128c0,3.61-1.19,4.89-4.69,4.84-7.68-.11-15.39.23-23.06-.15a9.53,9.53,0,0,1-6.36-3.25C1026.15,112.58,1008,88.26,989.79,64c-.93-1.24-2.11-2.29-4.38-4.73,0,6,0,10.45,0,14.88q.14,28.85.27,57.68c0,8.58-.06,8.48-8.45,8.22-6.58-.2-13.18-.08-19.77.1-3.82.1-5.46-1-5.45-5.31q.22-63.47,0-126.92c0-4.43,1.42-5.8,5.71-5.62,6.95.27,13.94-.28,20.86.25a11.71,11.71,0,0,1,7.63,3.84c17.45,22.78,34.61,45.79,51.86,68.71C1040.07,77.74,1042.18,80.3,1045.12,84Z"/><path class="cls-2" d="M924.93,139.89h-34.4c0-13.68.05-27,0-40.28-.06-11.22,2.37-12.66-12.07-12.34-12.25.27-24.52,0-36.77,0a45.06,45.06,0,0,0-6.12.84c0,15.42-.2,30.42.11,45.4.1,5.09-1.55,6.84-6.57,6.66-8.22-.29-16.47-.13-24.7-.06-3.61,0-5.2-1.28-5.19-5.19q.16-63.45,0-126.89c0-4.3,1.61-5.86,5.86-5.74,8,.21,16.12.28,24.16,0,4.77-.18,6.48,1.44,6.4,6.29-.23,14.64.06,29.3-.17,43.94-.07,4.38,1,6.12,5.75,6,14.64-.3,29.3-.24,43.94,0,4.14.06,5.46-1.45,5.42-5.41-.15-15,0-30-.19-45,0-4.19,1.07-6,5.58-5.79,8.41.31,16.84.15,25.26.06,2.82,0,4.52.65,4.52,3.94q-.15,66.18-.18,132.38C925.57,138.8,925.42,139,924.93,139.89Z"/><path class="cls-2" d="M677.32,92.6c8.31,4.77,15.92,9.74,24,13.63,9.2,4.4,19.07,6.89,29.48,6.08a14.51,14.51,0,0,0,3.26-.26c4.78-1.59,9.3-3.74,10.11-9.41.78-5.46-2.48-9.36-6.88-11.35a182.17,182.17,0,0,0-20.85-7.51c-10.71-3.37-21.57-6.24-30.83-13.06-19.73-14.52-17.1-49.8,6.61-62.81C707.15-.26,723-1,739.36.85a111.66,111.66,0,0,1,37.17,11.3c4.4,2.18,4.78,4.66,2.77,8.65-3,6-5.95,12-8.53,18.24-1.64,3.94-3.4,4.51-7.47,2.85-10.51-4.27-21.2-8.17-32-11.57a21,21,0,0,0-11.91-.16c-3.39,1.08-7.17,3.93-8.74,7-2,3.84.42,8.1,4.31,10.1A161.13,161.13,0,0,0,732.73,55c7.78,2.87,15.82,5,23.59,7.93,28.21,10.53,31,41.05,19.09,58.71-7.74,11.49-19.44,16.8-32.44,19.13-27.08,4.84-51.73-1.84-74.37-16.93-3.51-2.33-4.61-5-2.34-9.15C670.26,107.41,673.74,99.84,677.32,92.6Z"/><path class="cls-2" d="M518.54,2.36h18.1c4.94,0,9.9.16,14.83,0,3.88-.17,5.85,1.39,7.11,5.11,9.76,28.92,19.69,57.79,29.58,86.67.64,1.85,1.4,3.65,2.58,6.7,4.15-11.79,8-22.45,11.66-33.17,6.69-19.47,13.42-38.92,19.82-58.48C623.91,4,626.48,2,632,2.23c9.3.47,18.63.13,28.8.13a36.54,36.54,0,0,1-1.08,4.86q-24.74,64-49.46,128c-1.43,3.72-3.46,5.07-7.27,5-9-.16-17.94-.11-26.91,0-3.47,0-5.57-1.09-6.94-4.69Q544.73,71.35,520,7.39C519.48,6.11,519.21,4.75,518.54,2.36Z"/><path class="cls-1" d="M616.81,280.2,603.9,251.28H543.57L530.82,280.2H519.31l49-108.69h11.2l49,108.69Zm-69-38.56H599.7l-26.12-58.78Z"/><path class="cls-1" d="M630.82,281.72h-15L602.92,252.8H544.56l-12.75,28.92H517L567.31,170h13.16Zm-13-3h8.33L578.51,173h-9.24L521.66,278.68h8.17l12.75-28.92h62.3ZM602,243.15H545.45l28.12-64Zm-51.95-3h47.28l-23.78-53.51Z"/><path class="cls-1" d="M705.36,203.62a36.07,36.07,0,0,1,13.92,14.62,45.11,45.11,0,0,1,5,21.38,44.28,44.28,0,0,1-5,21.14,36.31,36.31,0,0,1-13.84,14.54,39.09,39.09,0,0,1-20.22,5.21,37.25,37.25,0,0,1-19.59-5.05,34.6,34.6,0,0,1-13.06-14.07v49H642.15V198.72h10.42v18.82a33.4,33.4,0,0,1,13-14.08,37.47,37.47,0,0,1,19.52-5.05A39.6,39.6,0,0,1,705.36,203.62Zm-6.45,63.75a28.46,28.46,0,0,0,10.88-11.43,37.19,37.19,0,0,0,0-33.12,28.5,28.5,0,0,0-10.88-11.42,32.08,32.08,0,0,0-31.49,0,29.28,29.28,0,0,0-10.89,11.42,34.07,34.07,0,0,0-4,16.49,34.75,34.75,0,0,0,3.89,16.63,28.46,28.46,0,0,0,10.88,11.43,32.3,32.3,0,0,0,31.57,0Z"/><path class="cls-1" d="M654.09,311.88H640.64V197.21h13.45V212a34.61,34.61,0,0,1,10.69-9.88,39.07,39.07,0,0,1,20.29-5.26,41.26,41.26,0,0,1,21,5.41h0a37.72,37.72,0,0,1,14.5,15.22,46.83,46.83,0,0,1,5.15,22.09,46,46,0,0,1-5.16,21.86,38,38,0,0,1-14.4,15.13,40.79,40.79,0,0,1-21,5.42,39,39,0,0,1-20.37-5.27,35.7,35.7,0,0,1-10.76-10Zm-10.42-3h7.38v-53.7l2.87,5.54a33.24,33.24,0,0,0,12.49,13.47A35.92,35.92,0,0,0,685.22,279a37.92,37.92,0,0,0,19.45-5,35.11,35.11,0,0,0,13.27-13.95,43,43,0,0,0,4.8-20.43,43.77,43.77,0,0,0-4.8-20.67,34.74,34.74,0,0,0-13.34-14,38.25,38.25,0,0,0-19.53-5,36.07,36.07,0,0,0-18.74,4.84,32,32,0,0,0-12.4,13.45L651.05,224V200.24h-7.38ZM683.2,273a32.32,32.32,0,0,1-16.63-4.33,30.12,30.12,0,0,1-11.45-12,36.51,36.51,0,0,1-4.07-17.35,35.67,35.67,0,0,1,4.15-17.21,31,31,0,0,1,11.44-12,33.66,33.66,0,0,1,33,0,30.15,30.15,0,0,1,11.46,12,38.7,38.7,0,0,1,0,34.55,30.21,30.21,0,0,1-11.46,12A32,32,0,0,1,683.2,273Zm0-64.22a28.9,28.9,0,0,0-15,3.91,27.81,27.81,0,0,0-10.33,10.85,32.64,32.64,0,0,0-3.78,15.76,33.4,33.4,0,0,0,3.71,15.92,27.12,27.12,0,0,0,10.31,10.84,30.78,30.78,0,0,0,30,0h0a27.16,27.16,0,0,0,10.31-10.83,35.71,35.71,0,0,0,0-31.7,27.29,27.29,0,0,0-10.31-10.83A29.09,29.09,0,0,0,683.2,208.79Z"/><path class="cls-1" d="M807.21,203.62a36,36,0,0,1,13.91,14.62,45,45,0,0,1,5,21.38,44.17,44.17,0,0,1-5,21.14,36.31,36.31,0,0,1-13.84,14.54,39,39,0,0,1-20.21,5.21,37.23,37.23,0,0,1-19.59-5.05,34.6,34.6,0,0,1-13.06-14.07v49H744V198.72h10.42v18.82a33.4,33.4,0,0,1,13-14.08,37.43,37.43,0,0,1,19.51-5.05A39.63,39.63,0,0,1,807.21,203.62Zm-6.46,63.75a28.48,28.48,0,0,0,10.89-11.43,37.19,37.19,0,0,0,0-33.12,28.52,28.52,0,0,0-10.89-11.42,32.06,32.06,0,0,0-31.48,0,29.21,29.21,0,0,0-10.89,11.42,34.07,34.07,0,0,0-4,16.49,34.86,34.86,0,0,0,3.88,16.63,28.42,28.42,0,0,0,10.89,11.43,32.28,32.28,0,0,0,31.56,0Z"/><path class="cls-1" d="M755.93,311.88H742.48V197.21h13.45V212a34.84,34.84,0,0,1,10.69-9.88,39.1,39.1,0,0,1,20.29-5.26A41.27,41.27,0,0,1,808,202.31h0a37.63,37.63,0,0,1,14.49,15.22,46.72,46.72,0,0,1,5.16,22.09,46,46,0,0,1-5.16,21.86,38,38,0,0,1-14.41,15.13,40.73,40.73,0,0,1-21,5.42,38.94,38.94,0,0,1-20.37-5.27,35.73,35.73,0,0,1-10.77-10Zm-10.41-3h7.38v-53.7l2.86,5.54a33.26,33.26,0,0,0,12.5,13.47A35.92,35.92,0,0,0,787.07,279a37.92,37.92,0,0,0,19.45-5,35.11,35.11,0,0,0,13.27-13.95,43,43,0,0,0,4.79-20.43,43.65,43.65,0,0,0-4.8-20.67,34.67,34.67,0,0,0-13.34-14,38.25,38.25,0,0,0-19.53-5,36,36,0,0,0-18.73,4.84,32,32,0,0,0-12.41,13.45L752.9,224V200.24h-7.38ZM785.05,273a32.32,32.32,0,0,1-16.63-4.33,30.06,30.06,0,0,1-11.45-12,36.51,36.51,0,0,1-4.07-17.35,35.67,35.67,0,0,1,4.15-17.21,30.9,30.9,0,0,1,11.44-12,33.66,33.66,0,0,1,33,0,30.21,30.21,0,0,1,11.46,12,38.78,38.78,0,0,1,0,34.55,30.21,30.21,0,0,1-11.46,12A32,32,0,0,1,785.05,273Zm0-64.22a29,29,0,0,0-15,3.91,27.89,27.89,0,0,0-10.33,10.85,32.64,32.64,0,0,0-3.78,15.76,33.52,33.52,0,0,0,3.71,15.92A27.21,27.21,0,0,0,770,266.07,29.33,29.33,0,0,0,785.05,270,29,29,0,0,0,800,266.07h0a27.12,27.12,0,0,0,10.32-10.83,35.71,35.71,0,0,0,0-31.7A27.25,27.25,0,0,0,800,212.7,29,29,0,0,0,785.05,208.79Z"/><path class="cls-1" d="M910.84,183.64A46.41,46.41,0,0,0,870,186.13a45.08,45.08,0,0,0-16.63,16.56,45.69,45.69,0,0,0,0,45.79A45.84,45.84,0,0,0,870,265a44.86,44.86,0,0,0,23.09,6.14,45.86,45.86,0,0,0,17.57-3.5A50,50,0,0,0,925.92,258l6.53,7A62.58,62.58,0,0,1,914,276.78a54.84,54.84,0,0,1-21.3,4.35,56.23,56.23,0,0,1-48.75-27.67,53.68,53.68,0,0,1-7.54-27.84A52.49,52.49,0,0,1,844,197.94a57.42,57.42,0,0,1,70.28-23.24,57.35,57.35,0,0,1,18,11.43l-6.38,7.46A47.82,47.82,0,0,0,910.84,183.64Z"/><path class="cls-1" d="M892.65,282.65a57.76,57.76,0,0,1-50-28.42,55.36,55.36,0,0,1-7.76-28.61,54.2,54.2,0,0,1,7.84-28.46,58.92,58.92,0,0,1,72.14-23.87A59,59,0,0,1,933.34,185l1,1-8.37,9.8-1.16-1.13a46.29,46.29,0,0,0-14.6-9.64h0a44.28,44.28,0,0,0-55.57,18.41,43.39,43.39,0,0,0-5.93,22.17,42.92,42.92,0,0,0,5.93,22.09,44.55,44.55,0,0,0,16.1,16,43.52,43.52,0,0,0,22.32,5.94,44.64,44.64,0,0,0,17-3.39,48.56,48.56,0,0,0,14.78-9.42l1.11-1,8.6,9.22-1.12,1a64.59,64.59,0,0,1-19,12.1A56.45,56.45,0,0,1,892.65,282.65ZM893,172.09a55.42,55.42,0,0,0-47.69,26.64,51.19,51.19,0,0,0-7.39,26.89,52.41,52.41,0,0,0,7.32,27.06,54.73,54.73,0,0,0,47.45,26.94,53.48,53.48,0,0,0,20.71-4.24,61.57,61.57,0,0,0,16.93-10.51l-4.46-4.78a51.86,51.86,0,0,1-14.57,9,47.85,47.85,0,0,1-18.15,3.61,46.57,46.57,0,0,1-23.85-6.35,47.65,47.65,0,0,1-17.18-17.1,47.27,47.27,0,0,1,0-47.33,47.59,47.59,0,0,1,59.34-19.68h0a49.59,49.59,0,0,1,14.38,9.15l4.39-5.13A56.41,56.41,0,0,0,893,172.09Z"/><path class="cls-1" d="M1002.11,280.2l-.15-13.68a29.58,29.58,0,0,1-12.6,10.65,43.18,43.18,0,0,1-17.88,3.5,31.7,31.7,0,0,1-14.54-3.19A23.24,23.24,0,0,1,943.8,256.1q0-10.58,8.17-16.64t22.47-6.06h27.36v-6.22q0-9.65-5.75-14.93T979.25,207q-13.05,0-26.27,9.8l-4.67-7.15A69.24,69.24,0,0,1,964,201.13a49.81,49.81,0,0,1,17.1-2.72q14.77,0,22.86,7.39t8.24,20.45l.15,53.95Zm-10.34-13.29A24.81,24.81,0,0,0,1002,252.68v-11.2H975.68q-10.73,0-16.33,3.58t-5.6,10.73a14.47,14.47,0,0,0,5.37,11.74q5.36,4.43,14.23,4.43Q984.23,272,991.77,266.91Z"/><path class="cls-1" d="M971.48,282.18a33.3,33.3,0,0,1-15.22-3.35,24.71,24.71,0,0,1-14-22.73c0-7.52,3-13.53,8.77-17.86s13.55-6.36,23.38-6.36h25.84v-4.7c0-6-1.72-10.56-5.26-13.81s-8.83-4.89-15.77-4.89c-8.33,0-16.87,3.2-25.37,9.5l-1.29,1-6.35-9.74,1.2-.84a71.2,71.2,0,0,1,16.06-8.65,51.42,51.42,0,0,1,17.62-2.81c10.19,0,18.22,2.61,23.88,7.78s8.63,12.45,8.74,21.55l.16,55.49h-13.29l-.12-10.84A31,31,0,0,1,990,278.55,44.84,44.84,0,0,1,971.48,282.18Zm3-47.27c-9.16,0-16.42,1.94-21.57,5.77s-7.55,8.82-7.55,15.42a21.74,21.74,0,0,0,12.31,20,30.47,30.47,0,0,0,13.85,3,41.92,41.92,0,0,0,17.26-3.36,28.22,28.22,0,0,0,12-10.12l2.72-4,.19,17h7.24l-.15-52.43c-.09-8.22-2.7-14.73-7.74-19.33s-12.43-7-21.84-7a48.4,48.4,0,0,0-16.58,2.63A66.19,66.19,0,0,0,950.39,210l3,4.58c8.61-6.07,17.31-9.15,25.87-9.15,7.72,0,13.72,1.91,17.82,5.68s6.25,9.21,6.25,16.05v7.73Zm-1.09,38.57c-6.25,0-11.36-1.61-15.2-4.78a16,16,0,0,1-5.91-12.91c0-5.3,2.12-9.34,6.29-12,4-2.53,9.74-3.81,17.15-3.81h27.79l-.06,13.13a26.39,26.39,0,0,1-10.79,15.07h0C987.36,271.69,980.87,273.48,973.35,273.48ZM975.68,243c-6.82,0-12,1.12-15.51,3.34-3.3,2.1-4.9,5.2-4.9,9.45a12.91,12.91,0,0,0,4.81,10.57c3.28,2.71,7.75,4.08,13.27,4.08,6.91,0,12.83-1.61,17.58-4.79h0a23.39,23.39,0,0,0,9.51-13.19V243Z"/><path class="cls-1" d="M1078.15,274.6a33.28,33.28,0,0,1-18,6.07q-9.33,0-14.77-5.76t-5.44-17.26V209.14h-11.66l-.16-8.09h11.82v-21h10.42v21l26.43-.15v8.24h-26.43v46.8q0,15.09,11.19,15.09,6.23,0,13.53-4.36Z"/><path class="cls-1" d="M1060.16,282.18c-6.68,0-12-2.09-15.92-6.22s-5.86-10.27-5.86-18.31v-47h-11.63l-.22-11.12h11.85v-21h13.45v21l26.43-.16v11.29h-26.43v45.28c0,12.16,5.53,13.57,9.68,13.57,3.85,0,8.14-1.39,12.75-4.14l1.54-.91,4.2,10.71-1,.68a34.8,34.8,0,0,1-18.84,6.33Zm-30.44-74.56h11.69v50c0,7.24,1.69,12.7,5,16.22s7.83,5.28,13.67,5.28a31.59,31.59,0,0,0,16.18-5.14l-2-5.15a27.14,27.14,0,0,1-12.76,3.68c-5.8,0-12.71-2.88-12.71-16.6V207.62h26.43v-5.2l-26.43.16v-21h-7.39v21h-11.78Z"/></svg>