<svg width="76" height="73" viewBox="0 0 76 73" fill="none" xmlns="http://www.w3.org/2000/svg">
<path d="M69.3514 16.2356C68.9169 14.8538 67.874 13.7312 66.5703 13.0403L40.063 0.431798C39.3677 0.0863596 38.5855 0 37.8902 0C37.195 0 36.4128 0 35.7175 0.172719L9.21016 12.8676C7.90652 13.4721 6.95052 14.5948 6.60288 16.0629L0.0846809 44.4752C-0.176047 45.9433 0.17159 47.4114 1.04068 48.6204L19.3786 71.1603C20.4215 72.1966 21.8989 72.8875 23.3764 72.9738H52.5779C54.1423 73.1465 55.6198 72.4557 56.5758 71.1603L74.9136 48.6204C75.7827 47.4114 76.1304 45.9433 75.9565 44.4752L69.3514 16.2356Z" fill="#326DE6"/>
<path d="M65.1554 43.0445C65.069 43.0445 64.9826 43.0445 64.9826 42.959C64.9826 42.8734 64.8097 42.8734 64.6368 42.8734C64.2911 42.7878 63.9454 42.7878 63.5996 42.7878C63.4267 42.7878 63.2539 42.7878 63.081 42.7023H62.9946C62.0438 42.6167 61.0066 42.4455 60.0558 42.1888C59.7965 42.1033 59.5372 41.8466 59.4507 41.5899C59.5372 41.5899 59.4507 41.5899 59.4507 41.5899L58.7593 41.4187C59.105 38.9372 58.9321 36.3702 58.4135 33.8887C57.8085 31.4072 56.7713 29.0113 55.3883 26.8721L55.9069 26.3586V26.2731C55.9069 26.0164 55.9933 25.6741 56.1662 25.503C56.9441 24.8184 57.722 24.305 58.5864 23.7916C58.7593 23.706 58.9321 23.6204 59.105 23.5349C59.4507 23.3637 59.71 23.1926 60.0558 23.0215C60.1422 22.9359 60.2287 22.9359 60.3151 22.8503C60.4015 22.7648 60.3151 22.7648 60.3151 22.6792C61.093 22.0802 61.2659 21.0534 60.6608 20.2833C60.4015 19.941 59.8829 19.6843 59.4507 19.6843C59.0186 19.6843 58.5864 19.8554 58.2407 20.1121L58.1542 20.1977C58.0678 20.2833 57.9813 20.3688 57.8949 20.3688C57.6356 20.6255 57.3763 20.8822 57.2034 21.139C57.117 21.3101 56.9441 21.3957 56.8577 21.4812C56.2526 22.1658 55.4747 22.8503 54.6968 23.3637C54.5239 23.4493 54.3511 23.5349 54.1782 23.5349C54.0918 23.5349 53.9189 23.5349 53.8325 23.4493H53.746L53.0546 23.8772C52.3631 23.1926 51.5852 22.5081 50.8937 21.8235C47.6956 19.342 43.7196 17.8018 39.6571 17.3739L39.5707 16.6894V16.775C39.3114 16.6038 39.225 16.3471 39.1385 16.0904C39.1385 15.1491 39.1385 14.2079 39.3114 13.1811V13.0955C39.3114 12.9244 39.3978 12.7532 39.3978 12.5821C39.4843 12.2398 39.4843 11.8975 39.5707 11.5553V11.0419C39.6571 10.1862 38.9657 9.33048 38.1013 9.24491C37.5827 9.15934 37.0641 9.41605 36.6319 9.84389C36.2862 10.1862 36.1133 10.614 36.1133 11.0419V11.4697C36.1133 11.812 36.1998 12.1542 36.2862 12.4965C36.3726 12.6677 36.3726 12.8388 36.3726 13.0099V13.0955C36.5455 14.0368 36.5455 14.978 36.5455 16.0048C36.4591 16.2615 36.3726 16.5182 36.1133 16.6894V16.8605L36.0269 17.5451C35.0761 17.6306 34.1253 17.8018 33.0881 17.9729C29.0257 18.8286 25.309 20.9678 22.4566 23.9627L21.938 23.6204H21.8516C21.7651 23.6204 21.6787 23.706 21.5058 23.706C21.3329 23.706 21.1601 23.6204 20.9872 23.5349C20.2093 22.9359 19.4314 22.2513 18.8263 21.5668C18.7399 21.3957 18.567 21.3101 18.4806 21.2245C18.2213 20.9678 18.0484 20.7111 17.7891 20.4544C17.7027 20.3688 17.6162 20.3688 17.5298 20.2833C17.4434 20.1977 17.4434 20.1977 17.4434 20.1977C17.0976 19.941 16.6655 19.7699 16.2333 19.7699C15.7147 19.7699 15.2825 19.941 15.0232 20.3688C14.5046 21.139 14.6775 22.1658 15.3689 22.7648C15.4554 22.7648 15.4554 22.8503 15.4554 22.8503C15.4554 22.8503 15.6282 23.0215 15.7147 23.0215C15.974 23.1926 16.3197 23.3637 16.6655 23.5349C16.8383 23.6204 17.0112 23.706 17.1841 23.7916C18.0484 24.305 18.9128 24.8184 19.6042 25.503C19.7771 25.6741 19.95 26.0164 19.8636 26.2731V26.1875L20.3822 26.7009C20.2957 26.8721 20.2093 26.9576 20.1229 27.1288C17.4434 31.3216 16.3197 36.2846 17.0976 41.162L16.4062 41.3332C16.4062 41.4187 16.3197 41.4187 16.3197 41.4187C16.2333 41.6754 15.974 41.8466 15.7147 42.0177C14.7639 42.2744 13.8131 42.4455 12.7759 42.5311C12.603 42.5311 12.4302 42.5311 12.2573 42.6167C11.9115 42.6167 11.5658 42.7023 11.2201 42.7023C11.1336 42.7023 11.0472 42.7878 10.8743 42.7878C10.7879 42.7878 10.7879 42.7878 10.7015 42.8734C9.75067 43.0445 9.14563 43.9002 9.3185 44.8415C9.49137 45.6116 10.2693 46.125 11.0472 46.0394C11.2201 46.0394 11.3065 46.0394 11.4794 45.9539C11.5658 45.9539 11.5658 45.9539 11.5658 45.8683C11.5658 45.7827 11.8251 45.8683 11.9115 45.8683C12.2573 45.7827 12.603 45.6116 12.8623 45.526C13.0352 45.4404 13.2081 45.3549 13.3809 45.3549H13.4674C14.4182 45.0126 15.2825 44.7559 16.3197 44.5848H16.4062C16.6655 44.5848 16.9248 44.6703 17.0976 44.8415C17.1841 44.8415 17.1841 44.927 17.1841 44.927L17.962 44.8415C19.2585 48.7776 21.6787 52.2859 25.0496 54.853C25.8276 55.452 26.519 55.9654 27.3834 56.3932L26.9512 56.9922C26.9512 57.0778 27.0377 57.0778 27.0377 57.0778C27.2105 57.3345 27.2105 57.6768 27.1241 57.9335C26.7783 58.7892 26.2597 59.6448 25.7411 60.415V60.5005C25.6547 60.6717 25.5683 60.7572 25.3954 60.9284C25.2225 61.0995 25.0496 61.4418 24.7903 61.7841C24.7039 61.8696 24.7039 61.9552 24.6175 62.0408C24.6175 62.0408 24.6175 62.1263 24.531 62.1263C24.0989 62.982 24.4446 64.0088 25.2225 64.4367C25.3954 64.5223 25.6547 64.6078 25.8276 64.6078C26.519 64.6078 27.1241 64.18 27.4698 63.581C27.4698 63.581 27.4698 63.4954 27.5563 63.4954C27.5563 63.4099 27.6427 63.3243 27.7291 63.2387C27.8156 62.8965 27.9884 62.6397 28.0749 62.2975L28.2477 61.7841C28.507 60.8428 28.9392 59.9871 29.3714 59.1314C29.5443 58.8747 29.8036 58.7036 30.0629 58.618C30.1493 58.618 30.1493 58.618 30.1493 58.5325L30.495 57.8479C32.9152 58.7892 35.4218 59.217 38.0149 59.217C39.5707 59.217 41.1265 59.0459 42.6824 58.618C43.6332 58.4469 44.5839 58.1046 45.4483 57.8479L45.794 58.4469C45.8805 58.4469 45.8805 58.4469 45.8805 58.5325C46.1398 58.618 46.3991 58.7892 46.5719 59.0459C47.0041 59.9016 47.4363 60.7572 47.6956 61.6985V61.7841L47.8685 62.2975C47.9549 62.6397 48.0413 62.982 48.2142 63.2387C48.3006 63.3243 48.3006 63.4099 48.3871 63.4954C48.3871 63.4954 48.3871 63.581 48.4735 63.581C48.8192 64.18 49.4243 64.6078 50.1158 64.6078C50.3751 64.6078 50.5479 64.5223 50.8073 64.4367C51.153 64.2656 51.4987 63.9233 51.5852 63.4954C51.6716 63.0676 51.6716 62.6398 51.4987 62.2119C51.4987 62.1263 51.4123 62.1263 51.4123 62.1263C51.4123 62.0408 51.3259 61.9552 51.2394 61.8696C51.0666 61.5274 50.8937 61.2706 50.6344 61.0139C50.5479 60.8428 50.4615 60.7572 50.2886 60.5861V60.415C49.6836 59.6448 49.2514 58.7892 48.9057 57.9335C48.8192 57.6768 48.8192 57.3345 48.9921 57.0778C48.9921 56.9922 49.0786 56.9922 49.0786 56.9922L48.8192 56.3077C53.2274 53.655 56.5984 49.5477 58.1542 44.6703L58.8457 44.7559C58.9321 44.7559 58.9321 44.6703 58.9321 44.6703C59.105 44.4992 59.3643 44.4136 59.6236 44.4136H59.71C60.6608 44.5848 61.6116 44.8415 62.476 45.1837H62.5624C62.7353 45.2693 62.9081 45.3549 63.081 45.3549C63.4267 45.526 63.6861 45.6972 64.0318 45.7827C64.1182 45.7827 64.2047 45.8683 64.3775 45.8683C64.464 45.8683 64.464 45.8683 64.5504 45.9539C64.7233 46.0394 64.8097 46.0394 64.9826 46.0394C65.7605 46.0394 66.452 45.526 66.7113 44.8415C66.6248 43.9002 65.9334 43.2157 65.1554 43.0445ZM40.1758 40.3919L37.842 41.5043L35.5083 40.3919L34.9032 37.9104L36.5455 35.8568H39.1385L40.7808 37.9104L40.1758 40.3919ZM54.2646 34.8299C54.6968 36.6269 54.7833 38.4238 54.6104 40.2208L46.3991 37.9104C45.6212 37.7393 45.189 36.9692 45.3619 36.199C45.4483 35.9423 45.5347 35.7712 45.7076 35.6001L52.1902 29.7814C53.141 31.3216 53.8325 33.033 54.2646 34.8299ZM49.5972 26.6153L42.5095 31.5783C41.9045 31.9206 41.0401 31.835 40.6079 31.2361C40.4351 31.0649 40.3486 30.8938 40.3486 30.6371L39.83 21.9946C43.6332 22.4225 47.0041 24.0483 49.5972 26.6153ZM33.9524 22.2513L35.6811 21.9091L35.249 30.4659C35.249 31.2361 34.5575 31.835 33.7796 31.835C33.5203 31.835 33.3474 31.7495 33.0881 31.6639L25.914 26.6153C28.1613 24.4761 30.9272 22.9359 33.9524 22.2513ZM23.4074 29.7814L29.8036 35.4289C30.4086 35.9423 30.495 36.798 29.9764 37.397C29.8036 37.6537 29.6307 37.7393 29.285 37.8248L20.9008 40.2208C20.6415 36.6269 21.5058 32.9474 23.4074 29.7814ZM21.938 44.2425L30.495 42.7878C31.1865 42.7878 31.878 43.2157 31.9644 43.9002C32.0509 44.1569 32.0509 44.4992 31.878 44.7559L28.5935 52.6282C25.5683 50.6601 23.1481 47.6652 21.938 44.2425ZM41.5587 54.853C40.3486 55.1097 39.1385 55.2808 37.842 55.2808C36.0269 55.2808 34.1253 54.9386 32.3966 54.4252L36.6319 46.8095C37.0641 46.2961 37.7556 46.125 38.3606 46.4673C38.6199 46.6384 38.7928 46.8096 39.0521 47.0663L43.201 54.5107C42.6824 54.5963 42.1638 54.6819 41.5587 54.853ZM52.1038 47.4085C50.8073 49.4622 48.9921 51.2591 46.9177 52.5426L43.5467 44.4992C43.3738 43.8146 43.7196 43.1301 44.3246 42.8734C44.5839 42.7878 44.8432 42.7023 45.1025 42.7023L53.746 44.1569C53.3139 45.3549 52.7953 46.4673 52.1038 47.4085Z" fill="white"/>
</svg>
