<svg width="32" height="22" viewBox="0 0 32 22" fill="none" xmlns="http://www.w3.org/2000/svg">
<path d="M17.25 10.6483C16.5005 11.2179 15.4951 11.2166 14.7483 10.647L1.50774 0.637813C1.72955 0.551188 1.96843 0.5 2.21912 0.5H29.7818C30.0338 0.5 30.2727 0.5525 30.4945 0.637813L17.25 10.6483Z" fill="#000D1A"/>
<path d="M31.4977 1.52539C31.6539 1.80758 31.7497 2.12521 31.7497 2.46908V19.5317C31.7497 19.8861 31.6473 20.2155 31.4833 20.503L18.9619 11.0004L31.4977 1.52539Z" fill="#000D1A"/>
<path d="M0.502002 1.52539C0.347126 1.80758 0.25 2.12652 0.25 2.4704V19.533C0.25 19.8874 0.351063 20.2155 0.516439 20.503L13.0378 11.0017L0.502002 1.52539Z" fill="#000D1A"/>
<path d="M15.9997 12.3879C16.6468 12.3879 17.2912 12.1871 17.8595 11.8091L30.457 21.3694C30.2457 21.4482 30.0199 21.4968 29.7811 21.4968H2.21838C1.9795 21.4968 1.75244 21.4469 1.5385 21.3694L14.1386 11.8091C14.7095 12.1884 15.3527 12.3879 15.9997 12.3879Z" fill="#000D1A"/>
</svg>
