<svg width="26" height="34" viewBox="0 0 26 34" fill="none" xmlns="http://www.w3.org/2000/svg">
<path fill-rule="evenodd" clip-rule="evenodd" d="M0.25 13.5626C0.25 6.36029 5.96929 0.5 13 0.5C20.0307 0.5 25.75 6.36029 25.75 13.5626C25.75 21.4634 16.8857 30.4532 14.1669 33.0217C13.8396 33.3307 13.4268 33.5 13.0006 33.5C12.5744 33.5 12.1617 33.3307 11.8343 33.0217C9.11429 30.4546 0.25 21.4648 0.25 13.5626ZM13 22C17.6041 22 21.3365 18.1944 21.3365 13.5C21.3365 8.80558 17.6041 5 13 5C8.39586 5 4.66346 8.80558 4.66346 13.5C4.66346 18.1944 8.39586 22 13 22Z" fill="#000D1A"/>
</svg>
