<svg width="82" height="60" viewBox="0 0 82 60" fill="none" xmlns="http://www.w3.org/2000/svg">
<path d="M37.9336 56.7924L57.2733 53.5651L57.4525 53.5257L47.5077 42.3483C44.1745 38.6199 40.8595 34.877 37.5629 31.1197C37.5629 31.0646 47.8326 4.34897 47.891 4.25451C47.9076 4.22302 54.8986 15.6209 64.8309 31.8832L81.8708 59.7875L82 60L50.3907 59.9961L18.7814 59.9921L37.9336 56.7963V56.7924ZM0 53.3919C0 53.3762 4.68702 45.6897 10.4156 36.3109L20.8312 19.2575L32.9675 9.63463C39.6418 4.34503 45.1204 0.00787143 45.1454 0C45.1008 0.161883 45.035 0.317888 44.9496 0.464415L31.7676 27.1683L18.8231 53.3919L9.41154 53.4037C4.23707 53.4116 0 53.4037 0 53.388V53.3919Z" fill="#0089D6"/>
</svg>
