<svg width="28" height="28" viewBox="0 0 28 28" fill="none" xmlns="http://www.w3.org/2000/svg">
<path d="M25.3684 18.2774C23.7044 18.2774 22.073 18.0173 20.5255 17.5057C19.7851 17.2528 18.8728 17.483 18.4181 17.9519L15.3514 20.2668C11.8329 18.3896 9.58337 16.1387 7.73174 12.6486L9.9841 9.65726C10.5525 9.08884 10.7557 8.26037 10.5113 7.48305C9.99832 5.92558 9.73684 4.29421 9.73684 2.63158C9.73684 1.45637 8.78047 0.5 7.60526 0.5H2.63158C1.45637 0.5 0.5 1.45637 0.5 2.63158C0.5 16.3433 11.6567 27.5 25.3684 27.5C26.5436 27.5 27.5 26.5436 27.5 25.3684V20.4089C27.5 19.2337 26.5436 18.2774 25.3684 18.2774Z" fill="#000D1A"/>
</svg>
