<svg width="105" height="50" viewBox="0 0 105 50" fill="none" xmlns="http://www.w3.org/2000/svg">
<path d="M87.9838 5.12104C90.2129 5.12104 91.987 6.93668 92.0779 9.26443V30.5866C92.0779 32.8212 90.2583 34.6834 88.0748 34.6834H77.2937C75.1102 34.6834 73.2906 32.8212 73.2906 30.5866V22.2067C72.3353 22.9516 71.6985 24.1155 71.6985 25.4656V32.4953C71.6985 34.73 73.5181 36.5922 75.7016 36.5922H82.707V47.486C82.707 48.8827 81.6152 50 80.2506 50H67.0585C65.6938 50 64.602 48.8827 64.602 47.486V37.3371C64.602 35.9404 63.5103 34.8231 62.1456 34.8231H29.2108C27.8461 34.8231 26.7544 35.9404 26.7544 37.3371V47.486C26.7544 48.8827 25.6626 50 24.2979 50H11.1058C9.74114 50 8.64938 48.8827 8.64938 47.486V18.3426L2.6902 23.1378C2.41727 23.324 2.05334 23.324 1.8259 23.0447L0.142769 20.9963C-0.0391921 20.7635 -0.0391921 20.4842 0.0972749 20.2514L8.83134 6.6108C9.24075 5.72626 10.0596 5.12104 11.0604 5.12104H57.5511C59.0522 5.12104 60.1895 6.51769 59.9621 8.054L59.0068 13.8734C58.7793 15.4097 59.9165 16.8063 61.4177 16.8063H70.7432C71.9714 16.8063 72.9267 15.9218 73.1541 14.7579C72.5628 14.9441 71.9259 15.0372 71.2436 15.0372H64.602C62.373 15.0372 60.8718 13.2216 61.2358 10.987L62.373 4.05028C62.7369 1.81564 63.5558 0 64.2381 0C64.9204 0 65.4663 1.8622 65.4663 4.09684V5.1676C65.5573 5.12104 65.6938 5.12104 65.8302 5.12104H87.9838Z" fill="#0075A8"/>
<path d="M102.809 4.05028L103.947 10.987C104.311 13.175 102.809 14.9907 100.626 14.9907H93.5742V10.0093H95.7124C97.8961 10.0093 99.7158 8.14711 99.7158 5.91248V4.09684C99.7158 1.8622 100.262 0 100.944 0C101.581 0 102.445 1.81564 102.809 4.05028Z" fill="#0075A8"/>
</svg>
