<svg width="58" height="76" viewBox="0 0 58 76" fill="none" xmlns="http://www.w3.org/2000/svg">
<path d="M18.0823 42.0902C3.67239 54.1477 13.0533 62.9856 25.7599 68.1267L25.8323 54.3674C19.6198 53.1265 23.2456 45.106 18.0821 42.0898L18.0823 42.0902Z" fill="url(#paint0_linear)"/>
<path d="M18.6431 7.61133C18.3486 7.63067 12.2771 12.0129 9.61966 14.1194C1.29684 20.7165 -1.31833 25.7343 0.59623 31.4415C1.56975 34.3437 3.26378 36.3158 8.71935 40.91C12.8215 44.3643 15.0006 46.4846 16.7095 48.7238C16.8979 48.9705 17.0729 49.2195 17.2518 49.4713C17.3038 49.5453 17.3506 49.6021 17.4052 49.6806C17.4078 49.6844 17.4128 49.6867 17.4154 49.6905C17.4619 49.7574 17.5036 49.8145 17.5484 49.8799C17.8329 50.2956 18.0921 50.6993 18.326 51.0958C18.5838 51.5328 18.8183 51.9722 19.0319 52.4314C19.0426 52.4543 19.052 52.478 19.0626 52.5011C19.1367 52.6627 19.2071 52.8209 19.2774 52.9895C19.3389 53.1379 19.4013 53.2898 19.4616 53.4479C19.4692 53.4679 19.4744 53.4876 19.482 53.5077C19.5439 53.6714 19.6048 53.8399 19.6662 54.016C19.6708 54.0293 19.6718 54.0426 19.6764 54.0559C19.7407 54.2412 19.806 54.4325 19.8708 54.634C19.8718 54.6372 19.8698 54.6408 19.8708 54.6439C20.2524 55.8542 20.6209 57.3182 21.0474 59.2585C21.1139 59.3607 21.1388 59.4026 21.2008 59.4977C21.2354 59.636 21.2675 59.7431 21.3031 59.8864C22.2624 63.7487 23.2571 66.0673 24.5156 67.3714C24.6179 67.4774 24.9468 67.6876 25.2522 67.8399C25.5576 67.9921 25.8667 68.1012 25.9377 68.0791C26.1004 68.0285 26.1378 54.8278 25.9773 54.4164C24.9818 54.3295 23.9358 53.7666 23.2163 53.0095C22.7798 52.5387 22.3966 51.8383 22.0705 50.9464C22.0621 50.9235 22.0481 50.8997 22.0398 50.8766C22.0216 50.8212 22.0068 50.7555 21.9886 50.6972C21.7722 50.0049 21.5477 49.1137 21.2929 47.8866C20.4853 43.9966 19.9257 43.1964 16.2184 40.6309C13.5795 38.8048 12.4027 37.7098 11.7987 36.5148C11.3834 35.693 11.3588 35.5628 11.3588 34.382C11.3588 33.3338 11.4086 33.0113 11.6555 32.4883C12.2715 31.1833 13.2316 30.5306 16.3004 29.3389C19.5867 28.0626 20.1276 27.4758 21.6205 23.578C22.9942 20.6785 23.6684 20.4705 26.1083 19.37C26.1333 19.3747 21.1385 11.4328 18.6435 7.61136L18.6431 7.61133Z" fill="url(#paint1_linear)"/>
<path d="M30.1522 7.13293C28.6875 7.21136 27.2392 7.27083 25.9676 7.8902C25.9517 7.85924 25.9802 7.82787 25.995 15.5991L47.0813 33.1161C47.0813 33.1161 47.553 32.3864 47.8004 30.6939C48.1625 28.2171 48.2403 26.3236 48.0664 24.5047C47.701 20.6823 46.6379 17.6489 44.6799 14.8471C43.7652 13.538 41.2957 11.1686 39.9021 10.2625C37.7948 8.89244 35.1736 7.82064 32.7814 7.35226C31.9962 7.19853 31.0681 7.12878 30.1521 7.13299L30.1522 7.13293Z" fill="url(#paint2_linear)"/>
<path d="M25.8505 75.9216C25.9013 75.8981 26.2646 19.4357 26.1294 19.3719L20.0597 9.78516C19.896 10.7941 38.5642 25.7524 47.1801 33.1886L48.6847 34.6379C52.3707 38.1882 54.7282 41.0254 56.2745 44.1439C57.6679 46.9537 58.1029 48.9566 57.9808 51.9995C57.8543 55.1518 56.9372 58.16 55.2411 60.9861C53.6609 63.6192 50.6004 66.7361 47.6313 68.7364C42.5231 72.1777 35.5802 74.7345 28.5732 75.7545C26.7845 76.0149 25.9939 76.0634 25.8485 75.9218L25.8505 75.9216Z" fill="url(#paint3_linear)"/>
<path d="M18.6058 7.30993C18.6051 7.20179 18.5179 6.83568 18.4122 6.49634C17.9963 5.16062 18.2909 3.61955 19.179 2.48514C19.6285 1.91103 20.8344 1.11718 21.7811 0.772131C23.6453 0.0926479 25.7654 -0.218438 25.8914 0.169032C25.8914 0.169032 25.9429 15.7023 26.0277 15.6828C26.0978 15.9218 19.0521 9.82818 18.6056 7.3099L18.6058 7.30993Z" fill="url(#paint4_linear)"/>
<path d="M25.9873 54.4252L26.162 19.2949C24.6895 19.9874 23.2005 19.9191 21.4401 24.0572C20.0703 27.5814 19.4686 28.1736 15.7865 29.5301C9.44042 31.3397 9.5681 36.6508 16.2889 40.7016C20.0607 43.0987 20.7515 44.6034 21.4659 48.745C22.1403 51.6246 22.9198 53.8763 25.9874 54.4265L25.9873 54.4252Z" fill="white"/>
<defs>
<linearGradient id="paint0_linear" x1="24.1226" y1="62.9801" x2="15.1491" y2="51.9024" gradientUnits="userSpaceOnUse">
<stop stop-color="#0019CE"/>
<stop offset="1" stop-color="#00A4CE" stop-opacity="0.498039"/>
</linearGradient>
<linearGradient id="paint1_linear" x1="46.9555" y1="51.5683" x2="17.5956" y2="17.8232" gradientUnits="userSpaceOnUse">
<stop stop-color="#040D1A"/>
<stop offset="1" stop-color="#FD110D" stop-opacity="0.994444"/>
</linearGradient>
<linearGradient id="paint2_linear" x1="82.8026" y1="38.6612" x2="36.2571" y2="16.0527" gradientUnits="userSpaceOnUse">
<stop stop-color="#040D1A"/>
<stop offset="1" stop-color="#FD110D" stop-opacity="0.994444"/>
</linearGradient>
<linearGradient id="paint3_linear" x1="29.4518" y1="48.8826" x2="37.1774" y2="37.527" gradientUnits="userSpaceOnUse">
<stop stop-color="#0019CE"/>
<stop offset="1" stop-color="#00A4CE" stop-opacity="0.498039"/>
</linearGradient>
<linearGradient id="paint4_linear" x1="23.6442" y1="13.2924" x2="22.4258" y2="-0.502058" gradientUnits="userSpaceOnUse">
<stop stop-color="#0B4AD0"/>
<stop offset="1" stop-color="#0BB7D0" stop-opacity="0"/>
</linearGradient>
</defs>
</svg>
