<svg width="120" height="120" viewBox="0 0 120 120" fill="none" xmlns="http://www.w3.org/2000/svg">
<path d="M93.7882 67.6708L87.1809 62.6396C87.2647 61.8638 87.3366 60.9567 87.3366 59.9971C87.3366 59.0375 87.2677 58.1304 87.1809 57.3546L93.7942 52.3204C95.0222 51.3754 95.3577 49.6983 94.576 48.3013L87.705 36.725C86.9712 35.4183 85.3628 34.7475 83.7304 35.3337L75.934 38.3817C74.4394 37.3317 72.8729 36.445 71.2526 35.7362L70.0665 27.6833C69.8718 26.155 68.506 25 66.8916 25H53.1138C51.4994 25 50.1366 26.155 49.9449 27.66L48.7558 35.7421C47.1863 36.4304 45.6438 37.3054 44.0833 38.3875L36.266 35.3308C34.8013 34.7796 33.0491 35.3979 32.3213 36.6988L25.4414 48.2896C24.6297 49.6254 24.9652 51.3608 26.2201 52.3292L32.8275 57.3604C32.7227 58.3433 32.6717 59.1979 32.6717 60C32.6717 60.8021 32.7227 61.6567 32.8275 62.6425L26.2142 67.6767C24.9861 68.6246 24.6537 70.3017 25.4354 71.6958L32.3063 83.2721C33.0402 84.5758 34.6336 85.2525 36.2809 84.6633L44.0774 81.6154C45.569 82.6625 47.1354 83.5492 48.7558 84.2608L49.9419 92.3108C50.1366 93.845 51.4994 95 53.1168 95H66.8946C68.509 95 69.8748 93.845 70.0665 92.34L71.2556 84.2608C72.825 83.5696 74.3645 82.6975 75.928 81.6125L83.7454 84.6692C84.1228 84.8121 84.5152 84.885 84.9195 84.885C86.0816 84.885 87.1509 84.2667 87.6901 83.3042L94.5909 71.6667C95.3577 70.3017 95.0222 68.6246 93.7882 67.6708ZM60.0027 71.6667C53.3953 71.6667 48.022 66.4342 48.022 60C48.022 53.5658 53.3953 48.3333 60.0027 48.3333C66.61 48.3333 71.9834 53.5658 71.9834 60C71.9834 66.4342 66.61 71.6667 60.0027 71.6667Z" fill="#4CC3FF"/>
<circle cx="60" cy="7" r="5" fill="white" stroke="#D1D5E0" stroke-width="4"/>
<rect x="58" y="12" width="4" height="48" fill="#D1D5E0"/>
<path d="M62 25H58V48.4963C58.6514 48.3891 59.3205 48.3333 60.0027 48.3333C60.6831 48.3333 61.3503 48.3888 62 48.4954V25Z" fill="#000D1A"/>
<circle r="5" transform="matrix(1 0 0 -1 60 113)" fill="white" stroke="#D1D5E0" stroke-width="4"/>
<rect width="4" height="48" transform="matrix(1 0 0 -1 58 108)" fill="#D1D5E0"/>
<path d="M62 95.0002H58V71.5039C58.6514 71.611 59.3205 71.6668 60.0027 71.6668C60.6831 71.6668 61.3503 71.6113 62 71.5048V95.0002Z" fill="#000D1A"/>
<circle cx="14.1006" cy="86.5" r="5" transform="rotate(-120 14.1006 86.5)" fill="white" stroke="#D1D5E0" stroke-width="4"/>
<rect x="19.4308" y="85.7324" width="4" height="48" transform="rotate(-120 19.4308 85.7324)" fill="#D1D5E0"/>
<path d="M28.6891 75.7672L30.6891 79.2313L51.0374 67.4832C50.619 66.9727 50.2361 66.4211 49.895 65.8303C49.5548 65.2411 49.2692 64.6354 49.0367 64.0195L28.6891 75.7672Z" fill="#000D1A"/>
<circle r="5" transform="matrix(-0.5 -0.866025 -0.866025 0.5 105.899 33.5)" fill="white" stroke="#D1D5E0" stroke-width="4"/>
<rect width="4" height="48" transform="matrix(-0.5 -0.866025 -0.866025 0.5 102.569 37.7324)" fill="#D1D5E0"/>
<path d="M89.3109 40.7676L91.3109 44.2317L70.9625 55.9798C70.7296 55.3621 70.4434 54.7548 70.1023 54.164C69.7621 53.5748 69.3804 53.0246 68.9633 52.5153L89.3109 40.7676Z" fill="#000D1A"/>
<circle cx="14.1006" cy="33.5" r="5" transform="rotate(-60 14.1006 33.5)" fill="white" stroke="#D1D5E0" stroke-width="4"/>
<rect x="17.4308" y="37.7324" width="4" height="48" transform="rotate(-60 17.4308 37.7324)" fill="#D1D5E0"/>
<path d="M30.6891 40.7676L28.6891 44.2317L49.0374 55.9798C49.2703 55.3621 49.5566 54.7548 49.8977 54.164C50.2379 53.5748 50.6196 53.0246 51.0367 52.5153L30.6891 40.7676Z" fill="#000D1A"/>
<circle r="5" transform="matrix(0.5 -0.866025 -0.866025 -0.5 105.899 86.5)" fill="white" stroke="#D1D5E0" stroke-width="4"/>
<rect width="4" height="48" transform="matrix(0.5 -0.866025 -0.866025 -0.5 100.569 85.7324)" fill="#D1D5E0"/>
<path d="M91.3109 75.7672L89.3109 79.2313L68.9625 67.4832C69.381 66.9727 69.7638 66.4211 70.105 65.8303C70.4451 65.2411 70.7307 64.6354 70.9633 64.0195L91.3109 75.7672Z" fill="#000D1A"/>
</svg>
