<svg xmlns="http://www.w3.org/2000/svg" viewBox="0 0 204.6 56"><path d="M36.8 8.8A8.8 8.8 0 0028 0c-2.3 0-4.6.9-6.2 2.6L5.9 18.5a10 10 0 0110 2.5l6.2 6.2L34.2 15a8.5 8.5 0 002.6-6.2z" fill="#a4d65e"/><path d="M53.4 34.2c3.4-3.4 3.4-9 0-12.4L37.5 5.9c1.1 3.5.1 7.3-2.5 9.9L28.8 22 41 34.2c3.4 3.4 9 3.4 12.4 0z" fill="#f3ea5d"/><path d="M2.6 34.2l15.9 15.9a9.8 9.8 0 012.5-9.9l6.2-6.2L15 21.8c-3.4-3.4-9-3.4-12.4 0s-3.5 9 0 12.4z" fill="#ff808b"/><path d="M19.2 47.2A8.8 8.8 0 0028 56c2.3 0 4.6-.9 6.2-2.6l15.9-15.9c-.9.3-1.9.4-2.9.4-2.6 0-5.2-1-7-2.9L34 28.8 21.8 41a8.5 8.5 0 00-2.6 6.2z" fill="#5bc2e7"/><path d="M73.9 18.8a8 8 0 013.4.7 6 6 0 012.6 1.9c.7.8 1.3 1.8 1.6 2.9a14 14 0 010 7.6c-.3 1.1-.9 2-1.6 2.9-.7.8-1.6 1.4-2.6 1.8-2.2.9-4.6.9-6.9 0-1-.4-1.9-1-2.6-1.8s-1.3-1.8-1.6-2.9a14 14 0 010-7.6c.3-1.1.9-2 1.6-2.9.7-.8 1.6-1.4 2.6-1.9a8.8 8.8 0 013.5-.7zm0 17c1 0 1.9-.2 2.8-.5.8-.4 1.5-.9 2-1.6.6-.7 1-1.6 1.2-2.5a13.8 13.8 0 000-6.4c-.2-.9-.6-1.7-1.2-2.5a5.3 5.3 0 00-2-1.6 7.7 7.7 0 00-5.6 0c-.8.4-1.5.9-2 1.6-.6.7-1 1.6-1.2 2.5a13.8 13.8 0 000 6.4c.2.9.6 1.7 1.2 2.5.5.7 1.2 1.2 2 1.6a7 7 0 002.8.5zm12.7 1.1V19.1h.9c.3 0 .5.2.5.4l.2 2.7c.8-1 1.7-1.8 2.8-2.5 1.1-.6 2.3-1 3.6-.9.9 0 1.8.1 2.6.5.7.3 1.4.8 1.9 1.3.5.6.9 1.3 1.1 2.1.3.9.4 1.9.4 2.8v11.4h-1.7V25.6c0-1.7-.4-3-1.1-3.9-.8-1-1.9-1.4-3.5-1.4a6 6 0 00-3.2.9 9.2 9.2 0 00-2.7 2.5v13.4l-1.8-.2zm26.2-18.1c1 0 1.9.2 2.8.5.8.3 1.6.9 2.2 1.5a6 6 0 011.5 2.4c.4 1.1.5 2.2.5 3.3l-.1.5c-.1.1-.2.2-.4.1h-12.9v.3c0 1.2.1 2.4.5 3.5.3.9.7 1.8 1.3 2.5s1.3 1.2 2.1 1.5a8.5 8.5 0 005 .2 12.2 12.2 0 001.7-.7l1.1-.7.6-.3a.8.8 0 01.4.2l.5.6-1.1 1-1.6.8-1.9.5-2 .2c-1.1 0-2.3-.2-3.3-.6s-1.9-1-2.6-1.9-1.3-1.9-1.7-3a13.9 13.9 0 01-.6-4c0-1.2.2-2.4.5-3.5a7.2 7.2 0 014.1-4.6l3.4-.3zm0 1.3c-.8 0-1.7.1-2.5.4-.7.3-1.4.7-1.9 1.2-.5.6-1 1.2-1.3 1.9-.3.8-.6 1.7-.7 2.5h11.7c0-.9-.1-1.7-.4-2.6-.2-.7-.6-1.4-1.1-1.9a6.6 6.6 0 00-1.7-1.2c-.6-.2-1.3-.3-2.1-.3zm24.1 2.4l-.4.4c-.2.1-.4.2-.5.1l-.7-.2-.8-.5-1.1-.5-1.5-.2c-.7 0-1.4.1-2 .4s-1.1.7-1.5 1.2c-.4.6-.7 1.2-.9 1.9a10.7 10.7 0 00-.3 2.5 10.9 10.9 0 00.3 2.6c.2.7.5 1.3.9 1.9.4.5.9.9 1.4 1.2a4 4 0 001.9.4c.6 0 1.2-.1 1.7-.3.4-.1.8-.3 1.1-.6l.8-.6a1 1 0 01.7-.3c.3 0 .6.1.8.4l1.3 1.6-1.6 1.4a6 6 0 01-1.8.9l-1.9.5-2 .1c-1.1 0-2.2-.2-3.2-.6s-1.9-1.1-2.6-1.9a9.2 9.2 0 01-1.8-3 9 9 0 01-.6-4c0-1.3.2-2.5.6-3.8a8 8 0 014.5-5c1.2-.5 2.5-.7 3.8-.7a8.9 8.9 0 016.4 2.6l-1 2.1zm8.1-12.2v26.6h-4.4V10.3h4.4zm9.7 2.9l-.2 1.1-.6.9-.9.6c-.4.2-.7.2-1.1.2l-1.1-.2c-.7-.3-1.2-.8-1.5-1.5-.2-.3-.2-.7-.2-1.1l.2-1.1.6-.9.9-.6 1.1-.2 1.1.2.9.6.6.9.2 1.1zm-.7 5.4V37h-4.4V18.6h4.4zm17.6 3.9l-.4.4c-.2.1-.4.2-.5.1l-.7-.2-.8-.5-1.1-.5-1.5-.2c-.7 0-1.4.1-2 .4s-1.1.7-1.5 1.2c-.4.6-.7 1.2-.9 1.9a10.7 10.7 0 00-.3 2.5 10.9 10.9 0 00.3 2.6c.2.7.5 1.3.9 1.9.4.5.9.9 1.4 1.2a4 4 0 001.9.4c.6 0 1.2-.1 1.7-.3.4-.1.8-.3 1.1-.6l.8-.6a1 1 0 01.7-.3c.3 0 .6.1.8.4l1.3 1.6-1.6 1.4-1.8.9-1.9.5-2 .1c-1.1 0-2.2-.2-3.2-.6s-1.9-1.1-2.6-1.9a9.2 9.2 0 01-1.8-3 12.6 12.6 0 01-.1-7.8 8 8 0 014.5-5c1.2-.5 2.5-.7 3.8-.7a8.9 8.9 0 016.4 2.6l-.9 2.1zm8.4-12.2v15.2h.8l.7-.1.5-.5 4.6-5.6.6-.6.9-.2h4.1l-5.7 6.8-.6.7-.7.5.7.6.6.8 6.1 8.9h-4l-.9-.2c-.3-.1-.5-.4-.6-.6l-4.7-7-.5-.5-.8-.1h-1v8.4h-4.4V10.3h4.3zm18.7-.1v.9h-1.4V15h-1.1v-3.9h-1.3v-.9h3.8zm3.1 2.9l.1.3.1-.3.1-.3 1.2-2.4.1-.1.1-.1h1.1V15h-1v-3.2l-1.3 2.5-.2.2-.2.1h-.2l-.2-.1-.2-.2-1.3-2.5V15h-1v-4.8h1.1l.1.1.1.1 1.3 2.5.2.2z" fill="#322d28"/></svg>