<svg id="Ebene_1" data-name="Ebene 1" xmlns="http://www.w3.org/2000/svg" width="75.9502mm" height="45.7827mm" viewBox="0 0 215.292 129.7778"><defs><style>.cls-1{isolation:isolate;}.cls-2{fill:#ae9009;}.cls-3,.cls-4,.cls-5,.cls-6,.cls-7,.cls-8{fill:none;stroke:#ae9009;}.cls-3{stroke-miterlimit:10;stroke-width:0.1px;}.cls-4{stroke-miterlimit:10.0002;stroke-width:0.1px;}.cls-5{stroke-miterlimit:9.9998;stroke-width:0.1px;}.cls-6{stroke-miterlimit:10.0001;stroke-width:0.1px;}.cls-7{stroke-miterlimit:9.9996;stroke-width:0.1px;}.cls-8{stroke-miterlimit:9.9999;stroke-width:0.1px;}.cls-9{fill:#000f9f;}.cls-10{fill:#dc0d15;}</style></defs><title>logo</title><g class="cls-1"><path class="cls-2" d="M15.5356,83.5791,14.97,82.585l6.3272-3.6026a5.7939,5.7939,0,0,1-1.22-.5517,7.6282,7.6282,0,0,1-1.1084-.752l.96-.5469a6.882,6.882,0,0,0,1.7778.9161,4.31,4.31,0,0,0,1.584.2666l.3643.64Z"/></g><g class="cls-1"><path class="cls-3" d="M15.5356,83.5791,14.97,82.585l6.3272-3.6026a5.7939,5.7939,0,0,1-1.22-.5517,7.6282,7.6282,0,0,1-1.1084-.752l.96-.5469a6.882,6.882,0,0,0,1.7778.9161,4.31,4.31,0,0,0,1.584.2666l.3643.64Z"/></g><g class="cls-1"><path class="cls-2" d="M18.5806,87.9092l-.66-.9326,5.9468-4.2022A5.8115,5.8115,0,0,1,22.6,82.3438a7.6289,7.6289,0,0,1-1.1768-.6407l.9019-.6377a6.8881,6.8881,0,0,0,1.8589.7383,4.3063,4.3063,0,0,0,1.602.1123l.4253.6016Z"/></g><g class="cls-1"><path class="cls-4" d="M18.5806,87.9092l-.66-.9326,5.9468-4.2022A5.8115,5.8115,0,0,1,22.6,82.3438a7.6289,7.6289,0,0,1-1.1768-.6407l.9019-.6377a6.8881,6.8881,0,0,0,1.8589.7383,4.3063,4.3063,0,0,0,1.602.1123l.4253.6016Z"/></g><g class="cls-1"><path class="cls-2" d="M22.0356,91.9355l-.7465-.8652,5.5141-4.7558A5.8987,5.8987,0,0,1,25.5,86.01a7.6475,7.6475,0,0,1-1.2324-.5254l.8359-.7217a6.86,6.86,0,0,0,1.9214.5557,4.2691,4.2691,0,0,0,1.6055-.043l.4809.5576Z"/></g><g class="cls-1"><path class="cls-3" d="M22.0356,91.9355l-.7465-.8652,5.5141-4.7558A5.8987,5.8987,0,0,1,25.5,86.01a7.6475,7.6475,0,0,1-1.2324-.5254l.8359-.7217a6.86,6.86,0,0,0,1.9214.5557,4.2691,4.2691,0,0,0,1.6055-.043l.4809.5576Z"/></g><g class="cls-1"><path class="cls-2" d="M26.7031,92.8379l.9571.584a2.39,2.39,0,0,0-.6143,1.3838,1.2556,1.2556,0,0,0,.5132.9267,1.47,1.47,0,0,0,.7544.3418,1.0967,1.0967,0,0,0,.7241-.1543,3.84,3.84,0,0,0,.835-.8222l4.0551-4.9649.9536.7793-4.0107,4.91a4.5981,4.5981,0,0,1-1.3633,1.2226,2.0076,2.0076,0,0,1-1.311.1914,2.9378,2.9378,0,0,1-1.3267-.6484,2.4259,2.4259,0,0,1-1.0068-1.7324A2.9027,2.9027,0,0,1,26.7031,92.8379Z"/></g><g class="cls-1"><path class="cls-3" d="M26.7031,92.8379l.9571.584a2.39,2.39,0,0,0-.6143,1.3838,1.2556,1.2556,0,0,0,.5132.9267,1.47,1.47,0,0,0,.7544.3418,1.0967,1.0967,0,0,0,.7241-.1543,3.84,3.84,0,0,0,.835-.8222l4.0551-4.9649.9536.7793-4.0107,4.91a4.5981,4.5981,0,0,1-1.3633,1.2226,2.0076,2.0076,0,0,1-1.311.1914,2.9378,2.9378,0,0,1-1.3267-.6484,2.4259,2.4259,0,0,1-1.0068-1.7324A2.9027,2.9027,0,0,1,26.7031,92.8379Z"/></g><g class="cls-1"><path class="cls-2" d="M35.147,101.0957a4.2134,4.2134,0,0,1-1.4395.0176,3.53,3.53,0,0,1-1.1929-.4629A2.4484,2.4484,0,0,1,31.3359,99.3a1.7884,1.7884,0,0,1,.209-1.4941,1.83,1.83,0,0,1,.6621-.6563,1.8532,1.8532,0,0,1,.8452-.2558,2.7193,2.7193,0,0,1,.897.1064,8.096,8.096,0,0,1,.9575.38,10.5473,10.5473,0,0,0,1.9463.7207q.1275-.1977.16-.252a1.2614,1.2614,0,0,0,.2339-1.01,1.9161,1.9161,0,0,0-.9116-1.0059,2.0055,2.0055,0,0,0-1.1646-.375,1.7237,1.7237,0,0,0-1.0034.5586l-.876-.709a2.7749,2.7749,0,0,1,1.0293-.73,2.1951,2.1951,0,0,1,1.2149-.0566,4.4822,4.4822,0,0,1,1.4316.59,4.0242,4.0242,0,0,1,1.0937.9,1.857,1.857,0,0,1,.4136.8487,1.7975,1.7975,0,0,1-.0991.8486,6.4055,6.4055,0,0,1-.498.9316l-.7906,1.3028a16.4705,16.4705,0,0,0-.9829,1.76,2.5616,2.5616,0,0,0-.1728.8418l-1.02-.6181A2.4135,2.4135,0,0,1,35.147,101.0957Zm1.2417-2.2295a8.45,8.45,0,0,1-1.82-.6,4.2882,4.2882,0,0,0-.9707-.3213.991.991,0,0,0-.5776.083,1.0114,1.0114,0,0,0-.5166,1.2129,1.4918,1.4918,0,0,0,.708.7852,2.3482,2.3482,0,0,0,1.1538.3623,1.7805,1.7805,0,0,0,1.0562-.2842,2.7712,2.7712,0,0,0,.75-.8809Z"/></g><g class="cls-1"><path class="cls-3" d="M35.147,101.0957a4.2134,4.2134,0,0,1-1.4395.0176,3.53,3.53,0,0,1-1.1929-.4629A2.4484,2.4484,0,0,1,31.3359,99.3a1.7884,1.7884,0,0,1,.209-1.4941,1.83,1.83,0,0,1,.6621-.6563,1.8532,1.8532,0,0,1,.8452-.2558,2.7193,2.7193,0,0,1,.897.1064,8.096,8.096,0,0,1,.9575.38,10.5473,10.5473,0,0,0,1.9463.7207q.1275-.1977.16-.252a1.2614,1.2614,0,0,0,.2339-1.01,1.9161,1.9161,0,0,0-.9116-1.0059,2.0055,2.0055,0,0,0-1.1646-.375,1.7237,1.7237,0,0,0-1.0034.5586l-.876-.709a2.7749,2.7749,0,0,1,1.0293-.73,2.1951,2.1951,0,0,1,1.2149-.0566,4.4822,4.4822,0,0,1,1.4316.59,4.0242,4.0242,0,0,1,1.0937.9,1.857,1.857,0,0,1,.4136.8487,1.7975,1.7975,0,0,1-.0991.8486,6.4055,6.4055,0,0,1-.498.9316l-.7906,1.3028a16.4705,16.4705,0,0,0-.9829,1.76,2.5616,2.5616,0,0,0-.1728.8418l-1.02-.6181A2.4135,2.4135,0,0,1,35.147,101.0957Zm1.2417-2.2295a8.45,8.45,0,0,1-1.82-.6,4.2882,4.2882,0,0,0-.9707-.3213.991.991,0,0,0-.5776.083,1.0114,1.0114,0,0,0-.5166,1.2129,1.4918,1.4918,0,0,0,.708.7852,2.3482,2.3482,0,0,0,1.1538.3623,1.7805,1.7805,0,0,0,1.0562-.2842,2.7712,2.7712,0,0,0,.75-.8809Z"/></g><g class="cls-1"><path class="cls-2" d="M37.876,103.501l3.5781-8.59,1.0547.4395-1.2842,3.082a2.5493,2.5493,0,0,1,2.22-.0791,2.7178,2.7178,0,0,1,1.0879.7725,1.7286,1.7286,0,0,1,.416,1.0566,3.7688,3.7688,0,0,1-.3613,1.4873l-1.6426,3.9424-1.0547-.4394,1.6426-3.9424a1.7688,1.7688,0,0,0,.1367-1.295,1.38,1.38,0,0,0-.8193-.7646,1.8511,1.8511,0,0,0-.9834-.124,1.49,1.49,0,0,0-.8633.414,3.2786,3.2786,0,0,0-.6543,1.0762L38.9307,103.94Z"/></g><g class="cls-1"><path class="cls-5" d="M37.876,103.501l3.5781-8.59,1.0547.4395-1.2842,3.082a2.5493,2.5493,0,0,1,2.22-.0791,2.7178,2.7178,0,0,1,1.0879.7725,1.7286,1.7286,0,0,1,.416,1.0566,3.7688,3.7688,0,0,1-.3613,1.4873l-1.6426,3.9424-1.0547-.4394,1.6426-3.9424a1.7688,1.7688,0,0,0,.1367-1.295,1.38,1.38,0,0,0-.8193-.7646,1.8511,1.8511,0,0,0-.9834-.124,1.49,1.49,0,0,0-.8633.414,3.2786,3.2786,0,0,0-.6543,1.0762L38.9307,103.94Z"/></g><g class="cls-1"><path class="cls-2" d="M45.4038,106.3779l1.8071-6.4951.99.2754-.274.9863a2.7735,2.7735,0,0,1,.9546-.7168,1.2631,1.2631,0,0,1,.7671-.0244,2.2388,2.2388,0,0,1,1.0327.669l-.663.917a1.6207,1.6207,0,0,0-.7413-.4639,1.0889,1.0889,0,0,0-.7085.0371,1.22,1.22,0,0,0-.5771.4883,4.4479,4.4479,0,0,0-.541,1.2334l-.9458,3.3994Z"/></g><g class="cls-1"><path class="cls-3" d="M45.4038,106.3779l1.8071-6.4951.99.2754-.274.9863a2.7735,2.7735,0,0,1,.9546-.7168,1.2631,1.2631,0,0,1,.7671-.0244,2.2388,2.2388,0,0,1,1.0327.669l-.663.917a1.6207,1.6207,0,0,0-.7413-.4639,1.0889,1.0889,0,0,0-.7085.0371,1.22,1.22,0,0,0-.5771.4883,4.4479,4.4479,0,0,0-.541,1.2334l-.9458,3.3994Z"/></g><g class="cls-1"><path class="cls-2" d="M55.3877,106.2705l1.145.3223a2.8782,2.8782,0,0,1-1.2651,1.4316,3.5066,3.5066,0,0,1-4.1748-.9824,3.5612,3.5612,0,0,1-.47-2.6572,3.7292,3.7292,0,0,1,1.2651-2.4776,2.9691,2.9691,0,0,1,2.3892-.5849,2.8846,2.8846,0,0,1,2.0439,1.2441,3.66,3.66,0,0,1,.4551,2.69c-.01.0664-.0279.167-.0523.3l-4.97-.7607a2.5991,2.5991,0,0,0,.3638,1.7773,1.8715,1.8715,0,0,0,1.3042.7959,1.7469,1.7469,0,0,0,1.11-.164A2.184,2.184,0,0,0,55.3877,106.2705ZM51.959,103.877l3.7207.5693a2.29,2.29,0,0,0-.2334-1.3272,1.7537,1.7537,0,0,0-1.3-.8662,1.8208,1.8208,0,0,0-1.3877.32A2.09,2.09,0,0,0,51.959,103.877Z"/></g><g class="cls-1"><path class="cls-6" d="M55.3877,106.2705l1.145.3223a2.8782,2.8782,0,0,1-1.2651,1.4316,3.5066,3.5066,0,0,1-4.1748-.9824,3.5612,3.5612,0,0,1-.47-2.6572,3.7292,3.7292,0,0,1,1.2651-2.4776,2.9691,2.9691,0,0,1,2.3892-.5849,2.8846,2.8846,0,0,1,2.0439,1.2441,3.66,3.66,0,0,1,.4551,2.69c-.01.0664-.0279.167-.0523.3l-4.97-.7607a2.5991,2.5991,0,0,0,.3638,1.7773,1.8715,1.8715,0,0,0,1.3042.7959,1.7469,1.7469,0,0,0,1.11-.164A2.184,2.184,0,0,0,55.3877,106.2705ZM51.959,103.877l3.7207.5693a2.29,2.29,0,0,0-.2334-1.3272,1.7537,1.7537,0,0,0-1.3-.8662,1.8208,1.8208,0,0,0-1.3877.32A2.09,2.09,0,0,0,51.959,103.877Z"/></g><g class="cls-1"><path class="cls-2" d="M57.2822,108.8008l2.9883-9.5371.9141.0283-2.9834,9.5361Z"/></g><g class="cls-1"><path class="cls-7" d="M57.2822,108.8008l2.9883-9.5371.9141.0283-2.9834,9.5361Z"/></g><g class="cls-1"><path class="cls-2" d="M67.354,107.5918a4.2507,4.2507,0,0,1-1.1553.8594,3.5388,3.5388,0,0,1-1.2383.3232,2.4508,2.4508,0,0,1-1.746-.4023,1.7927,1.7927,0,0,1-.7071-1.334,1.8782,1.8782,0,0,1,.6865-1.6221,2.7423,2.7423,0,0,1,.7891-.4394,7.8533,7.8533,0,0,1,.9981-.2539,10.5006,10.5006,0,0,0,1.999-.5577c-.0078-.1562-.0147-.2558-.0176-.2978a1.2675,1.2675,0,0,0-.4023-.9551,1.9234,1.9234,0,0,0-1.3282-.28,2.0193,2.0193,0,0,0-1.164.3789,1.7243,1.7243,0,0,0-.4854,1.0411l-1.126-.0606a2.7658,2.7658,0,0,1,.4063-1.1943,2.1844,2.1844,0,0,1,.9512-.7588,4.4562,4.4562,0,0,1,1.5048-.3613,4.0323,4.0323,0,0,1,1.4151.0878,1.8554,1.8554,0,0,1,.832.4444,1.8,1.8,0,0,1,.417.7471,6.3158,6.3158,0,0,1,.1426,1.0459l.124,1.5185a16.4042,16.4042,0,0,0,.2354,2.002,2.5459,2.5459,0,0,0,.3545.7832l-1.1895.0966A2.4105,2.4105,0,0,1,67.354,107.5918Zm-.3008-2.5342a8.4494,8.4494,0,0,1-1.8261.5811,4.2965,4.2965,0,0,0-.9747.3095.9983.9983,0,0,0-.1259,1.6914,1.4923,1.4923,0,0,0,1.0332.2208,2.363,2.363,0,0,0,1.1474-.3829,1.77,1.77,0,0,0,.6885-.85,2.7551,2.7551,0,0,0,.0908-1.1543Z"/></g><g class="cls-1"><path class="cls-8" d="M67.354,107.5918a4.2507,4.2507,0,0,1-1.1553.8594,3.5388,3.5388,0,0,1-1.2383.3232,2.4508,2.4508,0,0,1-1.746-.4023,1.7927,1.7927,0,0,1-.7071-1.334,1.8782,1.8782,0,0,1,.6865-1.6221,2.7423,2.7423,0,0,1,.7891-.4394,7.8533,7.8533,0,0,1,.9981-.2539,10.5006,10.5006,0,0,0,1.999-.5577c-.0078-.1562-.0147-.2558-.0176-.2978a1.2675,1.2675,0,0,0-.4023-.9551,1.9234,1.9234,0,0,0-1.3282-.28,2.0193,2.0193,0,0,0-1.164.3789,1.7243,1.7243,0,0,0-.4854,1.0411l-1.126-.0606a2.7658,2.7658,0,0,1,.4063-1.1943,2.1844,2.1844,0,0,1,.9512-.7588,4.4562,4.4562,0,0,1,1.5048-.3613,4.0323,4.0323,0,0,1,1.4151.0878,1.8554,1.8554,0,0,1,.832.4444,1.8,1.8,0,0,1,.417.7471,6.3158,6.3158,0,0,1,.1426,1.0459l.124,1.5185a16.4042,16.4042,0,0,0,.2354,2.002,2.5459,2.5459,0,0,0,.3545.7832l-1.1895.0966A2.4105,2.4105,0,0,1,67.354,107.5918Zm-.3008-2.5342a8.4494,8.4494,0,0,1-1.8261.5811,4.2965,4.2965,0,0,0-.9747.3095.9983.9983,0,0,0-.1259,1.6914,1.4923,1.4923,0,0,0,1.0332.2208,2.363,2.363,0,0,0,1.1474-.3829,1.77,1.77,0,0,0,.6885-.85,2.7551,2.7551,0,0,0,.0908-1.1543Z"/></g><g class="cls-1"><path class="cls-2" d="M70.9614,107.9453l-1.5439-6.5625,1.001-.2353.22.9326a2.425,2.425,0,0,1,1.834-1.5723,2.7966,2.7966,0,0,1,1.1406-.043,1.7678,1.7678,0,0,1,.876.3838,2.2088,2.2088,0,0,1,.539.7393,6.5478,6.5478,0,0,1,.3164,1.0684l.9493,4.0341-1.1123.2617-.9385-3.9912a3.1,3.1,0,0,0-.3692-.9863,1.1,1.1,0,0,0-.5879-.43,1.4944,1.4944,0,0,0-.8212-.0176,1.8462,1.8462,0,0,0-1.1211.74A2.288,2.288,0,0,0,71.23,104.1l.8437,3.584Z"/></g><g class="cls-1"><path class="cls-3" d="M70.9614,107.9453l-1.5439-6.5625,1.001-.2353.22.9326a2.425,2.425,0,0,1,1.834-1.5723,2.7966,2.7966,0,0,1,1.1406-.043,1.7678,1.7678,0,0,1,.876.3838,2.2088,2.2088,0,0,1,.539.7393,6.5478,6.5478,0,0,1,.3164,1.0684l.9493,4.0341-1.1123.2617-.9385-3.9912a3.1,3.1,0,0,0-.3692-.9863,1.1,1.1,0,0,0-.5879-.43,1.4944,1.4944,0,0,0-.8212-.0176,1.8462,1.8462,0,0,0-1.1211.74A2.288,2.288,0,0,0,71.23,104.1l.8437,3.584Z"/></g><g class="cls-1"><path class="cls-2" d="M77.72,104.1484l.9864-.5791a1.5871,1.5871,0,0,0,.874.7754,1.8548,1.8548,0,0,0,1.2637-.1084,1.7829,1.7829,0,0,0,.97-.7256.96.96,0,0,0,.08-.8388.6952.6952,0,0,0-.5362-.4444,4.9424,4.9424,0,0,0-1.2285.0664,10.77,10.77,0,0,1-1.8232.126,1.6631,1.6631,0,0,1-1.4834-1.0781,1.7181,1.7181,0,0,1-.1133-.8516,1.8531,1.8531,0,0,1,.289-.8,2.3941,2.3941,0,0,1,.5547-.5752,3.4888,3.4888,0,0,1,.8692-.4882,3.9107,3.9107,0,0,1,1.3808-.2969,1.8957,1.8957,0,0,1,1.05.2529,2.4049,2.4049,0,0,1,.7481.8272l-.9834.5507a1.2238,1.2238,0,0,0-.708-.5957,1.6152,1.6152,0,0,0-1.0674.1065,1.8617,1.8617,0,0,0-.95.6533.7558.7558,0,0,0-.0908.6895.6321.6321,0,0,0,.2773.3212.9958.9958,0,0,0,.5186.1231c.1211-.0029.4707-.0342,1.0459-.0967a13.7437,13.7437,0,0,1,1.7695-.125,1.7026,1.7026,0,0,1,.918.2832,1.6729,1.6729,0,0,1,.6113.81,1.9065,1.9065,0,0,1,.083,1.124,2.1432,2.1432,0,0,1-.6084,1.0772,3.5,3.5,0,0,1-1.2226.7773,3.1625,3.1625,0,0,1-2.0645.2236A2.5356,2.5356,0,0,1,77.72,104.1484Z"/></g><g class="cls-1"><path class="cls-3" d="M77.72,104.1484l.9864-.5791a1.5871,1.5871,0,0,0,.874.7754,1.8548,1.8548,0,0,0,1.2637-.1084,1.7829,1.7829,0,0,0,.97-.7256.96.96,0,0,0,.08-.8388.6952.6952,0,0,0-.5362-.4444,4.9424,4.9424,0,0,0-1.2285.0664,10.77,10.77,0,0,1-1.8232.126,1.6631,1.6631,0,0,1-1.4834-1.0781,1.7181,1.7181,0,0,1-.1133-.8516,1.8531,1.8531,0,0,1,.289-.8,2.3941,2.3941,0,0,1,.5547-.5752,3.4888,3.4888,0,0,1,.8692-.4882,3.9107,3.9107,0,0,1,1.3808-.2969,1.8957,1.8957,0,0,1,1.05.2529,2.4049,2.4049,0,0,1,.7481.8272l-.9834.5507a1.2238,1.2238,0,0,0-.708-.5957,1.6152,1.6152,0,0,0-1.0674.1065,1.8617,1.8617,0,0,0-.95.6533.7558.7558,0,0,0-.0908.6895.6321.6321,0,0,0,.2773.3212.9958.9958,0,0,0,.5186.1231c.1211-.0029.4707-.0342,1.0459-.0967a13.7437,13.7437,0,0,1,1.7695-.125,1.7026,1.7026,0,0,1,.918.2832,1.6729,1.6729,0,0,1,.6113.81,1.9065,1.9065,0,0,1,.083,1.124,2.1432,2.1432,0,0,1-.6084,1.0772,3.5,3.5,0,0,1-1.2226.7773,3.1625,3.1625,0,0,1-2.0645.2236A2.5356,2.5356,0,0,1,77.72,104.1484Z"/></g><path class="cls-9" d="M65.11,22.8372a2.9166,2.9166,0,1,1,.0058,0Zm-8.6243-8.12a2.9161,2.9161,0,1,1,2.9157-2.9165v.0011A2.9134,2.9134,0,0,1,56.49,14.7172Zm0,8.12a2.9132,2.9132,0,1,1,.005,0Zm8.6243-8.12a2.9077,2.9077,0,0,1-1.754-5.2343,15.3675,15.3675,0,1,0,4.288,3.7391A2.9075,2.9075,0,0,1,65.11,14.7172ZM56.4859,5.84A2.9158,2.9158,0,1,0,53.57,2.9238h0A2.9167,2.9167,0,0,0,56.486,5.8393Zm8.6243,0A2.9158,2.9158,0,1,0,62.194,2.9243h0A2.9193,2.9193,0,0,0,65.11,5.8393Z"/><path class="cls-9" d="M81.6577,20.3294a1.5088,1.5088,0,0,0,1.667-1.3319l.0049-.0519c0-2.48-5.7275-2.0568-5.7275-6.2848,0-2.1147,1.7684-3.7677,4.3248-3.7677a5.1165,5.1165,0,0,1,4.1514,1.9221.2563.2563,0,0,1,.058.1346.2825.2825,0,0,1-.0963.154l-1.8641,1.4225c-.0581.0572-.0963.0959-.1351.0959-.0576,0-.0765-.0194-.1345-.1152a2.0029,2.0029,0,0,0-1.8642-1.1147A1.3133,1.3133,0,0,0,80.59,12.55q-.0074.0643-.0082.1292c0,2.2107,5.8044,1.8069,5.8044,6.2275,0,2.2679-1.6337,3.941-4.6512,3.941a5.6128,5.6128,0,0,1-4.69-2.3646.309.309,0,0,1-.0575-.1539c0-.0379.0193-.0765.0959-.1346l1.9028-1.46c.077-.058.1152-.0765.1536-.0765.0579,0,.0769.0185.1349.1152A2.7542,2.7542,0,0,0,81.6575,20.33Z"/><path class="cls-9" d="M93.1757,20.2141c1.1528,0,1.9031-.5762,1.9031-1.6916,0-1.2871-.7112-1.6909-2.1913-1.6909H91.6382c-.1732,0-.1921.0193-.1921.1918v2.9982c0,.1732.0189.1925.1921.1925Zm-1.73-5.8817c0,.1732.0189.1926.1921.1926H92.58c1.057,0,1.7876-.3651,1.7876-1.4991,0-1.038-.6923-1.499-1.7876-1.499h-.9418c-.1732,0-.1921.0185-.1921.1917ZM88.6969,9.3355c0-.1732.0191-.1926.1923-.1926h3.6134a5.8945,5.8945,0,0,1,3.0752.5577,3.0964,3.0964,0,0,1,1.5763,2.8829A2.8227,2.8227,0,0,1,95.77,15.1013a.1391.1391,0,0,0-.0765.1153c0,.0386,0,.0579.0765.0966a3.56,3.56,0,0,1,2.1918,3.4212c0,2.8249-2.0189,3.8637-5.017,3.8637H88.89c-.1732,0-.1923-.02-.1923-.1926V9.3355Z"/><path class="cls-9" d="M103.9281,16.4279a.145.145,0,0,0,.2032.0274.1481.1481,0,0,0,.0274-.0274l2.7869-7.0924c.0573-.1346.0959-.1926.2305-.1926h2.6524c.0959,0,.1152.0194.1152.058a.5083.5083,0,0,1-.0379.1346l-5.6891,13.5124c-.02.0573-.1161.0766-.1733.0766-.0773,0-.1733-.0193-.1918-.0766L98.181,9.3355a.4861.4861,0,0,1-.0386-.1346c0-.0386.0193-.058.1159-.058h2.671c.1345,0,.1732.058.23.1926l2.7684,7.0924Z"/><path class="cls-9" d="M77.3079,36.6634a.1534.1534,0,0,1-.0356-.0828.1715.1715,0,0,1,.0591-.0951l.6529-.6529a.2143.2143,0,0,1,.0831-.0595c.0236,0,.0472.024.0828.0719a1.8277,1.8277,0,0,0,1.6862,1.0914A1.1526,1.1526,0,0,0,81.09,35.8945q.005-.0545.0048-.1091c0-1.7458-3.5257-1.7218-3.5257-4.1436A2.1432,2.1432,0,0,1,79.7137,29.5q.0676,0,.1352.0044a2.407,2.407,0,0,1,2.1128,1.0333.21.21,0,0,1,.0356.0828.1728.1728,0,0,1-.0592.0952l-.5817.5816a.211.211,0,0,1-.0836.06c-.0232,0-.0475-.024-.0831-.0712a1.4413,1.4413,0,0,0-1.3172-.6884.9789.9789,0,0,0-1.0687,1.0443c0,1.52,3.5377,1.52,3.5377,4.0841a2.2789,2.2789,0,0,1-2.5526,2.3259A2.8932,2.8932,0,0,1,77.3079,36.6634Z"/><path class="cls-9" d="M85.9824,38.052a2.7128,2.7128,0,0,1,0-5.4254,3.3277,3.3277,0,0,1,1.2585.2506c.0832.0357.0947.0589.0947.1184v.9731c0,.06-.0115.0835-.0472.0835a.2164.2164,0,0,1-.06-.0239,1.7064,1.7064,0,0,0-1.2228-.451,1.7633,1.7633,0,1,0,1.27,3.0275c.012-.0124.0237-.0124.0477-.0124.0355,0,.0471.024.0471.0835v.9847c0,.06-.0116.0828-.0948.1192a3.2047,3.2047,0,0,1-1.294.2722Z"/><path class="cls-9" d="M93.2568,37.9334h-.8075c-.1068,0-.1187-.0239-.1187-.1183V34.8706c0-.8184-.3679-1.2933-1.14-1.2933a1.409,1.409,0,0,0-1.4484,1.5191v2.7189c0,.0944-.0116.1183-.1183.1183h-.8072c-.1067,0-.1188-.0239-.1188-.1183V29.1489c0-.0951.0121-.1191.1188-.1191h.8072c.1067,0,.1183.024.1183.1191V33.34c0,.0116.012.024.0475.024.024,0,.0357,0,.0476-.0124a1.9383,1.9383,0,0,1,1.5552-.7248,1.8,1.8,0,0,1,1.9829,2.0065v3.1822c0,.0944-.012.1183-.1188.1183Z"/><path class="cls-9" d="M96.5176,38.1472q-.0534,0-.1068-.1068l-2.2316-5.1755a.4241.4241,0,0,0-.0235-.0712c0-.0356.0355-.0472.1067-.0472h.8783c.0947,0,.1068.0225.1543.1184l1.1754,2.98a.089.089,0,0,0,.1245.0179.0915.0915,0,0,0,.0178-.0179l1.1993-3.159c.0356-.0828.0588-.1184.0944-.1184s.0595.0356.0951.1184l1.2113,3.159a.089.089,0,0,0,.1424,0l1.1634-2.98c.0471-.0959.0595-.1184.1539-.1184h.8787c.0711,0,.1067.0116.1067.0472a.4348.4348,0,0,0-.0239.0712L99.4032,38.04q-.0535.1068-.1068.1068c-.048,0-.0836-.0356-.1191-.1068L97.99,35.0369a.0889.0889,0,0,0-.1423,0L96.637,38.04c-.024.0712-.06.1068-.1191.1068Z"/><path class="cls-9" d="M103.2931,34.835c0,.1068.0116.1191.1183.1191h2.541c.1308,0,.1308-.0123.1184-.1191a1.302,1.302,0,0,0-1.3328-1.27l-.0325.0012A1.409,1.409,0,0,0,103.2931,34.835Zm1.6971,2.2684a2.4278,2.4278,0,0,0,1.5084-.4981c.0115-.0124.0355-.048.0711-.048s.0472.0356.0472.1191v.8184a.1786.1786,0,0,1-.0951.1663,2.8391,2.8391,0,0,1-1.5316.3914,2.7185,2.7185,0,0,1-.2847-5.4254,2.4475,2.4475,0,0,1,2.4219,2.7073v.3318c0,.0959-.0116.12-.1184.12h-3.5264c-.1067,0-.13.0117-.13.1068.0827.748.6884,1.21,1.6375,1.21Z"/><path class="cls-9" d="M108.62,32.7465h.8067c.1076,0,.12.0225.12.1184v4.95c0,.0944-.0123.1183-.12.1183H108.62c-.1068,0-.1191-.0239-.1191-.1183v-4.95C108.5011,32.769,108.5134,32.7465,108.62,32.7465Zm-.3326-1.8285a.7348.7348,0,0,1,.7215-.7479h.0148a.7475.7475,0,0,1,.7364.7356.7668.7668,0,0,1-.7364.748A.7469.7469,0,0,1,108.2876,30.918Z"/><path class="cls-9" d="M112.37,36.9127a.0627.0627,0,0,0,.053.0711.061.061,0,0,0,.0181,0h1.9354c.1074,0,.1191.0124.1191.1191v.7124c0,.1068-.0117.1183-.1191.1183h-3.6085c-.0595,0-.0828-.0239-.0828-.0595a.48.48,0,0,1,.0233-.0711l2.2563-3.9526A.278.278,0,0,0,113,33.7312c0-.0356-.024-.0588-.0727-.0588H111.04c-.1067,0-.119-.0124-.119-.1191v-.6884c0-.1068.0123-.1184.119-.1184h3.55c.0588,0,.0828.0116.0828.0472a.417.417,0,0,1-.024.0712l-2.244,3.941A.2869.2869,0,0,0,112.37,36.9127Z"/><path class="cls-9" d="M116.5348,34.835c0,.1068.0116.1191.1184.1191h2.54c.1314,0,.1314-.0123.1183-.1191a1.3013,1.3013,0,0,0-1.3314-1.27l-.0331.0012a1.4093,1.4093,0,0,0-1.4124,1.2693Zm1.697,2.2679a2.4272,2.4272,0,0,0,1.5085-.4981c.0111-.0124.0357-.048.0713-.048s.0468.0356.0468.1191v.8184a.1775.1775,0,0,1-.0951.1663,2.8377,2.8377,0,0,1-1.5315.3914,2.7185,2.7185,0,0,1-.2846-5.4254,2.4475,2.4475,0,0,1,2.4221,2.7073v.3318c0,.0959-.0119.12-.1189.12h-3.5261c-.1067,0-.13.0117-.13.1068.0828.748.6884,1.2105,1.6374,1.2105Z"/><path class="cls-9" d="M121.696,37.8153v-4.95c0-.0959.0111-.1184.118-.1184h.8079c.1061,0,.118.0225.118.1184v.6281c0,.0123.0127.0239.0475.0239.0238,0,.0357,0,.0476-.0116a1.8775,1.8775,0,0,1,1.5556-.88c.1069,0,.118.024.118.12v.8548c0,.0827-.023.13-.0586.13-.0475,0-.1426-.0232-.3208-.0232-.9022,0-1.3893.7712-1.3893,2.0536v2.0537c0,.0944-.0119.1183-.118.1183h-.8079c-.1069,0-.118-.0239-.118-.1183Z"/><path class="cls-9" d="M125.7894,32.7465h.8071c.107,0,.1188.0225.1188.1184v4.95c0,.0944-.0118.1183-.1188.1183h-.8071c-.1069,0-.12-.0239-.12-.1183v-4.95C125.6694,32.769,125.6821,32.7465,125.7894,32.7465Zm-.3327-1.8285a.7346.7346,0,0,1,.7211-.7479h.0148a.7474.7474,0,0,1,.7366.7356.7666.7666,0,0,1-.7366.748A.747.747,0,0,1,125.4567,30.918Z"/><path class="cls-9" d="M129.943,33.5061a.62.62,0,0,0-.6959.5334q-.0039.03-.005.06c0,1.0326,2.4688.6528,2.4688,2.4335,0,.7124-.5219,1.5191-1.8154,1.5191a2.1159,2.1159,0,0,1-1.8281-.8779.1629.1629,0,0,1-.0245-.0828.1226.1226,0,0,1,.0475-.0951l.4863-.4865c.0364-.0356.0594-.048.084-.048s.0467.0124.0823.0595a1.3326,1.3326,0,0,0,1.1755.6413c.5109,0,.7722-.2615.7722-.6057,0-.949-2.4459-.64-2.4459-2.3978a1.5414,1.5414,0,0,1,1.5454-1.5372q.0586,0,.1172.0048a1.8339,1.8339,0,0,1,1.59.7132.1794.1794,0,0,1,.0237.0827.1237.1237,0,0,1-.0483.0952l-.4626.4634c-.0356.0355-.0594.0472-.0823.0472s-.0483-.0117-.084-.06a1.0017,1.0017,0,0,0-.9014-.4626Z"/><path class="cls-9" d="M135.3172,38.052a2.7128,2.7128,0,0,1,0-5.4254,3.3349,3.3349,0,0,1,1.2587.2506c.0831.0357.095.0589.095.1184v.9731c0,.06-.0119.0835-.0475.0835a.2235.2235,0,0,1-.0594-.0239,1.71,1.71,0,0,0-1.223-.451,1.7667,1.7667,0,0,0,0,3.5256,1.6322,1.6322,0,0,0,1.2713-.4981c.0111-.0124.023-.0124.0467-.0124.0357,0,.0475.024.0475.0835v.9847c0,.06-.0118.0828-.0942.1192A3.2139,3.2139,0,0,1,135.3172,38.052Z"/><path class="cls-9" d="M142.5908,37.9334h-.8063c-.1069,0-.1188-.0239-.1188-.1183V34.8706c0-.8184-.3675-1.2933-1.14-1.2933a1.4087,1.4087,0,0,0-1.4487,1.5191v2.7189c0,.0944-.0119.1183-.118.1183h-.8079c-.1069,0-.118-.0239-.118-.1183V29.1489c0-.0951.0111-.1191.118-.1191h.8079c.1061,0,.118.024.118.1191V33.34c0,.0116.0127.024.0475.024.0238,0,.0357,0,.0476-.0124a1.9383,1.9383,0,0,1,1.5556-.7248,1.7992,1.7992,0,0,1,1.9825,2.0068v3.1822c0,.0944-.0119.1183-.1189.1183Z"/><path class="cls-9" d="M145.0217,34.835c0,.1068.0111.1191.1181.1191h2.5409c.1307,0,.1307-.0123.1188-.1191a1.3022,1.3022,0,0,0-1.333-1.27l-.0325.0012a1.4091,1.4091,0,0,0-1.4123,1.2693Zm1.6966,2.2679a2.4265,2.4265,0,0,0,1.5089-.4981c.0111-.0124.0357-.048.0713-.048s.0468.0356.0468.1191v.8184a.179.179,0,0,1-.0951.1663,2.8364,2.8364,0,0,1-1.5319.3914,2.7186,2.7186,0,0,1-.2843-5.4254,2.4475,2.4475,0,0,1,2.4221,2.7073v.3318c0,.0959-.0118.12-.1188.12H145.211c-.1069,0-.13.0117-.13.1068.0832.748.6883,1.2105,1.6372,1.2105Z"/><path class="cls-9" d="M150.1821,37.8153v-4.95c0-.0959.0119-.1184.1188-.1184h.8079c.1069,0,.1188.0225.1188.1184v.6281c0,.0123.0119.0239.0475.0239.0238,0,.0357,0,.0476-.0116a1.8749,1.8749,0,0,1,1.5548-.88c.1069,0,.118.024.118.12v.8548c0,.0827-.023.13-.0586.13-.0483,0-.1426-.0232-.3208-.0232-.9022,0-1.3885.7712-1.3885,2.0536v2.0537c0,.0944-.0119.1183-.1188.1183h-.8079c-.1069,0-.1188-.0239-.1188-.1183Z"/><path class="cls-9" d="M160.9947,35.4878a1.2619,1.2619,0,0,0-1.3426-1.3529h-1.0669c-.1077,0-.12.0117-.12.1184V36.77c0,.1067.0119.1192.12.1192h1.1271a1.2555,1.2555,0,0,0,1.2824-1.4017Zm-2.41-2.397h.7826a1.1559,1.1559,0,0,0,1.2467-1.2353,1.1316,1.1316,0,0,0-1.2467-1.1866h-.7826c-.1077,0-.12.0116-.12.1184v2.1843C158.4652,33.0783,158.4771,33.0908,158.5852,33.0908Zm-1.14-3.4677h1.9224c1.5682,0,2.434.8555,2.434,2.15a1.7372,1.7372,0,0,1-.8784,1.5911.0847.0847,0,0,0-.0475.0711.06.06,0,0,0,.0475.0589,2.0893,2.0893,0,0,1,1.33,2.0536,2.4018,2.4018,0,0,1-2.7073,2.3862h-2.1006c-.1069,0-.1188-.0115-.1188-.1183V29.7422c0-.1067.0119-.1191.1188-.1191Z"/><path class="cls-9" d="M163.7447,29.03h.808c.1069,0,.1188.024.1188.1191v8.6664c0,.0944-.0119.1183-.1188.1183h-.808c-.1061,0-.1188-.0239-.1188-.1183V29.1489C163.6259,29.0538,163.6386,29.03,163.7447,29.03Z"/><path class="cls-9" d="M166.5455,32.7465h.8071c.107,0,.12.0225.12.1184v4.95c0,.0944-.0126.1183-.12.1183h-.8071c-.1069,0-.12-.0239-.12-.1183v-4.95C166.4255,32.769,166.4382,32.7465,166.5455,32.7465Zm-.3327-1.8285a.7344.7344,0,0,1,.7207-.7479h.0144a.7476.7476,0,0,1,.7374.7356.7662.7662,0,0,1-.7374.748A.7474.7474,0,0,1,166.2128,30.918Z"/><path class="cls-9" d="M173.62,37.9334h-.8079c-.1069,0-.1188-.0239-.1188-.1183V34.8706c0-.8184-.297-1.2933-1.0677-1.2933a1.3745,1.3745,0,0,0-1.4092,1.3389,1.3564,1.3564,0,0,0,.0072.18v2.7189c0,.0944-.0111.1183-.118.1183h-.8079c-.107,0-.1181-.0239-.1181-.1183v-4.95c0-.1068.0111-.1184.1181-.1184h.8079c.1069,0,.118.0225.118.1184V33.34c0,.0116.0127.024.0483.024.023,0,.0357,0,.0467-.0124a2.05,2.05,0,0,1,1.5557-.7248c1.4368,0,1.8645.88,1.8645,2.0065v3.1822c0,.0944-.0119.1183-.1188.1183Z"/><path class="cls-9" d="M177.6646,33.5773a1.7686,1.7686,0,1,0,1.62,1.906q.006-.0746.0058-.1494a1.6646,1.6646,0,0,0-1.57-1.7544Zm1.7442-4.5475h.8079c.1069,0,.1188.024.1188.1191v8.6664c0,.0944-.0119.1183-.1188.1183h-.8079c-.107,0-.1188-.0239-.1188-.1183V37.34c0-.0124-.0119-.024-.0476-.024-.0229,0-.0356,0-.0475.0116a2.2875,2.2875,0,0,1-1.6729.724,2.7163,2.7163,0,0,1,0-5.4254,2.2233,2.2233,0,0,1,1.6729.7248c.0119.0124.0246.0124.0475.0124.0357,0,.0476-.0124.0476-.024V29.1489C179.29,29.0538,179.3018,29.03,179.4088,29.03Z"/><path class="cls-9" d="M182.7181,34.835c0,.1068.011.1191.118.1191h2.5409c.1307,0,.1307-.0123.1181-.1191a1.3008,1.3008,0,0,0-1.33-1.27l-.0336.0012A1.4092,1.4092,0,0,0,182.7181,34.835Zm1.6974,2.2679a2.4224,2.4224,0,0,0,1.5073-.4981c.0119-.0124.0356-.048.0713-.048s.0475.0356.0475.1191v.8184a.179.179,0,0,1-.0951.1663,2.8351,2.8351,0,0,1-1.531.3914,2.7185,2.7185,0,0,1-.2844-5.4254,2.4475,2.4475,0,0,1,2.4206,2.7073v.3318c0,.0959-.0111.12-.118.12h-3.5264c-.1069,0-.13.0117-.13.1068.0823.748.6883,1.2105,1.638,1.2105Z"/><path class="cls-9" d="M192.32,37.9334h-.808c-.1069,0-.118-.0239-.118-.1183V34.8706c0-.8184-.297-1.2933-1.0693-1.2933a1.374,1.374,0,0,0-1.4,1.5191v2.7189c0,.0944-.0118.1183-.1188.1183h-.8071c-.1069,0-.1188-.0239-.1188-.1183v-4.95c0-.1068.0119-.1184.1188-.1184h.8071c.107,0,.1188.0225.1188.1184V33.34c0,.0116.0119.024.0476.024.0229,0,.0356,0,.0475-.0124a2.0454,2.0454,0,0,1,1.5556-.7248c1.436,0,1.863.88,1.863,2.0065v3.1822c0,.0944-.0119.1183-.118.1183Z"/><path class="cls-9" d="M193.9774,34.2534h2.1378c.1061,0,.118.0124.118.1191v.7124c0,.1068-.0119.1184-.118.1184h-2.1378c-.1062,0-.1189-.0116-.1189-.1184v-.7125c0-.1067.0238-.1191.1189-.1191Z"/><path class="cls-9" d="M80.7148,49.1867v-3.016c0-.0951.012-.1183.1187-.1183h.8072c.1071,0,.1187.0232.1187.1183v3.0871a2.1614,2.1614,0,0,1-4.3212,0V46.1707c0-.0951.0119-.1183.1187-.1183h.8075c.1068,0,.1188.0232.1188.1183v3.016a1.12,1.12,0,1,0,2.2316,0Z"/><path class="cls-9" d="M87.7394,51.24h-.8072c-.1067,0-.1187-.0239-.1187-.1183V48.1772c0-.8191-.2966-1.294-1.0682-1.294a1.374,1.374,0,0,0-1.4009,1.52v2.7189c0,.0944-.0119.1183-.1187.1183h-.8075c-.1068,0-.1187-.0239-.1187-.1183V46.1707c0-.1067.0119-.1183.1187-.1183h.8075c.1068,0,.1187.0232.1187.1183v.475c0,.0116.0117.024.0472.024.024,0,.0356,0,.0477-.0124a2.0451,2.0451,0,0,1,1.5551-.724c1.4364,0,1.8637.8787,1.8637,2.0065V51.122C87.8581,51.2164,87.8461,51.24,87.7394,51.24Z"/><path class="cls-9" d="M91.7845,46.8834a1.7685,1.7685,0,1,0,1.6209,1.9047q.006-.0735.0057-.1473a1.665,1.665,0,0,0-1.57-1.7552ZM93.53,42.3367h.8068c.1067,0,.1187.024.1187.1191v8.6664c0,.0944-.012.1183-.1187.1183H93.53c-.1071,0-.1188-.0239-.1188-.1183v-.4757c0-.0124-.0119-.024-.0475-.024-.024,0-.0356,0-.0476.0116a2.286,2.286,0,0,1-1.6743.7248,2.7163,2.7163,0,0,1,0-5.4254,2.2261,2.2261,0,0,1,1.6743.724c.012.0124.0236.0124.0476.0124.0356,0,.0475-.0124.0475-.024v-4.19c0-.0951.0117-.1191.1188-.1191Z"/><path class="cls-9" d="M98.9731,49.9694a.1564.1564,0,0,1-.0356-.0827.1716.1716,0,0,1,.0588-.0952l.6528-.6528a.211.211,0,0,1,.0844-.06c.0231,0,.0471.024.0826.0713a1.8264,1.8264,0,0,0,1.6856,1.0921,1.1531,1.1531,0,0,0,1.2536-1.0428q.0049-.054.0048-.1082c0-1.7458-3.5264-1.7218-3.5264-4.1429a2.1433,2.1433,0,0,1,2.1451-2.1415c.0448,0,.09.0014.1344.0043a2.41,2.41,0,0,1,2.1141,1.0326.2167.2167,0,0,1,.0356.0828.1728.1728,0,0,1-.06.0951l-.5817.5817a.2156.2156,0,0,1-.0828.06c-.0239,0-.0479-.024-.0835-.0719a1.4439,1.4439,0,0,0-1.318-.6877.9788.9788,0,0,0-1.0682,1.045c0,1.5192,3.538,1.5192,3.538,4.0833a2.28,2.28,0,0,1-2.5526,2.3268,2.8933,2.8933,0,0,1-2.4814-1.3893Z"/><path class="cls-9" d="M106.0568,48.1416c0,.1068.0116.1192.1184.1192h2.541c.1307,0,.1307-.0124.1183-.1192a1.302,1.302,0,0,0-1.3313-1.272l-.0332.0012A1.4107,1.4107,0,0,0,106.0568,48.1416Zm1.6979,2.2672a2.4246,2.4246,0,0,0,1.5083-.4989c.0116-.0116.0356-.0472.0712-.0472s.0472.0356.0472.1192v.819a.1782.1782,0,0,1-.0959.1664,2.8355,2.8355,0,0,1-1.5308.3914,2.7185,2.7185,0,0,1-.2845-5.4253,2.448,2.448,0,0,1,2.4357,2.46q-.0008.1239-.0138.2472v.3318c0,.0952-.0116.1191-.1184.1191h-3.5271c-.1068,0-.13.0116-.13.1068.0827.7479.6892,1.21,1.6383,1.21Z"/><path class="cls-9" d="M115.7775,51.24H114.97c-.1068,0-.1191-.0239-.1191-.1183V48.1772c0-.8191-.3675-1.294-1.1394-1.294a1.41,1.41,0,0,0-1.4488,1.52v2.7189c0,.0944-.0116.1183-.1183.1183h-.8075c-.1068,0-.1184-.0239-.1184-.1183V42.4556c0-.0951.0116-.1191.1184-.1191h.8075c.1067,0,.1183.024.1183.1191v4.19c0,.0116.0124.024.048.024.0232,0,.0356,0,.0471-.0124a1.9384,1.9384,0,0,1,1.5556-.724,1.7991,1.7991,0,0,1,1.9825,2.0065v3.1822c0,.0944-.0116.1183-.1184.1183Z"/><path class="cls-9" d="M120.1784,46.8834a1.7686,1.7686,0,1,0,1.62,1.9061q.006-.0742.0058-.1487a1.6652,1.6652,0,0,0-1.57-1.7552Zm-1.6031-.2135c.0232,0,.0356,0,.0472-.0124a2.29,2.29,0,0,1,1.6739-.724,2.7163,2.7163,0,0,1,0,5.4254,2.2,2.2,0,0,1-1.6739-.7248c-.0116-.0116-.024-.0116-.0472-.0116-.0356,0-.0479.0116-.0479.024v.4757c0,.0944-.0117.1183-.1184.1183h-.8076c-.1067,0-.1183-.0239-.1183-.1183V42.4556c0-.0951.0116-.1191.1183-.1191h.8076c.1067,0,.1184.024.1184.1191v4.19c0,.0116.0123.024.0479.024Z"/><path class="cls-9" d="M124.8754,48.1416c0,.1068.0118.1192.1188.1192h2.5409c.1307,0,.1307-.0124.118-.1192a1.3016,1.3016,0,0,0-1.3305-1.272l-.0342.0012A1.41,1.41,0,0,0,124.8754,48.1416Zm1.6982,2.2672a2.4215,2.4215,0,0,0,1.5073-.4989c.0118-.0116.0356-.0472.0713-.0472s.0475.0356.0475.1192v.819a.1786.1786,0,0,1-.0959.1664,2.8343,2.8343,0,0,1-1.53.3914,2.7185,2.7185,0,0,1-.2852-5.4254,2.4475,2.4475,0,0,1,2.4214,2.7073v.3318c0,.0952-.0119.1191-.118.1191h-3.5271c-.1062,0-.13.0116-.13.1068.0831.7479.6891,1.21,1.6388,1.21Z"/><path class="cls-9" d="M134.5957,51.24h-.8072c-.1069,0-.1188-.0239-.1188-.1183V48.1772c0-.8191-.3675-1.294-1.1406-1.294a1.4093,1.4093,0,0,0-1.4516,1.3658,1.3916,1.3916,0,0,0,.0037.1542v2.7189c0,.0944-.011.1183-.118.1183h-.8079c-.1069,0-.118-.0239-.118-.1183V42.4556c0-.0951.0111-.1191.118-.1191h.8079c.107,0,.118.024.118.1191v4.19c0,.0116.0127.024.0484.024.0229,0,.0356,0,.0467-.0124a1.937,1.937,0,0,1,1.5548-.724,1.7986,1.7986,0,0,1,1.9826,2.0065v3.1822c0,.0944-.0119.1183-.118.1183Z"/><path class="cls-9" d="M136.4673,46.0524h.8079c.1062,0,.1189.0232.1189.1183V51.122c0,.0944-.0127.1183-.1189.1183h-.8079c-.1069,0-.1188-.0239-.1188-.1183V46.1707C136.3485,46.0756,136.36,46.0524,136.4673,46.0524Zm-.3326-1.8286a.7349.7349,0,0,1,.7218-.7478h.0156a.7467.7467,0,0,1,.735.7364.7661.7661,0,0,1-.735.7479A.7478.7478,0,0,1,136.1347,44.2238Z"/><path class="cls-9" d="M143.5421,51.24h-.8087c-.1069,0-.118-.0239-.118-.1183V48.1772c0-.8191-.297-1.294-1.0685-1.294a1.3741,1.3741,0,0,0-1.4,1.52v2.7189c0,.0944-.0119.1183-.1188.1183H139.22c-.1069,0-.1188-.0239-.1188-.1183V46.1707c0-.1067.0119-.1183.1188-.1183h.8079c.1069,0,.1188.0232.1188.1183v.475c0,.0116.0119.024.0475.024.023,0,.0357,0,.0476-.0124a2.0429,2.0429,0,0,1,1.5548-.724c1.4368,0,1.8637.8787,1.8637,2.0065V51.122c0,.0944-.0118.1183-.118.1183Z"/><path class="cls-9" d="M147.5865,46.8834a1.7685,1.7685,0,1,0,1.62,1.9052c.0039-.0492.0059-.0985.0057-.1478a1.6649,1.6649,0,0,0-1.5694-1.7552Zm1.7441-4.5467h.8087c.1069,0,.118.024.118.1191v8.6664c0,.0944-.0111.1183-.118.1183H149.33c-.1069,0-.118-.0239-.118-.1183v-.4757c0-.0124-.0127-.024-.0483-.024-.023,0-.0357,0-.0468.0116a2.2853,2.2853,0,0,1-1.6736.7248,2.7163,2.7163,0,0,1,0-5.4254,2.2241,2.2241,0,0,1,1.6736.724c.0111.0124.0238.0124.0468.0124.0356,0,.0483-.0124.0483-.024v-4.19c0-.0951.0111-.1191.118-.1191Z"/><path class="cls-9" d="M152.64,48.1416c0,.1068.0119.1192.118.1192h2.541c.1307,0,.1307-.0124.1188-.1192a1.3027,1.3027,0,0,0-1.3328-1.2719l-.032.0011A1.41,1.41,0,0,0,152.64,48.1416Zm1.6982,2.2672a2.4215,2.4215,0,0,0,1.5073-.4989c.0119-.0116.0356-.0472.0713-.0472s.0467.0356.0467.1192v.819a.1778.1778,0,0,1-.095.1664,2.8343,2.8343,0,0,1-1.53.3914,2.7185,2.7185,0,0,1-.2852-5.4254,2.4484,2.4484,0,0,1,2.4222,2.7073v.3318c0,.0952-.0119.1191-.1188.1191h-3.5277c-.107,0-.13.0116-.13.1068.0831.7479.6891,1.21,1.6388,1.21Z"/><path class="cls-9" d="M157.8018,51.122V46.1707c0-.0951.0111-.1183.118-.1183h.8079c.1062,0,.1181.0232.1181.1183V46.8c0,.0123.0126.0239.0475.0239.0237,0,.0356,0,.0475-.0116a1.8749,1.8749,0,0,1,1.5556-.8787c.107,0,.1181.024.1181.1191v.8547c0,.0828-.023.13-.0586.13-.0476,0-.1426-.0232-.3208-.0232-.903,0-1.3893.7712-1.3893,2.0537V51.122c0,.0944-.0119.1183-.1181.1183H157.92c-.1069,0-.118-.0239-.118-.1183Z"/><path class="cls-9" d="M161.2893,46.8592v-.6885c0-.0951.0127-.1183.1188-.1183h.4745c.1077,0,.1188-.0124.1188-.1191V44.3546a.2041.2041,0,0,1,.1188-.19l.7715-.475c.0356-.0115.0475-.0355.0831-.0355s.0594.0355.0594.0951v2.1842c0,.1067.0119.1191.1181.1191h.7247c.1069,0,.12.0232.12.1183v.6885c0,.0951-.0127.1192-.12.1192h-.7247c-.1062,0-.1181.0115-.1181.1183v4.0253c0,.0944-.0126.1183-.1188.1183H162.12c-.1069,0-.1188-.0239-.1188-.1183V47.0967c0-.1068-.0111-.1183-.1188-.1183h-.4745c-.1061,0-.1188-.0241-.1188-.1192Z"/><path class="cls-9" d="M165.7637,48.1416c0,.1068.0119.1192.1188.1192h2.541c.1307,0,.1307-.0124.118-.1192a1.3017,1.3017,0,0,0-1.3307-1.272l-.034.0012A1.41,1.41,0,0,0,165.7637,48.1416Zm1.6982,2.2672a2.4218,2.4218,0,0,0,1.5074-.4989c.0118-.0116.0356-.0472.0712-.0472s.0476.0356.0476.1192v.819a.1786.1786,0,0,1-.0959.1664,2.8326,2.8326,0,0,1-1.53.3914,2.7185,2.7185,0,0,1-.2851-5.4254,2.4475,2.4475,0,0,1,2.4222,2.7073v.3318c0,.0952-.0119.1191-.1181.1191h-3.5271c-.1069,0-.13.0116-.13.1068.0824.7479.6891,1.21,1.638,1.21Z"/><path class="cls-9" d="M175.3652,51.24h-.8071c-.1069,0-.1188-.0239-.1188-.1183V48.1772c0-.8191-.297-1.294-1.0677-1.294a1.3746,1.3746,0,0,0-1.402,1.52v2.7189c0,.0944-.0111.1183-.118.1183h-.8079c-.1062,0-.118-.0239-.118-.1183V46.1707c0-.1067.0118-.1183.118-.1183h.8079c.1069,0,.118.0232.118.1183v.475c0,.0116.0127.024.0483.024.023,0,.0357,0,.0468-.0124a2.0458,2.0458,0,0,1,1.5556-.724c1.4368,0,1.8637.8787,1.8637,2.0065V51.122c0,.0944-.0118.1183-.1188.1183Z"/><path class="cls-9" d="M178.6864,49.1387a.0714.0714,0,0,0,.0713-.0356l1.2111-2.9324c.0467-.0951.0594-.1183.1536-.1183h.9149c.118,0,.118.0356.0823.1183l-2.3619,5.1764c-.0357.0711-.0832.1068-.12.1068s-.0713-.0357-.107-.1068l-2.255-5.1764c-.0475-.0951-.0356-.1183.0824-.1183h.9156c.0951,0,.1062.0232.1537.1183l1.1873,2.9324a.0714.0714,0,0,0,.0713.0356Z"/><path class="cls-9" d="M182.7553,48.1416c0,.1068.0119.1192.1188.1192h2.5409c.1307,0,.1307-.0124.1181-.1192a1.3015,1.3015,0,0,0-1.33-1.272l-.0336.0012A1.4112,1.4112,0,0,0,182.7553,48.1416Zm1.6982,2.2672a2.4181,2.4181,0,0,0,1.5073-.4989c.0119-.0116.0356-.0472.0713-.0472s.0475.0356.0475.1192v.819a.18.18,0,0,1-.095.1664,2.8365,2.8365,0,0,1-1.5311.3914,2.7185,2.7185,0,0,1-.2844-5.4254,2.4484,2.4484,0,0,1,2.4214,2.7073v.3318c0,.0952-.0111.1191-.118.1191h-3.5271c-.1069,0-.13.0116-.13.1068.0823.7479.6891,1.21,1.638,1.21Z"/><path class="cls-9" d="M187.9172,51.122V46.1707c0-.0951.0119-.1183.118-.1183h.8079c.107,0,.1181.0232.1181.1183V46.8c0,.0123.0126.0239.0483.0239.0229,0,.0356,0,.0475-.0116a1.8745,1.8745,0,0,1,1.5548-.8787c.107,0,.1189.024.1189.1191v.8547c0,.0828-.023.13-.0587.13-.0483,0-.1425-.0232-.3215-.0232-.9022,0-1.3893.7712-1.3893,2.0537V51.122c0,.0944-.0111.1183-.1181.1183h-.8079c-.1061,0-.118-.0239-.118-.1183Z"/><path class="cls-9" d="M194.5389,46.8834a1.7685,1.7685,0,1,0,1.62,1.9051c.0039-.0492.0059-.0984.0057-.1477a1.6658,1.6658,0,0,0-1.5712-1.7553Zm-1.6023-.2135c.0229,0,.0356,0,.0475-.0124a2.2911,2.2911,0,0,1,1.6737-.724,2.7163,2.7163,0,0,1,0,5.4254,2.2013,2.2013,0,0,1-1.6737-.7248c-.0119-.0116-.0246-.0116-.0475-.0116-.0357,0-.0483.0116-.0483.024v.4757c0,.0944-.0111.1183-.1181.1183h-.8079c-.1061,0-.118-.0239-.118-.1183V42.4556c0-.0951.0119-.1191.118-.1191h.8079c.107,0,.1181.024.1181.1191v4.19c0,.0116.0126.024.0483.024Z"/><path class="cls-9" d="M200.2815,48.605c-.701,0-1.1755.38-1.1755.9375,0,.5693.4388.9614,1.1755.9614a1.209,1.209,0,0,0,1.2221-1.0565C201.5036,48.9368,200.9336,48.605,200.2815,48.605Zm-.2012-.8307a2.2588,2.2588,0,0,1,1.3528.4154.07.07,0,0,0,.0468.0115c.0356,0,.0483-.0356.0483-.0828v-.273c0-.666-.38-1.0334-1.2349-1.0334a2.0228,2.0228,0,0,0-1.2356.38.1068.1068,0,0,1-.0824.0356c-.0356,0-.0483-.0356-.0483-.0952v-.724a.1662.1662,0,0,1,.0959-.1422,2.57,2.57,0,0,1,1.3655-.3327c1.8281,0,2.16,1.0094,2.16,1.899v3.29c0,.0944-.0119.1183-.1188.1183h-.7478c-.1069,0-.118-.0239-.118-.1183V50.718c0-.0109-.0126-.024-.0483-.024-.023,0-.0356,0-.0475.0131a1.7486,1.7486,0,0,1-1.3877.6521,1.81,1.81,0,0,1-1.9859-1.6151q-.0084-.0825-.0094-.1655a1.83,1.83,0,0,1,1.8486-1.8112q.0735.0007.1467.0074Z"/><path class="cls-9" d="M208.5761,51.24h-.8072c-.1069,0-.1188-.0239-.1188-.1183V48.1772c0-.8191-.297-1.294-1.0685-1.294a1.3739,1.3739,0,0,0-1.4012,1.52v2.7189c0,.0944-.0118.1183-.118.1183h-.8079c-.1069,0-.118-.0239-.118-.1183V46.1707c0-.1067.0111-.1183.118-.1183h.8079c.1062,0,.118.0232.118.1183v.475c0,.0116.0127.024.0483.024.023,0,.0349,0,.0468-.0124a2.044,2.044,0,0,1,1.5548-.724c1.4369,0,1.8646.8787,1.8646,2.0065V51.122c0,.0944-.0119.1183-.1188.1183Z"/><path class="cls-9" d="M212.6212,46.8834a1.7685,1.7685,0,1,0,1.62,1.9052q.0058-.0738.0057-.1478a1.6641,1.6641,0,0,0-1.568-1.7551Zm1.7449-4.5467h.8071c.1069,0,.1188.024.1188.1191v8.6664c0,.0944-.0119.1183-.1188.1183h-.8071c-.1069,0-.1188-.0239-.1188-.1183v-.4757c0-.0124-.0119-.024-.0475-.024-.0238,0-.0357,0-.0475.0116a2.2842,2.2842,0,0,1-1.6737.7248,2.7163,2.7163,0,0,1,0-5.4254,2.2241,2.2241,0,0,1,1.6737.724c.0118.0124.0237.0124.0475.0124.0356,0,.0475-.0124.0475-.024v-4.19c0-.0951.0119-.1191.1188-.1191Z"/><path class="cls-9" d="M77.878,61.9449h4.2855c.1068,0,.1184.0124.1184.1192V62.92c0,.1068-.0116.1184-.1184.1184H79.0409c-.1067,0-.1184.0116-.1184.1184v2.9323c0,.1068.0117.1191.1184.1191h3.0275c.1068,0,.1183.0117.1183.1184v.8431c0,.1067-.0115.1184-.1183.1184H79.0409c-.1067,0-.1184.0115-.1184.1183v2.7313c0,.1067-.0123.1183-.1191.1183H77.878c-.1076,0-.1192-.0116-.1192-.1183V62.0641C77.7588,61.9573,77.77,61.9449,77.878,61.9449Z"/><path class="cls-9" d="M86.2438,62.539h1.14c.1067,0,.1423.0116.0472.1183L85.9949,64.13c-.0951.0944-.1191.1183-.2134.1183H84.938c-.1184,0-.0828-.0472-.0228-.1183l1.1393-1.4728c.0712-.0951.0944-.1183.19-.1183Zm-2.0416,4.6179c0,.1067.0115.119.1183.119h2.541c.1307,0,.1307-.0123.1183-.119a1.3027,1.3027,0,0,0-1.3324-1.2721l-.0325.0012A1.41,1.41,0,0,0,84.2022,67.1569ZM85.9,69.4247a2.4214,2.4214,0,0,0,1.508-.4988c.0116-.0117.0356-.0472.0711-.0472s.0472.0355.0472.1191v.8184a.1785.1785,0,0,1-.0951.1662,2.8358,2.8358,0,0,1-1.5312.3915,2.7185,2.7185,0,0,1-.2847-5.4254,2.4483,2.4483,0,0,1,2.4219,2.7072v.3319c0,.0951-.0116.1191-.1183.1191H84.3916c-.1067,0-.13.0116-.13.1067.0826.7488.6887,1.2113,1.6378,1.2113Z"/><path class="cls-9" d="M91.7033,65.8991a1.7685,1.7685,0,1,0,1.6206,1.905q.006-.0741.0057-.1484a1.6645,1.6645,0,0,0-1.57-1.7544Zm1.7446-4.5474h.8079c.1068,0,.1183.0239.1183.119v8.6665c0,.0943-.0115.1183-.1183.1183h-.8079c-.1068,0-.1183-.024-.1183-.1183v-.475c0-.0124-.0124-.0239-.0481-.0239-.0232,0-.0355,0-.0471.0115a2.2865,2.2865,0,0,1-1.6735.7241,2.7163,2.7163,0,0,1,0-5.4254,2.2237,2.2237,0,0,1,1.6735.7239c.0116.0125.0239.0125.0471.0125.0357,0,.0481-.0125.0481-.024v-4.19c0-.0951.0115-.119.1183-.119Z"/><path class="cls-9" d="M98.7983,62.539h1.1394c.1067,0,.1423.0116.0471.1183L98.5492,64.13c-.0952.0944-.1192.1183-.2135.1183h-.8439c-.1183,0-.0828-.0472-.0232-.1183l1.14-1.4728c.0712-.0951.0944-.1183.19-.1183Zm-2.0421,4.6179c0,.1067.0116.119.1183.119h2.541c.1307,0,.1307-.0123.1183-.119a1.3024,1.3024,0,0,0-1.3321-1.272l-.0323.0011A1.4106,1.4106,0,0,0,96.7562,67.1569Zm1.6978,2.2678a2.4211,2.4211,0,0,0,1.5076-.4988c.0116-.0117.0356-.0472.0712-.0472s.0472.0355.0472.1191v.8184a.1784.1784,0,0,1-.0952.1662,2.8354,2.8354,0,0,1-1.5308.3915,2.7185,2.7185,0,0,1-.2846-5.4254,2.4483,2.4483,0,0,1,2.4219,2.7072v.3319c0,.0951-.0117.1191-.1185.1191H96.9457c-.1067,0-.13.0116-.13.1067.0827.7488.6884,1.2113,1.6382,1.2113Z"/><path class="cls-9" d="M101.9185,70.1372V65.1859c0-.0951.0117-.1183.1185-.1183h.8075c.1067,0,.1183.0232.1183.1183v.6289c0,.0131.0124.0248.0479.0248.0232,0,.0357,0,.0472-.0117a1.8746,1.8746,0,0,1,1.5556-.8794c.1067,0,.1183.0239.1183.1191v.8558c0,.0827-.0232.13-.0587.13-.048,0-.1424-.0233-.3211-.0233-.9026,0-1.3892.7712-1.3892,2.0529v2.0545c0,.0943-.0116.1183-.1183.1183h-.8075c-.1068,0-.1185-.024-.1185-.1183Z"/><path class="cls-9" d="M107.508,67.62c-.7016,0-1.1758.38-1.1758.9375,0,.57.4386.9623,1.1758.9623a1.2093,1.2093,0,0,0,1.2221-1.0574C108.73,67.952,108.1608,67.62,107.508,67.62Zm-.2019-.8307a2.2559,2.2559,0,0,1,1.3528.4154.0722.0722,0,0,0,.0472.0116c.0356,0,.048-.0356.048-.0827v-.2732c0-.6651-.38-1.0326-1.2346-1.0326a2.02,2.02,0,0,0-1.2352.38.1094.1094,0,0,1-.0828.0356c-.0356,0-.048-.0356-.048-.0951v-.725a.1668.1668,0,0,1,.0951-.1423,2.5728,2.5728,0,0,1,1.3661-.3326c1.8278,0,2.16,1.01,2.16,1.9v3.289c0,.0943-.0115.1183-.1183.1183h-.748c-.1067,0-.1184-.024-.1184-.1183v-.4041c0-.0116-.0123-.024-.0479-.024-.0232,0-.0356,0-.0472.0124a1.7509,1.7509,0,0,1-1.3884.6521,1.81,1.81,0,0,1-1.986-1.615q-.0084-.0825-.0094-.1655a1.83,1.83,0,0,1,1.8486-1.8112q.0734.0007.1464.0074Z"/><path class="cls-9" d="M110.8866,65.8751v-.6892c0-.0951.0124-.1183.1192-.1183h.4749c.1075,0,.1191-.0124.1191-.1191v-1.578a.2045.2045,0,0,1,.1184-.19l.7719-.4756c.0356-.0117.0472-.0357.0828-.0357s.0595.0357.0595.0952v2.1844c0,.1067.0117.1191.1184.1191h.724c.1067,0,.1191.0232.1191.1183v.6892c0,.0951-.0124.1192-.1191.1192h-.724c-.1067,0-.1184.0115-.1184.1183v4.0246c0,.0943-.0123.1183-.1191.1183h-.7951c-.1068,0-.1184-.024-.1184-.1183V66.1126c0-.1068-.0116-.1183-.1191-.1183h-.4749C110.899,65.9943,110.8866,65.97,110.8866,65.8751Z"/><path class="cls-9" d="M114.8037,65.0676h.8068c.1067,0,.1191.0232.1191.1183v4.9513c0,.0943-.0124.1183-.1191.1183h-.8068c-.1067,0-.1192-.024-.1192-.1183V65.1859C114.6845,65.0908,114.697,65.0676,114.8037,65.0676Zm-.3326-1.8279a.7352.7352,0,0,1,.7214-.7486h.015a.7473.7473,0,0,1,.7356.7372.766.766,0,0,1-.7356.7472A.747.747,0,0,1,114.4711,63.24Z"/><path class="cls-9" d="M119.7633,69.4247a1.7676,1.7676,0,1,0-1.6326-1.6326A1.7685,1.7685,0,0,0,119.7633,69.4247Zm0-4.4762a2.7127,2.7127,0,1,1-2.7064,2.719v-.0118A2.7109,2.7109,0,0,1,119.7633,64.9485Z"/><path class="cls-9" d="M128.1775,70.2555H127.37c-.1069,0-.1188-.024-.1188-.1183V67.1924c0-.8183-.297-1.2933-1.0677-1.2933a1.3739,1.3739,0,0,0-1.4012,1.5191v2.719c0,.0943-.0119.1183-.118.1183h-.8087c-.107,0-.1181-.024-.1181-.1183V65.1859c0-.1067.0111-.1183.1181-.1183h.8087c.1061,0,.118.0232.118.1183v.475c0,.0115.0127.024.0483.024.023,0,.0357,0,.0467-.0125a2.0458,2.0458,0,0,1,1.5549-.7239c1.4376,0,1.8645.8794,1.8645,2.0065v3.1822c0,.0943-.0119.1183-.1188.1183Z"/><path class="cls-9" d="M134.5109,65.8279a.62.62,0,0,0-.6952.5344c-.0025.0195-.0041.0392-.0048.0589,0,1.0327,2.47.6529,2.47,2.4335,0,.7124-.5228,1.5192-1.8154,1.5192a2.1172,2.1172,0,0,1-1.8289-.878.1631.1631,0,0,1-.0238-.0827.1218.1218,0,0,1,.0468-.0952l.4871-.4866c.0364-.0355.0594-.0487.0832-.0487s.0475.0132.0831.06a1.3308,1.3308,0,0,0,1.1746.6412c.5117,0,.7731-.2614.7731-.6056,0-.95-2.4459-.6413-2.4459-2.3979a1.54,1.54,0,0,1,1.5429-1.5371q.0591,0,.1181.0048a1.834,1.834,0,0,1,1.5912.7124.17.17,0,0,1,.0238.0827.1254.1254,0,0,1-.0475.096l-.4626.4632c-.0356.0357-.0594.0473-.0832.0473s-.0475-.0116-.0831-.06a1.0027,1.0027,0,0,0-.903-.4626Z"/><path class="cls-9" d="M140.7525,68.2019v-3.016c0-.0951.0126-.1183.12-.1183h.8071c.1069,0,.1188.0232.1188.1183v3.0875a2.1617,2.1617,0,0,1-4.3216,0V65.1859c0-.0951.0119-.1183.1189-.1183h.8071c.1069,0,.12.0232.12.1183v3.016a1.12,1.12,0,1,0,2.2305,0Z"/><path class="cls-9" d="M143.5041,65.0676h.8064c.1069,0,.12.0232.12.1183v4.9513c0,.0943-.0126.1183-.12.1183h-.8064c-.1069,0-.12-.024-.12-.1183V65.1859C143.3841,65.0908,143.3968,65.0676,143.5041,65.0676Zm-.3327-1.8279a.7348.7348,0,0,1,.7208-.7486h.0151a.7471.7471,0,0,1,.7358.7372.7657.7657,0,0,1-.7358.7472A.7474.7474,0,0,1,143.1714,63.24Z"/><path class="cls-9" d="M147.657,65.8279a.6193.6193,0,0,0-.695.5331c-.0027.02-.0043.04-.005.06,0,1.0327,2.4689.6529,2.4689,2.4335,0,.7124-.5219,1.5192-1.8162,1.5192a2.1156,2.1156,0,0,1-1.8273-.878.1631.1631,0,0,1-.0238-.0827.1218.1218,0,0,1,.0468-.0952l.4863-.4866c.0356-.0355.06-.0487.084-.0487s.0467.0132.0823.06a1.333,1.333,0,0,0,1.1755.6412c.51,0,.7723-.2614.7723-.6056,0-.95-2.446-.6413-2.446-2.3979a1.541,1.541,0,0,1,1.5452-1.537q.0584,0,.1166.0047a1.8343,1.8343,0,0,1,1.5913.7124.1794.1794,0,0,1,.0237.0827.1279.1279,0,0,1-.0475.096l-.4626.4632a.122.122,0,0,1-.0831.0473c-.0238,0-.0475-.0116-.0832-.06a1.0034,1.0034,0,0,0-.9029-.4626Z"/><path class="cls-9" d="M152.2137,65.8279a.62.62,0,0,0-.6959.5334q-.0039.03-.005.06c0,1.0327,2.4688.6529,2.4688,2.4335,0,.7124-.5219,1.5192-1.8154,1.5192a2.1161,2.1161,0,0,1-1.8281-.878.1625.1625,0,0,1-.0245-.0827.1226.1226,0,0,1,.0475-.0952l.4863-.4866c.0364-.0355.0594-.0487.084-.0487s.0467.0132.0823.06a1.3341,1.3341,0,0,0,1.1763.6412c.51,0,.7715-.2614.7715-.6056,0-.95-2.446-.6413-2.446-2.3979a1.5414,1.5414,0,0,1,1.5455-1.5371q.0586,0,.1171.0048a1.8335,1.8335,0,0,1,1.59.7124.1794.1794,0,0,1,.0237.0827.1279.1279,0,0,1-.0475.096l-.4626.4632a.122.122,0,0,1-.0831.0473c-.0238,0-.0483-.0116-.0832-.06a1.0024,1.0024,0,0,0-.9022-.4626Z"/><path class="cls-9" d="M155.9983,67.1569c0,.1067.0118.119.1188.119h2.5409c.1307,0,.1307-.0123.1181-.119a1.3029,1.3029,0,0,0-1.3328-1.2721l-.0328.0012A1.41,1.41,0,0,0,155.9983,67.1569Zm1.6974,2.2678a2.4217,2.4217,0,0,0,1.5081-.4988c.0119-.0117.0356-.0472.0713-.0472s.0475.0355.0475.1191v.8184a.1785.1785,0,0,1-.0958.1662,2.8362,2.8362,0,0,1-1.5311.3915,2.7185,2.7185,0,0,1-.2852-5.4254,2.4474,2.4474,0,0,1,2.4222,2.7072v.3319c0,.0951-.0119.1191-.118.1191h-3.5271c-.1062,0-.13.0116-.13.1067.0831.7488.6891,1.2113,1.638,1.2113Z"/><path class="cls-9" d="M166.6073,65.8991a1.7685,1.7685,0,1,0,1.62,1.9052q.006-.0742.0057-.1486a1.6652,1.6652,0,0,0-1.5707-1.7545Zm1.7449-4.5474h.8071c.107,0,.1189.0239.1189.119v8.6665c0,.0943-.0119.1183-.1189.1183h-.8071c-.1069,0-.1188-.024-.1188-.1183v-.475c0-.0124-.0119-.0239-.0475-.0239-.023,0-.0357,0-.0475.0115a2.2879,2.2879,0,0,1-1.6737.7241,2.7163,2.7163,0,0,1,0-5.4254,2.2256,2.2256,0,0,1,1.6737.7239c.0118.0125.0245.0125.0475.0125.0356,0,.0475-.0125.0475-.024v-4.19c0-.0951.0119-.119.1188-.119Z"/><path class="cls-9" d="M171.6607,67.1569c0,.1067.0111.119.118.119h2.541c.1307,0,.1307-.0123.118-.119a1.3019,1.3019,0,0,0-1.3311-1.2721l-.0328.0012a1.4111,1.4111,0,0,0-1.4131,1.2709Zm1.6974,2.2678a2.4256,2.4256,0,0,0,1.5089-.4988c.0111-.0117.0349-.0472.0705-.0472s.0475.0355.0475.1191v.8184a.1791.1791,0,0,1-.095.1662,2.8411,2.8411,0,0,1-1.5319.3915,2.7185,2.7185,0,0,1-.2843-5.4254,2.4483,2.4483,0,0,1,2.4213,2.7072v.3319c0,.0951-.0111.1191-.118.1191H171.85c-.1069,0-.13.0116-.13.1067.0824.7488.6891,1.2113,1.638,1.2113Z"/><path class="cls-9" d="M178.341,65.8279a.62.62,0,0,0-.6951.5344c-.0026.0195-.0042.0392-.0049.0589,0,1.0327,2.47.6529,2.47,2.4335,0,.7124-.5227,1.5192-1.8162,1.5192a2.1162,2.1162,0,0,1-1.8281-.878.163.163,0,0,1-.0237-.0827.1217.1217,0,0,1,.0467-.0952l.4871-.4866c.0357-.0355.0594-.0487.0832-.0487s.0475.0132.0831.06a1.3309,1.3309,0,0,0,1.1747.6412c.5109,0,.773-.2614.773-.6056,0-.95-2.4459-.6413-2.4459-2.3979a1.54,1.54,0,0,1,1.543-1.5371q.0591,0,.118.0048a1.8342,1.8342,0,0,1,1.5913.7124.1711.1711,0,0,1,.0237.0827.1251.1251,0,0,1-.0475.096l-.4626.4632c-.0356.0357-.0593.0473-.0831.0473s-.0475-.0116-.0832-.06a1.0027,1.0027,0,0,0-.903-.4626Z"/><path class="cls-9" d="M79.4687,80.9272c-.7009,0-1.175.3794-1.175.937,0,.57.4386.9616,1.175.9616a1.2094,1.2094,0,0,0,1.2225-1.0566C80.6912,81.2583,80.1212,80.9272,79.4687,80.9272Zm-.2019-.8317a2.2557,2.2557,0,0,1,1.3532.4151.0706.0706,0,0,0,.0472.0118c.0356,0,.048-.0356.048-.0831v-.2725c0-.6653-.38-1.0329-1.235-1.0329a2.0264,2.0264,0,0,0-1.2349.38.1056.1056,0,0,1-.0827.0356c-.0356,0-.048-.0356-.048-.0951v-.7238a.1669.1669,0,0,1,.0952-.1424,2.5738,2.5738,0,0,1,1.3656-.3326c1.8285,0,2.16,1.01,2.16,1.899v3.2887c0,.0943-.0116.1188-.1183.1188h-.7484c-.1067,0-.1184-.0245-.1184-.1188V83.04c0-.0119-.0123-.0246-.0479-.0246-.0232,0-.0356,0-.0472.0127a1.7521,1.7521,0,0,1-1.3888.6519,1.8091,1.8091,0,0,1-1.9851-1.6141c-.0056-.0551-.0088-.1105-.0094-.1659a1.8294,1.8294,0,0,1,1.8469-1.8118q.0739.0007.1476.0074Z"/><path class="cls-9" d="M84.9378,81.46a.07.07,0,0,0,.0715-.0357l1.21-2.932c.0472-.0951.06-.1183.154-.1183h.9146c.1184,0,.1184.0355.0828.1183l-2.3619,5.1752c-.0356.0713-.0828.1069-.12.1069s-.0711-.0356-.1067-.1069l-2.2552-5.1752c-.0472-.0951-.0356-.1183.0828-.1183h.9147c.0951,0,.1067.0232.1539.1183l1.1873,2.932a.07.07,0,0,0,.0712.0357Z"/><path class="cls-9" d="M89.0076,80.4634c0,.1061.0116.1188.1184.1188h2.5409c.1307,0,.1307-.0127.1183-.1188a1.3017,1.3017,0,0,0-1.3315-1.2712l-.0335.0012a1.4093,1.4093,0,0,0-1.4127,1.27Zm1.6974,2.2677a2.4246,2.4246,0,0,0,1.508-.4983c.0116-.0126.0355-.0483.0712-.0483s.0471.0357.0471.12v.8182a.1785.1785,0,0,1-.0951.1664,2.84,2.84,0,0,1-1.5312.3913,2.7181,2.7181,0,0,1-.2847-5.4246,2.4471,2.4471,0,0,1,2.4216,2.7069v.3319c0,.0959-.0113.12-.1184.12H89.1971c-.1068,0-.13.0111-.13.107.0828.7477.6885,1.21,1.6379,1.21Z"/><path class="cls-9" d="M97.3263,81.5086v-3.016c0-.0951.0123-.1183.1191-.1183h.8075c.1068,0,.1191.0232.1191.1183V81.58a2.1617,2.1617,0,0,1-4.3216,0V78.4926c0-.0951.0117-.1183.1184-.1183h.8067c.1068,0,.12.0232.12.1183v3.016a1.12,1.12,0,1,0,2.2312,0Z"/><path class="cls-9" d="M102.2264,82.7308a1.7686,1.7686,0,1,0-1.6209-1.9049q-.0054.0679-.0057.1361a1.6617,1.6617,0,0,0,1.551,1.7656C102.176,82.7293,102.2012,82.73,102.2264,82.7308Zm-1.7573,2.9441v-.8784c0-.0832.0123-.1188.0479-.1188a.1859.1859,0,0,1,.0712.0356A2.8473,2.8473,0,0,0,102.25,85.2c1.127,0,1.6267-.522,1.6267-1.8044v-.4269c0-.0127-.0132-.0246-.0487-.0246-.0232,0-.0356,0-.0472.0119a2.2011,2.2011,0,0,1-1.6731.724,2.7159,2.7159,0,0,1,0-5.4246,2.2045,2.2045,0,0,1,1.6731.724c.0116.0125.024.0125.0472.0125.0355,0,.0487-.0125.0487-.0241v-.4749c0-.0951.0109-.1183.1183-.1183h.8076c.1067,0,.1184.0232.1184.1183v4.8552c0,1.8162-.89,2.8016-2.6594,2.8016a3.8063,3.8063,0,0,1-1.6862-.3327A.16.16,0,0,1,100.4691,85.6749Z"/><path class="cls-9" d="M106.7221,74.6576h.8067c.1068,0,.12.0239.12.1191v8.6661c0,.0943-.0131.1188-.12.1188h-.8067c-.1068,0-.1191-.0245-.1191-.1188V74.7767C106.603,74.6815,106.6153,74.6576,106.7221,74.6576Z"/><path class="cls-9" d="M110.08,80.4634c0,.1061.0116.1188.1183.1188h2.541c.1307,0,.1307-.0127.1183-.1188a1.3015,1.3015,0,0,0-1.3309-1.2712l-.0336.0012A1.41,1.41,0,0,0,110.08,80.4634Zm1.6978,2.2677a2.4235,2.4235,0,0,0,1.5076-.4983c.0116-.0126.0355-.0483.0712-.0483s.0471.0357.0471.12v.8182a.1785.1785,0,0,1-.0951.1664,2.8372,2.8372,0,0,1-1.5308.3913,2.7181,2.7181,0,0,1-.2847-5.4246,2.4471,2.4471,0,0,1,2.4212,2.7069v.3319c0,.0959-.0117.12-.1184.12H110.27c-.1068,0-.13.0111-.13.107.0828.7477.6885,1.21,1.6383,1.21Z"/><path class="cls-9" d="M116.76,79.1339a.6192.6192,0,0,0-.695.5329c-.0027.02-.0043.04-.005.06,0,1.0329,2.4691.6527,2.4691,2.4333,0,.7128-.5222,1.5192-1.8162,1.5192a2.1161,2.1161,0,0,1-1.8278-.8777.168.168,0,0,1-.024-.0831.1226.1226,0,0,1,.0472-.0951l.4865-.4863c.0356-.0356.06-.0483.0836-.0483s.0471.0127.0827.0594a1.3319,1.3319,0,0,0,1.175.6416c.51,0,.772-.2614.772-.606,0-.9489-2.4451-.64-2.4451-2.3976a1.54,1.54,0,0,1,1.5437-1.5363q.0589,0,.1178.0048a1.8346,1.8346,0,0,1,1.5911.7124.1751.1751,0,0,1,.024.0828.1239.1239,0,0,1-.048.0952l-.4626.4629c-.0355.0356-.0595.0475-.0827.0475s-.048-.0119-.0835-.0594A1.0037,1.0037,0,0,0,116.76,79.1339Z"/><path class="cls-9" d="M123.6777,80.4634c0,.1061.0111.1188.1181.1188h2.5409c.1307,0,.1307-.0127.118-.1188a1.3005,1.3005,0,0,0-1.3293-1.2712l-.0346.0012a1.4091,1.4091,0,0,0-1.4131,1.27Zm1.6975,2.2677a2.42,2.42,0,0,0,1.5073-.4983c.0118-.0126.0356-.0483.0713-.0483s.0475.0357.0475.12v.8182a.1792.1792,0,0,1-.0951.1664,2.837,2.837,0,0,1-1.531.3913,2.7181,2.7181,0,0,1-.2844-5.4246,2.4471,2.4471,0,0,1,2.4214,2.7069v.3319c0,.0959-.0111.12-.1188.12H123.867c-.1069,0-.13.0111-.13.107.0824.7477.6884,1.21,1.6381,1.21Z"/><path class="cls-9" d="M128.3644,79.181v-.6884c0-.0951.0119-.1183.1188-.1183h.4745c.1069,0,.1188-.0124.1188-.1192V76.6764a.204.204,0,0,1,.118-.19l.7723-.4749c.0356-.0117.0475-.0356.0824-.0356s.06.0356.06.0952v2.1843c0,.1068.0111.1192.118.1192h.7239c.107,0,.12.0232.12.1183v.6884c0,.0955-.0134.1193-.12.1193h-.7239c-.1069,0-.118.0111-.118.118v4.0245c0,.0943-.0127.1188-.12.1188h-.7953c-.1061,0-.118-.0245-.118-.1188V79.4183c0-.1069-.0119-.118-.1188-.118h-.4745c-.1069,0-.1188-.0238-.1188-.1193Z"/><path class="cls-9" d="M139.4249,79.1934a.0927.0927,0,0,0,.0476-.0239,2.145,2.145,0,0,1,1.6625-.9143c1.436,0,1.8749.8788,1.8749,2.006v3.1817c0,.0943-.0119.1188-.1189.1188h-.8063c-.1069,0-.12-.0245-.12-.1188V80.4987c0-.819-.2368-1.2937-1.0083-1.2937-.8079,0-1.318.5579-1.318,1.5194v2.7184c0,.0943-.0119.1188-.1188.1188h-.8071c-.107,0-.1181-.0245-.1181-.1188V80.4987c0-.819-.2376-1.2937-1.0106-1.2937-.8064,0-1.3173.5579-1.3173,1.5194v2.7184c0,.0943-.0118.1188-.118.1188h-.8079c-.1069,0-.118-.0245-.118-.1188v-4.95c0-.0951.0111-.1183.118-.1183h.8079c.1062,0,.118.0232.118.1183v.4749c0,.0116.0127.0241.0484.0241.0229,0,.0356,0,.0467-.0125a1.7813,1.7813,0,0,1,1.4241-.724,1.4938,1.4938,0,0,1,1.5913.9143.0627.0627,0,0,0,.0475.0239Z"/><path class="cls-9" d="M146.388,80.9272c-.7,0-1.1746.3794-1.1746.937,0,.57.4388.9616,1.1746.9616a1.2089,1.2089,0,0,0,1.2222-1.0566C147.61,81.2583,147.0407,80.9272,146.388,80.9272Zm-.2011-.8317a2.2585,2.2585,0,0,1,1.3528.4151.0689.0689,0,0,0,.0468.0118c.0356,0,.0483-.0356.0483-.0831v-.2725c0-.6653-.38-1.0329-1.2349-1.0329a2.0255,2.0255,0,0,0-1.2348.38.1053.1053,0,0,1-.0824.0356c-.0356,0-.0491-.0356-.0491-.0951v-.7238a.1661.1661,0,0,1,.0966-.1424,2.57,2.57,0,0,1,1.3648-.3326c1.8289,0,2.1607,1.01,2.1607,1.899v3.2887c0,.0943-.0118.1188-.1188.1188h-.7485c-.1069,0-.118-.0245-.118-.1188V83.04c0-.0119-.0127-.0246-.0483-.0246-.023,0-.0356,0-.0475.0127a1.75,1.75,0,0,1-1.3877.6519,1.81,1.81,0,0,1-1.9859-1.6151q-.0084-.0822-.0094-.1649a1.83,1.83,0,0,1,1.848-1.8118c.0492.0005.0984.003.1473.0074Z"/><path class="cls-9" d="M150.4094,74.6576h.8063c.107,0,.12.0239.12.1191v8.6661c0,.0943-.0126.1188-.12.1188h-.8063c-.1069,0-.12-.0245-.12-.1188V74.7767C150.2894,74.6815,150.3021,74.6576,150.4094,74.6576Z"/><path class="cls-9" d="M154.8,81.46a.07.07,0,0,0,.07-.0357l1.2118-2.932c.0467-.0951.0594-.1183.1537-.1183h.914c.1189,0,.1189.0355.0832.1183L154.87,83.6678c-.0357.0713-.0824.1069-.1181.1069s-.072-.0356-.1077-.1069L152.39,78.4926c-.0476-.0951-.0357-.1183.0831-.1183h.9133c.095,0,.1069.0232.1544.1183l1.1874,2.932a.07.07,0,0,0,.0713.0357Z"/><path class="cls-9" d="M160.4727,82.7308a1.7677,1.7677,0,1,0-1.6327-1.6327A1.7687,1.7687,0,0,0,160.4727,82.7308Zm0-4.4757a2.7123,2.7123,0,1,1-2.7065,2.7181V80.962A2.71,2.71,0,0,1,160.4727,78.2551Z"/><path class="cls-9" d="M166.31,82.0306a.0647.0647,0,0,0,.0467-.0357l1.3893-3.5023c.0475-.0951.0586-.1183.1544-.1183h.8911c.0705,0,.1062.0115.1062.0471a.4958.4958,0,0,0-.0238.0712l-3.0748,7.5617c-.0468.0951-.0586.12-.1537.12h-.8792c-.0713,0-.1069-.0127-.1069-.0483a.3531.3531,0,0,0,.0237-.0713l1.0448-2.5877c.0127-.0119.0127-.0356.0127-.0594s0-.0475-.0127-.0594l-1.9945-4.8552a.4441.4441,0,0,0-.0229-.0712c0-.0356.0348-.0471.1061-.0471h.9141c.095,0,.1061.0232.1544.1183l1.3774,3.5023c.0119.023.023.0357.0476.0357Z"/><path class="cls-9" d="M171.5189,80.9272c-.701,0-1.1746.3794-1.1746.937,0,.57.438.9616,1.1746.9616a1.21,1.21,0,0,0,1.223-1.0566C172.7419,81.2583,172.1719,80.9272,171.5189,80.9272Zm-.202-.8317a2.2556,2.2556,0,0,1,1.3537.4151.0715.0715,0,0,0,.0475.0118c.0357,0,.0475-.0356.0475-.0831v-.2725c0-.6653-.3794-1.0329-1.2348-1.0329a2.0255,2.0255,0,0,0-1.2348.38.1064.1064,0,0,1-.0824.0356c-.0356,0-.0483-.0356-.0483-.0951v-.7238a.1671.1671,0,0,1,.095-.1424,2.5738,2.5738,0,0,1,1.3664-.3326c1.8273,0,2.1591,1.01,2.1591,1.899v3.2887c0,.0943-.011.1188-.118.1188h-.7485c-.1061,0-.118-.0245-.118-.1188V83.04c0-.0119-.0127-.0246-.0475-.0246-.0238,0-.0357,0-.0476.0127a1.7525,1.7525,0,0,1-1.3893.6519,1.8091,1.8091,0,0,1-1.985-1.6142q-.0085-.0827-.0094-.1658a1.83,1.83,0,0,1,1.8481-1.8117c.0488.0005.0977.0029.1463.0073Z"/><path class="cls-9" d="M179.8143,83.5616h-.8079c-.1069,0-.118-.0245-.118-.1188V80.4987c0-.819-.2971-1.2937-1.0693-1.2937a1.3744,1.3744,0,0,0-1.4012,1.5194v2.7184c0,.0943-.0111.1188-.118.1188h-.8079c-.107,0-.1188-.0245-.1188-.1188v-4.95c0-.1068.0118-.1183.1188-.1183H176.3c.1069,0,.118.0232.118.1183v.4749c0,.0116.0127.0241.0483.0241.023,0,.0357,0,.0475-.0125a2.0432,2.0432,0,0,1,1.5541-.724c1.4376,0,1.8645.8788,1.8645,2.006V83.443c0,.0943-.0119.1188-.118.1188Z"/><path class="cls-9" d="M181.0444,79.181v-.6884c0-.0951.0127-.1183.12-.1183h.4737c.1077,0,.12-.0124.12-.1192V76.6764a.2037.2037,0,0,1,.118-.19l.773-.4749c.0357-.0117.0468-.0356.0824-.0356s.0594.0356.0594.0952v2.1843c0,.1068.0119.1192.1188.1192h.724c.1069,0,.1188.0232.1188.1183v.6884c0,.0955-.0119.1193-.1188.1193h-.724c-.1069,0-.1188.0111-.1188.118v4.0245c0,.0943-.0119.1188-.1188.1188h-.796c-.1069,0-.118-.0245-.118-.1188V79.4183c0-.1069-.0119-.118-.12-.118h-.4737c-.1069,0-.12-.0238-.12-.1193Z"/><path class="cls-9" d="M186.3148,79.1339a.6192.6192,0,0,0-.695.5329c-.0027.02-.0043.04-.005.06,0,1.0329,2.4682.6527,2.4682,2.4333,0,.7128-.522,1.5192-1.8155,1.5192a2.1185,2.1185,0,0,1-1.8289-.8777.174.174,0,0,1-.0237-.0831.1223.1223,0,0,1,.0475-.0951l.4863-.4863c.0365-.0356.0594-.0483.0832-.0483s.0475.0127.0832.0594a1.3332,1.3332,0,0,0,1.1754.6416c.5109,0,.7723-.2614.7723-.606,0-.9489-2.4459-.64-2.4459-2.3976a1.5405,1.5405,0,0,1,1.5449-1.5363c.0392,0,.0785.0017.1176.0048a1.8335,1.8335,0,0,1,1.59.7124.18.18,0,0,1,.0238.0828.1238.1238,0,0,1-.0484.0952l-.4625.4629c-.0357.0356-.0594.0475-.0824.0475-.0246,0-.0483-.0119-.084-.0594a1.0012,1.0012,0,0,0-.9014-.4626Z"/><path class="cls-9" d="M117.07,9.382c0-.1725.0194-.1919.1919-.1919h7.4843c.1735,0,.1917.0194.1917.1919v2.1495c0,.1725-.0182.1918-.1917.1918h-4.6827c-.1719,0-.1917.0194-.1917.1911v3.5133c0,.1717.02.1918.1917.1918h4.51c.1726,0,.1924.0186.1924.1911v2.1109c0,.1733-.02.1926-.1924.1926h-4.51c-.1719,0-.1917.0185-.1917.1918v4.1259c0,.1733-.02.1918-.1909.1918h-2.419c-.1725,0-.1919-.0185-.1919-.1918V9.382Z"/><path class="cls-9" d="M130.9062,20.36a1.5078,1.5078,0,0,0,1.6657-1.3311l.0048-.0512c0-2.476-5.72-2.0537-5.72-6.2754,0-2.1118,1.7663-3.7617,4.3184-3.7617a5.108,5.108,0,0,1,4.1457,1.9192.2534.2534,0,0,1,.0578.1345.2893.2893,0,0,1-.0958.1539l-1.8622,1.42c-.0578.0565-.0958.0959-.1346.0959-.057,0-.0761-.02-.1347-.1152a1.9968,1.9968,0,0,0-1.8606-1.1131,1.3113,1.3113,0,0,0-1.45,1.156c-.0049.043-.0076.0863-.0082.13,0,2.2068,5.7948,1.8038,5.7948,6.2182,0,2.2641-1.6308,3.9333-4.6439,3.9333a5.6052,5.6052,0,0,1-4.6827-2.36.31.31,0,0,1-.0578-.1531c0-.0387.02-.0774.0958-.1346l1.9-1.4589c.0768-.0572.1156-.0766.1544-.0766.0571,0,.0753.0194.1339.1153a2.7481,2.7481,0,0,0,2.3786,1.5548Z"/><path class="cls-9" d="M142.4514,14.7741a.1413.1413,0,0,0-.1164-.0573.1375.1375,0,0,0-.1148.0573l-1.2475,3.4738a.2112.2112,0,0,0-.0191.0959c0,.058.0191.0774.1339.0774h2.5148c.1149,0,.1529,0,.1529-.0581a.21.21,0,0,0-.019-.0959l-1.2848-3.4931Zm-.2891-5.7951a.2212.2212,0,0,1,.2115-.1153.1931.1931,0,0,1,.1917.1153l5.6031,13.4528a.2662.2662,0,0,1,.0206.1152c0,.0581-.0206.0766-.1354.0766h-2.6669c-.1537,0-.1917-.0379-.2495-.1918l-.6527-1.6886c-.057-.1732-.0958-.1918-.2305-.1918h-3.8186c-.1338,0-.1917.0379-.25.1918l-.6328,1.6886c-.0571.1539-.0967.1918-.23.1918h-2.61c-.1157,0-.1537-.0185-.1537-.0766a.4225.4225,0,0,1,.038-.1152L142.1625,8.979Z"/><circle class="cls-2" cx="65.1251" cy="19.9173" r="2.96"/><circle class="cls-10" cx="64.9898" cy="11.9226" r="2.9676"/><path class="cls-2" d="M59.4015,19.9179A2.9482,2.9482,0,0,0,56.6,16.9892h0A59.6394,59.6394,0,0,0,19.81,31.6334,58.19,58.19,0,0,0,.9238,65.8528,56.8774,56.8774,0,0,0,36.88,128.4882a56.9012,56.9012,0,0,1-16.11-10.3541A56.08,56.08,0,0,1,9.1276,103.0982a54.3377,54.3377,0,0,1,47.5786-80.26h0A2.9476,2.9476,0,0,0,59.4015,19.9179Z"/><path class="cls-10" d="M59.4015,11.8014a2.9335,2.9335,0,0,0-2.8407-2.9158h0A59.6388,59.6388,0,0,0,19.77,23.53,58.187,58.187,0,0,0,.8843,57.7492,56.8771,56.8771,0,0,0,36.84,120.3846a56.9008,56.9008,0,0,1-16.11-10.354A56.0916,56.0916,0,0,1,9.0876,94.9946a54.3379,54.3379,0,0,1,47.5786-80.26h0A2.9555,2.9555,0,0,0,59.4015,11.8014Z"/><path class="cls-9" d="M56.56,5.849A53.9667,53.9667,0,0,0,3.6552,49.3912,54.3221,54.3221,0,0,0,8.9816,86.109a56.088,56.088,0,0,0,11.6426,15.036,56.9008,56.9008,0,0,0,16.11,10.354A56.8766,56.8766,0,0,1,.7785,48.8634,58.1882,58.1882,0,0,1,19.664,14.6444,59.6387,59.6387,0,0,1,56.455,0Z"/></svg>